<?xml version="1.0" standalone="no"?>
<!DOCTYPE svg PUBLIC "-//W3C//DTD SVG 1.1//EN" "http://www.w3.org/Graphics/SVG/1.1/DTD/svg11.dtd" >
<svg xmlns="http://www.w3.org/2000/svg">
<metadata></metadata>
<defs>
<font id="LandliebeRegular" horiz-adv-x="1069" >
<font-face units-per-em="2048" ascent="1638" descent="-410" />
<missing-glyph horiz-adv-x="380" />
<glyph horiz-adv-x="0" />
<glyph horiz-adv-x="2048" />
<glyph unicode=" "  horiz-adv-x="380" />
<glyph unicode="&#x09;" horiz-adv-x="380" />
<glyph unicode="&#xa0;" horiz-adv-x="380" />
<glyph unicode="!" horiz-adv-x="847" d="M88 -16q10 -18 27 -25q72 4 127 43q16 16 25 34.5t28 33.5q23 37 32 87t-20 87q-23 35 -55.5 27.5t-61.5 -23.5q-75 -59 -75 -121q-31 -51 -19 -113q-10 -14 -8 -30zM227 397q19 -26 41.5 -16t35.5 18.5t32 8.5t40 -11.5t40.5 -0.5t27.5 38q-12 66 18 120t64 105 q23 53 49.5 105.5t51.5 105.5q20 35 35.5 71t33.5 71q41 83 86 133q12 16 21.5 31.5t3.5 35.5q-10 14 -29 17q-33 -6 -60.5 -24.5t-60.5 -24.5q-25 -10 -51 -3t-51 3q-27 -23 -35 -52.5t-18 -60.5q-14 -68 -44 -127t-57 -114.5t-58.5 -101.5t-36.5 -90t-24.5 -66.5 t-33.5 -47.5q-8 -29 -20.5 -60.5t-0.5 -62.5z" />
<glyph unicode="&#x22;" horiz-adv-x="604" d="M70 1280q12 0 35.5 -104.5t32.5 -142.5q21 -90 24 -93q0 14 17.5 93t27.5 128q25 121 37 121l-14 20q-15 19 -32 42q-27 37 -40 53q2 0 -13.5 -18.5t-32.5 -40.5q-48 -58 -42 -58zM361.5 1272q4.5 0 12 -22.5t15.5 -58.5t16.5 -78t15.5 -79q16 -85 19 -88l12 52 q20 80 49.5 178t33.5 98t-10.5 20.5t-31 45t-29.5 43t-9 14.5l-15 -21q-14 -20 -32 -42q-51 -62 -46.5 -62z" />
<glyph unicode="%" horiz-adv-x="1259" d="M-39 -193q6 -14 17.5 -17t21.5 -7q21 0 41 27q23 18 52.5 19t54 4t37 14.5t18.5 26.5t9 33.5t7 33.5q27 59 49.5 116.5t65.5 108.5q43 115 92 164q27 33 43 69.5t39 71.5q15 37 68 69q54 33 73 64q68 96 132.5 190.5t129.5 188.5q53 88 109.5 174t128.5 158 q8 14 22.5 24.5t26.5 21.5q30 27 23 58l-15 13q-47 6 -123 -31q-23 -8 -50 -4t-48 -13q-64 -85 -92 -129q-102 -191 -295 -485q-41 -72 -86 -139.5t-90 -136.5q-107 -163 -166 -277q-202 -238 -289 -373q-12 -23 -6 -37zM61 889q-5 -86 39 -137q29 -27 52.5 -56.5 t60.5 -35.5q63 -12 147 18q103 58 150 117q12 27 28.5 53t29.5 53q33 65 30 117q-8 27 -16.5 54.5t2.5 55.5q-10 57 -49 82q-41 20 -89.5 18.5t-95.5 6.5q-16 -2 -30.5 -9t-52 -21t-93 -64.5t-74 -96t-28 -82t-11.5 -73.5zM209 846q4 33 15.5 62.5t21.5 60.5q23 37 39 75.5 t45 73.5q46 32 147 21q18 -4 23 -23v-67q0 -35 6 -70q-25 -115 -123 -193q-82 -40 -135 -8q-35 17 -39 68zM657 272q-28 -100 48 -211q42 -75 137 -75q51 -12 91 11q85 49 95 70t16 35q14 39 33 54q16 55 37 107t29 110q-8 24 1 52q17 53 5 77q-12 10 -18.5 26.5t-13.5 30.5 q-19 37 -48 37q-18 -10 -40.5 -12t-45.5 -6q-37 -23 -77 -40.5t-77 -45.5q-136 -121 -172 -220zM833 201.5q14 63.5 48 118.5t46.5 91.5t19.5 40t16 3.5q24 0 35 8t21.5 23.5t31.5 5.5l14 -17q4 -31 -4 -60.5t2 -58.5q-10 -43 -29.5 -81.5t-27.5 -72.5t-30 -50.5t-32 -38.5 q-23 -16 -48.5 -8t-47.5 14q-29 19 -15 82.5z" />
<glyph unicode="&#x26;" horiz-adv-x="1099" d="M-62 -163q3 -38 31 -62q102 -84 277 -84q65 -6 125.5 20.5t95.5 45t72 32.5q35 20 55 52t53 48q124 72 109 261q35 25 59.5 57.5t48.5 64.5q41 47 59.5 100.5t30.5 108.5q26 79 -22 146q-10 6 -19.5 12t-23.5 8q-20 3 -43 -35q-14 -41 14 -71q8 -4 16.5 0t12.5 2 q5 -57 -33 -158q-29 -31 -50.5 -67.5t-53.5 -67.5q-18 115 -53 218t-64 214q35 25 71.5 45.5t73.5 42.5q91 56 131 113q31 63 71 121.5t56 128.5q8 80 -26 151q-16 29 -64 39l-51 -4q-66 18 -128 -1.5t-118 -45.5q-158 -90 -209 -242q-18 -51 -16 -106q12 -51 12 -105 q0 -53 17 -102q-16 -16 -35 -11t-58 -7q-121 -37 -200 -124q-76 -94 -102.5 -218t6.5 -240q16 -51 61 -87t96 -46q41 -29 94.5 -32t96.5 23q35 35 79 45.5t87 26.5q17 -92 -88 -192q-43 -16 -83 -43t-85 -39q-148 -22 -254 24q-18 10 -37 20.5t-21 26.5t1 19.5t9.5 4.5 t12.5 0t10 3q16 0 19.5 11.5t7.5 23.5q10 31 -9 43q-29 18 -81 6q-20 -10 -33.5 -45t-10.5 -73zM301 211q9 178 76 285q18 29 39.5 57.5t56.5 42.5l4 -14q16 -90 48 -172t40 -177q10 -51 10 -98q-43 -18 -90 -28.5t-82 -38.5q-45 -17 -69 0q-22 31 -24.5 78t-8.5 65z M612 776q-26 156 107 321q119 147 184 154q20 2 43 -12q36 -50 -8 -160q-33 -57 -65.5 -115.5t-80.5 -93.5q-99 -71 -176 -98z" />
<glyph unicode="'" horiz-adv-x="462" d="M135 1262q11 6 31 -95.5t27.5 -138.5t11.5 -62.5t6 -27.5l13 51q30 123 54.5 200t30.5 77l-14 20q-14 21 -30.5 45.5t-29 43t-8.5 14.5l-15 -21q-15 -20 -34 -44q-47 -62 -43 -62z" />
<glyph unicode="(" horiz-adv-x="741" d="M72 208q9 -159 63 -269q2 -14 1 -31t3 -33q14 -20 28.5 -40.5t43.5 -24.5q8 4 16.5 6t19.5 22q17 32 -24 111q-6 295 103 708q6 16 17 28.5t22 29.5q98 303 378 583q18 12 43 24.5t46 27.5q48 34 45 82l-15 10q-43 4 -77.5 -16.5t-69.5 -43.5q-61 -27 -114.5 -69.5 t-106.5 -89.5q-72 -76 -140.5 -152t-111 -148.5t-77 -130t-56.5 -120.5q2 -47 -11.5 -88t-17.5 -100.5t-8 -132t0 -143.5z" />
<glyph unicode=")" horiz-adv-x="817" d="M-78 -216q-2 -7 2 -15q10 -8 20.5 -18.5t26.5 -6.5q23 16 50.5 35.5t31.5 52.5q41 39 75 79t69 81q10 27 34.5 37t42.5 26q144 144 240 289q74 92 121 197.5t84 216.5q10 39 24.5 81t-4.5 83q24 134 -21 336q-16 75 -61 139q-25 14 -42 37.5t-46 25.5q-10 -2 -14 -16 q4 -29 11 -56.5t13 -120t-10 -240.5t-57 -290q-6 -16 -17.5 -31.5t-19.5 -31.5q-29 -78 -53.5 -159t-71.5 -153q-69 -89 -121 -225q-14 -33 -71 -61q-37 -45 -73 -87t-71 -87q-25 -25 -42 -54.5t-46 -48.5q-2 -8 -4 -15z" />
<glyph unicode="*" horiz-adv-x="716" d="M78 1034q-8 -25 8 -43t23.5 -33.5t6.5 -27.5l-2 -24q-2 -27 25 -32q23 0 35 13q29 47 71 76.5t81 60.5q-4 -34 -33 -117q-10 -18 -23.5 -35.5t-17.5 -40.5q13 -39 76 -17q33 11 48 2t30 -3q10 10 20 18.5t6 24.5t-20.5 20.5t-20.5 20.5l-10 113l4 6l45 -29 q23 -13 37 -45.5t25.5 -46.5t31.5 -21q10 4 17.5 6.5t13.5 10.5q2 23 18.5 37t32.5 26q16 23 2 43q-23 12 -51.5 10.5t-50.5 16.5q-16 8 -35.5 13t-36.5 20q57 31 131 41q57 0 86 16q10 20 -1 38.5t-19 35.5l-2 61q-14 27 -41 23q-12 0 -15.5 -12.5t-13.5 -18.5 q-23 -51 -69 -77.5t-87 -57.5h-8q10 33 19.5 66.5t21.5 56t22.5 32t20.5 18.5q23 21 17 46l-7 8q-21 4 -62 -1t-60 -2t-35 -7q-12 -27 -6 -47q20 -29 15 -68t-5 -71l-4 -9l-51 54q-13 9 -23 35t-16 37.5t-21 19.5q-12 2 -18 -4q-12 -32 -45 -59t-41 -42q-4 -16 7 -27 q17 -17 69 -12q31 -14 60.5 -25t51.5 -32q-20 -14 -46 -18t-45 -11.5t-36.5 -5.5t-34 5.5t-32.5 3.5t-33 -13z" />
<glyph unicode="+" horiz-adv-x="1060" d="M84 483q2 -18 14 -26q25 -4 80 20q53 8 106.5 15.5t106.5 17.5l90 -6q-14 -35 -24.5 -72t-21.5 -72q-25 -81 -70 -135q-2 -8 -7.5 -14t0.5 -17t15.5 -14.5t21 -2.5t22.5 4t24 2t33 -5t38 -6q42 -5 63 21q8 16 9 36q0 20 -6 37q12 36 8 94t-4 89t10 61q41 4 88 11t86 -15 q47 -12 91 -8t93 0q18 8 19 30q-4 27 5 48.5t13 44.5q26 43 5 61q-16 13 -59.5 -13t-76.5 -36h-65q-47 -2 -89.5 -16.5t-87.5 -20.5l-6 4q9 54 31 74q16 45 29.5 89t36.5 85q16 14 31.5 23.5t31.5 27.5q16 39 7 50.5t-32 11.5q-43 -16 -92 -14.5t-79 -0.5q-54 -4 -64 -16 q-12 -23 -12 -50.5t9 -53.5t25.5 -49t20.5 -54q-27 -31 -31 -70t-14 -78q-16 0 -27.5 9.5t-21.5 15.5q-59 -6 -121 -5t-113 30q-11 23 -34 17.5t-30 -29t-19.5 -45.5t-29 -42t-26.5 -43z" />
<glyph unicode="," horiz-adv-x="389" d="M43 57q-5 -73 35 -94q31 -20 64.5 -10t62.5 22l2 -2q-28 -82 -56 -105.5t-49 -39.5q-49 -39 -49 -82q8 -23 23.5 -27t27 1.5t20.5 15.5t17.5 22.5t18.5 22.5q99 82 168 231q23 41 19.5 88t-25.5 84l-27 33q-20 10 -42 22.5t-44 -1.5q-23 -23 -48.5 -41.5t-48.5 -40.5 q-57 -51 -69 -99z" />
<glyph unicode="-" horiz-adv-x="593" d="M72 451q6 -17 30 -17q39 10 74 25.5t72 27.5q86 15 231 -6q14 -4 25.5 -17t27.5 -7q35 21 48 80q8 12 19 23t21 24q25 29 11 57q-4 14 -17.5 20.5t-27.5 2.5q-33 -33 -114 -53q-21 -5 -40 -13l-196 -2q-16 6 -25.5 20.5t-28.5 16.5q-10 -2 -18 -4t-12 -13l-29 -77 l-51 -68v-20z" />
<glyph unicode="." horiz-adv-x="358" d="M59 94q12 -16 11.5 -34.5t-0.5 -34.5q20 -35 60 -35t77 43q23 4 38 23.5t31 37.5q20 29 31 71t-12 77l-16 22q-70 30 -132 -26q-35 -29 -62.5 -64t-25.5 -80z" />
<glyph unicode="/" horiz-adv-x="1009" d="M2 -207q12 -30 29 -33q23 -12 41 2.5t42 28.5t57.5 10t64.5 0q33 16 39 48t18 61q16 80 53 151.5t70 145.5q23 41 47 81t41 85q95 120 354 422q71 86 161.5 213t142.5 193.5t90 104t59.5 53t40.5 33.5q44 41 34 85l-6 8q-48 19 -133 -19q-19 -9 -53.5 0t-51.5 9t-34 -15 q-20 -33 -26.5 -71.5t-32.5 -69.5q-419 -625 -619 -901q-20 -59 -80 -131q-52 -78 -207 -267q-54 -92 -119 -162q-24 -26 -22 -65z" />
<glyph unicode="0" d="M51 536.5q-2 -96.5 17 -178.5q-12 -133 73 -231q6 -18 23 -35q21 -13 44 -40t38.5 -35.5t41.5 0.5t60.5 4t61.5 10q151 68 266 211q27 29 36 60.5t25 59.5q35 49 68 98.5t49 106.5q18 35 24 80q9 83 33 117q31 58 17 147q35 23 71.5 46.5t73.5 48.5q27 25 56.5 52 t33.5 66q0 8 -6 5t-10 -1q-55 -29 -108.5 -64.5t-106.5 -66.5q14 117 -64 170q-10 38 -24 54q-18 14 -42 8t-44 0q-27 -8 -53.5 -9t-55.5 -6q-86 -23 -160.5 -68.5t-146.5 -98.5q-23 -25 -49.5 -48.5t-36.5 -56.5q-123 -144 -164 -233q-39 -76 -41 -172.5zM264 354 q4 27 2 59.5t21 53.5q14 59 25.5 118.5t32.5 105.5t37.5 87t51.5 74q39 66 80 137.5t111 118.5q-50 -109 -19 -176q10 -17 17 -49q14 -55 41 -68q43 -13 82.5 3t62 26t45.5 16q3 -39 -16 -81q-34 -76 -31 -117q-16 -76 -56 -142.5t-81 -132.5q-39 -45 -68 -94t-76 -88 q-68 -68 -170 -105q-29 -4 -47 11q-37 51 -40 114.5t-5 128.5zM682 987q-11 62 29 129q25 28 71 23q27 -14 39.5 -37t23.5 -45.5t9 -52t0 -54.5q-85 -44 -127 -51q-31 6 -34 35t-11 53z" />
<glyph unicode="1" d="M125 648.5q0 -15.5 11 -22.5q17 -11 53 -4t54.5 16t36.5 20q41 28 74 28q16 4 27.5 9t38.5 17q38 18 131 95l12 4q-19 -39 -41 -95.5t-40.5 -87t-35.5 -62.5q-46 -82 -49 -138q-74 -96 -130 -195.5t-111 -201.5q-4 -14 -8.5 -28.5t-0.5 -31.5q10 -23 35 -14q51 33 115 37 q35 -6 73 -1t70 -5q20 4 29.5 21.5t17.5 33.5q48 180 127 330q34 43 55 100t32.5 90t27.5 64q16 57 45 110.5t53 106.5q23 37 38.5 78t31.5 83q37 96 88 154q10 20 25.5 40.5t5.5 45.5q-10 16 -26.5 17.5t-28.5 -7.5q-61 -59 -126 -116.5t-130 -116.5q-54 -26 -114 -78 q-116 -101 -159 -131q-110 -67 -232 -99q-26 -7 -40 -23.5t-22 -20.5q-13 -6 -13 -21.5z" />
<glyph unicode="2" d="M26 108q-18 -58 11 -79q29 0 64.5 -24.5t56.5 -29t42 1t41.5 17.5t38 28.5t38.5 32.5q59 47 90 66q25 30 78 6q14 -6 26 -10l18 -29q97 -87 177 -102q25 4 45 17t47 15q59 18 97 75t46 118q0 41 -31 57q-2 4 -12 -2q-16 -64 -70 -139q-37 -41 -92 -41q-37 9 -49 35 l-53 147l-27 45q-4 23 10.5 37.5t24.5 30.5q10 2 18.5 6t18.5 8q66 47 129 95.5t117 113.5q16 16 26.5 37t30.5 35q59 49 74.5 122.5t-2.5 145.5q-12 39 -44 68.5t-47.5 59.5t-33 41t-39 16.5t-43 8.5t-41.5 9q-58 0 -131 -33q-95 -21 -144 -53q-58 -28 -88 -133 q-8 -25 -20 -47q-12 -33 0 -62q2 -12 17 -14t24 6q18 25 31.5 51.5t27.5 53.5q52 93 108 106q17 4 36 7q42 7 65 28q31 10 53.5 1t21.5 -34t5 -45q-10 -94 -39 -179t-57 -173q-18 -33 -28.5 -68t-33.5 -65q-39 -12 -62.5 -45t-45.5 -64q-14 5 -23 21q-47 30 -97 30 q-88 0 -145 -32q-122 -67 -221 -193q-2 -29 -15 -54.5t-20 -48.5zM111 115q12 29 26.5 60.5t44.5 51.5q23 10 42.5 26.5t41.5 27.5q31 -10 53.5 -41t45.5 -58q-35 -23 -70 -56.5t-74 -55.5q-20 2 -42.5 -3.5t-34 8t-23.5 20.5t-10 20z" />
<glyph unicode="3" d="M98 166q-10 -30 15 -64q20 -49 66 -81.5t80.5 -40t52.5 -3t34 10.5t33.5 13t41.5 9t50.5 13.5t53 25.5t52 27.5t54.5 21.5q82 16 154.5 69.5t101.5 133.5q16 20 34.5 37.5t30.5 47.5t11.5 65.5t-11.5 69.5q-15 43 -53 97t-66 77.5t-32 56.5l51 39q10 10 24.5 16t26.5 20 q33 70 17 151q-17 92 -88 172q-47 53 -126 41q-47 -7 -92 -11q-49 -33 -97 -66t-97 -63q-16 -14 -35.5 -26.5t-36.5 -26.5q-43 -36 -43 -74q6 -18 23.5 -27.5t29 -1.5t21.5 16q29 43 74 70t71.5 41t50.5 33q29 6 54.5 15t54.5 9q13 -3 25 -26q20 -86 -11.5 -164t-97.5 -125 q-41 -35 -90 -41t-96 -16q-23 -20 -49.5 -37t-34.5 -45q0 -27 20 -35q20 -4 42 4t40 14q22 15 58 15t55.5 1t36.5 13q33 8 61.5 1t58.5 -1q18 -10 29 -33q-12 -12 -18 -25.5t-17 -27.5q-23 -59 -37 -118.5t-32 -119.5q-20 -35 -33.5 -71.5t-49.5 -54t-68 -41t-64 -44.5 q-77 -50 -146 -32q-31 8 -53.5 34.5t-30.5 55.5q10 32 60 108q-38 25 -60 15q-59 -38 -84 -117z" />
<glyph unicode="4" d="M74 395q10 -23 30 -28q4 -4 8.5 -2t8.5 0q23 10 50.5 1.5t62 -2.5t79.5 19.5t79 15.5t55.5 6.5t39.5 0.5l-22 -66q-50 -68 -86 -168q-36 -60 -107 -149q-8 -23 8 -38q33 -30 91 -5q39 2 125 26q23 0 46 -3t44 17.5t16 59.5q2 37 19.5 67.5t29.5 65.5q20 23 21 54 q4 66 14 80.5t12 30t13 25.5q71 18 120 -22q47 -20 84 3.5t70 53.5q10 18 10 43t-4 45q-27 3 -42 -13.5t-23 -28t-21 -19.5q-23 -6 -41 5t-37 22l-92 6q4 16 7 35.5t26 87t61.5 179t59 181.5t32 91.5t19.5 43.5q19 54 2 94q10 18 25.5 34t9.5 38.5t-25.5 16t-29.5 -18.5 q-47 -59 -105.5 -111.5t-101.5 -115.5q-78 -66 -145.5 -141.5t-143.5 -143.5q-45 -48 -122 -106t-117 -90.5t-74 -75.5q-14 -25 -29.5 -47.5t-9.5 -53.5zM197 459l2 10q27 25 53.5 51.5t60.5 34.5q61 59 124 114.5t122 112.5q25 39 57.5 66.5t67.5 56.5q-14 -41 -21.5 -86 t-27.5 -82q-25 -59 -58.5 -116.5t-50.5 -120.5q-20 -4 -37 -4h-36q-49 -12 -101.5 -17.5t-95.5 -34.5q-40 -10 -59 15z" />
<glyph unicode="5" d="M64.5 163.5q1.5 -22.5 6.5 -44t9 -39.5q23 -33 55.5 -57.5t61.5 -49.5q18 -11 43 -6q41 20 91 21.5t97 17.5q86 39 169 91.5t136 140.5q10 33 35 57t37 55q41 78 49 174.5t-12 184.5q-19 63 -82 109q-56 39 -129 48q-29 -6 -57 -6t-56 4q-30 -3 -64 -22q-67 -38 -94 -43 q2 8 8 16q59 87 86 154t72 133q16 12 38 13t44 5q189 -34 301 37q25 16 54.5 19.5t52.5 25.5q8 14 8 33t-6 33q-10 10 -21.5 22.5t-27.5 5.5q-27 -38 -72 -48.5t-72.5 -14.5t-52.5 -12q-35 4 -64.5 20t-50 24.5t-24.5 16.5t-14.5 12t-17.5 0t-17 -8q-68 -20 -110 -79.5 t-50 -127.5q-56 -80 -74 -139q-77 -84 -110 -197q-10 -59 26 -86q32 -16 68 15q14 12 27.5 25.5t29.5 17.5q63 43 131 59q12 -12 28 -12h30q37 -14 46 -50t9 -71q-61 -246 -211 -465q-14 -16 -21.5 -35.5t-32 -38.5t-57 -26.5t-67.5 -22.5q-47 19 -82 76q-28 118 43 215 q0 4 1 9t-3 9q-41 -10 -68.5 -45.5t-46 -61t-23 -47.5t-3 -44.5z" />
<glyph unicode="6" d="M72 370.5q-2 -32.5 1 -63.5q7 -74 48 -110q10 -49 52 -82t79 -62q76 -49 166 -67q51 10 98 19t88 40q20 4 41 6t47 10q45 13 101 82q29 19 43 35q81 111 102 273q4 159 -57 264q-20 23 -40 44t-40 44q-49 30 -76 12q-141 -4 -256 -57l-2 2q59 117 119.5 187.5t101.5 99.5 q27 -6 44.5 5t38 30.5t52 19.5t57.5 -11q36 -15 48 -81q0 -4 -2 -9.5t4 -7.5q33 -7 65 35q14 27 -3 60t-38.5 49t-47.5 24q-43 13 -107.5 9.5t-120 -22t-109.5 -34.5q-68 -35 -127 -86t-118 -104q-39 -45 -80 -91.5t-66 -99.5q-10 -29 -29.5 -55.5t-11.5 -61.5 q-18 -45 -36.5 -89t-22.5 -84t-6 -72.5zM287 219q0 103 49 273q18 37 31.5 77.5t60.5 74.5q107 78 229 85q37 15 48 -14q67 -169 -60 -429q-33 -67 -57 -132q-16 -12 -31.5 -26.5t-30.5 -27.5q-36 -28 -73 -28q-29 -6 -60 10q-64 33 -84 35q-18 20 -18 47t-4 55z" />
<glyph unicode="7" d="M80 943.5q0 -15.5 8 -25.5q16 -4 29.5 8t38 34.5t30.5 61.5q25 65 131 98q10 -10 23.5 -16t52.5 -24q124 -59 244 -56q8 0 19.5 1t19.5 -3q-38 -41 -74 -100q-211 -234 -348 -535q-14 -76 -86 -192l-57 -150q-4 -16 -8.5 -36.5t10.5 -35.5q23 -18 50 -5.5t51 15.5t50.5 1 t44.5 2q18 20 45 36.5t31 68t34 110.5t46 125q27 41 43 84t39 84q121 280 252 467q35 41 73.5 78.5t69.5 78.5q23 20 49.5 32.5t31.5 37t-3 41.5q-12 10 -47 10q-74 -23 -133 -47q-134 -56 -230 -64q-99 16 -227 84q-31 18 -60.5 4t-53.5 -30t-50 -25.5t-47 -36.5 q-72 -107 -82 -136t-10 -44.5z" />
<glyph unicode="8" d="M158 297q-21 -130 47 -231q10 -34 24 -50q14 -6 26.5 -15t26.5 -17q35 -23 58 -17l178 49q41 35 86 50q180 63 260 221q29 50 29 131l-6 143q-23 53 -67 88t-81 76q79 68 119 94q74 84 68 152q4 63 -28 112.5t-69 96.5q11 28 0 45q-3 11 -24 16q-38 -9 -84.5 5t-65.5 14 q-31 -10 -56.5 -30t-58 -42.5t-69.5 -55t-52 -84.5q-45 -154 -30 -249q6 -53 47 -90t80 -70q-55 -29 -109.5 -60.5t-101.5 -82.5q-53 -33 -98 -84.5t-49 -114.5zM344 78v20q29 88 41 181.5t25 187.5q37 45 84 68.5t88 58.5q10 -4 16 -11.5t16 -9.5q23 -16 44.5 -34.5 t19.5 -44t2 -46t8 -40.5q10 -50 -8 -94q-41 -98 -105 -169q-51 -29 -102 -53t-111 -31q-10 0 -18 17zM546 968.5q9 30.5 3 61.5q6 65 84 135q14 12 31 13q23 0 50 -12.5t42 -18.5q14 -23 33.5 -44.5t34 -44t20.5 -49t0 -57.5t-23.5 -53t-41 -40.5t-48 -36t-45.5 -38.5 q-35 29 -66.5 62t-66.5 65q-16 27 -7 57.5z" />
<glyph unicode="9" d="M98 25q4 -14 17 -15q12 0 22 -4q57 2 105.5 19.5t101.5 29.5q175 74 301 209q108 86 199 240q19 22 39 80.5t35 74.5q36 94 44 136q15 85 -18 145q10 145 -78 211q-56 27 -84 68q-18 8 -37.5 9t-35.5 11q-23 8 -42.5 -3t-37.5 -17q-33 4 -55.5 -10.5t-57.5 -24.5t-74 -35 t-72 -57q-70 -68 -122 -142q-69 -121 18 -301q51 -100 154 -157q30 -17 63 -10t53.5 12.5t41.5 5.5q6 -9 6 -37q-19 -114 -126 -216q-97 -93 -216 -132q-18 -10 -38 -18.5t-40 -17.5q-39 -17 -66 -54zM446 651q-6 41 2.5 76t10.5 78q2 50 33 170q20 47 47.5 93t74.5 75 q25 4 48.5 12t45 6t31.5 -22q0 -23 20.5 -31.5t28.5 -26.5q-10 -275 -65 -422q-16 -27 -44 -39t-59 -25q-88 -38 -145 -32q-16 18 -18 42t-11 46z" />
<glyph unicode=":" horiz-adv-x="518" d="M104 96q31 -90 82 -96q29 8 56.5 6t51.5 21t20.5 53.5t-1.5 50.5t7.5 33.5t8.5 27.5q7 31 -10 48q-30 26 -75 -2q-20 4 -38 -7.5t-34 -23.5q-20 -29 -45 -52.5t-23 -58.5zM238 614q-26 -74 16 -118q23 -19 70 -9q14 6 29.5 16.5t33.5 14.5q16 23 37.5 43.5t19.5 48.5 q-9 21 -1 44q16 43 10 63q-12 29 -45 35q-53 -7 -111 -60q-12 -18 -29.5 -37.5t-29.5 -40.5z" />
<glyph unicode=";" horiz-adv-x="548" d="M119 -211q5 -13 28 -27q41 0 74 29q23 33 72 68q43 37 57.5 87t38.5 97q27 33 31 78t-12 86q-18 14 -36 31.5t-40 23.5q-97 16 -160 -67q-6 -27 -25.5 -44.5t-23.5 -44.5q-20 -57 15 -88q18 -16 45.5 -19t44.5 7t30.5 15.5t24.5 19.5q-10 -29 -13.5 -61.5t-23.5 -59.5 q-27 -18 -47.5 -46t-53.5 -30q-31 -15 -26 -55zM242 518q15 -51 53 -65q98 -17 188 92q14 16 19.5 40t-4.5 44q-4 25 -1 54.5t-22 49.5q-56 33 -127 -18q-122 -76 -106 -197z" />
<glyph unicode="&#x3c;" horiz-adv-x="587" d="M66 383q18 -29 52 -45q63 -29 85 -59q57 -52 198 -140q16 -10 29.5 -30.5t38.5 -16.5q16 10 17 25.5t1 32.5q12 50 7.5 69.5t-19.5 20.5q-14 0 -24 -2l-76 38q-57 4 -157 78q-23 17 -50 29l-2 4q70 43 141.5 76t134.5 86l54 16q24 14 22 39q-8 25 -6 52q4 59 -8 59h-17 q-27 -14 -45 -39t-45 -41q-59 -18 -107 -62.5t-100 -85.5q-29 -18 -54 -39.5t-60 -25.5q-4 -8 -9.5 -16.5t-0.5 -22.5z" />
<glyph unicode="=" horiz-adv-x="763" d="M74 425q-2 -9 6 -13q25 -10 47.5 -1t44.5 19q171 50 328 8q16 4 24 19.5t13.5 26.5t14.5 20.5t17.5 17.5t12.5 18.5t0 26.5t-27 8q-41 -4 -79 -12t-81 -8q-35 -4 -74.5 1t-68.5 -11q-19 -6 -36 5q-35 23 -54 21t-27 -16q-14 -29 -30.5 -56.5t-22.5 -46t-8 -27.5zM182 662 q4 -6 13.5 -7.5t19.5 -5.5t20.5 0t20.5 11q25 19 45 16q57 10 111.5 5t109.5 -5q17 14 37.5 9t31.5 -8t26 -1t24 14q10 27 28.5 49.5t14.5 51.5q-13 16 -47 16q-203 -60 -340 -10q-12 2 -23.5 7t-23.5 1q-20 -14 -27.5 -37t-13.5 -42t-16.5 -32.5t-10.5 -31.5z" />
<glyph unicode="&#x3e;" horiz-adv-x="548" d="M70 98q4 -14 14 -18q10 0 20.5 -1t18.5 9q23 38 53.5 56t50 28t54 37t85 71t101.5 85q25 20 25 53q-16 24 -54 20q-70 53 -135 116.5t-131 123.5q-10 14 -20.5 28.5t-21.5 17.5q-29 8 -33 -3q-5 -15 0 -37t3 -38.5t-5 -31.5q-7 -38 9 -61q10 -8 23 -8q12 0 27 -2 q36 -13 93 -55q104 -75 150 -97q-126 -100 -250 -153q-14 0 -30.5 8t-28.5 -8q-16 -8 -12 -29q12 -31 4 -57.5t-10 -53.5z" />
<glyph unicode="?" horiz-adv-x="923" d="M85 116q-14 -68 28 -122q23 -18 44 -6t42 18q45 -3 88 57q8 18 22.5 36t24.5 37q24 44 8 83q-16 35 -56 40t-71 -11q-37 -29 -79 -59.5t-51 -72.5zM175 418q-7 -33 9 -49q18 -12 38 -4t36 12q33 0 68.5 -4t64.5 12q29 20 35 52t10 65q41 95 166 139l43 2q62 24 150 107 q88 95 88 211q-1 40 -13 78t-42.5 73t-71.5 39q-103 79 -316 -6q-41 -14 -72.5 -45t-62.5 -66q-44 -49 -90 -155q-11 -53 16 -76q8 -14 22.5 -11t29.5 1q18 4 27 21t16 34q-6 36 -27 43q27 57 73 112.5t105 77.5q27 6 55.5 15.5t57.5 12.5q66 7 106 -28q18 -33 15 -77 q-35 -165 -125 -271q-23 -23 -67 -40t-65.5 -27.5t-39.5 -30.5q-151 -78 -206 -151q-26 -33 -33 -66z" />
<glyph unicode="A" horiz-adv-x="1359" d="M68 116q11 -31 59 -106q33 -41 75 -41q13 0 27 4q12 -2 23 -2q42 0 76 24q44 30 84 71q111 127 235 241q29 -10 58.5 -14t58.5 -12q25 -23 60 -23h6q38 2 60.5 -1t35.5 -3q12 0 22 -4l-35 -57q-12 -41 -37.5 -73t-41.5 -58q-21 -35 -21 -58q0 -16 10 -27q8 -8 18 -8 q9 0 21 6q25 12 62 13q95 0 133.5 12t58.5 47q51 30 94 163q9 30 25 56q96 23 158 107q6 6 8 16t10 19q0 10 4 21t0 24q-35 -23 -67.5 -47.5t-71.5 -38.5v4q11 40 22 57q16 51 39 99t47 100q31 80 73 154.5t75 154.5q53 82 88 194q16 29 41 51.5t45 49.5q3 9 3 19 q0 16 -7 36q-10 8 -35 8h-10q-69 -4 -137 -63q-66 -16 -123.5 -52t-94 -58.5t-53 -28t-65.5 -46.5t-135 -102t-164 -145q-90 45 -166 45t-119 -28l-86 -56q-59 -50 -59 -109q0 -10 2 -20q8 -18 13 -37t15 -39v-7q0 -44 43 -106q11 -16 21 -31t19.5 -27.5t15.5 -27.5 q-57 -59 -111.5 -114.5t-94 -96.5t-63.5 -65.5t-57 -26.5q-43 5 -57 26t-28.5 40.5t-24.5 40.5q-11 26 -12 50q0 21 9 40q4 12 13.5 20.5t5.5 24.5q-4 10 -26 7t-41 -22.5t-30 -45.5q-11 -25 -11 -55q0 -33 12 -63zM541 627q-5 10 -5 19.5t5 19.5q23 33 53.5 47t55.5 27 t48 14.5t44 -4.5q33 -10 81 -37l-180 -264h-6q-18 25 -37.5 48t-30.5 50q2 23 -11 41t-17 39zM707 391l6 17q49 63 90 129.5t88 132.5q59 -41 87 -97.5t56 -113.5l8 -37l-47 -90q-41 4 -81 5t-80 11q-18 18 -49 21q-57 7 -78 22zM954 741q59 84 144.5 148.5t132.5 101.5 t65.5 43t36.5 19q23 10 42 25.5t42 21.5l-4 -8q-45 -63 -73.5 -133t-69.5 -136q-20 -39 -39 -78.5t-47 -74.5q-39 -60 -84 -138q-31 53 -62.5 108.5t-83.5 100.5z" />
<glyph unicode="B" horiz-adv-x="1458" d="M92 -41q29 -23 70 -29q11 -2 22 -2q29 0 56 12q37 16 72.5 32t70.5 38q39 16 80 39t55 70q127 102 216 304q24 56 50 112q96 159 181 399q47 70 100 135.5t127 112.5q8 8 20.5 14t12.5 23q18 -10 35.5 -21.5t37.5 -19.5q0 -142 -4 -214.5t-42 -112.5t-78 -79 q-22 10 -45 10q-14 0 -29 -4q-39 -10 -74 -20q-15 2 -27 2q-53 0 -73 -37q-3 -12 -3 -24q0 -36 29 -62q15 -6 30 -6q18 0 35 8q32 14 49 19.5t22.5 8.5t10.5 5q12 5 15 -8q16 -27 35.5 -52.5t26.5 -60.5q1 -19 1 -38q0 -133 -49 -263q-5 -19 -27 -36q-38 -30 -38 -56 q-16 -10 -32.5 -19.5t-37.5 -20.5t-48 -25.5t-57 -24.5q-32 -10 -60 -10q-32 0 -60 12q-23 12 -23 39.5t-3 41t-24.5 18.5t-32.5 -15.5t-26 -34.5q-10 -23 -10 -44q0 -27 17 -50q34 -52 117 -52q37 0 84 11q38 8 69 12q35 14 67.5 30.5t73.5 24.5q135 46 207 160 q96 74 115 188q-3 147 -101 328q31 23 65 39t64 39q21 0 43 18q39 49 39 134q0 27 -4 57q0 160 -139 248l-53 36q-31 27 -95 27q-32 0 -72 -7q-266 -44 -462 -198q-41 -14 -84 -40q-82 -51 -108 -81q0 -27 14 -37t26 -1q54 39 183 102q199 144 419 167q29 3 58 -5 q-96 -25 -184 -88h-4q-145 -96 -201 -160q-70 -37 -122 -101.5t-67 -140.5q-16 -49 -24 -98t-23 -98q-41 -96 -87 -187.5t-84 -169.5q-80 -162 -220 -162q-43 0 -56 68q-3 16 -9 31q-25 15 -43 8q-24 -15 -24 -47q0 -87 48 -121z" />
<glyph unicode="C" horiz-adv-x="800" d="M38 470q3 -48 5 -93q10 -47 17.5 -96.5t27.5 -94.5q29 -39 56.5 -77.5t58.5 -66.5t63 -37q29 -8 61 -8h7q62 2 129 32q58 4 98.5 31.5t65 46t51.5 34.5q23 18 38 39t38 35q86 115 92 207q0 14 1.5 25.5t-7.5 21.5q-16 -10 -22.5 -26.5t-16.5 -32.5q-31 -86 -104.5 -159 t-151.5 -120q-10 -4 -15 0q-18 -4 -34.5 -13t-36 -15.5t-48 -12.5t-57.5 -5q-69 2 -96 38q-41 63 -43 146v8q0 78 39 141q2 59 24.5 109.5t49.5 99.5q35 25 47 61.5t33 69.5q29 33 50 69.5t42 73.5q57 98 100 139q20 23 50 35q55 22 73 49q18 5 38 5q18 0 37 -4t37 -4 q20 0 37 5q51 -15 79 -17.5t48.5 -24t29.5 -40t6 -31t-10 -23.5t-16.5 -22.5t-14.5 -25.5t4.5 -25.5t19.5 -23.5q11 -11 40 -5q15 3 27 36q-6 29 10.5 50t19.5 55v8q0 56 -66 116q-29 12 -53.5 27.5t-48 11.5t-33 5t-23.5 7q-40 5 -79 5h-13h-30q-30 0 -62 1q-29 -6 -59 -11 t-54 -23q-227 -52 -381 -218q-109 -81 -147 -213q-30 -78 -30 -202q0 -35 2 -73z" />
<glyph unicode="D" horiz-adv-x="1542" d="M14 55q13 -54 98 -89q51 -22 74 -22h6q20 4 38 13.5t33.5 23t40 34t53 50t59.5 54.5q29 -37 55.5 -78t69.5 -70q20 2 53 -12q32 -13 50 -19q9 -3 20 -3q12 1 24 3q26 6 57 6.5t64 1.5q77 2 119 38q88 23 162.5 73t156.5 95q19 13 42 46q40 60 67 81q78 82 108.5 182 t36.5 215q1 6 1 12q0 11 -4 20q-11 32 -9 44q-16 45 -31.5 94t-37.5 95q-48 104 -136 149q-21 47 -126 84q-25 8 -57 30q-85 56 -171 74q-14 1 -29 1q-139 0 -295 -87q-35 -23 -65.5 -50.5t-38.5 -68.5q5 -36 30 -43q39 0 48 19q10 14 13 30.5t15 26.5q145 88 274 88 q59 0 115 -18q47 -37 97.5 -68t79 -56.5t42 -39t13.5 -29.5q10 -35 23.5 -65.5t19.5 -65.5q2 -30 2 -59q0 -142 -37 -254q-23 -14 -28 -35t-15 -39q-31 -88 -88 -164t-119 -149q-14 6 -23.5 -2.5t-19.5 -12.5q-94 -98 -235 -125q-16 0 -35 -2t-29 11q-27 35 -32 76.5 t-15 82.5q-27 63 -47 90q154 174 192 398q39 82 86.5 158.5t85.5 158.5q7 71 95 131q6 8 15 9t11 12q-23 8 -43 2q-75 0 -179 -107q-26 -26 -52 -47q-18 -6 -41 -31q-47 -63 -95 -123.5t-96 -123.5q-69 -153 -96 -361q-22 3 -45 4q-161 0 -305 -174q-16 -35 -42 -59.5 t-28 -63.5zM109 66q18 51 62 99q44 49 97 59q11 2 21 2q40 0 69 -33q2 -16 -10 -27.5t-32 -34.5q-53 -64 -119 -106q-9 -4 -18 -3q-11 0 -21 5q-19 10 -30 15q-14 6 -19 24z" />
<glyph unicode="E" horiz-adv-x="892" d="M43 297q-11 -62 -11 -111q0 -104 50 -153q33 -16 62.5 -34.5t68.5 -32.5q26 -10 55 -10q54 0 117 36q47 29 97 46t96 50l2 4q14 2 26 14q155 92 228 150q18 20 42 28q40 15 78 102q15 36 19 77h-4q-27 -18 -46.5 -40t-39.5 -44q-63 -45 -126 -91t-120 -73t-97 -58.5 t-73.5 -36.5t-51.5 -13.5t-37 -14.5q-30 -10 -54 -10q-10 0 -19 2q-16 33 -16 73t6 76q37 88 83 169t91 167q37 20 79 30.5t83 23.5q12 16 30.5 13t34.5 7t32.5 19.5t31.5 23.5q14 18 4 45t-43 25q-21 -13 -64 -13t-77 -3h-7q-29 0 -53 20q-12 30 -4 51q20 2 35.5 8t51.5 17 t92.5 29t110.5 39q121 49 195 126q62 29 115 127q0 16 11.5 28.5t15.5 20.5q3 7 3 21v7q-1 20 -14.5 42t-54 39t-107.5 27q-27 4 -52 4q-38 0 -74 -9q-9 1 -18 1q-67 0 -154 -38q-109 -53 -199 -145t-154 -197q-51 12 -90 58q-14 17 -14 40q0 24 15 55q8 15 12 31.5t14 31 t10 32.5q-53 -14 -82.5 -62t-42 -83t3 -50.5t19.5 -35.5q16 -37 49 -63.5t66 -49.5l6 -8q-7 -20 -7 -39q0 -27 13 -53q14 -39 49 -58.5t70 -31.5v-4q-41 -23 -84 -39.5t-102.5 -54t-114 -113.5t-66.5 -164zM563 909q14 35 40 66t48 63q117 147 221 203q39 7 81 13q10 2 19 1 q31 0 58 -16q14 -21 14 -37q0 -6 -2 -11q-6 -20 -15 -36t-23.5 -23.5t-39 -35t-67.5 -56t-89 -50t-94 -38t-78 -27.5t-44 -12.5t-29 -3.5z" />
<glyph unicode="F" horiz-adv-x="1142" d="M39 188q-8 -8 -8 -24q0 -28 27 -80q18 -33 46 -66q14 -25 40 -26.5t41 -1.5h28q13 -1 26 -1q116 0 210 64q66 20 120 69.5t101 104.5q29 47 54.5 95.5t59.5 91.5q35 70 69 139.5t69 136.5q20 6 40.5 7t43.5 6t52 6.5t57 5.5q64 9 83 59q4 23 11.5 41.5t12.5 34.5 q12 37 -5.5 44t-32.5 1q-110 -51 -211 -55q27 57 57.5 113.5t77.5 101.5q29 25 63.5 28.5t69.5 16.5q20 4 37 16q77 22 160 82q20 14 42.5 22t27.5 32q7 31 7 48q-1 16 -11 23q-9 6 -15 6h-3q-7 -2 -20 -5t-29 -18.5t-36 -23.5q-80 -77 -188 -77q-10 0 -21 1 q-31 8 -61.5 15.5t-57.5 27.5l-33 27q-80 63 -199 63q-64 0 -139 -18q-59 -14 -108 -35q-53 -29 -104.5 -53.5t-96.5 -65.5q-20 -27 -45.5 -49t-25.5 -59q4 -22 28 -31q34 -4 56 16.5t34.5 36t25.5 29.5t26.5 29.5t29.5 25.5q31 4 61.5 15.5t62.5 18.5q34 7 62 7 q37 0 64 -12q29 -53 81 -72.5t105 -38.5q-20 -29 -44.5 -49t-47.5 -49q-47 -29 -81.5 -71t-69.5 -80q-20 -4 -39 -8.5t-37 -4.5q-16 10 -33.5 14.5t-36.5 12.5q-14 2 -28.5 4t-24.5 -12q-12 -33 -41 -55.5t-45 -53.5q-5 -25 4 -35q20 -12 41 -1.5t41 16.5q44 5 90 5 q23 0 47 -1q-6 -23 -14 -42.5t-16 -41.5q-14 -72 -44 -137.5t-44.5 -114t-18.5 -73.5t-10 -50q-13 -56 -47 -86q-93 -93 -244 -93q-13 0 -27 1q-29 10 -55 51q0 6 1 12q0 46 -30 70q-7 2 -14 2q-24 0 -51 -25z" />
<glyph unicode="G" horiz-adv-x="1251" d="M-84 -381q-1 -5 -1 -9q0 -48 77 -74q20 -7 43 -21q17 -10 39 -10q33 0 78 20l30 -2q73 19 180 71q64 11 89 23q122 82 264 258q31 41 53.5 83t50.5 83q37 23 76 41t78 39q53 47 112.5 82t112.5 78q89 59 107 125q2 10 7 24q2 5 2 10q0 9 -7 17q-8 0 -17 -15 q-16 -23 -71.5 -65.5t-105.5 -65t-88 -51.5q-85 -63 -130 -80q37 59 73 122t72 122q87 140 172 225q25 14 52.5 32.5t23.5 53.5q-22 26 -45.5 15t-38 -20t-26.5 -11q-8 1 -16 1q-27 0 -51 -12q-30 -14 -58.5 -14t-46 15.5t-37.5 17.5q-33 -7 -60 -41q3 -16 3 -32 q0 -34 -16 -64q-22 -43 -44 -84q-90 -141 -205 -213q-16 -18 -32.5 -31.5t-34.5 -28.5q-47 -29 -93.5 -61.5t-103.5 -42.5q-20 0 -33 18q-41 37 -58 89q-7 22 -7 45q0 29 12 59q25 27 37 57.5t24 59.5q33 59 60.5 119.5t58.5 119.5q53 14 99.5 35t130.5 47q169 51 378 246 q55 48 84 143q3 17 3 32q0 52 -35 87q-49 52 -152 60q-209 -15 -385 -168q-109 -65 -217 -179q-41 -49 -85 -99t-73 -107q-66 23 -96 75q-2 27 -8 51.5t-8 48.5t4 44t8 43q16 31 40.5 54.5t47.5 49.5l86 62q22 11 25 26q-2 2 -9 2q-10 1 -20 1q-47 0 -85 -24 q-46 -28 -89 -63q-45 -31 -63.5 -77t-28.5 -93q9 -37 9 -74v-7v-6q0 -37 11 -70q25 -41 64 -72t73 -62q-14 -37 -22 -75.5t-16 -73.5q-3 -13 -3 -27q0 -38 19 -84q-10 -38 -10 -80q0 -68 26 -145q29 -29 40 -63.5t46 -63.5q16 -16 32.5 -33.5t39.5 -23.5q59 2 109.5 29.5 t101.5 50.5q14 10 29.5 18t23.5 25q27 23 53.5 46t55.5 46h2q-29 -51 -57.5 -104.5t-63.5 -100.5q-55 -23 -116.5 -35t-119.5 -31q-20 -16 -43.5 -19t-75 -25.5t-132 -57.5t-144.5 -106q-8 -18 -19.5 -35t-18.5 -35q-11 -27 -11 -52q0 -14 4 -28zM4 -387q-8 15 -8 31 q0 27 20 57q14 25 37 41t45 33q132 78 269 108q39 23 83 34.5t85 27.5q-92 -195 -235 -294q-52 -36 -114 -50q-23 2 -47 -4.5t-47 -9.5q-10 -1 -19 -1q-44 0 -69 27zM532 793q59 111 129 213t170 192q14 6 24.5 16.5t23.5 16.5q24 0 64 17.5t61 19.5h4q18 0 39 -15 q19 -6 43 -41q4 -14 4 -27q0 -23 -12 -41q-17 -30 -31.5 -47.5t-26.5 -33.5q-178 -170 -424 -248q-18 -6 -34.5 -12t-33.5 -10z" />
<glyph unicode="H" horiz-adv-x="1519" d="M24 124q5 -36 5 -71q8 -23 12 -44t18 -42q41 -15 87 -15q26 0 55 5q16 2 27.5 12.5t36 8.5t48 16t47.5 37l50 14q95 70 159 137q31 27 52.5 64t56.5 61q96 126 162 240q6 23 25.5 21.5t33.5 6.5q57 16 148 31q-55 -116 -62 -223q0 2 -2 2l2 -4q2 -13 2 -25q0 -24 -7 -44 q-11 -32 -15 -66q2 -43 6 -86t24 -78q-2 -7 -2 -14q0 -40 60 -82q21 -21 52 -21q26 0 58 15q23 8 39.5 28.5t40.5 28.5q6 10 16.5 11t24.5 18q22 25 84 55q50 37 92 104q79 87 105 223q2 11 -4 19q-6 4 -11 -4q-35 -51 -68.5 -98.5t-68.5 -98.5q-66 -59 -134.5 -118.5 t-145.5 -94.5q-12 -6 -25 10l-29 66q-4 16 -9 29.5t-1 29.5q156 305 277 504q224 65 376 180q25 23 45 48.5t43 48.5q16 47 22 103l2 16q0 46 -34 81q-16 18 -30.5 40t-43.5 22q-16 16 -42 26t-48 -12q-57 0 -98 -14q-85 -29 -180 -133q-39 -23 -60.5 -58.5t-44.5 -70.5 q-62 -62 -87 -102q-59 -97 -87 -175q-41 -12 -86 -20t-86 -19l-2 2q29 80 70 155t61 159q20 43 32.5 89t39.5 87q8 23 28.5 42t39 39.5t31 43t3.5 53.5q0 11 -11 11q-3 0 -7 -1q-23 -23 -52.5 -29t-54.5 -28h-28q-47 -25 -92 -54.5t-93 -55.5q-113 -64 -200 -70l-123 92 q-25 16 -60 16t-65 -2q-10 3 -21 3q-29 0 -57 -25q-38 -34 -65 -59t-49 -54q-50 -64 -50 -129q4 -14 20 -18q27 -7 46 16q7 20 29 48q40 51 40 79q35 51 84 59q20 -6 24.5 -25.5t14.5 -33.5q26 -34 50 -34q4 0 8 1q12 -4 11 -15t5 -17.5t11 -5.5t12 -3l112 6q57 0 108.5 27 t80 44t59.5 30q-41 -61 -79 -124t-95 -116q-57 -80 -148 -276q-96 -25 -180 -76t-172 -96l-96 -89q-35 -29 -52.5 -63.5t-45.5 -62.5q-7 -22 -7 -45q0 -12 2 -24zM111 154q16 47 51 82.5t65 74.5q12 23 37 33t43 27q55 37 115 62.5t117 58.5q0 -10 -6.5 -21.5t-13.5 -37.5 t-19.5 -62.5t-18.5 -75.5q-14 -27 -31.5 -50.5t-34.5 -52.5q-47 -78 -110 -96q-30 -34 -100 -39q-43 -27 -70 -27q-4 0 -8 1l-10 10q-8 56 -8 89q0 14 2 24zM1403 786q33 72 71.5 139.5t77.5 137.5q23 29 51.5 47t47.5 49q12 6 23 6q25 0 44 -33q13 -22 29 -32q3 -11 3 -21 q0 -5 -1 -11q-2 -16 -4 -43.5t-33 -56t-61 -57.5q-55 -38 -97 -55l-4 2l-2 -2q-29 -12 -56.5 -24.5t-55.5 -22.5z" />
<glyph unicode="I" horiz-adv-x="999" d="M45 172q-5 -17 -5 -34q0 -48 34 -103q25 -37 63.5 -51.5t81.5 -27.5q41 -12 84 -12q51 0 105 17q120 46 270 191q23 14 41 35.5t35 39.5q18 14 31.5 36t29.5 36q58 82 160 266q85 144 174 344q45 75 168 262l69 46q31 21 31 73q0 13 -2 29l-6 14h-9q-24 1 -42 -13 q-21 -16 -33 -28t-25 -20q-41 -14 -78.5 -32.5t-74.5 -35t-72 -38t-78 -23.5q-29 -16 -62.5 -18.5t-56.5 -5.5q-34 -5 -49 26q-10 35 -19 70.5t-26.5 63.5t-43 30t-50.5 4q-59 -27 -114.5 -53.5t-108.5 -65.5q-39 -19 -39 -53v-6q-8 -12 -20.5 -25.5t-22.5 -27.5 q-13 -18 -13 -36q0 -13 7 -26q6 -14 28 -12t38 21.5t34 29.5q10 14 11.5 30.5t11.5 26.5l65 41q35 16 68 34.5t72 22.5q10 0 10 -10t6 -14q0 -49 25.5 -93t70.5 -67q24 -2 45.5 -2t42.5 2q41 4 90 6q35 10 56 6q-29 -37 -64 -72.5t-64.5 -70.5t-54 -71.5t-61.5 -61.5 q-145 -145 -231 -408q-25 -75 -50 -149l-32 -43q-18 -16 -35 -36.5t-35 -39.5q-45 -46 -86 -49q-34 -6 -63 -6q-80 0 -130 47q-18 16 -21 44t4 44t18.5 20.5t18.5 21.5q9 21 9 40q0 24 -16 43q-8 6 -17.5 3t-17.5 -3q-55 -36 -80 -123z" />
<glyph unicode="J" horiz-adv-x="1091" d="M-68 -373q8 -66 80 -116q2 -8 2 -19q0 -10 9 -12h-3q14 -35 62 -55q39 0 92 34h16q58 25 86 58q25 23 41.5 50t49.5 38q63 45 101 107.5t69 125.5q96 125 157 250l111 86q70 55 144.5 92t144.5 86q39 35 45 88q0 14 -9 13l-65 -39q-121 -59 -270 -162v10 q23 59 53.5 111.5t48.5 93.5t26.5 64.5t16.5 46.5q19 56 55 84q63 75 115 169q100 182 150 248q23 35 41 73t56 54q67 29 67 104q0 9 -1 19l-10 14q-6 1 -12 1q-33 0 -74 -38q-12 -12 -27 -20q-16 -4 -28 -9t-27 -11q-29 -21 -83 -45q-95 -44 -132 -76q-82 0 -170 -6l-14 12 q-16 41 -27.5 84t-42.5 78q-23 11 -47 11q-28 0 -57 -14q-23 -12 -46.5 -27t-51.5 -27q-70 -29 -123 -82q-4 -29 -29 -51.5t-32 -42.5q-8 -21 1 -40q13 -33 39 -24q69 38 84 104q49 33 98.5 61.5t108.5 39.5q18 -9 18 -35v-23q0 -26 31 -66t51 -53.5t31.5 -12.5t23 4t22.5 6 t30 2t39 3.5t43 -4.5q-12 -14 -24.5 -25t-45.5 -55q-105 -135 -170 -272q-60 -73 -166 -246q-23 -29 -33 -63.5t-22 -66.5q-30 -83 -92 -105q-59 -31 -121 -63.5t-119 -70.5q-136 -90 -207 -190q-70 -142 -78 -258zM20 -327q4 42 25 84t33 87l145 140q66 42 256 143 q-25 -70 -47 -139.5t-45 -141.5q-41 -66 -77 -134t-74.5 -101t-54 -50.5t-36.5 -13.5l-47 -24q-4 8 -7 16q-8 23 -41 57q-30 31 -30 68v9z" />
<glyph unicode="K" horiz-adv-x="1648" d="M18 162q-5 -24 -5 -48q0 -35 10 -69q25 -61 83 -82.5t117 -30.5q11 -1 21 -1q133 0 274 81q252 202 352 385q0 6 7.5 7.5t3.5 7.5q39 76 79.5 147.5t80.5 170t100.5 212t109.5 229.5q25 37 52.5 73t44.5 77q20 20 42.5 39.5t31.5 46.5t-5 49q-3 12 -17 16q-6 1 -11 1 q-7 0 -13 -3q-136 -95 -321 -172q-18 -6 -39 -15t-40 -15q-22 -7 -43 -7q-23 0 -42 9q-16 23 -32.5 50.5t-38.5 49.5q-43 46 -93 46q-7 0 -14 -1q-82 -18 -150.5 -64t-136.5 -100q-12 -16 -30.5 -29.5t-33.5 -27.5q-22 -22 -22 -46q0 -13 6 -26q6 -20 31 -20q87 48 110 98 q41 35 80 65.5t79 44.5q18 6 36 6q46 0 90 -40q10 -10 23.5 -19.5t5.5 -25.5q25 -57 57 -72q24 -4 46 -4q28 0 56 6q48 10 99 19v-2q-47 -68 -97.5 -133.5t-97.5 -133.5q-23 -41 -51.5 -82t-39.5 -87t-34.5 -85t-36.5 -82q-33 -82 -67.5 -161.5t-50.5 -167.5 q-14 -27 -58 -80q-105 -124 -229 -146q-15 -1 -29 -2q-89 0 -149 50q-12 14 -22.5 27.5t-6.5 31.5q-4 20 11.5 30.5t25.5 20.5q16 26 16 53q0 10 -2 21q-10 25 -39 29q-8 -4 -14 -8.5t-14 -8.5q-44 -42 -56 -102zM1047 121q7 -77 90 -146q21 -21 38 -21q3 0 7 1 q107 23 223 139q63 63 131 124t125 132q15 30 37 58q20 26 20 57v6q-2 8 -12 4l-90 -90q-47 -47 -94 -92q-74 -61 -144.5 -133t-154.5 -117h-11q-4 0 -8 4q-4 16 -1 32.5t5 31.5q36 115 97 163q121 148 129 332v10q0 41 -22 71q-40 52 -81 87q102 39 221 146q53 117 136 198 q12 10 22 23.5t22 26.5q28 27 56 24q10 -29 35 -41q20 -4 36.5 10.5t32.5 30.5q31 21 31 63q0 11 -2 23l-25 29q-43 21 -79 21q-37 0 -64 -23q-82 -72 -129 -136q-37 -41 -76 -83t-53 -95l-70 -65q-29 -29 -65.5 -43.5t-59 -22.5t-43.5 -20l-16 2q-94 -9 -151 -64 q-10 -33 14 -53q29 -10 60.5 -2t60.5 2q18 -10 40.5 -26.5t18.5 -41.5q-27 -33 -56.5 -60.5t-57.5 -56.5q-69 -72 -91 -128q-20 -68 -24 -143.5t-8 -147.5z" />
<glyph unicode="L" horiz-adv-x="1130" d="M47 207q-14 -53 -14 -101q0 -76 35 -141q10 -6 23 -14q10 -6 34 -6h12q126 8 187 28q49 33 92 77t84 85q23 -29 43 -57.5t45 -52.5q23 -12 45 -28.5t51 -4.5q4 -6 11 -9t16 -8q23 -5 45 -5q81 0 160 60q91 67 176 217q16 27 32 50q16 41 38 83q20 38 20 63l-2 37 q0 7 -4 9l-19 -14q-91 -192 -217 -319q-33 -25 -65.5 -56.5t-73.5 -38.5q-10 2 -20.5 3.5t-16.5 11.5q-78 161 -160 274q6 10 8 20.5t13 18.5h2v10q35 94 75.5 185.5t75.5 187.5q96 45 201 78q66 27 117 81t100 107q14 27 32.5 52.5t31.5 53.5q15 34 16 68q0 26 -10 52 l-27 28q-33 35 -77 35h-87q-23 -4 -46 -5t-42 -15q-35 -10 -65.5 -31t-65.5 -31q-59 -31 -105 -84l-92 -106q-45 -59 -75.5 -127t-61.5 -133q-41 -12 -89 -12q-13 1 -27 1q-62 4 -105 41q-23 18 -26 44t-19 49q-23 -4 -30 -24t-15 -36q-4 -31 12 -59q62 -87 197 -97 q37 -2 72 -2q-12 -66 -35 -127t-33 -127l-6 -8q-37 -8 -72 -19t-65 -19.5t-46 -25t-36 -26.5q-39 -35 -83 -64.5t-69 -76.5zM115 123q4 27 21.5 46t35.5 40q29 25 60.5 56.5t66.5 43.5q25 4 40.5 -13.5t29.5 -33.5q-20 -33 -38 -65.5t-40 -63.5q-33 -23 -63.5 -50.5 t-67.5 -39.5q-29 0 -33 28.5t-12 51.5zM817 881q4 23 11.5 43t9.5 43q45 53 70.5 114.5t60.5 120.5q49 51 130 51q28 0 60 -6l2 -6q15 -3 31 -24q2 -9 2 -17q0 -22 -12 -38q-16 -24 -27 -48q-67 -88 -104 -121q-75 -65 -148 -82q-23 -8 -44 -15t-42 -15z" />
<glyph unicode="M" horiz-adv-x="2136" d="M43 283q-3 -23 -3 -46q0 -66 26 -129q34 -85 102 -120q57 -29 116 -29q12 0 23 1q70 7 127 40q45 45 87 95t61 108q37 43 64.5 91t57 73.5t41 44t20.5 36.5q24 50 60.5 86.5t78.5 96t85 119.5q35 39 72 75.5t72 75.5q16 6 32 33q20 4 34.5 21.5t31.5 27.5 q-12 -31 -24.5 -60.5t-40.5 -105.5q-72 -191 -109 -459q-20 -53 -41 -105t-32 -89t-22.5 -54.5t-23.5 -35.5q-27 -39 -27 -70v-6q6 -16 29 -25q7 -1 13 -1q37 0 69 40q115 59 164 129q33 53 81 96.5t91 88.5q66 57 104 112.5t74.5 86t69.5 69.5q55 82 118.5 166t145.5 151 l10 2q-35 -78 -70.5 -154.5t-58.5 -158.5q-47 -82 -92 -164t-65 -152q-12 -42 -12 -80q0 -74 48 -128q11 -37 29 -53q38 -28 79 -28q26 0 54 11q275 127 403 320q11 34 27 64q12 24 13 52q0 7 -1 15q-2 8 -10 4q-70 -119 -178.5 -204t-218.5 -155q-20 -10 -42 -20t-40 -4 t-22.5 17t-6.5 24q6 31 31 55.5t47 50.5q43 74 78 150t90 143q64 122 133 279q131 294 203 413q14 18 36.5 25.5t28.5 34.5q0 63 -47 63q-23 -4 -35 -22q-147 -68 -277 -180.5t-251 -229.5q-47 -55 -97 -105.5t-77.5 -97.5t-55.5 -77.5t-57 -59.5q-75 -77 -102 -127 q-23 -29 -49.5 -47t-50.5 -45q8 29 24.5 57.5t22.5 63.5q74 254 107.5 341t51 118.5t30.5 79.5q32 120 71 217q8 14 20.5 28.5t23.5 28.5q16 21 16 43q0 10 -3 20l-20 29q-5 1 -10 1q-8 0 -16 -5q-10 -8 -23 -14l-3 2q-39 -31 -90 -80q-96 -53 -179 -128t-161 -153 q-10 -16 -25.5 -23t-21.5 -24q-95 -62 -219 -247q-31 -46 -63 -89q-45 -29 -67.5 -69.5t-45.5 -81.5q-41 -41 -71.5 -86t-57.5 -83t-50.5 -74t-50.5 -68q-68 -80 -130 -103q-6 -1 -13 -1q-29 0 -78 17q-47 10 -68.5 51.5t-35.5 82.5q-3 16 -3 31q0 32 14 62q22 44 34 69.5 t14 54.5l-6 12q-10 8 -19 1t-20 -11q-84 -64 -100 -129z" />
<glyph unicode="N" horiz-adv-x="1544" d="M55 203q56 -153 174 -217q20 -8 42 -8q13 0 26 3q37 7 70 13q156 68 297 293q65 65 79 96t34 56.5t43 50.5q62 68 81 102q59 100 151.5 180t196.5 127h6q-51 -68 -141 -235q-92 -214 -117 -295q-6 -29 -12 -55.5t-12 -53.5l-101 -160q-54 -42 -61 -98q4 -8 6 -13t10 -12 q6 -3 13 -3q18 0 47 18q20 20 45.5 27.5t70 40t114 90t112.5 129.5q60 31 105.5 78.5t94 83.5t93.5 74t66.5 82t49.5 85q43 43 72 91t64 97q26 30 63 101q16 41 55 73.5t70 63.5q12 20 22.5 39.5t35.5 37.5q43 32 91 32q22 0 46 -7q23 -4 29.5 -24.5t12 -34.5t5.5 -31 q0 -16 10 -28q32 5 48 105q3 18 3 35q0 30 -8 60q-29 47 -64 48q-11 0 -22 -5q-25 -16 -54.5 -20t-54.5 -17q-53 -14 -114 -86q-25 -28 -49.5 -56t-55.5 -48q-37 -35 -55.5 -77t-57 -89t-71.5 -109.5t-86 -117.5q-25 -39 -49.5 -79t-63.5 -71q-53 -37 -98 -83t-96 -85 q31 71 71 197l59 190q21 66 48 127q55 78 99 160t110 154q10 18 21.5 39.5t-5.5 44.5q-28 17 -39 12q-31 -18 -56.5 -45t-51.5 -51q-119 -45 -220.5 -127t-193.5 -180q-96 -56 -182 -164q-39 -49 -75 -100.5t-73 -100.5q-43 -29 -64.5 -72t-47.5 -84q-41 -37 -69 -81 t-56 -87q-101 -117 -171 -151q-32 -15 -71 -17q-35 -14 -59.5 7.5t-49 52.5t-50.5 71q-17 25 -17 55q0 18 6 38q12 25 22.5 53.5t23.5 53.5q32 63 89 73q16 5 31 5q19 0 35 -8q30 -16 61 -28q13 22 13 40q0 15 -8 28q-19 29 -37.5 52.5t-49.5 20.5q-22 3 -49 -24 q-113 -60 -151 -129q-10 -27 -25.5 -52.5t-27.5 -51.5q-14 -33 -14 -62q0 -28 13 -53z" />
<glyph unicode="O" horiz-adv-x="983" d="M60 465q20 -196 173 -391q46 -58 111 -76q32 2 60 -12q14 -7 33 -7q17 1 38 7q43 12 90 37.5t91 58.5t86 69.5t72 62.5q53 48 71 83q125 167 192 418q9 63 19 127q6 40 6 80q0 25 -2 51q5 14 57.5 42.5t84.5 53.5t53.5 56.5t21.5 55t-5 26.5t-9 -1q-45 -47 -97.5 -75.5 t-103.5 -59.5l-8 -2q-4 27 -17.5 47.5t-25.5 42.5q-80 85 -125 109q-63 33 -122 34q-28 0 -54 -8q-16 10 -39 11q-115 -35 -211 -95q-13 -13 -60 -24q-45 -33 -89 -62.5t-85 -70.5q-63 -49 -102 -114t-60.5 -112t-23.5 -78.5t-6 -62.5q-19 -49 -19 -129q0 -42 5 -92z M211 375q-4 10 -4 20q0 9 4 19q8 20 10 39.5t11.5 33t18.5 26.5q23 34 28 58q16 39 37.5 76t25.5 82q10 10 12 26.5t6 28.5q-8 16 2.5 31.5t18.5 28.5q37 35 59.5 72.5t57.5 72.5q29 41 67.5 59.5t75.5 47.5q8 23 30.5 31t43.5 18l59 35q-4 -23 -12 -46.5t-14 -47.5 q-3 -13 -3 -25q0 -55 59 -103q21 -16 48 -14q22 -1 44 -1q65 0 126 9q1 -20 1 -40q0 -292 -204 -562l-8 -20q-129 -149 -262 -236q-31 -28 -74 -28h-2q-42 0 -76 20q-55 16 -96 61.5t-65 92.5q-27 40 -27 101q0 16 2 34zM836 1044q5 32 28 99q10 14 29 22q5 1 10 1 q20 0 33 -13q16 -16 33 -31q31 -37 47 -88q-43 -15 -97 -15q-30 0 -63 5q-9 3 -20 20z" />
<glyph unicode="P" horiz-adv-x="1521" d="M59 246q-8 -40 -8 -79q0 -68 23 -134q18 -25 37.5 -49.5t46.5 -40.5q17 -10 41 -10q29 0 66 15q181 73 241 189q36 25 98 101q8 12 11 25t38 48t66 103.5t76 132.5q30 58 65 154q63 172 109 239q41 82 108.5 147.5t139.5 120.5l4 11q-8 12 -22.5 6t-27.5 -8 q-338 -166 -528 -400q-74 -100 -121 -219q-13 -43 -13 -119q0 -22 1 -47q-35 -82 -67.5 -163t-65.5 -160q-18 -23 -40 -35.5t-42 -30.5q-25 -10 -46.5 -25.5t-53.5 -7.5q-16 12 -29.5 30.5t-26.5 35.5q-4 23 -3 47t1 49q0 61 -18 88q-8 4 -14.5 9t-16.5 1q-12 -5 -29 -24z M475 1042q-3 -6 -3 -10q0 -8 7 -14q70 60 185 125q43 18 85 38.5t89 30.5q107 34 295 52q80 -5 129 -33q46 -42 84 -96q3 -46 3 -90v-23v-12q0 -49 7 -99v-13q0 -58 -16 -111q-18 -58 -33 -117q-47 -68 -89 -68h-4q-43 -23 -89 -41q-26 -10 -53 -10q-21 0 -44 6 q-29 -2 -47 21.5t-35 46.5h-2q0 6 -7 6h-15q-10 0 -31.5 -21.5t-12.5 -40t17 -34.5q47 -68 135 -72q63 4 132 8t110 26.5t68.5 28.5t50.5 33q47 4 86 39t75 74q68 75 72 198q2 22 2 43q0 86 -33 156q-41 88 -114 166q-16 12 -34 27.5t-40 19.5q-27 27 -56.5 41t-80.5 35 q-31 13 -86 13q-72 0 -185 -23q-269 -79 -444 -211q-18 -14 -37.5 -28.5t-26 -33.5t-14.5 -33z" />
<glyph unicode="Q" horiz-adv-x="1097" d="M59 618q-15 -65 -15 -127q0 -84 28 -163q0 -61 19 -133t34.5 -94.5t37 -41t46 -33t47.5 -28.5q23 -8 46.5 -8t47.5 2q31 3 56 3q22 0 40 -3q11 -1 21 -1q26 0 51 8q35 11 65.5 29.5t61.5 39t66 30.5q58 -64 82 -82q13 -16 41 -16h49q21 0 53 16q132 94 252 254 q27 43 59.5 84t41.5 70.5t13 43.5v7q0 10 -8 17q-16 -4 -29.5 -15.5t-25.5 -21.5q-97 -136 -205 -250q-29 -25 -55.5 -53.5t-67.5 -30.5q-12 0 -18 14q-5 19 -5 37q0 14 3 28q6 31 10 66q14 16 28.5 31.5t26.5 34.5q4 27 23.5 45t48.5 65q56 92 109 277q25 125 25 228 q0 85 -17 155q-4 20 -3 42.5t-20 39.5q-16 10 -32.5 27.5t-33.5 30.5q-24 18 -46 18q-17 0 -33 -11q-31 24 -94 33q-31 5 -65 5q-92 0 -210 -34q-23 -12 -46 -17t-46 -19q-170 -70 -278 -205q-51 -59 -98.5 -123t-63.5 -141q0 -89 -17 -130zM175 242q3 37 17.5 61.5 t18.5 54.5q-1 9 -1 18q0 38 14 71q18 40 24 88q-4 29 11 48t32 54t29 84t51 90q68 59 126 132t115 140q120 120 224 120q22 0 43 -5q18 -8 35.5 -19.5t39.5 -13.5q40 -74 40 -192q0 -13 -1 -27q-19 -13 -24 -49q-9 -163 -84 -266q-25 -79 -90 -197q-16 -7 -33 -7t-35 7 q-37 12 -57.5 19.5t-40.5 2.5q-26 -6 -70 -34q-43 -6 -83 -18.5t-68 -47.5q-2 -8 -4.5 -15t4.5 -17q7 -11 49 -5q33 10 63 10q75 0 129 -63q0 -31 -12 -57q-40 -65 -129 -113q-68 -6 -136 -10h-13q-60 0 -111 33q-33 16 -54 51q-19 31 -19 63v9z" />
<glyph unicode="R" horiz-adv-x="1374" d="M20 97q12 -56 32 -77.5t46 -37.5q42 -24 101 -36q18 -4 34 -3q35 -1 59 17q34 26 58 49t40 45t31 44q38 54 73 72q98 84 152 188.5t95 214.5q51 69 83 159.5t48.5 144t36.5 94.5t39 81t42 74q54 83 124 103q84 -72 84 -222q0 -32 -4 -68q-6 -54 -12 -105 q-27 -35 -65 -51.5t-73 -39.5q-27 2 -49 13.5t-51 9.5q-33 -8 -62.5 -32.5t-41.5 -55.5q10 -18 24 -27h18q73 0 171 21q43 -14 63 -45q14 -29 6 -56q-49 -66 -104 -122t-90 -127q-20 -36 -20 -81q0 -57 32 -128v-27q22 -67 51 -99t49.5 -35t41 1t41 10t38.5 12t39 8.5 t37 14.5q8 20 24.5 30.5t28.5 26.5q-6 6 0 6l2 -2q35 41 75 82t62.5 70.5t29.5 46t36 40.5t38 69t23 92q0 4 -5 6t-19.5 -8t-31.5 -33t-36 -45q-33 -59 -77 -107.5t-84 -99.5q-20 -16 -40 -36.5t-41 -39.5q-51 -46 -92 -49q-27 -7 -49 -7q-14 0 -26 3q-14 37 -14 55q0 4 1 8 q34 51 104.5 133.5t103 126.5t54.5 94q9 22 9 48q0 63 -58 147v-2q-25 23 -52 33t-56 23q59 31 121.5 52t111.5 68q38 78 38 158q0 58 -20 117q-39 113 -158 202q-69 52 -130 58q-63 6 -110 6q-54 0 -87 -8q-29 -2 -54 -11.5t-54 -15.5q-94 -35 -187.5 -78t-175.5 -110 q-18 -20 -41.5 -37.5t-44.5 -37.5q-55 -49 -61 -91q-4 -6 -10 -11t-11 -20q-7 -19 -7 -39q0 -26 12 -53q6 -14 28 -14q35 10 42 44t11 68q66 94 161 157t192 110q156 64 254 64h6q45 -1 88 -17v-2l-29 -4q-66 -18 -128 -44t-107 -83q-41 -25 -78 -67t-60.5 -105.5 t-56.5 -145.5t-61 -164q-4 -35 -18.5 -68.5t-24.5 -68.5v-8q-27 -76 -49.5 -155t-47.5 -154l-14 -15q-41 -73 -65 -101q-53 -60 -111 -60q-105 24 -119 94q0 9 -1 17q0 26 4.5 52t4.5 53v17l-4 6q-16 10 -27.5 -4t-17.5 -22.5t-14 -14.5q-21 -50 -21 -93q1 -17 4 -33z" />
<glyph unicode="S" horiz-adv-x="940" d="M57 154q2 -45 22.5 -82t37 -63.5t34 -32t47.5 -15.5t84 -15q8 -1 16 -1q45 0 79 24q66 16 118 56.5t105 87.5q6 14 18.5 23t35.5 50q95 167 130 244q31 36 52.5 84.5t37 88.5t37.5 81q153 56 336 182q82 51 96 101q3 24 25.5 38.5t35.5 22.5t21 23q15 41 25 89q4 17 3 32 q0 30 -13 59q-16 23 -37 40t-41 34q-32 9 -69 9q-41 0 -89 -11q-180 -67 -282 -181q-116 -98 -216 -308q-26 -56 -53 -112q-29 4 -57.5 5.5t-54.5 9.5q-88 49 -113 143q0 9 -1 18q0 72 29 134q25 52 87 145q4 6 0 12q-9 1 -17 1q-34 0 -64 -19q-38 -24 -53.5 -42.5 t-11.5 -45.5q-58 -87 -58 -162q0 -25 7 -49q14 -41 26.5 -86t49.5 -76q41 -39 92 -50t109 -15l6 -4q-10 -35 -22.5 -67t-22.5 -65q-108 -235 -197 -399q-10 -34 -59 -49q-13 -8 -30 -8q-26 0 -64 17q-15 7 -29 11q-27 18 -38 47t-26 56q-12 10 -27.5 20.5t-33.5 3.5 q-18 -10 -23 -34zM961 791q41 90 98 169.5t104 165.5q23 23 41.5 48.5t44.5 42.5q23 -2 47 2q4 1 7 1q19 0 32 -18l23 -28q4 -20 4 -36q0 -29 -12 -48q-35 -11 -59 -62q-24 -53 -54 -70q-20 -6 -35.5 -23t-32.5 -32q-127 -85 -208 -112z" />
<glyph unicode="T" horiz-adv-x="866" d="M63 162q21 -18 18 -41q-3 -26 -3 -42q0 -14 2 -22q26 -54 96 -73q23 -23 56.5 -23t73.5 3q78 6 157 85q97 35 178 168q42 37 53 59q47 96 82 191.5t76 194.5q35 70 64.5 141t76.5 137q23 14 46.5 28.5t51.5 23.5q29 8 57 22q16 8 34 8q13 0 28 -4q35 6 67 18q28 11 60 11 h11l43 32q12 10 28.5 14.5t31.5 9.5t27.5 13.5t14.5 24.5l4 33q0 9 -6 15q-14 12 -32 12q-26 0 -59 -27q-26 -23 -54 -41q-39 -2 -73 -13.5t-67 -21.5q-23 16 -52.5 11t-57.5 -1l-70 29q-111 70 -178 86q-47 11 -87 11q-75 0 -130 -38h-31q-55 -23 -112.5 -44.5 t-102.5 -68.5q-18 -37 -30.5 -76.5t-26.5 -80.5q-6 -35 18 -56q7 -17 33 -12q23 10 29 33v7q0 88 71 173q16 9 46 14q54 9 71 23h43l41 -39q47 -27 98 -38t94 -44q-140 -103 -231 -272q-35 -76 -67.5 -151t-36.5 -163q-41 -98 -76 -227q-41 -71 -105 -104h-12 q-33 -18 -74 -20h-5q-38 0 -66 20q-27 12 -27 53q0 16 1 32.5t-9 31.5q-34 51 -66 51q-23 -9 -30 -27q-9 -11 -9 -27q0 -10 4 -22z" />
<glyph unicode="U" horiz-adv-x="1185" d="M43 276h6q0 -4 -2 -4q4 -4 4 -8t2 -8q-4 -18 2 -26.5t3 -18.5t0 -11t-1 -3l2 -21q0 -2 3.5 0t3.5 -4q-2 0 -3 -2h-2l2 -2l-2 -14q6 -8 2 -18.5t5 -12.5q54 -115 139 -146q27 -6 52.5 -14t52.5 -15q33 -9 63 -9q24 0 45 6q74 51 142.5 108.5t122.5 98.5t76.5 78.5 t57.5 64.5h4q-9 -63 -9 -110q0 -34 5 -58q14 -35 44 -62.5t57 -52.5q16 -25 47 -25q8 0 17 2q17 3 35.5 8t35.5 9q16 -4 53 8q57 33 107.5 76t89.5 73.5t52 55.5t36 47q53 31 72.5 80t35.5 100q-2 4 -3 8.5t-7 4.5l-53 -49q-158 -189 -342 -310q-23 -16 -42 -16q-11 0 -20 6 q-18 16 -39.5 33.5t-15.5 46.5q12 35 28.5 70.5t32.5 70.5q104 186 191.5 378t175.5 386q12 18 27.5 35.5t21.5 42.5t-14 37q-31 3 -59 -11q-53 -27 -78 -30q-34 9 -56 9q-6 0 -11 -1q-43 -4 -69 -55q-59 -152 -129.5 -296t-142.5 -292q-37 -39 -65.5 -82t-61.5 -84l-94 -98 q-66 -53 -134.5 -116.5t-142.5 -104.5q-18 -2 -36 -2q-62 0 -125 22q-24 27 -56 96q14 92 51 152q29 27 63 45t60 51q66 72 121 146.5t109 148.5q43 88 86 139q69 115 76 189q-10 110 -33 168q-11 20 -66 65q-26 11 -53 11q-18 0 -38 -5q-48 -12 -81 -41q-53 -10 -112.5 -16 t-106.5 -41q-3 -28 -26 -44q-44 -29 -52 -57t-26 -56q-14 -23 -14 -51q0 -6 1 -13q12 -22 47 -16q29 18 44.5 53t23.5 54.5t20 37.5q16 33 47 43t60 20q37 6 78 16q11 2 21 2q29 0 55 -20q12 -16 10 -26q-16 -43 -31.5 -86t-40.5 -84q-83 -72 -239 -256 q-63 -66 -114.5 -136.5t-62.5 -158.5q-2 0 -2 2l-2 -21q-8 -2 -6 -11t-6 -15h4l-2 -17q0 -8 2 -6t4 0t-2 -4v-6l-4 6q-4 -4 -4 -8q0 -5 8 -8l-6 -4q2 2 5 -2t-5 -9z" />
<glyph unicode="V" horiz-adv-x="1038" d="M47 914q8 -18 16.5 -20.5t18.5 0.5t20.5 7t20.5 4q59 51 115.5 105.5t93 81t49 28.5t27 1t27.5 -1t23.5 3t16.5 8.5t14 5.5q8 -16 9 -29q-13 -45 -54 -104q-53 -66 -106 -127.5t-98 -128.5q-72 -137 -80 -209t-12.5 -120t-4.5 -124t37 -156q-2 -33 15.5 -60.5t46.5 -42.5 t48 -44t54 -37q24 -13 48 -13q20 0 40 8q45 18 82 42q155 142 274 270l5 14q136 145 194 271q45 23 63.5 66.5t41.5 80.5q12 29 20 58.5t18 60.5q68 31 136.5 59.5t134.5 73.5q20 18 48 34q25 14 25 42q0 4 -1 8q0 10 -9.5 11t-22.5 8.5t-21.5 -6t-45 -30t-95 -53 t-124.5 -57.5q11 69 23 147q5 31 5 57q-1 39 -11 65q-18 44 -32 67t-38 37q-12 2 -23 2q-38 0 -61 -25q-105 -61 -119 -224q-4 -46 -6 -89q10 -35 18.5 -69.5t28.5 -65.5q23 -23 53.5 -16.5t59.5 2.5l-2 -11q-23 -53 -48.5 -107.5t-74.5 -88.5q-105 -175 -219 -299 q-61 -57 -123 -116.5t-129 -111.5q-13 -13 -36 -13q-24 0 -59 14q-32 12 -51 58q-8 19 -15 38.5t-22 33.5q8 47 22.5 91.5t27.5 91.5q20 45 55 85t70.5 79.5t66.5 81.5t43 94q109 141 150 280q1 11 1 21q0 35 -16 64q-20 38 -41 75q-29 43 -72.5 54.5t-72 12.5t-39 -7.5 t-20.5 1.5q-78 -6 -144 -47l-207 -184q-6 -6 -17 -14.5t-21 -16.5q-15 -13 -15 -26q0 -5 2 -10zM971 995q11 140 98 185q29 -8 29 -64q0 -12 2 -22q-9 -121 -23 -215q-11 -4 -21 -4q-6 0 -14 2q-18 4 -34 2q-29 16 -30 51t-7 65z" />
<glyph unicode="W" horiz-adv-x="1794" d="M57 291q10 -37 17.5 -76t17.5 -76q22 -81 84 -129q35 -29 85 -34q12 -1 25 -1q36 0 68 11q18 -2 37 -10q13 -6 25 -6q6 0 12 1q63 37 109.5 90.5t101.5 102.5q44 44 110 44q8 0 17 -1q4 -16 10 -28.5t10 -26.5q31 -59 68 -96q63 -62 122 -62h7q108 15 209 78 q71 45 184 133q20 -5 56 8q101 70 229 233q142 174 233 433q72 35 185 108l28 25q20 30 45 58q23 26 23 61v6q0 4 -6 4t-41 -19.5t-94.5 -65.5t-129.5 -71q-4 131 -65 223q-28 40 -90 45q-108 -9 -164 -69q-73 -106 -73 -198q0 -41 14 -79q35 -55 142 -63q28 -2 56 -6 q-46 -154 -170 -304q-57 -69 -120.5 -135.5t-124.5 -132.5q-53 -41 -106.5 -88t-119.5 -67q-12 -2 -23 -2q-35 0 -61 22q-6 18 -6 34q-1 17 5 31q12 30 22 60q66 90 112 184.5t91 190.5q29 86 72.5 162.5t74.5 160.5q76 171 100 250q-4 4 -5 10.5t-11 6.5 q-35 -10 -69.5 -23.5t-69.5 -15.5t-67 -2t-48 -37q-23 -61 -50.5 -119.5t-67 -137.5t-86 -175.5t-103.5 -192.5q-14 0 -25 -10l-46 -70t-46.5 -63.5t-42 -56t-49.5 -29.5q-53 -33 -96 -76l-84 -84q-14 -10 -27.5 -23.5t-28.5 -24.5q-32 -25 -54.5 -18.5t-39 6t-32.5 0.5 q-43 3 -56.5 21t-14.5 34.5t2 33t10 33t11 30.5q33 29 62 64q66 92 139.5 174t138.5 172q25 47 52.5 92t51.5 91q58 107 79 196q2 18 -4.5 34.5t-10.5 34.5q-4 51 -38 97q-34 47 -78 59q-21 6 -39 6q-19 0 -33 -7q-28 -13 -51 -32q-184 -9 -291 -139q-18 -31 -36.5 -61.5 t-20.5 -69.5q8 -37 29 -37q7 0 16 4q16 4 19 15q24 91 90.5 143.5t116.5 62.5q36 7 60 7q10 0 18 -1q28 -4 48 -28q-20 -74 -76 -162q-151 -178 -252 -272q-27 -31 -56.5 -58.5t-55.5 -57.5q-67 -75 -82 -134q0 -32 -8 -62q-6 -21 -6 -41q0 -10 1 -20zM1612 1025 q0 93 49 122q23 8 51 16q8 2 15 2q18 0 32 -14q16 -10 15.5 -30t3.5 -38q-11 -106 -29 -143q-18 0 -35.5 -3t-35.5 -5q-7 -1 -13 -1q-33 0 -49 23q-5 12 -5 25z" />
<glyph unicode="X" horiz-adv-x="1277" d="M69 54q13 -38 39.5 -61.5t67.5 -33.5q37 -9 76 -9h8q82 2 166 36q180 22 338 184q4 -12 5 -27.5t3 -29.5q8 -18 11 -40t9.5 -41.5t16.5 -35.5t35 -23q29 -2 56.5 -6t55.5 0q133 33 210 107q187 180 214 364l-10 15q-8 4 -12 -5.5t-10 -13.5q-33 -62 -91.5 -141.5 t-90 -116.5t-70.5 -66q-88 -63 -174 -67q-16 4 -32 7t-24 20q-10 31 -10 61q0 7 1 15q3 38 7 77q20 78 58.5 147.5t81.5 137t86 134.5t75 138q135 204 383 342q25 14 53 23q50 15 68 37q17 5 33 5q47 0 94 -38q14 23 14 46q0 13 -4 26q-14 27 -49 33q-35 4 -71 6q-2 0 -4 1 q-33 0 -56 -22q-246 -88 -385 -260h-4q19 54 19 110q0 67 -27 136q-16 43 -57.5 68.5t-77.5 31.5q-22 4 -39 4q-12 0 -21 -2q-24 -4 -48.5 -10t-50.5 -12.5t-70.5 -6.5t-91 -37.5t-78 -66t-49 -47.5t-30.5 -38q-17 -26 -17 -52q0 -16 7 -33q6 -16 27 -16q54 24 76 71 q8 39 37.5 64.5t55.5 46t50.5 28t51 8.5t54 0t56.5 1q16 -4 28.5 -21.5t16.5 -34.5q-4 -63 -27.5 -117.5t-41 -111.5t-48.5 -107.5t-65.5 -98.5t-72.5 -95t-56.5 -75.5t-22.5 -31t-8 -6.5h-2v-4h2q-82 -100 -133 -207q-10 -39 -37 -72.5t-54.5 -67.5t-59.5 -65.5t-69 -53.5 q-54 -33 -110 -33q-30 0 -61 10q-26 16 -50 59q-5 23 -5 40q0 33 16 48q16 4 26 -3t27.5 -5t25.5 10q19 32 1 60q-16 25 -49 24h-8q-73 -4 -105 -73q-9 -56 -9 -93q0 -31 6 -48z" />
<glyph unicode="Y" horiz-adv-x="1159" d="M35 244q-3 -19 -3 -36q0 -43 20 -76q30 -48 75 -89q63 -32 197 -59q10 -1 18 -1q55 0 80 48q112 74 227 176q10 23 29.5 41t36.5 37h2q-6 -19 -27 -45q-73 -111 -143 -275q-41 -18 -86 -32.5t-88 -32.5q-84 -31 -157 -93.5t-138 -125.5q-25 -33 -25 -60q0 -10 4 -20 q29 -76 90 -138q10 -8 23 -8q12 0 25 2q41 14 78.5 30.5t75.5 33t73 30t63 43.5q41 55 90.5 93.5t92.5 91.5q39 41 61.5 88t52.5 90q45 23 90.5 39t90.5 33q87 6 182 118q140 145 215 287v21q0 4 -10 4q-43 -18 -82 -53t-58 -80q-114 -129 -190 -199q-94 -29 -178 -66 q-2 2 -7.5 0t-3.5 2q236 395 332 627q35 49 62.5 99.5t61.5 103.5t61.5 115.5t52 99t39.5 52.5q11 13 11 30q0 5 -1 10q-27 24 -58.5 18t-51 -12t-35.5 -8h-101q-43 0 -72 -66q-8 -16 -14 -30q-16 -63 -49 -119.5t-61.5 -133.5t-81 -163t-99.5 -176q-119 -136 -180 -193 q-56 -79 -149 -145q-41 -29 -81 -58.5t-81 -52.5q-90 9 -150 48q-16 18 -28.5 38.5t-1.5 56.5q39 119 61 158q29 18 56.5 40t56.5 44q66 86 129 171t110 182q27 39 58.5 79t54.5 82q35 63 35 122q0 31 -10 61q-18 25 -24.5 53.5t-23.5 52.5q-23 41 -67 51q-15 3 -30 3 q-26 0 -49 -11q-36 -16 -71.5 -25.5t-72.5 -16.5q-96 -18 -144 -36q-51 -41 -75.5 -97t-47.5 -113q0 -8 -1 -18.5t5 -16.5q6 -1 12 -1q58 0 90 80q9 23 21 39l-2 19q8 14 19.5 26.5t23.5 26.5q125 32 185 37l22 -4q35 -23 35 -53q-23 -70 -55 -144q-33 -35 -66 -67.5 t-63 -67.5q-43 -59 -97.5 -115.5t-101.5 -113.5q-74 -102 -80 -209h-2q0 -114 -12 -178zM143 -375q109 170 367 242q-18 -31 -27.5 -67t-20.5 -70q-27 -84 -87 -117q-37 -23 -77 -35t-64 -22q-25 -11 -42 -11q-12 0 -20 6q-30 35 -30 63q0 5 1 11z" />
<glyph unicode="Z" horiz-adv-x="1050" d="M43 -18q2 -8 15 -15.5t30 -7.5q16 0 37 11t52.5 17.5t88 36t137 78t164.5 95.5q23 8 41.5 20t44.5 8l-2 -37q4 -55 33 -104t82 -74q13 -9 30 -9q26 0 60 23q14 9 27 15q31 33 66.5 52.5t53 46t23.5 41t12 27.5q16 34 39 46q93 76 93 164q0 10 -1 20q-4 8 -6 17.5t-12 5.5 q-14 -23 -34.5 -45.5t-36 -41.5t-33 -32.5t-33.5 -27.5q-36 -29 -47 -64q-27 -23 -42.5 -52.5t-43.5 -48.5q-26 -10 -37 -6q-10 41 -21.5 80t-38.5 74q-56 39 -96 39h-6q-45 -31 -94 -41q-20 -8 -31 0q134 140 299 409l25 31q23 12 53.5 11t52.5 -15q8 -8 14.5 -19.5 t24.5 -6.5t26.5 22.5t18.5 32.5q5 15 25 33t24 29t-3 22.5t-15 20.5t-32 0t-57.5 -22.5t-68.5 -15.5q-14 4 -18 21q18 29 33.5 56.5t31.5 55.5q116 110 148.5 152.5t63 66t48.5 60.5q2 8 2 16q0 7 -1 13q-3 14 -5 26q-10 16 -29 16q-22 0 -57 -22q-24 -14 -49 -29 q-86 -27 -165 -62.5t-165 -64.5q-14 4 -27.5 6.5t-25.5 10.5q-12 64 -86 151q-6 3 -14 3q-22 0 -58 -21q-11 1 -21 1q-33 0 -50 -13q-82 -55 -162 -111.5t-156 -128.5q-4 -4 -4 -11t4 -11q20 -20 54 -11q72 39 136 91.5t138 87.5q23 -77 65 -119q21 -29 91 -29q16 0 46 -6 q9 -2 19 -2q23 0 52 9q42 13 81 26q-57 -55 -98 -120t-100 -118q-29 10 -62 3t-54 -10t-25.5 2t-6.5 14q-6 28 -12 32q-10 4 -19.5 -2t-19.5 -12q-23 -35 -45.5 -67t-36.5 -68q0 -16 16.5 -26.5t32 -1.5t29.5 19q35 -10 63 -10q12 4 22.5 5t24.5 3q-141 -161 -245 -340 q-38 -27 -54 -49l-141 -215q-12 -10 -29.5 -20.5t-31.5 -22.5q-30 -25 -30 -55q0 -6 1 -12z" />
<glyph unicode="^" horiz-adv-x="772" d="M53 885q23 -16 49.5 -12t74 17t112.5 57t112 110l5 2q20 -29 44.5 -58.5t65.5 -29.5q99 -99 201 -94q20 7 20 14q-31 29 -65.5 51.5t-57.5 56.5q-19 16 -29 46q-19 57 -36 77q-4 16 -5 35t-23 34q-36 24 -101 -26h-10q-61 26 -91 21q-22 -9 -32 -33q7 -51 -35 -100 q-99 -114 -199 -162v-6z" />
<glyph unicode="_" horiz-adv-x="847" d="M14 -231q-4 -10 13.5 -30t25.5 -32q27 -10 49.5 -2t44.5 19q69 16 141 11l115 -8q43 -3 91 -1q106 21 161 4q14 0 36 -6.5t45 -11.5q57 -12 77 22q4 12 17.5 27.5t18.5 26.5t-1 15t-16 9q-28 13 -30.5 24.5t-33.5 11.5l-35 -2l-102 -2q-51 0 -112.5 -10t-98.5 -12 l-187 12q-29 -4 -58.5 4t-46.5 3t-27.5 -4t-21.5 3q-22 4 -36 4q-4 -13 -4 -30t-4 -23t-21 -22z" />
<glyph unicode="`" horiz-adv-x="542" d="M70 1178q-10 -32 24 -70q118 -118 178 -160q47 -23 93.5 -46t99.5 -15l2 6q-53 47 -111.5 89t-93.5 105q-4 10 -2 21.5t3 23.5q2 25 -17 35q-45 20 -90 0q-20 4 -42 15.5t-44 -4.5z" />
<glyph unicode="a" horiz-adv-x="983" d="M52 271q18 -89 77 -150q33 -92 109 -125q23 -4 52.5 -4t51.5 22q118 97 184 222q-2 -16 -2 -31q0 -103 70 -191q23 -20 52 -20q24 0 52 14q62 30 129.5 88t114.5 133q25 35 48.5 71t30.5 68t12 52q3 11 3 23q0 10 -2 20q-23 -8 -33 -31.5t-26 -40.5q-97 -166 -232 -266 q-12 -4 -24 -13q-26 -18 -44.5 -18t-31.5 10q-16 6 -16 31q-2 8 -2 15q0 34 37 64q18 15 37.5 29.5t34.5 47.5t30.5 81t29.5 96q35 113 85 183q12 18 28.5 30.5t32.5 33.5q6 18 20.5 35.5t4.5 40.5l-15 14q-13 2 -27 2q-27 0 -55 -8q-42 -12 -62 -8t-38 7q-10 2 -19 2 q-33 0 -51 -24l-57 -139q-14 41 -37.5 81t-75.5 57q-23 8 -48 8q-31 0 -65 -12q-61 -21 -108 -62q-33 -5 -47 -17q-129 -92 -197 -250q-18 -51 -18 -104q0 -33 7 -67zM260 141q-7 37 -7 72q1 47 13 91q22 77 53 149q27 16 32 44.5t20 55.5q41 126 121 139q5 1 10 1 q22 -1 36 -17q17 -20 28 -40q25 -49 32 -91q-16 -53 -38.5 -103.5t-43.5 -103.5q-35 -55 -72.5 -111.5t-72.5 -84.5q-35 -26 -49 -34q-11 -6 -24 -6h-7q-16 2 -21.5 15.5t-9.5 23.5z" />
<glyph unicode="b" horiz-adv-x="839" d="M43 305q6 -99 14 -130q19 -70 74 -105q39 -56 86 -70q34 -3 65 -3q58 0 105 11q25 14 50.5 27.5t47.5 32.5q7 23 37.5 53.5t45 45.5t20.5 38q29 37 51.5 75.5t48.5 73.5l2 -4q30 -21 64 -21q48 0 104 40q49 43 49 100q-33 -25 -69 -47q-29 -18 -53 -17q-5 1 -9 1 q-28 4 -40.5 8t-16.5 20q8 8 12 17.5t13 29t23.5 48t26.5 57.5q27 65 28 117q0 5 -1 10q-16 100 -78 127q-13 7 -26 7q-38 0 -83 -51q-16 -18 -30 -30q-15 -37 -15 -77v-5q1 -43 1 -84q21 -121 41 -182q-16 -37 -39 -73t-45 -71q-23 -45 -59.5 -81.5t-71.5 -73.5 q-76 -40 -138 -40q-42 0 -77 19q-24 37 -24 94q0 32 7 70l43 60q16 35 21.5 74.5t16.5 69.5t18.5 55.5t15.5 50.5q18 55 57 83q53 57 116 107q122 95 148 152q11 26 37.5 40t41 35t24.5 45q27 64 48 87.5t28.5 51t6.5 57.5q-1 44 -11.5 81.5t-13.5 40t-3 8.5l-16 20 q-27 18 -61 18q-84 0 -214 -110q-39 -14 -70.5 -45t-60.5 -61q-71 -95 -211 -342q-13 -35 -31 -67q-17 -29 -16 -65v-8q-14 -47 -28.5 -94t-23.5 -97q-11 -61 -11 -116q0 -46 8 -88zM401 799q15 34 37 69q41 84 81 168t89 164q23 27 42.5 53.5t51.5 40.5q16 -2 21.5 -13.5 t9.5 -23.5v-10q0 -39 -21 -73q-49 -75 -55 -109q-18 -31 -48.5 -49.5t-49.5 -46.5q-15 -45 -53.5 -78t-62 -52.5t-42.5 -39.5zM664 654v12q0 66 51 96q4 1 8 1q12 0 18 -11q6 -24 6 -46q-1 -29 -11 -55q-18 -45 -31 -71.5t-21 -55.5q-4 29 -11 63t-9 67z" />
<glyph unicode="c" horiz-adv-x="747" d="M41 346q3 -98 68 -203q31 -25 53 -58.5t47 -66.5q21 -14 44 -14q9 0 19 2q34 8 64 12q287 89 442 299q23 39 44.5 77t25.5 83q-41 -39 -76 -84t-82 -84q-141 -147 -328 -209q-25 -2 -52 -12t-52 8q-14 16 -10 41q41 142 47 225q31 59 54.5 123t60.5 123q31 27 53 58.5 t55 56.5l107 14q21 -27 21 -85q0 -14 -1 -29q0 -20 24 -22.5t42 13.5q18 29 18 69q0 49 -27 114q-13 20 -40 20q-14 0 -32 -6q-14 -4 -26 -6q-43 9 -88 9t-91 -10q-91 -18 -159 -75q-53 -20 -88 -66.5t-67 -89.5q-14 -25 -32 -52t-30 -55q-17 -39 -17 -73q0 -25 9 -47z" />
<glyph unicode="d" horiz-adv-x="839" d="M0 350q-3 -18 -3 -34q0 -41 19 -66q0 -14 -1 -28.5t6 -41.5q23 -86 75 -129q23 -12 43.5 -32.5t40.5 -22.5h5q15 0 21 10q6 12 19 8q41 23 75 61t69 72q27 18 44 48q31 55 58 73l2 -4l-20 -153q-8 -33 10 -54q64 -56 127 -56q7 0 14 1q70 45 160 135q27 45 64.5 82 t66.5 80q43 76 47 178h-2q-10 -14 -18.5 -28.5t-27.5 -40.5q-64 -93 -106 -140q-41 -39 -75.5 -81t-81.5 -70q-2 -4 -8 -4t-11 4q4 29 15.5 51t21.5 56t16.5 79t28.5 86q23 68 53.5 132.5t51.5 133.5q14 29 31.5 56.5t32.5 68.5t39 89.5t48 96.5q54 112 74 199 q14 35 38.5 61.5t43.5 57.5q2 10 6 20q2 4 2 9q0 6 -4 12q-11 14 -28 14q-18 0 -42 -16q-12 -8 -26 -16t-36 -12.5t-44.5 -6.5l-45 -4t-40.5 -11t-25.5 -21.5t-9.5 -27t-1 -29.5t-1 -30q-40 -108 -68 -160.5t-42.5 -94.5t-36.5 -83q-10 -12 -13.5 -28.5t-13.5 -26.5 q-4 4 -13.5 3t-13.5 11q-5 15 -35 37q-43 22 -90 22q-95 0 -206 -89q-27 -8 -73 -50q-105 -95 -177 -253q-6 -25 -15.5 -50.5t-13.5 -52.5zM222 170q-5 24 -5 51q0 72 37 166l14 21q18 43 36 89t40 89q51 103 119 153q28 13 49 13q15 0 27 -7q28 -11 34 -26q5 -27 17 -43 q-29 -74 -59.5 -145.5t-59.5 -145.5q-135 -173 -233 -262q-8 5 -16 47z" />
<glyph unicode="e" horiz-adv-x="692" d="M39 356q8 -56 8 -116q18 -25 30.5 -50.5t26.5 -51.5q32 -65 76 -93q3 -16 23 -31q63 -33 113 -33q19 0 36 5q92 49 162 123q61 34 85.5 69t50.5 65.5t48 62.5q55 77 58 143q0 10 -11 6q-57 -78 -121.5 -142.5t-131.5 -138.5l-25 -12q-98 -83 -170 -99q-29 7 -45 49 q-14 38 -14 62v6q2 26 9 51t15 49.5t12 49.5q67 64 149 64q9 0 19 -1q15 -3 29 -3q74 0 129 71q98 60 115 176q-24 80 -74 106q-47 11 -89 27q-26 10 -55 10q-17 0 -36 -4q-53 -23 -107.5 -41t-103.5 -47q-29 -23 -60.5 -46.5t-61.5 -49.5q-71 -63 -87 -123q-6 -32 -6 -63 q0 -25 4 -50zM311 449q16 45 37 90t68 67q4 4 5 6t7 6q0 10 6 21.5t10 26.5q5 22 58 34q94 -5 129 -49q1 -8 1 -16q0 -50 -52 -99q-17 -16 -32 -31t-35.5 -23.5t-39.5 -18.5q-15 1 -31 2q-56 -1 -131 -16z" />
<glyph unicode="f" horiz-adv-x="573" d="M-276 -414q4 -12 15 -15t31 -10q6 -2 13 -2q15 0 31 9q26 14 53 24l67 2q23 12 49.5 30t34.5 46q23 84 47.5 166t65.5 158q9 21 13 52q6 53 24 73l25 -6q36 -48 89 -48q13 0 27 3q53 6 96.5 41.5t86.5 66.5q127 123 151 244q8 23 2 39q-37 -43 -71.5 -91.5t-74.5 -85 t-80 -74.5t-87 -54q-8 -1 -15 -1q-38 0 -67 29q-6 16 -17.5 30.5t-15.5 31.5q42 91 47 143q34 58 74 160q14 23 32.5 37t37.5 28q47 25 89 61t89 64q49 47 94 94.5t68 108.5q49 45 57 102q31 31 41 107q0 128 -66 145l-57 6q-17 5 -35 5q-56 0 -127 -50q-10 -4 -20.5 -15 t-22.5 -15q-80 -47 -131 -121t-104 -146q-92 -146 -152 -325q-4 -41 -24.5 -74t-34.5 -65.5t-23.5 -63.5t-18.5 -62q-27 -84 -53 -128.5t-46.5 -104t-51.5 -115.5q-18 -72 -49 -138t-51 -138q-6 -43 -28.5 -79t-26.5 -79zM389 688q41 80 73 163t79 161q51 112 118 192 q26 16 63 16q16 0 34 -3l16 -11q7 -17 7 -36q0 -26 -15 -56q-29 -38 -35 -74q-59 -70 -88 -147q-85 -101 -252 -205z" />
<glyph unicode="g" horiz-adv-x="1060" d="M-106 -379q-2 -13 -2 -26q0 -52 34 -87q62 -27 88 -34q35 0 66 17t66.5 19t65.5 20.5t53 32t41 19.5t32 17q41 49 80 99t84 93q16 55 90 105q28 16 83.5 30.5t82 26.5t49.5 35q96 37 170 139q35 31 69.5 62.5t59.5 68.5q25 49 52 100q23 45 23 96q0 7 -1 15l-4 -2 q-37 -53 -78 -109.5t-94 -103.5q-37 -47 -85.5 -87t-91.5 -87q-41 -25 -80.5 -50.5t-89.5 -29.5q42 105 99 162q10 16 14 32.5t20.5 58.5t48 106.5t48 101t15.5 46t5 15.5q72 37 114 156q11 31 28 59q11 34 -13 49q-17 -5 -46 0q-14 2 -25 2q-29 0 -43 -14q-18 -12 -40 -11 l-44 2h-9q-47 0 -65 -28q-6 -16 -7 -33.5t-3 -35.5q-5 -40 -33 -56q-16 14 -13 36t7 40q-4 16 -16.5 27.5t-24.5 23.5l-56 11q-23 6 -43 17t-47 11q-25 -12 -64 -14q-69 -3 -95 -31q-51 -8 -88 -39.5t-70 -70.5q-80 -47 -124 -127t-71 -158q-14 -30 -14 -61q0 -18 4 -37 q14 -52 31 -95q9 -16 37 -26q54 -19 67 -37q0 -31 31 -53t57.5 -21.5t51 11t49 25.5t49.5 26q18 4 32.5 17t30.5 17q-8 -52 -53 -151q-10 -16 -28.5 -24.5t-34.5 -18.5q-49 -14 -95.5 -38t-87.5 -41t-75.5 -31.5t-66.5 -33.5q-76 -47 -99 -108q-9 -19 -9 -30q0 -4 1 -7z M-16 -360q20 39 58 56t69 40q48 15 159 78q10 4 21 4q10 0 20 2q-18 -37 -42.5 -72t-41 -62.5t-27 -47t-30.5 -29.5q-41 -10 -75 -27.5t-75 -25.5q-25 0 -34 22q-13 13 -13 29q0 15 11 33zM227 116q-7 17 -7 42q0 38 18 94q22 19 34 50q22 60 39 77q33 53 69 102t46 115 q35 29 59 66q14 10 29.5 12t35.5 7q7 2 14 2q12 0 23 -6q17 -9 36 -11q12 -4 10 -16.5t-2 -20.5q6 -43 45 -72q1 -7 1 -13q0 -24 -11 -44q-15 -25 -24 -45.5t-2 -30.5t-3 -21q-25 -66 -95 -127q-48 -41 -122 -95t-158 -85q-5 -2 -10 -2q-16 0 -25 22z" />
<glyph unicode="h" horiz-adv-x="1038" d="M-72 33q6 -19 21 -19q31 4 59.5 16.5t61.5 8.5q50 -14 88 -14q14 0 26 2q44 19 64 69q-9 26 -9 54q0 73 57 166q21 34 38 69q18 16 39.5 37.5t44.5 40.5q61 29 114.5 75t93 62t54 29.5t30.5 26.5q35 28 66 28q23 -12 23 -25q-4 -23 -19.5 -39t-27.5 -32q-51 -31 -85 -83 t-63 -102q-25 -53 -44 -110q-9 -28 -9 -56q0 -30 10 -61q21 -32 26 -65q11 -72 23 -95q17 -22 45 -22h2q29 0 54 4q74 2 134 38t120 77q39 37 82 75.5t77 82.5q67 89 67 179q0 12 -1 23q-4 2 -12 -2q-76 -143 -193 -248q-29 -23 -56.5 -47t-58.5 -44q-70 -48 -135 -48 q-16 10 -13 31.5t5 38.5l59 135q53 47 80 107.5t42 99.5q21 51 21 80q0 7 -1 12q10 29 10 54q0 39 -23 69q-16 25 -43.5 32t-52.5 19q-17 6 -36 6q-57 0 -119 -55q-45 -17 -107.5 -66t-95.5 -74.5t-70 -44.5l-12 -2q48 99 59 154q23 41 44.5 84t27.5 92q65 83 147 119l78 76 q27 25 55.5 47t51.5 51q6 29 27.5 51.5t37.5 46t13.5 54t1.5 59.5q-20 34 -91 82q-15 8 -33 8q-24 0 -53 -14q-152 -19 -253 -170q-24 -11 -56 -45q-53 -92 -96 -184.5t-92 -184.5q-42 -89 -49 -184q-35 -113 -84 -218.5t-78 -220.5q-10 -35 -29.5 -61.5t-32.5 -56.5l-14 -9 q-33 -18 -33 -60v-9zM524 973q-4 17 -4 32q0 21 8 39q14 30 25 64l12 47l80 145q10 10 18.5 22.5t31 17.5t48 10.5t52.5 15.5h4q31 0 44 -43q3 -9 3 -17q0 -16 -11 -30q-16 -20 -27 -30.5t-20 -22.5q-12 -37 -42.5 -58.5t-55.5 -50.5q-27 -23 -53.5 -48.5t-61.5 -41.5z" />
<glyph unicode="i" horiz-adv-x="518" d="M32 273q4 -42 9.5 -73.5t13.5 -53t33 -25.5q14 -23 28.5 -48.5t31.5 -48.5q42 -53 94 -53q59 15 77 31q66 70 129.5 134.5t112.5 144.5q42 107 47 168q-2 4 -3 2t-33 -47q-150 -215 -274 -322q-15 -14 -36 -19q-24 0 -43.5 29.5t-20.5 49.5t3 40.5t12 40t12 37.5 q66 70 112 266q23 98 43.5 117t35.5 31q35 29 35 61q-8 12 -11.5 28.5t-21.5 16.5q-25 -8 -48.5 -17t-48 -14t-47 0t-47.5 3q-53 -41 -74.5 -95.5t-48.5 -107.5q-7 -60 -49 -197q-23 -32 -23 -67q-1 -6 0 -12zM303 1008q4 -26 2 -52q15 -35 57 -45q8 -2 16 -2q19 0 32 13 q18 18 28.5 30.5t26.5 22.5t34.5 25t22.5 43q1 7 1 14q0 21 -9 37q-12 22 -20 45q-10 14 -26.5 16t-33.5 6q-14 -4 -25.5 -15t-23.5 -22q-8 -25 -30.5 -37t-39.5 -30q-13 -18 -13 -38q0 -6 1 -11z" />
<glyph unicode="j" horiz-adv-x="587" d="M-472 -282q9 -19 7 -40q12 -33 75 -65q15 -8 28 -21q17 -7 33 -7q21 0 41 11q36 19 55.5 32.5t42.5 19.5q16 8 36.5 11t46 27.5t66.5 41t78 49.5q43 53 74.5 109.5t78.5 105.5q6 35 27 74q37 29 83 40t79 24t54.5 16.5t42 25t49 48t55.5 54.5q61 67 75 129q2 14 9 28 q4 9 4 18q0 6 -2 12q-12 -4 -23 -17q-102 -131 -180 -192q-34 -37 -119 -47q-18 -8 -36.5 -18.5t-41.5 -14.5l23 41q37 41 58.5 91t51.5 95q17 37 45.5 97.5t42 75t23.5 28.5q16 23 16 46q0 12 -4 24q4 16 18.5 24t26.5 19q14 19 8 43q-16 28 -43.5 23t-43 -11t-31.5 -10 q-4 -1 -11 -1q-20 0 -61 9q-10 -12 -25.5 -11t-29.5 -7q-23 -10 -26 -34t-9 -46q-25 -16 -35 -43t-30.5 -62t-43 -86t-44 -102t-42 -101.5t-47.5 -99.5q-8 -16 -2 -35.5t-14 -32.5q-178 -90 -342 -208q-61 0 -133 -96q-17 -23 -33 -44q-5 -11 -5 -21q0 -9 4 -19zM-385 -270 q10 27 35.5 47t48.5 43q47 12 86 46t75 60q73 51 140 78v-10q-51 -43 -74.5 -97.5t-48 -93.5t-47.5 -55t-47.5 -27.5t-51 -21.5t-50.5 -23q-40 0 -58 15q-8 14 -8 39zM394 969v-6q0 -15 14 -23q12 -2 22 -8t22 -12q25 -15 41 -15q2 0 3 1q18 1 29.5 7.5t21.5 16.5t19 21.5 t22 17.5q2 20 15 36.5t27 32.5q20 24 20 46q0 14 -7 26q-12 12 -39 12q-20 -12 -41.5 -12t-42.5 8q-10 -6 -19 -9t-18 -13q-10 -23 -36.5 -49.5t-38 -42t-14.5 -35.5z" />
<glyph unicode="k" horiz-adv-x="985" d="M-106 33q13 -26 33 -18t32 13t25 1q15 -19 39 -17t40 2q21 0 31 -3q4 -1 8 -1q24 0 64 35q10 12 7 25.5t-1 27.5q20 51 34.5 107.5t57.5 99.5q35 53 50.5 114.5t47.5 110.5q71 107 146 142q41 6 71.5 28.5t61.5 44.5q14 4 29.5 9.5t28.5 -13.5q12 -17 12 -38 q0 -24 -15 -52q-6 -16 -10 -33.5t-10 -33.5q-14 -38 -49 -45q-16 -10 -35 0t-39 10q-20 6 -34.5 -4t-33 -9t-30 -5.5t-21.5 -14.5t-20.5 -18.5t-20.5 -19.5q-13 -19 -5.5 -39.5t15 -28t21.5 -2t35.5 7.5t42.5 3q57 3 84 17q12 -10 16 -26q-78 -88 -90 -123q-10 -30 -10 -55 v-8q2 -28 9 -53.5t3 -53.5q12 -29 20.5 -57.5t24.5 -55.5q13 -7 32 -7q16 0 36 5q27 20 56.5 28.5t57.5 24.5q39 33 81 56.5t77 62.5q80 39 135.5 119t67.5 168h-6q-43 -66 -101.5 -114t-111.5 -101q-23 -7 -55 -33q-59 -51 -78 -57q-37 -12 -52 8q29 43 51.5 89t45.5 93 q8 27 8 58q0 45 -17 98q8 29 30 42t42 29q41 25 47 65t7 69.5t-3 45t-12 30t-16.5 26.5t-12.5 29q-23 20 -48 17t-50 -7q-23 -10 -41 -6t-58 -5t-90.5 -39t-85 -49.5t-52 -33t-35.5 -23.5q12 48 24 66q36 31 105 55q86 86 227 160l86 84q27 31 42 65.5t32 69.5q4 20 2 44 t0 43t5 37.5t-13 31.5q-18 8 -39 22t-41 24q-26 11 -49 11t-43 -10q-42 -21 -97 -34t-94 -56q-80 -59 -132 -140.5t-97 -160.5q-51 -68 -88 -140.5t-74 -146.5q-14 -35 -17.5 -73t-11.5 -75l-55 -139q-10 -23 -24.5 -44t-18.5 -50t-18.5 -56.5t-30.5 -55.5q-48 -79 -59 -104 t-27 -43q-11 -12 -10 -29q0 -7 2 -15zM502 895q16 33 32.5 63.5t26.5 65.5q29 41 49.5 83t38.5 75t23.5 61.5t36.5 40.5q47 35 87 35q23 0 44 -12q11 -24 11 -50q0 -52 -40 -115q-16 -26 -31 -50q-33 -37 -74.5 -57.5t-74.5 -47.5t-63.5 -52.5t-65.5 -39.5z" />
<glyph unicode="l" horiz-adv-x="534" d="M39 229q2 -47 14.5 -88t20.5 -84q24 -47 65 -51q156 20 273 131q66 20 123 107q104 92 116 227l-18 -12q-57 -63 -110.5 -126t-116.5 -116q-29 -14 -58 -26.5t-55 -32.5l-2 2q-20 -20 -53 -25.5t-62 4.5q-6 6 -14 11.5t-6 15.5q31 44 41 61q74 173 151 389 q24 109 167 224q38 30 75 59l63 70q67 50 84 106q48 56 56 103q0 20 5 40.5t8 41.5q2 15 2 28q0 33 -13 53q-10 25 -32 30t-40 15q-21 4 -41 4q-91 0 -166 -75q-114 -77 -206 -227q-40 -64 -75.5 -131.5t-72.5 -131.5l-39 -120q-14 -74 -35.5 -145t-40.5 -144 q-22 -56 -22 -107q0 -41 14 -80zM391 821q16 45 46 80t46 80l64 141q58 72 117 166q8 6 24 15q11 0 39 -17q7 -16 7 -32q0 -6 -1 -13q-4 -22 -6 -45q-18 -33 -34.5 -65.5t-35.5 -67.5q-84 -69 -120 -121q-41 -25 -75 -57.5t-71 -63.5z" />
<glyph unicode="m" horiz-adv-x="1466" d="M2 -25q11 -12 25 -12q5 0 9 1l36 9q20 10 48 10q9 0 18 -1q23 -3 41 -3q39 0 59 13q41 39 57 89t41 97q41 59 67.5 125t63.5 127q5 14 20 16q30 6 37 17q49 49 90 105q63 85 136 111q20 7 38 -3l-16 -55q-27 -66 -50.5 -133.5t-53 -116t-44 -87t-28.5 -76.5 q-38 -104 -72 -151q-6 -16 -16 -31.5t-6 -33.5q20 -16 46.5 -12t49.5 6q42 12 108 12q25 0 52 -2q25 8 26.5 32.5t20.5 62.5t29 99.5t34 118.5q51 70 120 130.5t118 131.5l53 45q86 57 148 57q6 0 12 -1q-16 -47 -51 -84t-73 -86q-88 -113 -121 -302q-6 -33 -6 -61 q0 -66 34 -98q33 -54 61 -70q15 -4 30 -4q28 -1 54 15q39 24 89 66q141 117 216 237q18 39 37 77.5t25 81.5q-136 -168 -301 -317q-27 -19 -49 -19q-9 0 -17 3q35 59 70 117.5t61 121.5q23 41 29 85t23 85q14 37 14 95q0 39 -6 87q-4 10 -8.5 22.5t-15.5 20.5t-21.5 18.5 t-21.5 20.5q-20 17 -39 17l-13 -2q-56 -21 -178 -92q-31 -25 -62.5 -48.5t-50.5 -62.5q-16 -26 -63 -55q5 37 5 79v14q-1 50 -5 78.5t-31 45.5q-47 18 -101.5 18t-101.5 -18q-50 -10 -87.5 -49t-58 -63.5t-44.5 -43.5q12 48 14 74.5t-14.5 59t-48.5 48.5q-41 0 -84 -1 t-74 -31q-123 -102 -171 -163q-101 -128 -104 -233q2 -2 11 -2q33 18 59.5 59.5t40.5 63t32.5 35.5t33 27.5t30.5 9.5q-26 -71 -76.5 -157.5t-78 -167.5t-68.5 -154q-4 -12 -14.5 -23.5t-19.5 -22.5q-13 -15 -13 -30q0 -10 6 -19z" />
<glyph unicode="n" horiz-adv-x="1046" d="M4 4q0 -16 20 -27q8 -5 16 -5q12 0 24 9q20 15 42 23q31 19 101 19q17 0 37 -1q24 -2 49 3q16 14 15 33.5t5 50t23.5 64.5t30.5 71q23 39 43 80t42 80q77 142 153 176q24 10 30 36l61 39q35 15 74 29q20 7 39 7q18 0 35 -7q-23 -23 -42.5 -45.5t-39.5 -44.5 q-37 -53 -76 -103.5t-65 -109.5q-25 -81 -25 -159q0 -62 16 -122q9 -29 56 -57q12 -16 21 -36.5t47 -21.5h3q36 1 76 21q41 22 76 54t67.5 71t65.5 70q115 108 127 258l-6 4q-104 -164 -256 -303q-31 -25 -60.5 -55.5t-68.5 -34.5q-18 18 -19 36.5t4 30.5q59 118 216 340 q17 29 31 59q11 24 11 53q0 8 -1 16q-13 108 -80 124q-7 35 -21 43q-23 4 -47 4q-100 0 -213 -68q-39 -24 -76 -49q-10 23 -5 46.5t1 46.5q-16 24 -59 24q-6 0 -14 -1q-13 -1 -25 -1t-20.5 -9t-20.5 -9q-211 -140 -318 -287q-13 -22 -21.5 -58t-8.5 -38q39 35 74.5 68.5 t65 56t46 37t35.5 20.5q-23 -51 -49.5 -97t-24.5 -50.5t-6 -8.5q-33 -63 -63.5 -126.5t-73.5 -122.5q-18 -39 -43 -72t-31 -74z" />
<glyph unicode="o" horiz-adv-x="702" d="M24 334q-3 -19 -3 -37q0 -44 18 -86q23 -23 37 -52.5t28 -56.5q33 -68 89 -92q27 -16 53 -16q51 0 89 22.5t60 34.5q185 144 248 305q22 -3 42 -3q88 0 133 51q13 16 24 30q4 10 9 20.5t5 20.5q-96 -37 -162 -38q-5 0 -10 1l-12 6q14 29 19 60t16 61q6 38 6 68 q0 54 -19 84q-19 18 -45 18q-8 0 -16 -2l-21 25q-14 12 -35.5 15t-37.5 -5q-32 9 -71 9q-23 0 -48 -3q-51 -23 -102.5 -41t-96.5 -55q-53 -51 -101 -104.5t-71 -118.5q-15 -57 -25 -121zM248 107q0 11 2 20l2 68q20 25 31 88q35 186 129 338q32 42 59 45q-16 -43 -16 -89 q-1 -25 5 -53q14 -74 68 -127q2 -8 9.5 -12t13.5 -9q14 -11 2 -26q-68 -152 -234 -248q-17 -4 -31 -14q-7 -5 -15 -5t-17 5q-8 8 -8 19zM545 555q-1 7 -1 14q0 47 23 86q8 8 15 11q35 -10 41 -33q3 -17 3 -34q0 -24 -6 -48q-12 -41 -22 -78q-43 22 -53 82z" />
<glyph unicode="p" horiz-adv-x="1122" d="M-215 -434q15 -17 35 -17h2q31 12 61.5 20.5t60.5 18.5t54.5 2t48 -8t34.5 11.5t16 28t8.5 34.5t26.5 76q28 69 181 346q10 16 26.5 33.5t39.5 52t47.5 93t62.5 112.5q4 -6 19 -7q23 10 82 79t97 111q93 102 171 144h14q-2 -23 -2 -43t-8 -39q-37 -61 -96 -154.5 t-79.5 -120t-34.5 -65.5q-11 -35 -11 -81v-13q2 -55 17 -82q29 -51 40 -55q-2 -4 3.5 -6t12.5 -9t20.5 1t23.5 12q28 -12 57 -12q63 0 129 57q39 37 82 72t82 74q91 90 113 176q4 4 3 10t3 10l2 14q-61 -45 -115.5 -101t-107.5 -108q-78 -62 -111 -100q-27 -22 -59 -22 q-2 0 -4 1q-35 1 -64 5q-16 8 -16 18q16 25 38.5 43.5t38.5 44.5q21 -3 41 19q119 143 164 270q11 60 11 107q0 93 -44 137q-4 33 -28 55q-25 8 -60 2q-115 -39 -268 -204q-39 -42 -78 -81q2 27 33 82q4 43 14 87q6 21 6 44t-6 47l-14 21q-30 10 -44 10q-4 0 -7 -1 q-14 -3 -26.5 -10t-24.5 -14q-31 -19 -52 -10q-102 -43 -163.5 -99t-97 -90t-67.5 -71q-72 -83 -93 -164l2 -2q57 47 112.5 96.5t112.5 92.5q23 45 94 74q-31 -80 -79 -154t-91 -145q-47 -98 -97 -191.5t-79 -176.5t-69 -139.5t-65 -98.5t-48 -66q-40 -41 -40 -66 q0 -10 7 -18z" />
<glyph unicode="q" horiz-adv-x="1015" d="M45 250q4 -35 10 -70t29 -61q23 -16 47.5 -25.5t46.5 -25.5q22 -39 41.5 -53.5t43.5 -15.5t47 6q30 10 85 40q103 77 164 133h4q-8 -16 -44 -72t-95 -166t-129 -216l-51 -64q-12 -18 -27.5 -35.5t-13.5 -44.5q2 -4 6 -6t11 -6q4 -2 13 -2t23 2q76 39 152 43q29 4 48 2 t46 2q36 25 51.5 65.5t23 65.5t17.5 47q98 176 187 353.5t186 353.5q36 27 53.5 65.5t40.5 81.5t30 71q4 15 4 24q0 8 -3 12q-7 6 -13 14q-14 3 -28 3q-23 0 -45 -9q-26 -11 -55 -11q-8 0 -17 1q-20 -6 -44 -2t-42 -7q-40 -10 -49 -53q-4 -20 -7.5 -40.5t-13.5 -37.5 q-4 -12 -14 -8q-14 16 -12 39t0 45q-18 33 -45 41t-45.5 11t-34.5 10q-22 22 -49 22h-4q-29 -2 -47.5 -5t-34.5 -5q-154 -42 -279 -187q-16 -4 -27.5 -15t-25.5 -21q-105 -161 -115 -289zM272 170q2 16 4 32.5t9.5 33t11.5 32.5q16 6 29 23q-4 4 0 7t6 7h6q-8 12 -2 24.5 t15 40t29.5 76t48.5 91.5q65 100 157 120q7 1 14 1q14 0 26 -6q17 -9 36 -13q-2 -31 12 -57.5t28 -51.5q0 -28 -14 -55q-17 -32 -17 -58q0 -10 3 -20q-33 -68 -93.5 -117t-117.5 -96q-41 -25 -79 -53.5t-85 -36.5q-28 12 -28 55q0 10 1 21z" />
<glyph unicode="r" horiz-adv-x="733" d="M-33 375l2 -2q13 8 53 54q90 106 261 216l2 -4q-14 -53 -36 -102.5t-38 -102.5q-16 -33 -32.5 -63.5t-42 -101t-87.5 -173.5q-5 -17 -24 -41q-24 -30 -24 -53q0 -8 3 -16q18 -23 41 -25q41 14 83 15t77 26q25 4 53.5 3t42.5 26q37 70 60.5 144.5t52.5 148.5 q18 25 43.5 48t50.5 46q24 16 43 50q32 60 57 79q4 -29 7 -57.5t13 -53.5q22 -61 68 -82q12 -5 27 -5q22 0 49 13q50 31 55 101q-34 -21 -57 -25q-40 -7 -47 13q-20 39 -20 84q1 7 1 14q4 53 7 100q4 16 16 31.5t17 32t14.5 31t0.5 32.5t-27 26q-20 8 -42 -3 q-55 -66 -102 -133.5t-96 -137.5h-3q5 50 22 117q14 54 14 75q0 6 -1 8q-4 16 -13 28t-21.5 24.5t-20.5 22.5q-7 10 -21 10q-10 0 -24 -6q-8 4 -29 4q-80 -31 -185.5 -116.5t-169 -156.5t-73.5 -163z" />
<glyph unicode="s" horiz-adv-x="575" d="M8 146q-5 -26 -5 -50q0 -40 15 -76q23 -27 54.5 -40t62.5 -23q37 -4 79 -12q14 -3 27 -3q27 0 52 11q43 29 91 52.5t81 72.5q33 35 62.5 71.5t43.5 81.5q2 20 2 40q0 33 -6 65q-10 52 -12 91.5t-10 61t-19 41.5q-32 52 -34 82q-2 7 -3 14q0 30 39 68q13 13 20 27t17 29.5 t17 31.5q13 28 13 46q-1 8 -3 15q-8 21 -19.5 25t-21.5 6q-27 -12 -48.5 -32.5t-43.5 -36.5q-14 -16 -26.5 -29.5t-20.5 -32.5l-103 -65q-39 -31 -85 -63.5t-87 -68.5q-97 -85 -114 -175h6q104 89 338 252h8q4 -35 14 -68q7 -24 7 -50q0 -11 -1 -22q-18 -72 -31.5 -145.5 t-58.5 -130.5q-23 -44 -62 -71q-45 -31 -110 -70q-16 -6 -31 8q-2 10 2 22q16 23 28.5 45.5t8.5 53.5v8q0 41 -41 63q-14 4 -23 -4q-55 -48 -69 -116z" />
<glyph unicode="t" horiz-adv-x="503" d="M-20 309q-7 -21 -6 -44q0 -25 8 -51q14 -52 41.5 -101.5t52.5 -98.5q18 -10 39 -10q41 0 91 38q19 15 38 28q27 23 46 52.5t54 45.5q76 51 136.5 126t70.5 163q-131 -142 -207 -199q-18 -16 -39.5 -24.5t-40.5 -24.5q-10 -23 -30.5 -31t-36.5 -24q-6 -2 -11.5 -6.5 t-9.5 2.5q8 20 16.5 39.5t25.5 90.5q24 108 169 414q25 37 40 80t56 72q19 29 51.5 23.5t51 -10.5t36 -3t27.5 21q-2 20 11 45q28 52 28 71q-17 25 -39.5 17t-54.5 -20q-13 -5 -26 -4q-18 0 -36 9q15 52 46 103q8 20 16 38.5t4 41.5q-6 13 -21 13q-4 0 -8 -1 q-35 -27 -73 -27h-6q-42 2 -66.5 5t-28.5 1t-4 7h-2v-5q-13 -2 -28 -4t-23 -18q-24 -98 -49 -156q-33 -36 -88 -37q-19 0 -41 5q-4 6 -11.5 8t-5.5 12q-3 14 -17 14q-22 0 -32 -20q-56 -71 -69 -127q8 -18 24 -23q23 -2 41 13q22 4 47 4q36 0 80 -8q-20 -80 -59 -151 t-63.5 -113t-45.5 -87q-27 -39 -43 -84q-12 -47 -26 -90z" />
<glyph unicode="u" horiz-adv-x="878" d="M25 195q23 -47 36 -96.5t45 -90.5q16 -16 35 -21t39 -10q25 6 31 19q29 10 54.5 28.5t56.5 26.5q118 71 167 133q4 -16 11.5 -28.5t13.5 -26.5q4 -64 98 -105q25 -10 45 -20q8 -2 15 -2q30 0 58 33q34 41 70 80t64 82q105 127 105 264q-99 -169 -273 -338q-24 -8 -39 6 q-10 29 7.5 47.5t25.5 38.5q27 111 71 211t79 207q48 41 48 94q0 17 -5 35l-11 12q-20 10 -41 10q-23 0 -49 -12q-16 -6 -31.5 -3t-32.5 6q-10 2 -19 2q-25 0 -37 -15q-35 -41 -56.5 -90t-40.5 -97q-12 -47 -30.5 -89t-30.5 -87q-8 -18 -12.5 -38.5t-9.5 -40.5 q-12 -50 -42 -72q-80 -105 -192 -133q-28 -11 -47 0q-16 16 -7 32.5t15 25.5t18.5 52.5t29.5 119t42 147.5q10 44 39 78q64 75 78 100q8 25 -5 51.5t-32 30.5t-41.5 -1.5t-46 -13.5t-43.5 -4q-10 -4 -17.5 1t-14.5 10q-18 11 -32 4q-37 -23 -37 -70q-40 -71 -81 -211 q-16 -67 -35 -133q-11 -39 -11 -81q0 -28 5 -58z" />
<glyph unicode="v" horiz-adv-x="817" d="M4 396v-4q0 -4 4 -7q31 39 62.5 83t65.5 86q83 102 153 146q10 4 26.5 9.5t26.5 -7.5q-29 -35 -56.5 -71.5t-63.5 -69.5t-49 -77t-30 -87q-13 -49 -29 -98q-8 -23 -7 -46q0 -27 10 -56q-6 -19 -6 -40q0 -45 28 -100q18 -23 36 -49t50 -33q133 0 236 93q16 35 50 54t60 50 q39 33 67 74t58 80q21 -15 48 -15q13 -1 28 3q45 10 76 58t37 93q-29 -10 -52.5 -33.5t-56.5 -28.5q-4 2 -10 4.5t-10 6.5q45 68 53 149q12 51 12 109q0 57 -37 100q-25 25 -54 24q-8 0 -15 -1q-63 -32 -97 -103q-18 -36 -18 -91q0 -58 20 -139q9 -40 13 -77 q-52 -95 -148 -182q-27 -18 -52 -42t-51 -45q-55 -43 -105 -43q-6 0 -13 1q-20 16 -26 39q12 10 25 15t26 19q27 59 53.5 117t58.5 115q18 53 46 103t36 110q1 43 9 88q2 14 3 27q0 30 -12 59q-26 31 -66 31h-9q-18 -8 -42 -6t-49.5 2t-48 -17.5t-52.5 -44.5t-66.5 -64.5 t-67.5 -77.5q-69 -89 -76 -181q0 -6 -2 -12zM682 582q-2 13 -3 24q0 33 19 58q4 12 16 21q10 7 16 7h2q5 -2 9 -16v-11q0 -72 -36 -165q-4 18 -11.5 39.5t-11.5 42.5z" />
<glyph unicode="w" horiz-adv-x="1294" d="M0 385h4l43 53q41 57 97.5 94t109.5 78q10 4 18.5 10.5t18.5 -4.5q2 -8 -6 -20q-35 -27 -72 -54.5t-57 -68.5q-43 -49 -51.5 -115.5t-12.5 -132.5q4 -33 9 -69.5t30 -63.5q23 -14 43.5 -35.5t43.5 -38.5q29 -21 60 -21q22 0 46 11q58 39 168 133q35 16 57 49t51 56 q10 -35 20.5 -71t23.5 -76t51 -65.5t85 -27.5q53 4 96.5 27.5t86.5 50.5q113 88 211 260q13 -2 26 -2q22 0 43 6q47 8 85 52t54 87q-71 -47 -98.5 -51t-43 -5t-26.5 9q36 116 42 166q4 31 4 60q0 70 -23 125q-3 11 -24 21q-13 5 -25 5q-24 0 -46 -20q-34 -31 -70 -60.5 t-42 -70.5q-1 -9 -1 -19q0 -88 48 -223q2 -12 10.5 -22.5t14.5 -22.5q-18 -47 -54 -89t-71 -83q-37 -39 -79 -71q-33 -25 -75 -25q-12 0 -24 2l-27 16q-18 21 -18 49q0 14 5 32q15 50 31.5 96t32.5 93q25 59 47.5 120t61.5 114q10 29 29.5 53.5t15.5 52t-19 33.5q-9 1 -18 1 q-28 -1 -52 -15q-30 -20 -65 -23q-23 -10 -40 2.5t-35 16.5q-10 -2 -20.5 -4t-16.5 -7q-39 -63 -56.5 -134.5t-42.5 -141.5l-24 -47q-31 -41 -59.5 -85t-59.5 -86q-77 -104 -154 -138q-39 -10 -50 2q-19 21 -19 43q0 21 18 43q29 34 29 65q0 36 14 45q31 35 62.5 70t57.5 71 q58 82 58 166q-8 26 -8 54v11q2 34 -9 53q-23 39 -44 32q-53 -13 -158 -64q-149 -81 -217 -180q-16 -33 -31.5 -66.5t-17.5 -70.5zM1133 676q9 23 24 26l6 -36q0 -41 1 -85v-6q0 -41 -13 -75q-27 67 -27 120q0 30 9 56z" />
<glyph unicode="x" horiz-adv-x="1038" d="M-20 59q7 -33 49 -63q37 -21 76 -21q17 -1 33 3q58 12 100 38q71 71 196 123q12 -61 82 -141q29 -25 72 -29q8 -1 16 -1q33 0 60 14q31 23 65.5 30.5t67.5 30.5q88 68 168 150q133 115 137 258q0 4 -2 4q-40 -42 -117 -148q-59 -47 -109.5 -105.5t-113.5 -92.5l-78 -29 q-20 -8 -39.5 -20.5t-42.5 -2.5q-2 18 -2 43q0 61 12 166q12 61 38 118.5t48 115.5q18 29 35 60.5t37 59.5q45 65 102 95q8 1 16 1q45 0 109 -36q1 11 1 20q0 27 -10 43q-28 49 -62 49q-4 0 -9 -1q-19 5 -39 5q-76 0 -158 -84q-26 -28 -52 -50q-38 45 -86 88q-45 41 -104 41 h-5q-19 7 -40 7q-43 0 -93 -28q-124 -64 -153 -101.5t-37 -64.5q-6 -23 -6 -42q0 -28 14 -46q9 15 38.5 43.5t50.5 55t43.5 37.5t38 21.5t31.5 16.5q19 7 35 7q18 0 33 -9q16 -38 27 -139q-21 -60 -50 -137q-32 -44 -74 -119q-72 -127 -122 -187q-18 -14 -39 -24t-41 -21 q-20 4 -39.5 7.5t-30.5 21.5q-5 13 -5 28q0 28 18 64q4 6 13 12.5t5 16.5q-25 2 -43 -11.5t-37 -33.5q-33 -35 -33 -75q0 -16 5 -32z" />
<glyph unicode="y" horiz-adv-x="1050" d="M-98 -403v-8q0 -34 22 -56q25 -25 43.5 -38t34.5 -25q28 -14 64 -14q55 0 127 32q111 47 235 176l2 6q36 14 88 64q25 35 45.5 71.5t48.5 69.5q35 16 67 30.5t60 35.5q113 31 251 188q36 41 76 80q74 72 101 199q0 16 3 30q2 8 2 15q0 5 -1 10q-10 -4 -13 -13.5 t-13 -17.5q-14 -31 -37 -57.5t-41 -59.5q-47 -51 -98 -102t-95 -102q-24 -35 -73 -57.5t-76 -36t-49 -35.5l-8 2q35 70 68.5 141.5t49.5 150.5q27 72 55.5 140.5t48 115t26 73t26.5 46.5q4 14 14.5 26.5t19.5 26.5q18 27 18 50q0 6 -1 12q-17 17 -29 17h-1q-12 -1 -28.5 -8 t-32.5 -14q-36 -15 -60 -15q-6 0 -12 1q-25 5 -53.5 8t-49.5 -26q-45 -104 -77 -212.5t-68 -217.5q-33 -67 -138 -162q-31 -25 -62.5 -50.5t-72.5 -29.5q-10 4 -18 6.5t-17 24.5q-7 18 -7 55q0 32 5 78q33 66 80 128.5t84 113.5q46 62 46 125q0 38 -17 76q9 27 9 48 q0 23 -11 40q-14 14 -37 14q-57 -23 -111.5 -46.5t-108.5 -63.5q-157 -116 -190 -230q0 -14 -4 -28.5t0 -28.5q25 10 49 39q39 74 103.5 125t134.5 90q2 -2 2 -7q-63 -70 -119.5 -139t-78 -128.5t-25.5 -96.5q-2 -16 -2 -33q0 -20 3 -41q11 -80 60 -131q10 2 13.5 -5t9.5 -7 q50 -50 76 -60q16 -3 31 -3q38 0 73 16q51 22 79 37.5t56 27.5q-27 -41 -48 -85t-50 -85q-193 -53 -324 -125q-18 -20 -42.5 -36.5t-46.5 -33.5q-54 -42 -64 -91zM-4 -404q4 16 19.5 29t27.5 27q113 87 289 139q-29 -57 -66 -113.5t-92 -95.5q-18 -6 -37.5 -17t-40.5 -19 q-21 -9 -40 -9q-23 0 -42 14q-19 24 -19 39q0 3 1 6z" />
<glyph unicode="z" horiz-adv-x="868" d="M31 4q2 -10 3 -18.5t15 -13.5q8 -3 16 -3q7 0 15 2q16 4 31.5 15.5t30 25t26.5 23.5q25 6 46.5 21.5t43.5 29.5q46 29 81 29q9 0 17 -2q53 -62 87 -83.5t52.5 -31.5t45.5 -7t45 24.5t45 25.5q86 53 151.5 122.5t128.5 147.5q23 31 32.5 69t19.5 75l-7 4 q-72 -84 -141.5 -168t-161.5 -144l-46 -20t-46 6q-6 18 -6 40t-2 41q-5 49 -37 69q-6 1 -13 1q-33 0 -87 -31q-30 -18 -40.5 -16.5t-17.5 1.5q2 8 8.5 11t8.5 11q57 61 111.5 125t115.5 119q48 23 117 78q35 34 65 72q27 33 27 76v11q-8 19 -24 19q-5 0 -11 -2 q-43 -31 -88 -54.5t-92 -50.5q-41 -4 -74.5 -15t-49 -22.5t-38.5 -11.5q-14 4 -18 12q-10 33 -12 68q-1 36 -17 56q-15 19 -27 18h-2q-14 -2 -30 -2q-102 -52 -197 -170q-4 -33 -25.5 -61.5t-33.5 -59.5q-2 -23 -9.5 -46.5t-1.5 -45.5q4 2 6.5 0t4.5 2q47 66 102 129 q22 55 62 61q6 -33 30 -45q32 -27 77 -27q64 0 155 54q12 4 21 10t20 8q-12 -10 -21.5 -23.5t-23.5 -23.5q-59 -76 -126 -146.5t-130 -146.5q-29 -23 -62 -45t-62 -50q-70 -66 -83 -126z" />
<glyph unicode="&#xa1;" horiz-adv-x="847" d="M55 -215q10 -16 29 -18q33 6 60.5 25.5t62.5 25.5q23 10 49.5 3t50.5 -3q27 23 36 52.5t20 77.5t41 108.5t57 114.5t58.5 100t36.5 90.5t24.5 67t33.5 46.5q10 31 22.5 61.5t-1.5 63.5q-19 26 -41.5 16t-35.5 -18t-32 -9t-40 10t-38.5 3t-21.5 -18.5t-8 -20.5 q12 -66 -17.5 -120t-64.5 -105q-23 -53 -49.5 -105.5t-48.5 -105.5q-41 -70 -71 -143.5t-87 -133.5q-10 -14 -20.5 -29.5t-4.5 -35.5zM535 840q-9 -51 20 -88q34 -54 117 -4q76 56 76 122q31 45 20 111q9 18 6 33q-6 16 -26 22q-72 -4 -127 -41q-14 -16 -24.5 -35.5 t-29.5 -33.5q-23 -35 -32 -86z" />
<glyph unicode="&#xac;" horiz-adv-x="1067" d="M86 162q-10 -96 37 -150q29 -36 84 -26q110 44 172 88q77 89 227 219l10 2q0 -102 17 -152q14 -16 24 -48q19 -57 39 -75q23 -10 44.5 0.5t55.5 16.5q62 11 136 106q35 35 64.5 84t49 77t46.5 48t53 41t43 49l-2 4q-48 10 -103 -14q-55 -41 -95 -98.5t-77 -110.5l-24 -18 q-55 -92 -137 -96q-13 8 -13 41q25 84 48.5 166.5t54.5 162.5q19 77 132 147q29 19 56 38q83 93 129 137q23 41 49.5 79t40.5 83q78 108 78 190q-4 31 -6 65.5t-33 51.5q-39 6 -81 12t-75 -22q-53 -8 -96 -40t-76 -56.5t-47 -45t-27 -42.5q-37 -58 -63 -79 q-51 -77 -106 -225q-58 -94 -88 -276q-12 -84 -31 -117q-59 -41 -106.5 -95.5t-104.5 -101.5q-20 -33 -49 -52t-57 -40q-16 -6 -34 -13t-34 3q-25 6 -21.5 28.5t3.5 38.5q23 53 40 110.5t35 117.5q23 57 46.5 112.5t39.5 114.5q2 29 22.5 46.5t41.5 37.5q51 18 86 58t76 77 q39 37 66.5 81t68.5 76t53 74t37 83q8 18 16 38.5t2 43.5q-18 25 -34.5 50t-45.5 44q-35 18 -69 -6q-120 -9 -193 -93q-49 -23 -79.5 -62.5t-65.5 -78.5q-38 -24 -84 -98q-55 -104 -87 -219t-65 -214q-75 -227 -14 -378zM424 782q23 35 36 76t44 76q33 66 70.5 131t70.5 131 q-2 23 18.5 32t36.5 15q24 0 45 -35q4 -47 -39 -122q-10 -19 -18 -39q-35 -27 -56.5 -60t-54 -70.5t-72.5 -69.5t-81 -65zM915 664q31 96 74 181t82 177q29 45 62.5 88t50.5 90q45 11 63 -2q20 -48 -14 -125q-31 -33 -46.5 -71.5t-35.5 -73.5q-37 -76 -101.5 -139.5 t-123.5 -120.5z" />
<glyph unicode="&#xad;" horiz-adv-x="593" d="M72 451q6 -17 30 -17q39 10 74 25.5t72 27.5q86 15 231 -6q14 -4 25.5 -17t27.5 -7q35 21 48 80q8 12 19 23t21 24q25 29 11 57q-4 14 -17.5 20.5t-27.5 2.5q-33 -33 -114 -53q-21 -5 -40 -13l-196 -2q-16 6 -25.5 20.5t-28.5 16.5q-10 -2 -18 -4t-12 -13l-29 -77 l-51 -68v-20z" />
<glyph unicode="&#xb0;" horiz-adv-x="657" d="M57 807q4 -23 18.5 -38t22.5 -34q15 -15 26 -37t19.5 -31.5t30 -12.5t48 -7t54.5 0q61 33 127 41q41 25 68 64t49 79q72 65 68 170q4 14 10 26t7 35q3 73 -40 103q-31 14 -60.5 27.5t-62.5 24.5q-41 23 -88 15.5t-88 -20.5q-65 -32 -87 -52q-52 -43 -48 -91 q-63 -117 -74 -262zM213 815q7 98 59 209q65 92 160 88q14 -4 31.5 -3t31 -9t18.5 -23.5t3 -29t-5 -30t-5 -35t-8 -48t-31 -43.5q-25 -23 -39 -52.5t-33.5 -49t-36 -21.5t-44 -16t-78.5 -4q-12 16 -15.5 33.5t-7.5 33.5z" />
<glyph unicode="&#xb4;" horiz-adv-x="604" d="M74 920q5 -21 47 -27q176 19 328 166q12 12 27.5 19t28.5 16q34 25 34 53q-36 31 -109 2q-23 0 -40 10t-42 0t-25.5 -33.5t-11.5 -44.5q-93 -112 -237 -161z" />
<glyph unicode="&#xb7;" horiz-adv-x="458" d="M131 319q53 -42 94 -30q48 7 80 61q10 12 12 27.5t19 21.5q49 84 22 146q-20 27 -55 41q-86 17 -162 -90q-60 -107 -10 -177z" />
<glyph unicode="&#xb8;" horiz-adv-x="454" d="M47 -296q0 -30 47 -48t115 -18q219 0 219 114q0 61 -48 89t-110 28q-10 0 -23.5 -1t-31.5 -1l41 104h-61q-12 -24 -24.5 -56t-20 -50.5t-7.5 -24.5q0 -27 29 -26q123 0 123 -57.5t-84 -57.5q-60 0 -83 13q-40 22 -52 22q-29 0 -29 -30z" />
<glyph unicode="&#xbf;" horiz-adv-x="923" d="M67.5 157q-24.5 -77 2.5 -155q10 -37 40.5 -71.5t71.5 -39.5q98 -86 316 7q61 21 135 110q33 35 52.5 75t37.5 81q11 54 -14 74q-10 16 -23.5 13t-28.5 -1q-20 -6 -28 -22.5t-17 -32.5q12 -37 27 -43q-70 -148 -176 -193q-27 -6 -55.5 -14t-57.5 -13q-67 -10 -108 27 q-16 37 -13 80q29 157 123 270q23 23 67 39.5t66.5 27.5t38.5 32q101 52 142 83q84 63 102 142q4 27 -13 39t-37 5t-36 -11q-35 0 -71 4t-64 -13q-27 -20 -34 -52t-11 -64q-41 -94 -164 -140l-43 -2q-70 -26 -150 -106q-53 -59 -77.5 -136zM591 866.5q-3 -20.5 10 -49.5 t53 -34t69 12q18 14 39.5 28.5t39.5 30.5q44 38 52 76q13 66 -27 119q-23 18 -44 5.5t-42 -18.5q-52 4 -88 -57q-10 -18 -23.5 -36.5t-24.5 -37t-14 -39z" />
<glyph unicode="&#xc4;" horiz-adv-x="1351" d="M53 150q20 -41 43 -87.5t70 -66.5q47 -4 90 -5t78 34q61 51 121 121q116 131 176 180q45 -20 89 -24.5t79 -43.5l133 -6l2 -4q-31 -55 -57 -109q-16 -27 -39 -50t-36 -53t11 -50q18 -8 34.5 -2t35.5 12q31 0 62.5 -1t62.5 5q69 14 98 70q31 18 53 47q16 45 29.5 90 t36.5 88l69 16q49 10 80 55.5t41 92.5l-6 4q-35 -29 -69.5 -56.5t-79.5 -33.5q29 68 57.5 137.5t70 149t83.5 174t100 184.5q12 35 31.5 72.5t60.5 56.5q40 40 31 80q-4 18 -25 22q-111 11 -164 -39q-203 -24 -309 -131q-179 -113 -324 -286q-130 86 -251 45 q-23 -16 -50.5 -29.5t-52.5 -30.5q-130 -87 -51 -196q10 -16 5 -34t12 -44q53 -87 94 -125l2 -6q-76 -78 -150 -150.5t-151 -148.5q-18 -12 -41 -6t-43 10q-47 33 -74 127q0 42 33 98v10q-33 0 -62 -16q-65 -81 -39 -147zM534 622q-20 43 5.5 61.5t47 37t45.5 31.5 q51 27 87 14q67 -23 96 -49q-39 -66 -88 -130.5t-90 -131.5q-45 34 -82 100q4 18 -5 34.5t-16 32.5zM688 408q16 29 39 57.5t41 56.5l109 154q91 -73 159 -238l-55 -104q-84 -10 -168 10q-9 21 -29 26t-33.5 7t-23.5 8zM936 752q76 98 173 175t196 148q82 42 141 55l4 -4 q-14 -39 -44 -70.5t-52 -66.5q-36 -45 -75.5 -128t-63 -126t-56.5 -80q-23 -31 -39 -62.5t-37 -64.5q-45 120 -147 224zM1193.5 1329q-5.5 -41 16.5 -74q16 -16 43 -12q14 8 33 13.5t36 12.5q38 16 44 52q4 18 14.5 37.5t17.5 40t4 39t-19.5 27.5t-28.5 10h-23 q-27 4 -43 -12.5t-33 -32.5q-22 -9 -38 -29q-18 -31 -23.5 -72zM1481.5 1351.5q-11.5 -26.5 7.5 -48.5q55 -28 92 -11q43 8 69 44t44 71q6 20 6 43t-23 40t-46 15q-35 -3 -60 -35q-5 -21 -26 -30.5t-31.5 -16t-15.5 -26t-16.5 -46z" />
<glyph unicode="&#xd6;" horiz-adv-x="1136" d="M49 520q-8 -202 105 -377q57 -63 81 -83q52 -43 101 -46q12 -4 22.5 -14t26.5 -8q156 -10 313 122q45 38 80 70t58.5 56t31.5 59l93 141q63 148 94 279q2 55 12 108.5t0 106.5q29 20 66.5 37.5t70.5 40.5q78 53 78 129q-4 4 -5 8t-5 4q-33 -35 -69 -59.5t-70 -53.5 l-32 -20t-32 -14q-13 43 -63.5 112.5t-121.5 96t-147 14.5l-14 12q-47 6 -87 -13.5t-74 -32.5t-57.5 -33.5t-51.5 -18.5q-130 -52 -250 -203q-20 -35 -44 -67.5t-43 -67.5q-45 -80 -38 -154q-22 -92 -29 -131zM215 219q29 104 62.5 203.5t60.5 204.5q16 30 27.5 89.5 t22.5 87t52 59.5t78 84t84 97q41 27 81 56.5t87 46.5q-45 -98 -45 -150q16 -31 33.5 -66.5t56.5 -45.5q47 0 90 6t90 10q15 -206 -107 -419q-36 -62 -73 -124q0 -29 -21.5 -50t-41.5 -44q-66 -53 -129.5 -104t-135.5 -84q-59 -16 -116.5 0t-86.5 48q-57 63 -69 95zM557 1339 q12 -46 39 -53q27 8 54.5 9t55.5 10.5t37 36t13 53.5q28 50 4 86q-14 4 -22.5 15t-26.5 8q-30 -5 -56 -40q-45 -10 -64.5 -49t-33.5 -76zM813 1027.5q10 29.5 19.5 46t15.5 32.5q23 23 49 12q23 -16 70 -74q20 -41 28 -61q-109 -26 -168 -12q-24 27 -14 56.5zM877 1294 q6 -16 21 -25t28 -20q20 -6 43 2q23 18 52.5 40t31.5 57q2 12 8 24l12 24q15 31 4 52q-16 16 -31.5 26.5t-37.5 4.5q-18 -12 -39 -16.5t-43 -28.5q-45 -46 -49 -140z" />
<glyph unicode="&#xdc;" horiz-adv-x="1130" d="M43 258q4 -75 25 -133q23 -35 44 -75t57 -52l67 -22q120 -40 188 4q59 18 101 60t67.5 69.5t61.5 56.5t81 60.5t82 78.5l10 4q-6 -33 -18 -60.5t-14 -62.5t12 -61.5t37 -48.5q31 -27 104 -70q24 -5 70 25q66 -14 142 61l38 39q29 29 58.5 49.5t49 40.5t27.5 34.5t17 28.5 q20 36 45 42q41 23 52 62.5t19 80.5l-6 4q-33 -10 -60.5 -38.5t-56.5 -51.5q-55 -80 -134 -145.5t-156 -120.5l-21 -2q-47 16 -45 55t19.5 76t27.5 78q17 58 56.5 123t62.5 102t39 76l151 331l27 64l47 53q14 27 29.5 56.5t3.5 62.5q-55 15 -104 -23q-23 -10 -46.5 -8 t-44.5 -6q-16 0 -30.5 3t-30.5 -5q-63 -76 -70 -158q-29 -49 -51 -101t-57 -116q-62 -113 -146 -299q-128 -147 -239 -231q-29 -25 -56.5 -53.5t-56.5 -54.5q-79 -73 -125 -91q-32 -21 -64 -14.5t-52.5 12.5t-38.5 6q-33 16 -47.5 49t-24.5 64q12 78 45 139q81 32 131 86 q59 78 118.5 157t119.5 157q23 41 44 79.5t52 73.5q25 43 45 88t18 98q-12 45 -16 92.5t-37 82.5l-31 30q-45 31 -95 13.5t-89 -41.5l-41 -2q-27 -8 -57.5 -11.5t-58.5 -9.5q-65 -14 -87 -65q-49 -35 -67.5 -88.5t-34.5 -104.5q4 -10 11 -10h18q33 6 49 26.5t27.5 46 t22.5 53t34 48.5q110 72 229 41q23 -7 23 -43q-10 -43 -31 -83t-39 -81q-66 -66 -129.5 -136.5t-128.5 -142.5q-199 -169 -168 -401zM760 1338q-5 -37 11.5 -56.5t45.5 -15.5q29 16 61.5 23t59.5 32q20 33 37.5 67.5t13.5 75.5q-8 21 -47 31q-25 -4 -49.5 -8t-44.5 -21 q-18 -18 -34.5 -36.5t-37.5 -36.5q-4 -12 -9 -26.5t-7 -28.5zM1042.5 1346.5q-12.5 -29.5 10.5 -58.5q20 -14 42.5 -29.5t44.5 -5.5q51 22 58 56q8 16 20.5 30.5t23.5 29.5q27 36 20 69q-6 12 -13.5 26.5t-27.5 16.5q-14 -5 -47 0q-55 -10 -74 -54q-10 -4 -22.5 -7 t-17.5 -23.5t-17.5 -50z" />
<glyph unicode="&#xdf;" horiz-adv-x="937" d="M-256 -482.5q-2 -11.5 6 -21.5q6 -14 33 -12t37 24.5t20 40.5q23 87 121 185q27 23 58.5 25.5t58.5 25.5q47 55 81 116.5t68 123.5q42 48 64 109q45 125 67 165q39 90 86.5 176t63.5 184q-2 16 1 35t4 38q2 39 -21 61q14 20 24 44.5t37 34.5q27 31 53.5 64t55.5 62 q63 67 137 77q10 0 10 -11t4 -17q-5 -147 -27 -228q0 -24 -17 -45q-36 -42 -38 -59q-23 -23 -53.5 -31t-55 -14t-46 -3t-31.5 -15q-30 -55 2 -87q18 -6 36.5 -1t34.5 7q23 -10 50 -10t49 -6q16 -6 20 -27q-16 -41 -25.5 -81.5t-16.5 -72.5t-9 -57.5t-12 -48.5 q-29 -33 -58.5 -63.5t-62.5 -45.5l-61 -27q-27 -13 -54 -19q-16 10 -16 41q8 27 8 55q0 29 -4 57h-4q-32 -37 -66 -123q-8 -27 -12 -59.5t23 -54.5q28 -42 105 -22q20 5 38 7h76q66 -17 146 58q24 24 123 80q40 22 65 65q33 47 28.5 109.5t-6.5 120.5q-4 108 -115 196v4 q23 16 49.5 23.5t49.5 31.5q33 47 53 98.5t43 102.5q9 111 -21 187q-26 37 -79 88q-46 31 -136 4l-151 -105q-35 -37 -65.5 -73.5t-61.5 -73.5q-39 -23 -58.5 -59.5t-41.5 -71.5q-99 -50 -168 -113q-41 -41 -87.5 -83t-74.5 -91q-23 -25 -52.5 -47.5t-37.5 -56.5 q46 -9 108 36q18 8 29.5 22.5l23 29t23.5 29t33 25.5q66 34 94 48q-67 -83 -139 -268q-19 -47 -41 -92l-21 -19q-27 -49 -46 -99t-44 -102q-70 -117 -132 -237.5t-96 -186t-36 -77z" />
<glyph unicode="&#xe0;" horiz-adv-x="983" d="M52 271q18 -89 77 -150q33 -92 109 -125q23 -4 52.5 -4t51.5 22q118 97 184 222q-12 -121 68 -222q41 -36 103.5 -6.5t130 88t114.5 133.5q25 35 48.5 71t30.5 68t12 52t1 43q-23 -8 -33 -31.5t-26 -40.5q-97 -166 -232 -266q-12 -4 -24 -13q-26 -18 -44.5 -18t-31.5 10 q-16 6 -16 31q-10 43 35 79q18 15 37.5 29.5t34.5 47.5t30.5 81t29.5 96q35 113 85 183q12 18 28.5 30.5t32.5 33.5q6 18 20.5 35.5t4.5 40.5l-15 14q-40 6 -82 -6t-62 -8t-38 7q-47 8 -70 -22l-57 -139q-14 41 -37.5 81t-75.5 57t-113 -4t-108 -62q-33 -5 -47 -17 q-129 -92 -197 -250q-29 -82 -11 -171zM260 141q-16 86 5.5 163t53.5 149q27 16 32 44.5t20 55.5q41 126 121 139q29 4 46 -15.5t28 -40.5q25 -49 32 -91q-16 -53 -38.5 -103.5t-43.5 -103.5q-35 -55 -72.5 -111.5t-72.5 -84t-49.5 -35t-30.5 -5.5t-21.5 15.5t-9.5 23.5z M391 1223q-8 -20 1 -36t36 -45q90 -99 166 -147q23 -10 46.5 -23.5t47.5 -22.5q56 -22 98 -15l2 6q-53 45 -112.5 88t-93.5 107q-2 10 0 21t3 22q3 27 -18 36q-45 16 -90 0q-20 4 -41.5 14.5t-44.5 -5.5z" />
<glyph unicode="&#xe1;" horiz-adv-x="983" d="M52 271q18 -89 77 -150q33 -92 109 -125q23 -4 52.5 -4t51.5 22q118 97 184 222q-12 -121 68 -222q41 -36 103.5 -6.5t130 88t114.5 133.5q25 35 48.5 71t30.5 68t12 52t1 43q-23 -8 -33 -31.5t-26 -40.5q-97 -166 -232 -266q-12 -4 -24 -13q-26 -18 -44.5 -18t-31.5 10 q-16 6 -16 31q-10 43 35 79q18 15 37.5 29.5t34.5 47.5t30.5 81t29.5 96q35 113 85 183q12 18 28.5 30.5t32.5 33.5q6 18 20.5 35.5t4.5 40.5l-15 14q-40 6 -82 -6t-62 -8t-38 7q-47 8 -70 -22l-57 -139q-14 41 -37.5 81t-75.5 57t-113 -4t-108 -62q-33 -5 -47 -17 q-129 -92 -197 -250q-29 -82 -11 -171zM260 141q-16 86 5.5 163t53.5 149q27 16 32 44.5t20 55.5q41 126 121 139q29 4 46 -15.5t28 -40.5q25 -49 32 -91q-16 -53 -38.5 -103.5t-43.5 -103.5q-35 -55 -72.5 -111.5t-72.5 -84t-49.5 -35t-30.5 -5.5t-21.5 15.5t-9.5 23.5z M395 920q5 -20 45 -27q178 19 330 166q12 12 26.5 19t27.5 16q34 24 34 53q-35 30 -108 2q-23 0 -40.5 10t-39.5 0q-27 -10 -28 -33.5t-11 -44.5q-89 -112 -236 -161z" />
<glyph unicode="&#xe2;" horiz-adv-x="983" d="M52 271q18 -89 77 -150q33 -92 109 -125q23 -4 52.5 -4t51.5 22q118 97 184 222q-12 -121 68 -222q41 -36 103.5 -6.5t130 88t114.5 133.5q25 35 48.5 71t30.5 68t12 52t1 43q-23 -8 -33 -31.5t-26 -40.5q-97 -166 -232 -266q-12 -4 -24 -13q-26 -18 -44.5 -18t-31.5 10 q-16 6 -16 31q-10 43 35 79q18 15 37.5 29.5t34.5 47.5t30.5 81t29.5 96q35 113 85 183q12 18 28.5 30.5t32.5 33.5q6 18 20.5 35.5t4.5 40.5l-15 14q-40 6 -82 -6t-62 -8t-38 7q-47 8 -70 -22l-57 -139q-14 41 -37.5 81t-75.5 57t-113 -4t-108 -62q-33 -5 -47 -17 q-129 -92 -197 -250q-29 -82 -11 -171zM197 913q23 -14 49 -10t49 8q169 54 252 179q23 -29 47 -59t65 -30q93 -98 201 -94q21 7 21 15q-31 29 -66 51t-57 57q-22 18 -30 47q-17 56 -36 76q-4 16 -6 34.5t-16 31.5q-41 27 -107 -25h-10q-64 28 -90 23q-25 -10 -33 -33 q7 -50 -36 -100q-97 -115 -197 -162v-9zM260 141q-16 86 5.5 163t53.5 149q27 16 32 44.5t20 55.5q41 126 121 139q29 4 46 -15.5t28 -40.5q25 -49 32 -91q-16 -53 -38.5 -103.5t-43.5 -103.5q-35 -55 -72.5 -111.5t-72.5 -84t-49.5 -35t-30.5 -5.5t-21.5 15.5t-9.5 23.5z " />
<glyph unicode="&#xe4;" horiz-adv-x="976" d="M47 227q14 -41 41 -71q25 -17 41 -51q31 -66 58.5 -83.5t59.5 -32t62 8.5q51 32 109 114q65 95 98 126h2q-12 -67 -4 -97q30 -68 47 -93q37 -54 90 -54q155 71 232 166q20 20 29.5 50t39.5 46q59 43 71 148q3 28 7 57q-63 -25 -94 -111q-92 -102 -135 -174 q-91 -75 -160 -78q-29 8 -29 58q0 14 -2 24q16 23 36 37t42 31q43 45 55.5 104.5t30.5 118.5l86 184q31 29 62.5 62t31.5 76l-6 10q-29 12 -61.5 3t-51 -14.5t-38.5 -0.5q-23 16 -49 16q-27 0 -52 -10q-10 -41 -29.5 -81t-35.5 -81q-20 41 -46 82t-73 55q-105 18 -205 -61 q-139 -34 -244 -238q-60 -117 -16 -246zM238 211q8 63 18 123.5t39 114.5q25 18 36 42.5t20 50.5q25 72 52 97q41 49 63.5 54t39.5 -3l31 -24q25 -27 34 -59.5t17 -67.5q-12 -53 -36 -104.5t-46 -102.5q-41 -33 -82 -89.5t-64 -86.5q-46 -60 -73 -60q-10 0 -21 2 q-27 23 -27.5 51.5t-0.5 61.5zM441 995.5q-3 -32.5 9 -56.5q23 -43 91 -32q77 23 110 94q6 16 1 32t7 26q14 18 7 39.5t-15 38.5q-10 12 -22.5 26.5t-28.5 5.5q-27 -4 -43 -20q-31 -31 -51 -41q-62 -80 -65 -112.5zM743 1016q6 -16 11.5 -33.5t17.5 -34.5q32 -23 66.5 -14.5 t69 38t39.5 56t12.5 40t11.5 26.5q9 32 -8 53q-43 32 -72 22q-62 -22 -100 -51q-14 -27 -27.5 -50.5t-20.5 -51.5z" />
<glyph unicode="&#xe7;" horiz-adv-x="747" d="M41 346q3 -98 68 -203q31 -25 53 -58.5t47 -66.5q29 -20 62.5 -12t64.5 12q287 89 442 299q23 39 44.5 77t25.5 83q-41 -39 -76 -84t-82 -84q-141 -147 -328 -209q-25 -2 -52 -12t-52 8q-14 16 -10 41q41 142 47 225q31 59 54.5 123t60.5 123q31 27 53 58.5t55 56.5 l107 14q26 -33 20 -114q0 -20 24 -22.5t42 13.5q40 65 -9 183q-20 30 -72 14q-14 -4 -26 -6q-88 18 -179 -0.5t-159 -75.5q-53 -20 -88 -66.5t-67 -89.5q-14 -25 -32 -52t-30 -55q-29 -67 -8 -120zM84 -228.5q0 -29.5 46 -48t114 -18.5q219 0 219 115q0 61 -47 89t-109 28 q-10 0 -23.5 -1.5t-31.5 -1.5l41 107h-62q-51 -127 -51 -133q0 -27 29 -27q121 0 121 -57t-84 -57q-55 0 -80 12t-34 17t-19 5q-29 0 -29 -29.5z" />
<glyph unicode="&#xe8;" horiz-adv-x="692" d="M39 355.5q8 -56.5 8 -115.5q18 -25 30.5 -50.5t26.5 -51.5q32 -65 76 -93q3 -16 23 -31q87 -45 149 -28q92 49 162 123q61 34 85.5 69t50.5 65.5t48 62.5q55 77 58 143q0 10 -11 6q-57 -78 -121.5 -142.5t-131.5 -138.5l-25 -12q-98 -83 -170 -99q-29 6 -45 48.5t-14 69 t9 51t15 49t12 49.5q75 71 168 63q92 -16 158 68q98 60 115 176q-24 80 -74 106q-47 10 -89 26.5t-91 6.5q-53 -23 -107.5 -41t-103.5 -47q-29 -23 -60.5 -46.5t-61.5 -49.5q-71 -63 -87 -123q-10 -57 -2 -113.5zM162 1223q-8 -28 22 -68q111 -117 181 -160q23 -10 46 -23.5 t47 -22.5q55 -21 99 -15l2 6q-27 23 -55.5 44.5t-55.5 43.5q-61 50 -96 107q-2 10 0 21t3 22q3 26 -17 36q-45 16 -90 0q-20 4 -42 14.5t-44 -5.5zM311 449q16 45 37 90t68 67q4 4 5 6t7 6q0 10 6 21.5t10 26.5q5 22 58 34q94 -5 129 -49q10 -58 -51 -115q-17 -16 -32 -31 t-35.5 -23.5t-39.5 -18.5q-64 6 -162 -14z" />
<glyph unicode="&#xe9;" horiz-adv-x="692" d="M39 355.5q8 -56.5 8 -115.5q18 -25 30.5 -50.5t26.5 -51.5q32 -65 76 -93q3 -16 23 -31q87 -45 149 -28q92 49 162 123q61 34 85.5 69t50.5 65.5t48 62.5q55 77 58 143q0 10 -11 6q-57 -78 -121.5 -142.5t-131.5 -138.5l-25 -12q-98 -83 -170 -99q-29 6 -45 48.5t-14 69 t9 51t15 49t12 49.5q75 71 168 63q92 -16 158 68q98 60 115 176q-24 80 -74 106q-47 10 -89 26.5t-91 6.5q-53 -23 -107.5 -41t-103.5 -47q-29 -23 -60.5 -46.5t-61.5 -49.5q-71 -63 -87 -123q-10 -57 -2 -113.5zM236 920q2 -16 17 -20.5t28 -6.5q182 19 327 166 q12 12 27.5 19t28.5 16q34 24 34 53q-35 30 -108 2q-23 0 -40.5 10t-39.5 0q-27 -10 -28 -33.5t-11 -44.5q-89 -112 -235 -161zM311 449q16 45 37 90t68 67q4 4 5 6t7 6q0 10 6 21.5t10 26.5q5 22 58 34q94 -5 129 -49q10 -58 -51 -115q-17 -16 -32 -31t-35.5 -23.5 t-39.5 -18.5q-64 6 -162 -14z" />
<glyph unicode="&#xea;" horiz-adv-x="692" d="M39 355.5q8 -56.5 8 -115.5q18 -25 30.5 -50.5t26.5 -51.5q32 -65 76 -93q3 -16 23 -31q87 -45 149 -28q92 49 162 123q61 34 85.5 69t50.5 65.5t48 62.5q55 77 58 143q0 10 -11 6q-57 -78 -121.5 -142.5t-131.5 -138.5l-25 -12q-98 -83 -170 -99q-29 6 -45 48.5t-14 69 t9 51t15 49t12 49.5q75 71 168 63q92 -16 158 68q98 60 115 176q-24 80 -74 106q-47 10 -89 26.5t-91 6.5q-53 -23 -107.5 -41t-103.5 -47q-29 -23 -60.5 -46.5t-61.5 -49.5q-71 -63 -87 -123q-10 -57 -2 -113.5zM51 907q23 -16 49.5 -12t74 17t112.5 57.5t112 109.5l4 2 q20 -29 45 -57.5t66 -28.5q99 -99 201 -96q20 7 20 14q-31 29 -65.5 52.5t-57.5 58.5q-20 17 -30 46q-17 53 -35 75q-4 16 -5 34.5t-22 33.5q-34 24 -102 -25h-10q-23 10 -44.5 18t-46.5 2q-23 -10 -32 -32q6 -46 -36 -98q-94 -117 -198 -165v-6zM311 449q16 45 37 90t68 67 q4 4 5 6t7 6q0 10 6 21.5t10 26.5q5 22 58 34q94 -5 129 -49q10 -58 -51 -115q-17 -16 -32 -31t-35.5 -23.5t-39.5 -18.5q-64 6 -162 -14z" />
<glyph unicode="&#xeb;" horiz-adv-x="692" d="M39 355.5q8 -56.5 8 -115.5q18 -25 30.5 -50.5t26.5 -51.5q32 -65 76 -93q3 -16 23 -31q87 -45 149 -28q92 49 162 123q61 34 85.5 69t50.5 65.5t48 62.5q55 77 58 143q0 10 -11 6q-57 -78 -121.5 -142.5t-131.5 -138.5l-25 -12q-98 -83 -170 -99q-29 6 -45 48.5t-14 69 t9 51t15 49t12 49.5q75 71 168 63q92 -16 158 68q98 60 115 176q-24 80 -74 106q-47 10 -89 26.5t-91 6.5q-53 -23 -107.5 -41t-103.5 -47q-29 -23 -60.5 -46.5t-61.5 -49.5q-71 -63 -87 -123q-10 -57 -2 -113.5zM189 995.5q-3 -32.5 9 -56.5q23 -43 91 -32q77 23 110 94 q6 16 1.5 32t7.5 26q19 25 -9 78q-10 12 -22 26.5t-29 5.5q-27 -4 -43 -20q-31 -31 -51 -41q-62 -80 -65 -112.5zM311 449q16 45 37 90t68 67q4 4 5 6t7 6q0 10 6 21.5t10 26.5q5 22 58 34q94 -5 129 -49q10 -58 -51 -115q-17 -16 -32 -31t-35.5 -23.5t-39.5 -18.5 q-64 6 -162 -14zM492 1016q6 -16 11 -33.5t17 -34.5q32 -23 66.5 -14.5t69 38t39.5 56t12.5 40t11.5 26.5q9 32 -8 53q-43 32 -72 22q-62 -22 -100 -51q-14 -27 -27.5 -50.5t-19.5 -51.5z" />
<glyph unicode="&#xee;" horiz-adv-x="518" d="M-47 885q23 -16 48.5 -12t73.5 17t112.5 57t111.5 110l4 2q20 -29 45 -58.5t66 -29.5q99 -99 202 -94q19 6 19 14q-29 29 -63.5 51.5t-57.5 56.5q-22 18 -30 47q-17 55 -35 76q-4 16 -6.5 35t-16.5 31q-40 27 -107 -23h-10q-60 26 -92 21q-23 -10 -33 -33q7 -54 -34 -101 q-96 -111 -197 -161v-6zM32.5 273q4.5 -42 9.5 -73.5t13 -53t33 -25.5q14 -23 28.5 -48.5t31.5 -48.5q42 -53 94 -53q59 15 77 31q66 70 129.5 134.5t112.5 144.5q42 107 47 168q-2 4 -3 2t-33 -47q-150 -215 -274 -322q-15 -14 -36 -19q-24 0 -43.5 29.5t-20.5 49.5t3 40.5 t12 40t12 37.5q66 70 112 266q23 98 43.5 117t35.5 31q35 29 35 61q-8 12 -11.5 28.5t-21.5 16.5q-25 -8 -48.5 -17t-48 -14t-47 0t-47.5 3q-53 -41 -74.5 -95.5t-48.5 -107.5q-7 -60 -49 -197q-27 -37 -22.5 -79z" />
<glyph unicode="&#xef;" horiz-adv-x="518" d="M32.5 273q4.5 -42 9.5 -73.5t13 -53t33 -25.5q14 -23 28.5 -48.5t31.5 -48.5q42 -53 94 -53q59 15 77 31q66 70 129.5 134.5t112.5 144.5q42 107 47 168q-2 4 -3 2t-33 -47q-150 -215 -274 -322q-15 -14 -36 -19q-24 0 -43.5 29.5t-20.5 49.5t3 40.5t12 40t12 37.5 q66 70 112 266q23 98 43.5 117t35.5 31q35 29 35 61q-8 12 -11.5 28.5t-21.5 16.5q-25 -8 -48.5 -17t-48 -14t-47 0t-47.5 3q-53 -41 -74.5 -95.5t-48.5 -107.5q-7 -60 -49 -197q-27 -37 -22.5 -79zM104 940q28 -43 93 -33q33 10 64.5 35t42.5 50t5 41t8 26q19 29 -10 78 q-10 12 -22.5 26.5t-28.5 5.5q-27 -4 -43 -20q-31 -31 -51 -41q-12 -18 -27.5 -37.5t-26.5 -40.5q-22 -48 -4 -90zM399 1016q6 -16 11.5 -33.5t19.5 -34.5q28 -23 64.5 -14.5t71 38t40.5 70.5q2 12 9.5 25.5t11.5 26.5q9 31 -9 53q-42 32 -73 22q-55 -23 -99 -51 q-12 -27 -26 -50.5t-21 -51.5z" />
<glyph unicode="&#xf1;" horiz-adv-x="1046" d="M4 4q0 -16 19.5 -27t40 4t42.5 23q39 24 138 18q24 -2 49 3q16 14 15 33.5t5 50t23.5 64.5t30.5 71q23 39 43 80t42 80q77 142 153 176q24 10 30 36l61 39q35 14 74 28.5t74 0.5q-23 -23 -42.5 -45.5t-39.5 -44.5q-37 -53 -76 -103.5t-65 -109.5q-44 -145 -9 -281 q9 -29 56 -57q12 -16 21 -36.5t47 -21.5t79 20.5t76 54t67.5 71.5t65.5 70q115 108 127 258l-6 4q-104 -164 -256 -303q-31 -25 -60.5 -55.5t-68.5 -34.5q-18 18 -18.5 36.5t3.5 30.5q59 118 216 340q16 29 30.5 59.5t10.5 68.5q-13 108 -80 124q-7 35 -21 43 q-120 20 -260 -64q-39 -24 -76 -49q-10 23 -5 46.5t1 46.5q-18 27 -73 23q-13 -1 -25 -1t-20.5 -9t-20.5 -9q-211 -140 -318 -287q-13 -22 -21.5 -58t-8.5 -38q39 35 74.5 68.5t65 56t46 37t35.5 20.5q-23 -51 -49.5 -97t-24.5 -50.5t-6 -8.5q-33 -63 -63.5 -126.5 t-73.5 -122.5q-18 -39 -43 -72t-31 -74zM156 1047l75 -148q25 43 65 81t108 38q111 0 233 -57q129 -56 193.5 -56t101.5 12.5t68 32.5q47 30 104 97l-76 147q-35 -43 -76 -80t-92 -37t-107.5 18.5t-114.5 40.5q-137 52 -207 52t-110 -12.5t-71 -33.5q-51 -34 -94 -95z" />
<glyph unicode="&#xf2;" horiz-adv-x="702" d="M24.5 334q-10.5 -64 14.5 -123q23 -23 37 -52.5t28 -56.5q33 -68 89 -92q27 -16 53 -16q51 0 89 22.5t60 34.5q185 144 248 305q120 -14 175 48q13 16 24 30q4 10 9 20.5t5 20.5q-103 -40 -172 -37l-12 6q14 29 19 60t16 61q17 105 -13 152q-25 23 -61 16l-21 25 q-14 12 -35.5 15t-37.5 -5q-52 15 -119 6q-51 -23 -102.5 -41t-96.5 -55q-53 -51 -101 -104.5t-71 -118.5q-14 -57 -24.5 -121zM201 1223q-8 -20 1 -36t21 -32q111 -116 180 -160q23 -10 45.5 -23.5t45.5 -22.5q57 -22 102 -15l2 6q-27 23 -56.5 44.5t-57.5 43.5 q-63 53 -93 107q-4 10 -2 21t3 22q3 27 -15 36q-45 16 -90 0q-20 4 -42 14.5t-44 -5.5zM248 107q0 11 2 20l2 68q20 25 31 88q35 186 129 338q32 42 59 45q-25 -68 -10.5 -142.5t67.5 -126.5q2 -8 9.5 -12t13.5 -9q14 -11 2 -26q-68 -152 -234 -248q-16 -4 -30.5 -14 t-32.5 0q-8 8 -8 19zM545 555q-4 55 22 100q8 8 15 11q35 -10 41 -33q8 -41 -3.5 -82t-21.5 -78q-43 22 -53 82z" />
<glyph unicode="&#xf3;" horiz-adv-x="702" d="M24.5 334q-10.5 -64 14.5 -123q23 -23 37 -52.5t28 -56.5q33 -68 89 -92q27 -16 53 -16q51 0 89 22.5t60 34.5q185 144 248 305q120 -14 175 48q13 16 24 30q4 10 9 20.5t5 20.5q-103 -40 -172 -37l-12 6q14 29 19 60t16 61q17 105 -13 152q-25 23 -61 16l-21 25 q-14 12 -35.5 15t-37.5 -5q-52 15 -119 6q-51 -23 -102.5 -41t-96.5 -55q-53 -51 -101 -104.5t-71 -118.5q-14 -57 -24.5 -121zM248 107q0 11 2 20l2 68q20 25 31 88q35 186 129 338q32 42 59 45q-25 -68 -10.5 -142.5t67.5 -126.5q2 -8 9.5 -12t13.5 -9q14 -11 2 -26 q-68 -152 -234 -248q-16 -4 -30.5 -14t-32.5 0q-8 8 -8 19zM250 920q5 -20 45 -27q178 19 330 166q12 12 27.5 19t28.5 16q34 25 34 53q-35 30 -111 2q-23 0 -40 10t-41 0t-25.5 -33.5t-10.5 -44.5q-93 -112 -237 -161zM545 555q-4 55 22 100q8 8 15 11q35 -10 41 -33 q8 -41 -3.5 -82t-21.5 -78q-43 22 -53 82z" />
<glyph unicode="&#xf4;" horiz-adv-x="702" d="M24.5 334q-10.5 -64 14.5 -123q23 -23 37 -52.5t28 -56.5q33 -68 89 -92q27 -16 53 -16q51 0 89 22.5t60 34.5q185 144 248 305q120 -14 175 48q13 16 24 30q4 10 9 20.5t5 20.5q-103 -40 -172 -37l-12 6q14 29 19 60t16 61q17 105 -13 152q-25 23 -61 16l-21 25 q-14 12 -35.5 15t-37.5 -5q-52 15 -119 6q-51 -23 -102.5 -41t-96.5 -55q-53 -51 -101 -104.5t-71 -118.5q-14 -57 -24.5 -121zM51 907q23 -16 49.5 -12t74 17t112.5 57.5t112 109.5l4 2q20 -29 45 -57.5t66 -28.5q99 -99 201 -96q20 7 20 14q-31 29 -65.5 52.5t-57.5 58.5 q-20 17 -30 46q-17 53 -35 75q-4 16 -5 34.5t-22 33.5q-34 24 -102 -25h-10q-23 10 -44.5 18t-46.5 2q-23 -10 -32 -32q6 -46 -36 -98q-94 -117 -198 -165v-6zM248 107q0 11 2 20l2 68q20 25 31 88q35 186 129 338q32 42 59 45q-25 -68 -10.5 -142.5t67.5 -126.5 q2 -8 9.5 -12t13.5 -9q14 -11 2 -26q-68 -152 -234 -248q-16 -4 -30.5 -14t-32.5 0q-8 8 -8 19zM545 555q-4 55 22 100q8 8 15 11q35 -10 41 -33q8 -41 -3.5 -82t-21.5 -78q-43 22 -53 82z" />
<glyph unicode="&#xf6;" horiz-adv-x="694" d="M22.5 337.5q-12.5 -65.5 6 -104t51.5 -71.5q14 -35 25.5 -68t44.5 -61q31 -12 65.5 -26.5t69.5 3.5q55 35 112.5 64.5t104.5 81.5q42 31 65 79t35 76.5t29 55.5l6 2q28 -12 102 0q37 12 70 42.5t43 71.5q-29 0 -73 -18.5t-66.5 -22.5t-48.5 7q18 41 26 86t16 82 q18 90 -30 120q-29 10 -55 -2l-17 33q-31 12 -47 8l-25 -8q-67 31 -149 -14q-122 -19 -229 -136q-66 -61 -92.5 -138t-39 -142.5zM231 149.5q-2 18.5 6.5 35t17.5 31.5q22 37 19 71q12 111 46 210t114 177q8 4 15.5 9t15.5 7l-4 -10q-6 -37 -11.5 -78t3.5 -82 q20 -35 42.5 -72.5t61.5 -66.5q-59 -126 -133 -203q-43 -23 -83 -50.5t-85 -43.5q-25 2 -24 24.5t-1 41zM288 988q6 -41 27 -48.5t36.5 -13.5t35 6t45 18t41.5 35q16 35 35.5 72t11.5 80q-18 29 -53 25.5t-66.5 -11.5t-52 -40t-47.5 -56q-17 -45 -13 -67zM535 573 q5 56 28 95q12 10 27.5 5.5t25.5 -30t2 -66t-12 -75.5l-10 -37q-66 53 -61 108zM600 997q6 -18 22.5 -29.5t32.5 -21.5q23 -6 40.5 2t33.5 15.5t26.5 21.5t18.5 31q21 42 43 59q10 18 8 43t-12 41.5t-25.5 22.5t-29.5 -4q-29 10 -51.5 -4.5t-44.5 -30.5q-2 -12 -13.5 -16.5 t-21.5 -14.5q-33 -53 -27 -115z" />
<glyph unicode="&#xf9;" horiz-adv-x="878" d="M25 195q23 -47 36 -96.5t45 -90.5q16 -16 35 -21t39 -10q25 6 31 19q29 10 54.5 28.5t56.5 26.5q118 71 167 133q4 -16 11.5 -28.5t13.5 -26.5q4 -64 98 -105q25 -10 45 -20q40 -10 73.5 31t69.5 80t64 82q105 127 105 264q-99 -169 -273 -338q-24 -8 -39 6 q-10 29 7.5 47.5t25.5 38.5q27 111 71 211t79 207q63 54 43 129l-11 12q-41 21 -90 -2q-16 -6 -31.5 -3t-32.5 6q-39 7 -56 -13q-35 -41 -56.5 -90t-40.5 -97q-12 -47 -30.5 -89t-30.5 -87q-8 -18 -12.5 -38.5t-9.5 -40.5q-12 -50 -42 -72q-80 -105 -192 -133q-28 -11 -47 0 q-16 16 -7 32.5t15 25.5t18.5 52.5t29.5 119t42 147.5q10 44 39 78q64 75 78 100q8 25 -5 51.5t-32 30.5t-41.5 -1.5t-46 -13.5t-43.5 -4q-10 -4 -17.5 1t-14.5 10q-18 11 -32 4q-37 -23 -37 -70q-40 -71 -81 -211q-16 -66 -35 -132.5t-6 -139.5zM346 1223q-12 -30 26 -71 q105 -111 175 -157q23 -10 46 -23.5t47 -22.5q58 -22 101 -15l2 6q-27 23 -56.5 44.5t-56.5 43.5q-65 54 -93 107q-6 20 1 42.5t-18 36.5q-45 16 -88 0q-20 4 -41.5 14.5t-44.5 -5.5z" />
<glyph unicode="&#xfa;" horiz-adv-x="878" d="M25 195q23 -47 36 -96.5t45 -90.5q16 -16 35 -21t39 -10q25 6 31 19q29 10 54.5 28.5t56.5 26.5q118 71 167 133q4 -16 11.5 -28.5t13.5 -26.5q4 -64 98 -105q25 -10 45 -20q40 -10 73.5 31t69.5 80t64 82q105 127 105 264q-99 -169 -273 -338q-24 -8 -39 6 q-10 29 7.5 47.5t25.5 38.5q27 111 71 211t79 207q63 54 43 129l-11 12q-41 21 -90 -2q-16 -6 -31.5 -3t-32.5 6q-39 7 -56 -13q-35 -41 -56.5 -90t-40.5 -97q-12 -47 -30.5 -89t-30.5 -87q-8 -18 -12.5 -38.5t-9.5 -40.5q-12 -50 -42 -72q-80 -105 -192 -133q-28 -11 -47 0 q-16 16 -7 32.5t15 25.5t18.5 52.5t29.5 119t42 147.5q10 44 39 78q64 75 78 100q8 25 -5 51.5t-32 30.5t-41.5 -1.5t-46 -13.5t-43.5 -4q-10 -4 -17.5 1t-14.5 10q-18 11 -32 4q-37 -23 -37 -70q-40 -71 -81 -211q-16 -66 -35 -132.5t-6 -139.5zM395 920q5 -20 45 -27 q178 19 330 166q12 12 26.5 19t27.5 16q34 24 34 53q-35 30 -108 2q-23 0 -40.5 10t-39.5 0q-27 -10 -28 -33.5t-11 -44.5q-89 -112 -236 -161z" />
<glyph unicode="&#xfb;" horiz-adv-x="878" d="M25 195q23 -47 36 -96.5t45 -90.5q16 -16 35 -21t39 -10q25 6 31 19q29 10 54.5 28.5t56.5 26.5q118 71 167 133q4 -16 11.5 -28.5t13.5 -26.5q4 -64 98 -105q25 -10 45 -20q40 -10 73.5 31t69.5 80t64 82q105 127 105 264q-99 -169 -273 -338q-24 -8 -39 6 q-10 29 7.5 47.5t25.5 38.5q27 111 71 211t79 207q63 54 43 129l-11 12q-41 21 -90 -2q-16 -6 -31.5 -3t-32.5 6q-39 7 -56 -13q-35 -41 -56.5 -90t-40.5 -97q-12 -47 -30.5 -89t-30.5 -87q-8 -18 -12.5 -38.5t-9.5 -40.5q-12 -50 -42 -72q-80 -105 -192 -133q-28 -11 -47 0 q-16 16 -7 32.5t15 25.5t18.5 52.5t29.5 119t42 147.5q10 44 39 78q64 75 78 100q8 25 -5 51.5t-32 30.5t-41.5 -1.5t-46 -13.5t-43.5 -4q-10 -4 -17.5 1t-14.5 10q-18 11 -32 4q-37 -23 -37 -70q-40 -71 -81 -211q-16 -66 -35 -132.5t-6 -139.5zM197 913q23 -14 49 -10 t49 8q169 54 252 179q23 -29 47 -59t65 -30q93 -98 201 -94q21 7 21 15q-31 29 -66 51t-57 57q-22 18 -30 47q-17 56 -36 76q-4 16 -6 34.5t-16 31.5q-41 27 -107 -25h-10q-64 28 -90 23q-25 -10 -33 -33q7 -50 -36 -100q-97 -115 -197 -162v-9z" />
<glyph unicode="&#xfc;" horiz-adv-x="976" d="M25 188q14 -35 20 -71.5t16 -75.5q26 -41 53 -50t41.5 -6t28 12t24.5 21.5t23 22.5q92 16 162 86q45 31 73 73t69 76l2 -2q-4 -47 11 -89t13 -89q10 -16 15.5 -31.5t17.5 -29.5q47 -33 88 -33q29 10 57.5 21.5t59.5 17.5l75 55q30 22 64 67q65 86 96 109q54 60 74 187 l-4 10q-47 -18 -69.5 -62.5t-49.5 -80.5q-39 -31 -67.5 -71t-57.5 -77q-81 -87 -145 -57v43q0 66 102 350q16 33 35.5 64.5t26.5 68.5q46 70 49 107q-6 16 -21 20q-61 -14 -127 -20q-25 -8 -80 -13q-23 -6 -23.5 -25.5t-9.5 -39t-21.5 -40t-25.5 -52.5q-14 -33 -51 -156 q-35 -29 -60.5 -64.5t-53.5 -68.5q-33 -47 -75 -78t-68.5 -51t-40 -23.5t-29.5 7.5q-16 4 -13.5 17t6.5 27t1 39t22 37q33 201 125 363q8 18 21.5 34.5t24.5 32.5q28 42 13 78q-89 0 -106 -9t-29 -14q-28 -12 -45 9q-23 6 -40 -5t-36 -18q-69 -122 -106 -305 q-6 -31 -17.5 -60.5t-20.5 -59.5q-24 -78 -17 -128zM383 969q16 -27 41 -32t47 -9q39 8 71.5 32.5t42 55.5t3.5 50.5t10 35.5q7 33 -23 72q-21 26 -55 12q-31 -25 -66.5 -46.5t-43.5 -56.5t-22.5 -59.5t-4.5 -54.5zM704.5 984.5q8.5 -11.5 21.5 -19t28.5 -12.5t25.5 -13 q66 -10 101 39q16 39 35.5 77t23.5 81q-20 33 -49 44t-52.5 -0.5t-45.5 -27.5q-45 -16 -62.5 -57t-26 -70.5t0 -41z" />
<glyph unicode="&#x2000;" horiz-adv-x="752" />
<glyph unicode="&#x2001;" horiz-adv-x="1505" />
<glyph unicode="&#x2002;" horiz-adv-x="752" />
<glyph unicode="&#x2003;" horiz-adv-x="1505" />
<glyph unicode="&#x2004;" horiz-adv-x="501" />
<glyph unicode="&#x2005;" horiz-adv-x="376" />
<glyph unicode="&#x2006;" horiz-adv-x="250" />
<glyph unicode="&#x2007;" horiz-adv-x="250" />
<glyph unicode="&#x2008;" horiz-adv-x="188" />
<glyph unicode="&#x2009;" horiz-adv-x="301" />
<glyph unicode="&#x200a;" horiz-adv-x="83" />
<glyph unicode="&#x2010;" horiz-adv-x="593" d="M72 451q6 -17 30 -17q39 10 74 25.5t72 27.5q86 15 231 -6q14 -4 25.5 -17t27.5 -7q35 21 48 80q8 12 19 23t21 24q25 29 11 57q-4 14 -17.5 20.5t-27.5 2.5q-33 -33 -114 -53q-21 -5 -40 -13l-196 -2q-16 6 -25.5 20.5t-28.5 16.5q-10 -2 -18 -4t-12 -13l-29 -77 l-51 -68v-20z" />
<glyph unicode="&#x2011;" horiz-adv-x="593" d="M72 451q6 -17 30 -17q39 10 74 25.5t72 27.5q86 15 231 -6q14 -4 25.5 -17t27.5 -7q35 21 48 80q8 12 19 23t21 24q25 29 11 57q-4 14 -17.5 20.5t-27.5 2.5q-33 -33 -114 -53q-21 -5 -40 -13l-196 -2q-16 6 -25.5 20.5t-28.5 16.5q-10 -2 -18 -4t-12 -13l-29 -77 l-51 -68v-20z" />
<glyph unicode="&#x2012;" horiz-adv-x="593" d="M72 451q6 -17 30 -17q39 10 74 25.5t72 27.5q86 15 231 -6q14 -4 25.5 -17t27.5 -7q35 21 48 80q8 12 19 23t21 24q25 29 11 57q-4 14 -17.5 20.5t-27.5 2.5q-33 -33 -114 -53q-21 -5 -40 -13l-196 -2q-16 6 -25.5 20.5t-28.5 16.5q-10 -2 -18 -4t-12 -13l-29 -77 l-51 -68v-20z" />
<glyph unicode="&#x2013;" horiz-adv-x="954" d="M87 505q-7 -13 3 -24q25 -14 47.5 -1.5t44.5 20.5q125 23 371 28q39 8 77 14.5t77 -7.5q14 0 30.5 -7.5t33.5 -12.5q41 -12 60 22q6 10 1 19t3 25.5t29 35t16 38t-11.5 21.5t-12.5 2l-111 -29q-94 -23 -278 -28q-65 12 -178 26q-24 -3 -37 13q-25 29 -49 26 q-16 -6 -25 -18q-16 -39 -31.5 -74t-48.5 -66q-4 -10 -11 -23z" />
<glyph unicode="&#x2014;" horiz-adv-x="2076" d="M72 451q22 -17 109 -17q142 10 269 25.5t261 27.5q312 15 839 -6q51 -4 92.5 -17t99.5 -7q127 21 175 80q29 12 69 23t76 24q91 29 40 57q-15 14 -64 20.5t-100 2.5q-119 -33 -414 -53q-76 -5 -145 -13l-712 -2q-58 6 -92.5 20.5t-103.5 16.5q-36 -2 -65 -4t-44 -13 l-105 -77l-185 -68v-20z" />
<glyph unicode="&#x2018;" horiz-adv-x="428" d="M62.5 1065.5q9.5 -50.5 11.5 -73.5t22 -38q14 -8 30.5 -18t33.5 -14q44 -10 67 16q14 25 38 48.5t43 47.5q45 56 28 111q-16 33 -49 43q-83 9 -125 -49l-4 2l10 45q49 111 123 157q16 8 35.5 12.5t32 26t6.5 48.5q-12 16 -34 11t-41.5 -10t-38 -18.5t-34.5 -31t-31.5 -36 t-33.5 -32.5q-41 -61 -70 -129t-19.5 -118.5z" />
<glyph unicode="&#x2019;" horiz-adv-x="434" d="M74 943.5q-2 -15.5 16 -23.5q28 -7 53 10q16 25 39 46t44 42q59 55 77 90q87 155 65 238q-23 90 -104 100q-66 -3 -110 -88q-23 -20 -44.5 -43t-19.5 -49q4 -57 39 -74q18 -10 35.5 -10t33.5 6q24 9 62 33q-22 -94 -100 -174q-20 -18 -48 -30.5t-38 -41.5q2 -16 0 -31.5z " />
<glyph unicode="&#x201c;" horiz-adv-x="923" d="M186 1038q8 -23 9.5 -46t21.5 -38l31 -18q67 -38 102 2q14 25 38 48.5t44 47.5q44 56 27 111q-16 33 -51 43q-80 9 -123 -49l-4 2l10 45q50 113 121 157q16 8 35.5 12.5t32.5 26t7 48.5q-14 16 -35.5 11t-41 -10t-38 -18.5t-33.5 -30.5q-45 -52 -67 -69 q-102 -152 -86 -275zM598 1029q25 -90 104 -99q69 7 109 90q66 52 66 96q-12 53 -44 70.5t-66 1t-60 -30.5q18 86 98 174q20 18 48 29.5t38 40.5q-4 14 0 30.5t-17 22.5q-23 10 -51 -10q-22 -30 -64 -69q-80 -73 -100 -107q-29 -57 -52 -123t-9 -116z" />
<glyph unicode="&#x201d;" horiz-adv-x="831" d="M74 943.5q-2 -15.5 16 -23.5q28 -7 53 10q16 25 39 46t44 42q59 55 77 90q87 155 65 238q-23 90 -104 100q-66 -3 -110 -88q-23 -20 -44.5 -43t-19.5 -49q4 -57 39 -74q18 -10 35.5 -10t33.5 6q24 9 62 33q-22 -94 -100 -174q-20 -18 -48 -30.5t-38 -41.5q2 -16 0 -31.5z M479 946q12 -16 34 -11t38 7q47 16 75.5 53t65.5 68q105 156 89 247q-9 50 -11 73.5t-19 34.5t-34 21.5t-34 14.5q-44 10 -69 -16q-14 -25 -36.5 -48.5t-41.5 -47.5q-45 -57 -28 -113q18 -31 49 -39q82 -9 125 45l4 -2l-10 -41q-47 -109 -123 -162q-16 -4 -36.5 -8 t-28.5 -20q-15 -34 -9 -56z" />
<glyph unicode="&#x201e;" horiz-adv-x="870" d="M80 31q10 -23 30.5 -27t40 -14t43 -3t44.5 11q3 -3 -2 -12h2q-9 -64 -78 -150q-18 -10 -38 -21.5t-24 -33.5q12 -31 60 -31q63 9 96 64q12 35 31.5 64.5t38 67.5t24.5 88t31 93q16 36 -9.5 81.5t-71.5 49.5t-81 -18q-15 -23 -45.5 -41.5t-46.5 -28.5t-29 -27 q-35 -51 -16 -112zM500 -207q9 -23 22 -31q61 -2 105 29q133 142 174 281q21 53 -15 136q-10 21 -14 38q-5 21 -39 41q-45 18 -80 -17q-20 -34 -51 -55q-57 -40 -78 -74q-24 -69 0 -96q63 -58 113 -39q23 3 53 27q-5 -25 -16.5 -41t-26 -40t-29.5 -46q-37 -54 -77 -70 q-36 -26 -41 -43z" />
<glyph unicode="&#x2022;" horiz-adv-x="585" d="M172 338q67 -53 121 -41q62 11 104 82q10 16 13.5 35.5t25.5 27.5q67 111 29 189q-29 39 -70 55q-117 17 -213 -117q-75 -138 -10 -231z" />
<glyph unicode="&#x202f;" horiz-adv-x="301" />
<glyph unicode="&#x205f;" horiz-adv-x="376" />
<glyph unicode="&#xe000;" horiz-adv-x="798" d="M0 0v799h799v-799h-799z" />
</font>
</defs>
</svg>
