<?xml version="1.0" standalone="no"?>
<!DOCTYPE svg PUBLIC "-//W3C//DTD SVG 1.1//EN" "http://www.w3.org/Graphics/SVG/1.1/DTD/svg11.dtd" >
<svg xmlns="http://www.w3.org/2000/svg">
<metadata></metadata>
<defs>
<font id="SpecialEliteRegular" horiz-adv-x="1158" >
<font-face units-per-em="2048" ascent="1440" descent="-608" />
<missing-glyph horiz-adv-x="600" />
<glyph unicode="&#xfb01;" horiz-adv-x="2133" d="M41 32q0 80 102 87q29 2 59.5 3t59.5 3.5t52 12.5q50 22 50 87q0 26 -9 60h2q15 23 15 72v60q0 95 -8.5 117t-8.5 30l16 91q0 14 -4 19q-8 11 -9 19q16 25 16 43t-5 26.5t-11 15.5q-17 22 -17 34q-231 0 -231 79q0 26 40 48q34 19 66 19l57 -2q53 0 63 8t14 20.5t7 27.5 q7 37 7 50l-7 88q0 73 34 107t59.5 60.5t53.5 47.5q61 47 113 54t82.5 12t54.5 5t52.5 -4.5t61 -13t65.5 -20.5t60 -28q61 -35 61 -73q66 -2 74 -127q2 -36 11 -58l-5 -1q-11 0 -19 6.5t-18 8.5l-1 -4q0 -12 11 -23q21 -21 21 -30t-11.5 -10t-20.5 -3.5t-16 -14t-16 -25.5 q-25 -34 -64.5 -34t-77 17.5t-55.5 45t-24 57.5t-7 59.5t-7 53.5q-13 53 -79 53q-143 0 -205 -86q-22 -31 -22 -76t4 -70.5t17 -37.5q16 -14 105 -14q15 0 41 -27q46 -49 46 -69q0 -62 -165 -62q-51 0 -51 -78l15 -268q0 -39 -10.5 -64t-10.5 -41l9 -44l-13 -85 q0 -26 14 -46q27 -39 31 -57q27 4 53.5 11t49.5 7t54.5 -2t61.5 -9q76 -19 76 -62t-16 -67q-30 -42 -63.5 -47t-59.5 -16t-48 -11t-37.5 6t-31.5 13q-47 18 -81 18q-165 0 -202 -10t-61 -16q-87 -23 -114 -16t-42 14q-37 16 -52 30zM1043 46q0 19 16 29t38 17q39 11 78 11 l96 -13l84 12l75 -5q45 0 89 31q15 92 15 197l-16 195q0 4 4 5q9 2 9 10l-12 82l14 102q0 37 -21 59q-37 40 -66 40t-49.5 -5t-42.5 -11q-56 -17 -88 -17q-43 0 -87.5 7.5t-62 9.5t-33.5 7q-38 12 -38 45.5t12.5 52t31 27.5t41.5 11t52 5q89 7 143 7l185 -11q112 0 151 -92 q13 -31 13 -77.5t-41 -92.5q8 -14 20.5 -21.5t16.5 -13t4 -27.5t16 -23l-2 -212q0 -193 24 -223q12 -15 50 -15t82 9.5t79.5 9.5t59 -13t45.5 -28q58 -41 80.5 -41t22.5 -50.5t-51 -74.5q-15 -7 -27.5 -7t-24 12t-31.5 14.5t-41 5.5q-55 6 -73 45q-8 17 -17 22t-40.5 5 t-71.5 -14t-79 -32q-101 -45 -157.5 -45t-98.5 19q-9 -9 -26 -9l-25 2q-7 0 -23 -8l6 -10q-16 -24 -120 -42q-23 -4 -45 -4q-47 0 -83 47q-7 10 -17.5 20t-19.5 20q-23 25 -23 44zM1329 1186q0 24 5.5 49.5t6.5 51.5q12 6 30 32q31 44 47 48l1 1l-1 -1q36 13 57 13 t50.5 -10.5t56.5 -27.5q65 -41 65 -78.5t-9.5 -68t-27.5 -55.5q-41 -59 -100 -59q-53 0 -97 19q-84 37 -84 86z" />
<glyph unicode="&#xfb02;" horiz-adv-x="2076" d="M41 32q0 80 102 87q29 2 59.5 3t59.5 3.5t52 12.5q50 22 50 87q0 26 -9 60h2q15 23 15 72v60q0 95 -8.5 117t-8.5 30l16 91q0 14 -4 19q-8 11 -9 19q16 25 16 43t-5 26.5t-11 15.5q-17 22 -17 34q-231 0 -231 79q0 26 40 48q34 19 66 19l57 -2q53 0 63 8t14 20.5t7 27.5 q7 37 7 50l-7 88q0 73 34 107t59.5 60.5t53.5 47.5q61 47 113 54t82.5 12t55.5 5t57.5 -5.5t69.5 -15.5q83 -23 132 -58q35 31 80.5 31t79.5 -9t61 -9t48 4t43 9q57 13 90 13t63 -14.5t60 -27.5l-1 -8q0 -13 10 -26q20 -24 20 -37l-5 -35q0 -22 8.5 -42t8.5 -43l-11 -94 l14 -116l-15 -93q0 -26 10 -54q20 -52 20 -79v-20q0 -39 -16 -58q16 -61 16 -101t-30 -63q18 -52 21 -109.5t6 -76.5t6 -37q8 -50 8 -56l-12 -66q0 -42 28 -42q12 0 31 12q35 23 68 23l98 -14q29 0 62 8q66 16 98.5 16t60 -23t27.5 -63t-23.5 -60.5t-56.5 -30.5 q-52 -17 -107 -17t-76.5 6t-37.5 12.5t-28 12.5t-25 6l-67 -12q-20 0 -28 10q-24 26 -35 12q-4 -6 -9 -13q-13 -18 -42 -18l-82 9l-80 -15q-8 0 -12 5.5t-15 5.5t-29.5 -8t-37.5 -8l-39 5q-17 0 -34 -8t-34 -8t-47.5 2.5t-62.5 7.5q-83 13 -83 29q0 26 9.5 52t9.5 50v2 q-13 0 -15 14q3 7 12 9q17 5 17 15v4q108 -11 200.5 -6t133.5 17q95 28 95 105v23q-16 352 -16 433l-9 112q0 83 52 129q-2 10 -11 11q-21 4 -26 6.5t-7 13.5t-4 24q-4 38 -9 45q3 29 10 57t7 53t-5.5 37t-12.5 20q-18 21 -18 30t5 16l-8 1q-13 0 -21 -11q-16 -21 -25 -21 t-18 3q-17 -5 -42 -5t-59.5 9.5t-57.5 9.5q-31 0 -49 -2q7 -27 10 -53q5 -55 12 -73l-5 -1q-11 0 -19 6.5t-18 8.5l-1 -4q0 -12 11 -23q21 -21 21 -30t-11.5 -10t-20.5 -3.5t-16 -14t-16 -25.5q-25 -34 -64.5 -34t-77 17.5t-55.5 45t-24 57.5t-7 59.5t-7 53.5q-13 53 -79 53 q-143 0 -205 -86q-22 -31 -22 -76t4 -70.5t17 -37.5q16 -14 105 -14q15 0 41 -27q46 -49 46 -69q0 -62 -165 -62q-51 0 -51 -78l15 -268q0 -39 -10.5 -64t-10.5 -41l9 -44l-13 -85q0 -26 14 -46q27 -39 31 -57q27 4 53.5 11t49.5 7t54.5 -2t61.5 -9q76 -19 76 -62t-16 -67 q-30 -42 -63.5 -47t-59.5 -16t-48 -11t-37.5 6t-31.5 13q-47 18 -81 18q-165 0 -202 -10t-61 -16q-87 -23 -114 -16t-42 14q-37 16 -52 30zM1463.5 1295q4.5 -14 9.5 -14q10 0 23 16q-12 12 -24.5 12t-8 -14zM1525 998q8 -4 12 -4q19 0 19 25t-19 25q-6 0 -12 -3v-43z" />
<glyph horiz-adv-x="0" />
<glyph horiz-adv-x="2048" />
<glyph unicode="&#xd;" horiz-adv-x="600" />
<glyph unicode=" "  horiz-adv-x="600" />
<glyph unicode="&#x09;" horiz-adv-x="600" />
<glyph unicode="&#xa0;" horiz-adv-x="600" />
<glyph unicode="!" horiz-adv-x="566" d="M150 124.5q0 54.5 38.5 87t77.5 32.5t57.5 -11.5t32 -29t21 -39t7.5 -44.5t-10 -45t-27 -39q-36 -36 -88 -36q-47 0 -79 36q-30 34 -30 88.5zM167 1216.5q0 23.5 1.5 32t3.5 15.5t5 14t10.5 33.5t15.5 53.5t19 43q22 28 78 28q14 0 23.5 -11.5t18.5 -17t16 -5.5 t14.5 -5.5t15.5 -18t14 -28.5q13 -33 13 -62l-2 -57l10 -82q0 -58 -11 -80t-12 -35l2 -41q0 -12 -4 -23t-8 -30q-6 -27 -6 -76.5t-7 -74t-9 -50.5l2 -39l-29 -182l10 -37q0 -30 -18 -59q-33 -51 -51 -51q-34 0 -50 57q-4 17 -4 35l4 59l-22 158v61q0 41 -10 77.5t-14 82 t-3 94t-1.5 91t-8.5 75t-6 56z" />
<glyph unicode="&#x22;" horiz-adv-x="721" d="M98 1362q2 44 17.5 55.5t33.5 16t38 4.5q95 3 104 -68q2 -17 0.5 -33t-1.5 -28l-13 -96l-2 -79l-14 -93q0 -107 -42 -121q-33 0 -55 50q-21 47 -10 71q-7 5 -7 26v25q0 7 5.5 9t10 9.5t-1 14t-14 11t-17 8t-8.5 4.5q5 40 -7.5 84t-12.5 58t-2 33.5t-2 38.5zM414 1336.5 q0 25.5 9 43.5t24 31q33 29 70 29t55.5 -14t25.5 -43q11 -47 -8 -189q0 -5 -8 -7q-14 -4 -14 -9t-4 -10.5t-8 -11.5q-17 -22 -9 -25.5t15 -6.5q18 -9 18 -12l12 -65v-31q0 -82 -38 -82q-9 0 -14.5 -7t-13.5 -7q-78 0 -78 108v16v-2l1 15q0 51 -10.5 130.5t-17.5 101.5 t-7 47.5z" />
<glyph unicode="#" horiz-adv-x="1136" d="M64 553q0 63 98 67q25 1 43 1l70 -7q29 0 43 46q6 20 11 41.5t12 36.5t13.5 26.5t6.5 27t-22 15.5h-31l-31 -1h-25q-100 0 -100 67q0 30 22 44q37 23 68 23l133 -14q25 0 38 58q3 13 6 26.5t7.5 27.5t9.5 28q14 37 19 74q0 89 20 118q-4 13 -4 34.5t8.5 51t24.5 54.5 q38 61 81 61q81 0 81 -78q0 -14 2 -24t0 -21q-3 -22 -32 -63l-35 -139q-14 -10 -39.5 -89t-28.5 -87q13 -47 53 -47q14 0 28 7t36 7l69 -3q42 0 51 66q6 35 17 48t14 18q6 8 6 30.5t5 37t12 28.5q16 37 16 52t-6.5 23t-6.5 17l11 78q0 38 26 66q45 50 75.5 50t44 -15.5 t24.5 -31.5l2 -45q3 -52 -29 -78l-12 -75q0 -26 -10 -43q-27 -45 -34.5 -63t-15 -37t-15.5 -42q-21 -62 -21 -67t8 -9t18 -6q20 -4 33 -4l68 6q42 0 65 -32q7 -9 7 -19t-4.5 -22t-13.5 -22q-21 -24 -50 -20q-38 4 -89.5 4t-70 -8.5t-25.5 -24t-9.5 -39t-11.5 -46t-17 -36.5 t-8 -28q6 -19 49 -19l92 7q60 0 90 -33q10 -11 10 -25.5t-7.5 -25.5t-18.5 -19q-24 -18 -47 -18t-40.5 8t-37.5 8l-111 -8q-39 -21 -48 -86q-3 -25 -6 -51t-14 -41q-12 -18 -12 -35t-4 -28t-8 -21q-12 -27 -12 -38.5t-7.5 -29.5t-15.5 -38q-20 -49 -15 -50q0 -56 -47 -84 q-17 -10 -41 -10q-55 0 -55 82q0 33 11 40q24 17 30 46q-3 20 10 43q23 42 23 64t8.5 42.5t8.5 41t4.5 36t10.5 30.5t12.5 30.5t10.5 31.5q-16 16 -59 16l-63 -3q-41 0 -62 12q-7 -8 -13 -12t-11 -8q-15 -11 -19 -38.5t-7 -44.5q-10 -44 -23 -72.5t-15 -42.5t-3 -28 q-4 -51 -17 -74t-20 -35q-16 -27 -16 -48.5t-7.5 -40.5t-20.5 -34q-29 -32 -70 -32q-23 0 -49 12q-3 23 -8.5 46t-5.5 45t14 52t31 62q45 85 45 101t8.5 34t18.5 39q28 55 28 82q0 28 -61 28l-31 -1q-96 0 -96 55zM443 634q0 -16 8.5 -19t20.5 -3l108 -6q36 0 61 10 q8 22 16.5 35t16.5 25q17 28 17 74l14 51q-9 12 -20 12l-46 -4l-55 10l-80 -14q-36 -45 -36 -94q0 -11 -8 -28q-17 -33 -17 -49z" />
<glyph unicode="$" horiz-adv-x="1079" d="M65 374q0 32 12 50q-4 9 -4 27.5t8 34.5t20 30t26 26.5t26 24.5l45 -2l37 2q72 -31 72 -90q0 -56 -59 -86q-21 -11 -39.5 -20t-18.5 -24t14.5 -32.5t34.5 -32.5q48 -36 74 -36q85 -37 125.5 -36t44.5 20.5t5.5 42.5t3.5 47q3 58 9 66t6 12.5t-5 13t-5 38.5l3 105v12 q-9 27 -9 103q2 15 -14.5 28t-43 23.5t-59 19.5t-62.5 17q-76 22 -87 33h-19q-29 0 -96 96q-23 34 -25 54t-2 34v37q0 108 31 121v20q0 53 47 100q5 10 8.5 20.5t13.5 21.5t35 24t58 25q76 26 116 26h50q33 0 35 42v1l-14 81l8 76l-10 43l4 37q0 13 -11 23q-22 20 -22 31.5 t10 15.5t15 12q-8 45 -8 70q0 80 69 80q36 0 63.5 -21t27.5 -59l-11 -136l4 -135l-16 -114q0 -34 13.5 -37t26 -2t22.5 1h16q4 0 9 -1h10q27 0 61 -10q68 -20 87 -22q19 -17 43 -36t44 -39q48 -48 48 -85l-10 -39l6 -37q0 -59 -28 -96q-53 -68 -101 -68q-106 0 -106 118 q0 56 28 91q3 9 20 20q33 20 33 23t-7.5 9t-16.5 13q-22 16 -31 19l-117 37q-13 1 -23 1q-30 0 -30 -110l4 -35q0 -16 -9 -20q-15 -7 -15 -14q0 -8 22 -30q2 -38 -4 -72t-6 -52.5t-1 -33.5t-2.5 -33.5t-3.5 -39t11 -32.5t36.5 -21t53.5 -16t61 -11q68 -9 100 -9.5t64 -15.5 t60 -44q65 -71 65 -172v-28q0 -74 -16 -93q6 -9 6 -19.5t-4 -21t-9 -22.5q-11 -29 -11 -44t-2.5 -20t-6.5 -8t-9.5 -5.5t-11.5 -9.5t-9.5 -15t-6.5 -16q-12 -33 -35 -36q-22 -3 -42.5 -16t-34.5 -22q-36 -21 -62 -25t-55.5 -10t-57.5 -19q-67 -29 -67 -81l8 -201 q0 -18 9 -46q16 -53 16 -79q0 -55 -64 -90l-14 3l-33 -3q-51 27 -51 130q0 116 10.5 143.5t10.5 47t-8.5 37t-8.5 44.5t-17.5 49.5t-44.5 36.5t-59 22t-61 15q-70 15 -82.5 34.5t-29.5 38t-32 37.5q-36 46 -44 87q-25 31 -25 63zM176 1040q4 -21 13 -41.5t9 -43.5v-7 q22 -41 92 -82q18 -11 31 -14l156 -34q9 -7 14 3t7 28.5t2 42.5q-2 58 -3.5 76t-3 35l-3 34t-3 32t-1.5 25l18 82l-2 63q0 14 -5 20.5t-44 6t-74 -6.5t-57.5 -16t-35 -21t-20 -21t-11.5 -17.5t-10 -9.5v-13q0 -15 -15.5 -29t-20 -22.5t-6 -18.5t-4.5 -19q-7 -24 -23 -32z M569 647l4 -131q0 -1 2.5 -8.5t5.5 -17.5q8 -28 8 -45l-1 -21q0 -40 -1.5 -79.5t1.5 -71.5q8 -72 50 -74q62 29 90.5 33t44 13.5t28 21.5l25 24t27.5 20q2 17 17 49q26 57 26 78l-8 37l6 37q0 50 -53 96q-16 13 -37 18q-44 10 -59 19q-22 5 -52.5 19t-58.5 22 q-65 17 -65 -39z" />
<glyph unicode="%" horiz-adv-x="1366" d="M66 -303q0 15 3 22.5t6 13.5q9 18 9 25v6q9 18 22 35t25 35q29 42 31 76q16 15 30 33t30 32q3 19 14 31.5t26 34.5t27 53.5t23 63.5q30 86 49 111.5t21.5 33t5.5 14.5q4 13 32 33q3 36 26 67l35 49q13 18 23 41t21 55t24 48.5t19 22.5t10 12q9 11 13.5 33t8.5 34t10 22 q7 14 31.5 38t31.5 37t11 25q13 32 33.5 54t25.5 32.5t8 21.5q14 53 51 118q60 105 60 112t-1 10l63 86v10q0 26 18 47t26.5 32t8.5 29q-52 -11 -114.5 -50t-109 -49.5t-91.5 -27.5q-6 -6 -6 -21t10.5 -35t15.5 -40q-18 -25 -18 -79v-31q0 -62 -27 -89v-8q0 -34 -33 -54 q-26 -15 -52 -46.5t-46 -49.5q-45 -42 -88.5 -42t-75 -9.5t-59 -9.5t-36.5 5.5t-24 19t-30.5 21.5t-27 20.5t-20.5 34.5t-15 47q-15 56 -15 93.5t4.5 63.5t12.5 47.5t19.5 44t22.5 51.5t16 50.5t18.5 38.5t39 34t54.5 30q68 32 95.5 32t41.5 -3.5t29 -7.5q39 -11 54.5 -11 t29 9.5t24.5 14.5h14q68 0 236 100q69 42 82 66q22 18 36.5 45t32 44.5t37.5 24.5t39 12q47 12 57.5 36.5t17.5 38t18 21.5q19 16 49 16t47.5 -9.5t33.5 -24.5q37 -33 37 -57t-7.5 -35.5t-7.5 -24t1 -15.5q-12 -20 -27.5 -38t-31.5 -36q-38 -45 -52 -80q-19 -13 -37 -40 q-35 -50 -51 -64q-17 -72 -32 -93.5t-35.5 -42.5t-36.5 -52.5t-30 -63.5q-38 -85 -66.5 -111t-37 -43t-14.5 -32q-14 -37 -30 -46q-7 -43 -41 -86q2 -4 2 -12t-3.5 -17.5t-7.5 -18.5q-12 -23 -12 -38l6 -30q0 -30 -21 -49t-44.5 -35t-37.5 -35t-23 -39.5t-17 -41.5 t-19.5 -37.5t-18.5 -26t-17 -28.5t-19.5 -47.5t-30.5 -49.5v-7q0 -16 -7 -24q-15 -18 -17 -27v-12q-2 -26 -9 -33t-15.5 -17.5t-11.5 -24.5t-12 -31.5t-22 -32t-24 -28.5q-23 -30 -23 -77v-8q-48 -48 -111 -243q-7 -24 -10 -38q-20 -22 -41.5 -41.5t-54.5 -19.5l-35 2 q-7 10 -16.5 19t-18.5 18q-20 22 -20 37zM263 981q0 -40 5 -58.5t16 -32.5q24 -32 65 -32q20 0 44 15q47 29 70 30q6 11 14.5 20.5t14.5 20.5q0 18 4 29q49 49 49 127q0 67 -28 112q-20 11 -54 11t-71 -17.5t-62 -46.5q-3 -27 -14 -46t-22 -39q-31 -53 -31 -93zM678 323 q0 21 10 44q17 41 17 58t2.5 24.5t7 13.5t9.5 12t17.5 26t35.5 54.5t51 62.5q66 66 141 66l100 -11q12 0 15 1q123 -86 123 -265l-2 -86q-10 -11 -16 -25l-12 -28q-16 -37 -34 -51q-10 -52 -69 -97q-16 -12 -33 -24h-5q-24 0 -56 -14q-59 -25 -87 -25q-117 0 -202 135l2 37z M793 299q0 -63 51 -97q16 -10 37.5 -10t39.5 3.5t33 10.5q17 8 68 38q10 37 60 90q-2 2 -2 12.5t3.5 22.5t7.5 24q11 33 11 62.5t-43 91.5q-17 5 -33.5 16.5t-31 11.5t-25.5 -5t-21 -12q-31 -19 -44 -22q-13 -21 -37 -34q-5 -25 -17 -42t-25 -38q-32 -50 -32 -123z" />
<glyph unicode="&#x26;" horiz-adv-x="1385" d="M65 463q16 168 143 257q42 29 81.5 39.5t58.5 18t36 16.5q32 18 60 42q-1 22 -15.5 45.5t-23 41.5t-17.5 37q-23 49 -39 64.5t-21.5 23t-10 24t-7.5 36.5q-10 52 -10 82t11 56t26.5 43t33 33.5t31.5 49.5q61 46 253 64l61 6q73 -20 142 -147q28 -52 28 -78t-3.5 -52.5 t-9.5 -53.5q-14 -62 -26.5 -80t-15 -24.5t-4.5 -11.5h1q-11 -32 -28 -41t-22 -17.5t-7 -16.5q-5 -22 -27.5 -35t-32.5 -19l-20 -12q-18 -9 -49 -21v-1q-4 -24 -15 -35q24 -45 34 -72q9 -25 42 -61q19 -28 24 -56q8 -56 17 -69v1q60 -96 79 -111q13 17 13 47t7 50h-1q1 3 9 3 t9 2v13q2 2 -3 12q13 27 29 139q8 10 9 27q4 70 73 116q28 14 40.5 24.5t25.5 17.5q24 14 77 14t78 -3t45 -15q38 -24 64 -102l-1 1q7 -17 7 -33t-1.5 -25.5t-4.5 -15.5t-8 -10t-16 -12.5t-16.5 -20t-9.5 -19.5q-11 -18 -39.5 -18t-54 9.5t-47.5 21.5t-37.5 21.5t-27.5 9.5 t-33 -24.5t-39 -58.5q-30 -53 -52 -119q4 -11 4 -28t-1 -30t-3.5 -25.5t-6 -27t-7.5 -35.5q5 -27 20 -53q25 -45 27 -62q56 -38 107.5 -38t80.5 35q5 18 8 44.5t11 52.5q21 61 75 61t70 -22t16 -63t-11 -78.5t-28 -70.5q-36 -67 -79 -101h-24q-11 0 -38 -24q-36 -10 -76 -10 q-120 0 -234 112q-18 -10 -59 -31q-45 -22 -66 -40.5t-44 -26.5t-46 -11t-45.5 -4t-43.5 -7l1 1l-25 13l-11 -6q-5 -3 -2 -7q7 -9 3 -9l-56 12l-57 -4q-22 0 -48 13q-50 25 -64 25t-29.5 10.5t-30.5 25.5q-36 36 -40 60q-26 14 -42 27q-18 56 -19 84q-36 47 -36 103t14 87 q-3 6 -18 30zM166 450q6 -40 44 -35q7 1 7 -3q0 -21 17 -66t17 -58v-1q4 -4 8.5 -7t8.5 -8h-1q63 -71 114 -90q10 1 23 1h24l47 -1h96q14 9 50.5 23.5t57 23t37.5 18.5q37 23 35.5 45.5t-22 42t-27.5 33t-14 28.5q-21 44 -35 63q-7 42 -33 85q-53 87 -61 112q-7 20 -11.5 34 t-9.5 21q-25 40 -123 -13q-57 -32 -86 -37q-52 -20 -64 -66q-5 -19 -7.5 -38.5t-14.5 -35.5v1l-26 -37q0 -3 -7.5 -5.5t-17.5 -5.5q-24 -10 -26 -24zM476 1181q0 -27 10.5 -53t10.5 -53v-3q12 -14 19.5 -41.5t16 -55t20 -48t27.5 -20.5q30 0 58 45l16 24q17 28 33 35 q7 21 16 42t18 43q21 53 26 92l-12 22v-1q-27 46 -42 60q-30 29 -70 29q-47 0 -82 -24q-65 -46 -65 -87v-6zM783 155q-1 -9 16 -11l16 9q0 38 -30 42l-1 -15q0 -16 -1 -25z" />
<glyph unicode="'" horiz-adv-x="402" d="M98 1362q2 44 17.5 55.5t33.5 16t38 4.5q95 3 104 -68q2 -17 0.5 -33t-1.5 -28l-13 -96l-2 -79l-14 -93q0 -107 -42 -121q-33 0 -55 50q-21 47 -10 71q-7 5 -7 26v25q0 7 5.5 9t10 9.5t-1 14t-14 11t-17 8t-8.5 4.5q5 40 -7.5 84t-12.5 58t-2 33.5t-2 38.5z" />
<glyph unicode="(" horiz-adv-x="572" d="M113 884q0 20 8.5 37t18.5 36q27 51 27 71l-6 35q0 16 11 33q21 31 21 47l-8 49q39 15 39 49l-6 37q0 45 22.5 89.5t24.5 60.5t10.5 34t24.5 34.5t36 28.5q42 25 81 25q79 0 79 -71q0 -35 -15.5 -55.5t-26 -32t-21.5 -28t-19.5 -38t-15.5 -43.5q-21 -59 -40.5 -84 t-31.5 -55t-18 -62q-8 -49 -8 -95t-2 -71t-6 -54q-8 -72 -19 -99l-12 -27q-3 -14 -3 -26l5 -68q0 -25 -9 -47t-9 -40.5t5 -28t11 -19.5q16 -27 16 -47l-4 -60q0 -46 16.5 -66t25.5 -32t13.5 -31.5t4 -37t2 -34t7.5 -30t10 -26.5q13 -36 13 -51t5 -23.5t12 -16t14.5 -14.5 t14 -15.5t9 -22t4.5 -27.5q3 -35 13.5 -45t14.5 -13t12 -23q0 -20 -46 -33q-10 -3 -14 -3t-14.5 10t-22.5 22.5t-23.5 24.5t-15.5 16q-3 23 -14.5 44.5t-13 35t-5.5 32t-17.5 37t-27.5 44.5q-19 35 -34.5 96t-22 73.5t-11.5 23.5q-13 27 -13 73l-8 49l6 33q0 15 -5.5 28 t-9 33t-5.5 45.5t-4 50.5q-5 60 -21 99l10 53q0 29 -9.5 57.5t-9.5 48.5z" />
<glyph unicode=")" horiz-adv-x="577" d="M77 1502q0 31 8.5 42.5t21.5 17.5q25 13 57.5 13t53.5 -13.5t37 -34.5t28.5 -46t24.5 -44.5t24.5 -35t23.5 -32.5q26 -40 26 -68q0 -36 26 -95q46 -106 46 -311l-1 -43q0 -25 7.5 -48.5t7.5 -46.5t-10 -46t-10 -49l10 -50q0 -44 -24.5 -138t-31.5 -107.5t-19.5 -27.5 t-12.5 -34l6 -41q0 -9 -6 -18t-12 -19q-19 -28 -19 -39.5t6 -35.5q-26 -21 -31 -41t-6.5 -32.5t-5.5 -28t-19.5 -44.5t-36.5 -56q-52 -69 -89 -69q-47 0 -69 43q-7 12 -7 33.5t16 43.5t37 44t41 46t25.5 49.5t9 36.5t8 19t10.5 16.5t24 43.5q44 82 44 227q0 29 12 74 q25 88 25 120q0 89 -11 116.5t-14.5 34t-3.5 14.5l13 59q0 14 -7 26.5t-13.5 32t-8.5 48t-5 56.5q-7 65 -50 97q-2 3 -2 7v16l-15 57q0 23 -12.5 39t-25.5 31.5t-18 32.5t-14 33t-21.5 30t-22.5 29q-25 35 -25 66z" />
<glyph unicode="*" horiz-adv-x="1071" d="M66 1023.5q0 38.5 22 63.5t52.5 25t47.5 -8t36 -8l45 4l118 -13q32 0 32 18t-15.5 40t-25 27.5t-18 14t-24.5 32t-32 49.5q-37 63 -37 88q0 90 80 90q72 0 97 -70q10 -29 16.5 -63t16.5 -53t17 -24.5t11 -15t3.5 -18t2.5 -23t13 -27.5t22 -13q26 0 37 38t26.5 73t34.5 67 q45 74 83 100q1 -1 0 -3.5t-1 -5.5q2 -10 15 -12q3 -1 3.5 2.5t0.5 7.5v9q0 4 17 4t35.5 -18t18.5 -41q0 -54 -8 -72.5t-25 -28.5t-24.5 -19t-9 -17.5t-8.5 -18t-19 -13.5t-17.5 -13.5t-6.5 -19.5t-6.5 -18t-13.5 -14l-16 -12q-19 -14 -19 -20q0 -13 36 -13l50 4h39 q31 0 69 8q70 15 92 15t35 -6.5t22 -17.5q22 -25 22 -46t-8 -35t-20 -25q-28 -26 -58 -26l-94 15l-74 -6l-75 10q-22 0 -22 -7.5t5 -14.5t12 -15q27 -32 30 -52t12 -39.5t26 -38.5t32 -38q37 -47 37 -83t-4.5 -48.5t-12.5 -21t-21 -15.5l-29 -14q-10 -5 -19.5 -11t-21.5 -6 q-31 0 -75 80q-18 32 -18 53.5t-3.5 38t-11 39.5t-13.5 45q-14 52 -2 67l13 16q-7 9 -25.5 3.5t-27 -5.5t-22.5 -20.5t-25 -44.5t-18 -44.5t-7.5 -26.5t-5 -15t-11 -17.5l-13 -17t-10 -17.5t-3.5 -17t-3 -15t-9 -12.5t-13 -15.5t-12.5 -19.5t-12.5 -15.5q-13 -10 -40 -10 t-42 9t-25 23q-22 30 -22 57.5t2 35.5t6.5 13t11 10t14 13.5t10 16.5t9.5 16.5t19 14.5t19.5 17t11.5 21t11.5 18.5t16 12t15 11t11 19.5t7.5 24q7 22 7 36t-22.5 14t-51 -7t-57.5 -15q-78 -22 -106 -22t-46.5 6.5t-33.5 17.5q-34 27 -34 65.5z" />
<glyph unicode="+" horiz-adv-x="1016" d="M61 727q0 33 41 61q36 23 70.5 23t65 -10t61.5 -10l94 14l39 -8q23 0 44 43q5 11 5 18l-12 39l8 35q0 11 -9 20q-18 18 -18 27t7 16t7 18t-7 22t-7 25.5t3.5 29t10.5 26.5q16 29 43 29q88 0 88 -111l-8 -37l11 -34l-15 -60q0 -41 33 -112l6 -3l47 9l82 -9l84 13 q40 0 72.5 -12t37.5 -19q7 -9 7 -39q0 -67 -76 -67l-61 14q-29 0 -70 -9.5t-49 -9.5l-47 5q-35 0 -48 -70q-3 -16 -3 -28t3.5 -22t6.5 -20q11 -30 11 -55l-1 -47l8 -76q0 -35 -24 -51q-38 -25 -61 -25t-37 4t-27 11q-30 16 -30 39l3 26l-8 43q0 20 5 39t8 45t3 59v64 q0 48 -32 76q-10 10 -22.5 10t-24.5 -4.5t-24 -9.5q-32 -15 -48 -15l-27 9q-20 0 -40 -7.5t-38.5 -7.5t-42 4.5t-45.5 13.5q-53 22 -53 58z" />
<glyph unicode="," horiz-adv-x="689" d="M80 -313l16 37q-4 8 -4 16t5.5 10.5t12.5 4.5q21 6 27.5 23.5t23.5 32t37.5 28t43 27t40.5 30.5q42 41 42 97v11q0 42 -4 42q-18 0 -35 -8t-31.5 -8t-31.5 13t-36 30.5t-36 34t-27 24.5v24l-15 148q0 45 15 73q28 51 28 68q8 -2 13.5 -2t14.5 6t17.5 13.5t26.5 25.5 q11 5 23 5h22q12 0 22.5 3.5l21 7l21 7t29 3.5t42 -5t47.5 -7q7 -9 10.5 -19t8.5 -19q10 -20 21.5 -20t13 0.5t3.5 0.5q-3 -10 -12.5 -22.5t-9.5 -22t11.5 -23.5t22.5 -14l23 6q5 0 7 -8q5 -15 15 -15v-4q0 -16 -9 -20t-20 -5q1 -13 17 -17.5t22.5 -9.5t6.5 -18l-6 -42 q0 -24 17 -27q-30 -34 -30 -80q0 -10 2 -20q-4 -15 -11 -31l-14 -32q-16 -39 -18 -65q-12 -20 -29 -28q-6 -24 -6 -51t-10.5 -34t-23.5 -12q-35 -13 -39 -38q-5 -22 -36.5 -61.5t-41.5 -52.5t-22 -28.5t-26 -27.5q-29 -27 -57 -30t-41.5 -8.5t-29 -5.5t-25 10t-14.5 23 t-9.5 25.5t-11.5 15.5q-20 8 -20 15z" />
<glyph unicode="-" horiz-adv-x="1303" d="M130 763v17q10 8 32 12q39 9 48 21q21 -23 65 -25q89 -6 115 -20q34 17 84 17l65 -2q19 0 37 3q18 -16 62 -16t100 16q25 -16 57.5 -16t65 8.5t65.5 8.5t62 -13q8 22 33 35q19 -9 41.5 -15.5t42.5 -15.5q47 -20 57 -55q-3 -10 -8 -10l-23 6h-4q0 -11 11 -13q23 -4 24 -10 q-1 -4 -1 -8v-6q0 -26 11 -43q-8 -20 -23 -33t-26 -28q-12 -2 -31.5 -3.5t-31.5 -13.5q-26 9 -86 14q-104 9 -140 31q-27 -15 -58 -15t-71 15q-48 -4 -90 -4l-102 2q-86 0 -158 -16q-3 1 -3 6l2 13q0 10 -16 10t-19.5 -8t-8.5 -15q-17 3 -35 3t-61 -9q-84 32 -84 175z M226 731q0 -16 12 -16.5t14 5t2.5 12t1 14t3.5 12.5l-6 1q-11 0 -19 -10t-8 -18z" />
<glyph unicode="." horiz-adv-x="716" d="M108 292q0 61 41 61h5q-18 25 -18 42t4 17l19 -6q14 6 14 14l-7 16q4 5 20.5 8.5t21 7.5t5.5 10q3 14 10.5 18t24.5 7t36.5 6t38 5t26.5 3q10 -18 50.5 -23t67.5 -8t49 -10q52 -16 52 -55l-1 -9l-4 -1l-40 14q-9 13 -31 -12q-45 -51 -16 -41q7 2 13.5 6.5t12.5 4.5 t12 -5.5t14 -11.5q25 -17 40.5 -17t27.5 6q14 -81 14 -105t-17.5 -43t-39 -30t-39.5 -18.5t-18 -21.5l6 -8q30 0 49 -8.5t19 -13.5q-4 -15 -18 -17t-19 -4q-11 -3 -15 -19.5t-12 -22t-16 -8.5q-23 -10 -23 -21v-2q-23 17 -51.5 17t-56.5 -9.5t-54.5 -9.5t-54.5 14t-52 35 q-56 51 -56 101q0 11 12 23q-7 17 -19.5 21t-17 8.5t-4.5 18.5zM182 168q3 -56 57 -57l1 9v3q0 18 -15.5 25t-25.5 10.5t-17 9.5zM282 196q14 8 37 8h21q35 0 42 35l-64 -8q-17 0 -36 8v-43zM410 181.5q0 -3.5 10 -3.5q37 0 37 15q-6 12 -18 17l1 -2q0 -6 -10.5 -11.5 t-15 -8.5t-4.5 -6.5z" />
<glyph unicode="/" horiz-adv-x="1141" d="M49 12q0 45 36.5 86t50.5 64.5t27.5 36t20 22.5t15.5 25q26 41 53 78t45.5 64t33.5 52q30 51 48.5 93.5t35.5 69t34 51.5q44 62 52 89h-1q3 10 5.5 19.5t9.5 20.5v-1q11 19 17 26v-1q15 20 15 32v11q32 25 53.5 79.5t21.5 65.5q41 36 64 98q25 71 80 165q11 21 21.5 31.5 t20.5 25.5t22 36q31 57 34 87q21 12 34.5 44.5t13.5 38.5q19 6 24.5 10t10.5 7h-1q24 17 60 17t63.5 -19t27.5 -44t-7 -36.5t-18 -19.5q-18 -12 -56 -25q4 -16 4 -41q0 -48 -76 -116q-8 -30 -20 -52t-18 -37.5t-13 -30.5q-16 -35 -42 -48q-49 -87 -73 -122q3 -6 3 -16 q0 -18 -25 -46v1q-6 -8 -11.5 -15t-7.5 -16q-33 -29 -50.5 -65t-29.5 -55.5t-38 -41.5v-7q0 -37 -50 -102q-13 -17 -23 -27v-2q0 -50 -65 -110q-9 -8 -16 -26q-15 -35 -27 -44q-7 -56 -28 -94q-28 -50 -43 -73q-5 -31 -52.5 -95.5t-59.5 -77.5q-13 -72 -67 -118 q-20 -17 -43.5 -17t-41 9.5t-29.5 23.5q-25 31 -25 62z" />
<glyph unicode="0" horiz-adv-x="1251" d="M113 626l2 100l11 90l-5 62q0 46 22.5 112.5t33 102.5t10.5 74l-2 41q0 28 23 32q9 2 16.5 4t7.5 14l-3 27q0 10 24 29q49 40 54.5 54t17 18t23 6.5t20.5 6t9 12.5t-3 18q26 -12 56 -12t44.5 6t26.5 13q33 21 59 21t50 8.5t43 8.5t51 -7t66 -18q84 -28 88 -49q7 2 13 2 h17.5t25 -4t25 -10t23 -14t24.5 -16l1 -6l1 -5q0 -13 -6.5 -24t-9.5 -23q3 -9 19 -17t23 -13t8 -16t4.5 -17.5t17.5 -7.5l-1 -21v-10q0 -53 26 -89t37.5 -54.5t11.5 -39t-9.5 -38t-9.5 -28.5t7 -21.5t15 -24.5q22 -39 22 -69t-28 -47q-2 -6 -2 -12.5t5 -11.5t10 -9 q16 -11 16 -28q0 -18 -10 -31q-19 -26 -19 -34.5t5 -15t10 -13.5q16 -18 16 -29q0 -24 -21 -24l-39 9q-5 -8 -5 -14t5.5 -6.5t11.5 -1.5q17 -1 17 -17q0 -52 -15 -100.5t-23 -56.5q-18 -20 -17 -39l1 -26q1 -23 -11 -37q-22 -26 -22 -34t1 -11q-31 12 -58.5 12t-40.5 -26 q0 -15 10 -15t18 8t18.5 8t10.5 -25t-23 -25l-35 4l-8 -6q6 -17 23 -20q-93 -104 -198 -144q-39 -14 -69.5 -14t-72 7t-85.5 17q-105 26 -130.5 43.5t-27 23.5t-2.5 11q-3 11 -37.5 20.5t-53.5 26.5t-27 35.5t-10 35.5q-2 19 -21 43.5t-28 38.5q-21 33 -21 52t9.5 26.5 t9.5 13.5q0 8 -8.5 17t-15.5 18t-11 19q-8 21 -10.5 51t-12 61.5t-9.5 63.5zM188 716q38 -13 50 -66q3 -13 3 -21l11 -119q0 -42 -10.5 -47.5t-15 -5t-4.5 -6t6.5 -6.5t31.5 14q2 -8 2 -23v-30q2 -37 17.5 -40t21.5 -10t9 -16q11 -28 25.5 -36t28.5 -21.5t29 -25.5 q38 -31 71 -33q65 -4 108 -14.5t61.5 -10.5t38 5.5t38.5 11.5q53 18 72.5 18t33.5 -3q-1 2 -1 10t11.5 25.5t27.5 34.5q37 40 61 44q-4 7 -4 23q0 47 25 59q23 10 23 94l-1 57v10q27 18 33 102q1 15 9 21t8 19l-15 75l4 90l7 57q0 39 -36 111t-40 81t-6 14.5t-5 11.5 q-8 14 -10 14q-1 -2 -4.5 -2t-20 13t-34.5 33q-48 50 -48 80q0 5 1 7q-62 0 -107 32q-16 11 -21 25q-27 -3 -72 -18q-83 -27 -104 -27q-26 0 -38 2q3 -6 3 -13q0 -16 -27 -16l-26 1l-7 -1l1 -9v-4q0 -19 -15.5 -29.5t-25.5 -16t-17 -12.5q12 -2 12 -17t-13 -39.5t-28 -56.5 q-42 -84 -42 -144q-7 -12 -19 -12l-33 9q-9 0 -9 -9t6.5 -17t14.5 -17q22 -23 22 -50.5t-6.5 -41t-13.5 -20.5q-20 -16 -20 -35v-25q0 -5 1 -10q-13 -17 -29 -28zM773 117q3 10 13 10q0 -10 -13 -10l48 -3q23 0 23 31v15l-12 1h-4q-33 0 -55 -44zM1071 823.5 q0 -17.5 23 -17.5t23 17.5t-23 17.5t-23 -17.5z" />
<glyph unicode="1" horiz-adv-x="1167" d="M56 81q0 30 76 81q18 11 28 18q61 -8 122 -18t111 -10t72.5 9.5t34.5 26.5q18 26 18 87l-1 62q0 156 8.5 310.5t8.5 270.5q0 221 -18 345q-14 3 -26.5 6t-23.5 3t-13.5 2t-17.5 2l-87 -13q-8 0 -14 5q-11 9 -22 9l-133 -14q-53 0 -90 29q7 15 7 33.5t-3 34t-4 31.5 q7 -3 18.5 -3t25 7.5t26.5 16.5q34 25 60 25t55.5 -9t53 -9t35.5 6.5t21.5 6.5t15 -6t19 -6t30 6t32.5 12q46 19 68 19l98 -12q13 0 25 3h1q-2 -5 -2 -17.5t4.5 -23.5t10.5 -23q14 -32 14 -72l4 -177q0 -52 -17 -86q14 -12 14 -41v-16q0 -31 15 -43l1 -11q0 -17 -9 -34 q-19 -33 -19 -46l13 -96q0 -45 -9 -101q-17 -107 -17 -138.5t-10 -31.5q-1 0 -7 2q0 -33 9 -81q16 -93 16 -127v-14l-1 -14q0 -53 35 -78t77.5 -25t60 6.5t26 14.5t13.5 14.5t15 6.5l149 -18q56 0 77 -32q10 -15 22.5 -33t12.5 -33q0 -34 -20 -60t-29 -32q-14 -8 -44 -8h-34 q-8 -3 -15 -3q-14 0 -14 24l1 17q0 20 -14.5 20t-23 -8.5t-16.5 -18.5q-20 -27 -41 -27t-40.5 6t-50 8.5t-71.5 3.5t-81 2q-95 4 -133 13q-75 16 -129.5 4.5t-103.5 -11.5l-132 -14q-35 0 -66 18q-58 32 -58 67z" />
<glyph unicode="2" horiz-adv-x="1175" d="M103 144l4 101q0 21 10.5 36t22.5 31q34 43 34 87q0 9 12 20t27.5 34t34.5 51q79 117 104 117l22 -2q16 0 20 7.5t6 12.5t10 11.5t25 5.5t29 4.5t21 12t17 13.5q21 15 48.5 22.5t64.5 24t71 39.5q72 48 108 113q3 6 9.5 14t12.5 17q16 20 16 31l-4 23q0 8 16 16 q33 13 33 77q0 68 -43 83q-5 2 -5 7l4 15q0 11 -18 24q-37 27 -42 35.5t-24 20t-41 22.5q-55 25 -82 25t-59 -12.5t-61 -18.5t-69 -10.5t-77 -15.5q-93 -27 -93 -90q0 -36 68 -89t68 -102q0 -46 -57 -75q-45 -23 -83.5 -23t-56 5.5t-25 7t-11.5 4.5q-7 3 -11 25t-11 35.5 t-14 27.5q-16 34 -16 59t11.5 59t28.5 69q39 80 73 112q7 7 11 15.5t8 15.5q11 18 33 18h18q29 0 37 22q8 25 86 25q26 1 61 12q63 20 91 20q111 -7 161.5 -16t92.5 -33t77 -67t62 -86t34.5 -63.5t25.5 -33.5q-13 -28 -16.5 -75.5t-7 -61t-8.5 -25.5t-11.5 -24t-12.5 -25.5 t-8 -21t-5 -14.5q-5 -14 -20.5 -22.5t-20.5 -17.5t-8 -19q-8 -25 -28 -32.5t-41.5 -23.5t-41.5 -33q-55 -45 -85.5 -52.5t-55.5 -21.5t-49 -29q-66 -41 -89 -47t-30 -11.5t-12 -13t-10 -15.5t-14 -17t-18.5 -12t-19.5 -5q-25 -5 -37 -22t-22 -22t-19 -10q-22 -12 -22 -25.5 t-4.5 -20t-9.5 -13.5q-14 -18 -14 -25t2 -14t9 -15q15 -17 46 -17l72 6q19 0 43 -9q48 -19 68.5 -19t28.5 27q5 -3 8 -21q6 -35 10 -35q7 4 10 13.5t11 9.5t13.5 -6t11.5 -13q18 -19 37 -19t42.5 -15.5t48.5 -33.5q67 -50 96.5 -50t47 11.5t31.5 28.5t25.5 37.5t24.5 37.5 q31 40 70 40t50.5 -19.5t11.5 -45.5q0 -60 -24 -79q-8 -8 -15 -25q-11 -30 -16 -30l-16 4l-7 -4q-39 -49 -131 -74q-26 -7 -43 -7t-27 3.5t-16.5 8t-11 8.5t-13.5 4t-20.5 -7.5t-18 -7.5t-7.5 5.5t-15 10.5t-34.5 17t-41.5 25q-53 31 -64.5 31t-26.5 13t-36 29 q-55 42 -100 42t-64 -58h-9q-37 0 -49 -53q-3 -14 -3 -26l5 -69v-12t-1 -11q-12 3 -25 3l-50 -5q-29 0 -44 40q-9 23 -35 60q-45 63 -45 94zM757 1324q0 2 0.5 2t0.5 1q-7 -46 28 -50q3 12 9.5 23t6.5 24l-1 10h-43q4 0 4 -5t-3 -9q-2 2 -2 4z" />
<glyph unicode="3" horiz-adv-x="1141" d="M92 194q12 26 12 63l-11 117q0 50 27 91l9 -1l65 13q85 0 118 -67q10 -21 10 -39t-2 -34.5t-8 -32.5q-13 -39 -36 -39q-14 0 -27 15q0 -75 17.5 -103t33.5 -27l25 1h7l131 -14l110 -8q69 0 113 27q59 37 120 96q11 11 11 21l-2 20q0 13 12 28t26 34q38 52 38 94l-13 93 q0 26 -21 55q-40 54 -40 79v8t2 9q-24 6 -55.5 18t-63.5 24q-81 31 -102 31l-150 -16q0 4 18 12q33 15 33 24t-13.5 15t-22 6t-17.5 -4.5t-18 -10.5q-22 -15 -38 -15t-27 16v-10q0 -33 37 -33h6q-29 -46 -55 -46t-41.5 1.5t-32.5 1.5q11 106 133 231q50 52 69 62.5t25 15.5 q15 11 24.5 32.5t23 37t28.5 30.5q41 41 54 62q13 6 27 10.5t27 10.5q33 14 45 36q-2 60 -84 60q-23 0 -43.5 -9t-43.5 -9l-60 14l-32 -9l-28 5l-6 -5q-1 -7 -25 -7l-49 3q-35 0 -57.5 -24.5t-22.5 -58.5l5 -66q0 -54 -43 -83q-14 -9 -35.5 -9t-59.5 27v5q0 13 10 29 q19 29 19 41t-7.5 20t-7.5 19l12 54l-14 71q0 27 27 56.5t33 29.5l38 -5l111 11l93 -2q50 0 97.5 9.5t96.5 9.5l63 -3l144 12q42 0 69 -15v-1q-4 -9 -4 -20t3.5 -18t7.5 -13q11 -16 11 -24.5t-13.5 -29t-31.5 -44.5q-48 -66 -55 -82.5t-16.5 -23.5t-21 -11.5t-23.5 -8.5 t-24 -12.5t-31 -30.5t-36 -47q-41 -62 -41 -83t11 -32.5t26 -22.5t30 -21t24 -18.5t19.5 -10.5t21.5 -3q26 -3 36.5 -15.5t21 -21t20.5 -17.5q22 -21 22 -45h43v-29q38 -25 38 -50v-7q0 -9 13.5 -22.5t23 -33.5t13 -40.5t6 -42.5t9.5 -45q15 -43 15 -76t-2 -46.5t-8.5 -19.5 t-18.5 -10.5t-32 -19.5q21 -27 21 -61q0 -62 -69 -111q-26 -18 -39.5 -44.5t-26.5 -54.5q-65 -2 -136 -54q-28 -19 -66 -19l-73 4q-32 0 -63.5 -9.5t-55.5 -9.5t-49 4.5t-51 10.5q-98 25 -136 56.5t-68 45.5q-33 87 -86 128zM448 1320l2 4q1 -1 1 -2.5t-2 -1.5q29 0 29 15 t-15 15t-15 -30z" />
<glyph unicode="4" horiz-adv-x="1254" d="M32 502q0 11 4 19.5t8 20.5q13 33 13 49.5t4.5 30t11.5 26.5q23 46 36.5 51.5t21.5 8.5q31 9 39 24l14 24q15 26 24 32.5t18.5 12t9.5 14.5l-6 32v9q0 3 1 8q50 14 85 78q29 55 64.5 89.5t59.5 55t34.5 39.5t21.5 37q28 45 63 57q-4 10 -4 21q0 15 25 35.5t35.5 34.5 t20.5 27q26 34 54.5 48t31.5 24t4 18q4 20 32.5 20t51 -6.5t39.5 -19.5q38 -27 38 -77l-12 -91l9 -68q0 -32 -26 -51q16 -19 30 -101.5t14 -91.5l-15 -68l10 -74l-8 -131q0 -64 14 -82t36 -24.5t54.5 -11t64.5 -7.5q81 -8 96 -13.5t20 -13t8 -17.5q5 -17 5 -38v-6l-1 -20 q-8 2 -17 2t-17.5 -4t-15.5 -9.5t-12 -10t-10 -4.5q-15 28 -27 41q-13 -7 -14 -27t-4.5 -27t-16.5 -7l-73 5q-94 0 -94 -90q0 -57 50 -124q9 -12 9 -15q13 8 32 8l52 -5q17 0 30 9t25.5 9t28.5 -5.5t32 -9.5q0 -7 14 -15q26 -16 26 -29l-2 -30l12 -48l-5 -5l-30 10 q-7 0 -11.5 -8t-24 -12t-43.5 -6q-35 -3 -79 -3t-78 18q-13 -8 -33 -8l-21 1q-17 0 -28.5 -8t-22 -8t-18.5 3.5t-15 7.5q-19 13 -26 13q-14 0 -20.5 -16t-8.5 -20q-5 10 -23 11t-25.5 3.5t-8.5 13.5h-8q-15 0 -15 8l11 38q0 5 -2 11l-10 1q-19 0 -29.5 -16.5t-16 -26.5 t-15.5 -15l-66 -11q-40 0 -60 34q-6 11 -6 24q0 29 22.5 51.5t49.5 29t55 8t54.5 5t46.5 20.5q46 39 46 162v34q-21 -3 -59 -3t-89.5 9t-105.5 9l-110 -14l-111 9q-21 0 -43 -8q-40 -15 -51.5 -15t-30 2t-34.5 8q-39 14 -46 47q-4 17 -11 35t-7 29zM243 580q0 -32 88 -32 l97 4q55 0 74 -23q5 -6 10.5 -13t13 -7t11.5 3.5t11 7.5q23 10 45 10t36.5 4.5t30 10.5l31 12t25.5 8q16 52 32.5 104.5t16.5 108.5l-7 100q0 14 3.5 27.5l7 27l7 27t3.5 27.5l-10 54q0 17 12 38t12 27t-8.5 17.5t-14.5 21t-10.5 23.5t-10.5 26q-14 26 -47 26l2 -11 q-26 -15 -49 -48t-36 -48t-31 -21v-9q0 -55 -77 -104q-15 -10 -26 -29q-19 -36 -33 -43t-18 -11.5t-5 -9.5t-1.5 -11.5t-6 -18.5t-14.5 -25.5t-16 -29t-16.5 -27.5t-21 -22l-23 -20t-19 -20.5t-18.5 -28.5t-22 -39q-28 -53 -28 -64zM303 750q29 0 29 15t-12 15 q-17 0 -17 -30zM805 291l11 -26q32 0 32 18q-9 14 -32 14z" />
<glyph unicode="5" horiz-adv-x="1101" d="M98 392q0 74 84 92q24 5 46 5t45.5 -4t44.5 -14q47 -23 47 -63.5t-9 -73.5t-9 -57.5t5 -37t10 -25.5q16 -35 16 -50l-1 -10l78 5q26 0 49 -9.5t42.5 -9.5t35 4.5t30.5 9.5q42 14 61.5 14t31.5 7.5t21.5 18t19.5 22t33.5 22.5t47.5 36t41 56q32 60 32 117t-13 99.5t-36 83 t-54.5 76t-68.5 62.5q-82 57 -163 57q-39 0 -90 -14t-63.5 -23.5t-24.5 -19.5q-31 -26 -53 -30q-10 -10 -21 -24.5t-23 -27.5q-30 -31 -57 -31q-64 0 -64 201l4 129q0 66 -10 109l6 1q11 0 18.5 -7t18.5 -8v6q0 23 -15 33q-28 20 -28 37t1 43t3 54.5t3.5 55.5t3.5 54 q4 49 80 49q52 0 103 -17t67 -17l57 4q36 0 72.5 -9.5t67 -9.5t52 6t43.5 13q60 19 86.5 19t44.5 -7q47 -4 35 -37q-2 -7 -2 -11.5t-13 -14t-29 -19.5q-37 -20 -54 -29q-35 -38 -112 -38q-137 0 -342 39q-28 6 -39 10q-2 -2 -2 -4v-20.5t8.5 -54t8.5 -70.5l-1 -8 q-14 0 -25.5 7.5t-25.5 7.5l-6 -1l-1 -11q0 -35 34 -54q10 -5 21 -11q18 -10 26 -56.5t11.5 -71.5t8.5 -38q41 19 107.5 30.5t91.5 11.5t59.5 -8.5t72.5 -8.5t70 -20t63 -41q9 -7 22 -40q26 -61 40 -61l34 7q61 0 86 -111q6 -26 9 -39.5t7.5 -20.5t9.5 -14q13 -20 13 -32 l-15 -53l6 -34q0 -38 -15 -52t-23 -14t-11 1l-1 -7q0 -15 11 -17q21 -6 21 -14.5t-5 -12t-11 -6.5q-16 -8 -16 -22l5 -45q0 -19 -12 -22l-31 -44q-10 -15 -27.5 -19t-23.5 -7.5t-6 -14.5q-7 -90 -118 -90q-21 0 -42 8q-5 -5 -5 -14.5t33 -14.5q-3 -41 -80 -41l-60 3 q-15 0 -28 -10q-28 -20 -36 -20q-14 7 -21 7l-56 -5q-26 0 -58 7t-51.5 11t-26.5 11.5t-12 16.5q-19 30 -52 32q-44 2 -64 40l-14 26q-17 32 -34 40q-32 16 -34 39q10 15 14 28q-3 12 -13 19q-18 13 -18 42zM761 154h10q32 0 47 -15q4 5 4 13q0 19 -30.5 19t-30.5 -15v-2z " />
<glyph unicode="6" horiz-adv-x="1205" d="M99 610q0 17 25 23q0 15 -12 22t-12 10q5 10 14.5 19.5t9.5 20t-9.5 19.5t-9.5 16t2.5 7.5t6.5 0.5q8 2 10 13q14 115 27 176q17 75 17 90v21q0 6 -1 12q21 18 53 78.5t47 84t27 23.5l43 -6q23 0 24 6q-3 5 -9 8.5t-12 7.5q-15 10 -15 16.5t4.5 12.5t11 12t13 11t20.5 17 t33 24.5t37 20.5q28 13 65.5 20.5t38.5 12t2 9.5q4 11 29 11q17 0 31 8.5t31 8.5h45q76 0 107 -10q50 -18 67.5 -18t19.5 -5t3 -11q3 -16 21 -16l24 3q11 0 17 -15.5t9 -15.5l17 3q14 0 16.5 -19.5t12.5 -31.5t22 -24.5t20 -25.5q17 -27 17 -65.5t-7 -62t-18 -45.5 q-16 -30 -54 -84q-19 10 -41 10l-61 -5q-22 0 -41 10q-7 15 -16 29.5t-17 29.5q-20 34 -20 56t4 35t9 26q13 32 13 54.5t-26.5 24.5t-53.5 8t-54.5 6t-52.5 -13q-2 40 -28 44q-11 1 -22.5 0t-20.5 5q2 -2 6 -5l8 -6q12 -9 12 -14t-9 -6t-19 -4q-29 -6 -29 -26q0 -8 2 -16 q-3 1 -11.5 1t-16 -2.5t-15.5 -6.5q-18 -8 -28.5 -8t-13.5 1q-14 -8 -14 -18l2 -22q0 -17 -11.5 -24.5t-19.5 -11.5t-27 -19.5t-42.5 -53t-39.5 -80.5q-33 -85 -33 -172q0 -34 29 -42q12 -3 27 -4.5t29 -8.5q16 14 30 37t25 32.5t47 21.5q105 35 200.5 35t139.5 -54h9 q62 0 148 -61q23 -17 30.5 -28.5t15.5 -11.5l18 2q8 0 8 -8l-1 -11q0 -16 13 -28t28 -25q41 -36 41 -62.5t-8 -49.5t-8 -47q0 -41 48 -55q-18 -42 -27 -97q-21 -115 -30 -146q-30 -14 -55 -41.5l-50 -55t-51.5 -49.5t-60 -24.5t-63 -13.5t-58.5 -23q-75 -31 -104 -31t-54 1 t-51 5q-64 10 -73 33q-7 17 -26.5 19t-31 2.5t-22.5 7.5t-21.5 18.5t-20.5 23.5q-37 45 -62 53.5t-33.5 15t-10 13t-3.5 13.5q-7 16 -18 19l-1 9q0 21 9 40t9 35t-6.5 27t-15.5 22l-18 22t-15 26.5t-12 38.5t-22 37.5t-16 38.5l4 54zM271 477q0 -16 9 -40q16 -48 16 -68.5 t1.5 -27.5t5.5 -9t11.5 -4t18.5 -13t18 -23.5t15 -24.5q17 -28 43 -33q9 -3 36.5 -25t31.5 -25q13 -26 166 -26q65 0 89.5 22t39.5 38.5t42 31.5t48 38t36 51q31 58 31 101t-7.5 74t-21.5 60q-29 65 -71 97q-71 52 -122.5 71.5t-70.5 19.5l-58 -9l-57 5q-33 0 -40 -26h-100 q2 -10 2 -25.5t-17.5 -39t-38.5 -51.5q-56 -76 -56 -139z" />
<glyph unicode="7" horiz-adv-x="1137" d="M32 1042l5 89q0 21 15 38l25 27q31 34 31 163q0 50 -4 74q23 0 29 8t8.5 12t13.5 4t26.5 -7.5t31.5 -15.5q44 -24 68 -24t42.5 10.5t37.5 23.5q50 34 97 34q17 0 30 8q24 16 34.5 16t16 -7.5t15.5 -7.5l35 9q35 0 124.5 -47.5t101.5 -55.5q40 0 90 19q96 36 130 36 t43.5 -7t14 -16t9 -18.5t21.5 -13.5q-1 -8 -1 -25q0 -151 -47 -151l-5 1q-8 -70 -100 -211q-34 -54 -63 -80q-17 -15 -38 -66q-44 -104 -58 -122q-35 -44 -39 -87l3 -10q-2 -15 -10 -21.5t-18 -13.5q-25 -17 -25 -39.5t-4 -29.5t-8 -12q-12 -15 -12 -24l9 -54l-10 -111 q0 -39 -23.5 -78.5t-29.5 -55.5q-10 -32 -30 -44q6 -21 6 -29t-4 -24t-11 -31q-18 -38 -39 -38q-4 0 -6 1q6 -10 6 -30l-6 -68v-9h-9q-59 0 -84.5 29t-25.5 87l15 169l-15 52q0 6 11.5 16.5t17.5 26.5l12 32q13 38 38 44v7l-8 37q0 10 6 18t11.5 16.5t14.5 33t18 49.5 q25 67 33 71q27 14 31.5 43.5t8.5 44t17.5 21.5t19 19.5t8.5 27t5.5 29t8 24.5t13 16.5t14.5 12.5q17 15 17 31v6q18 13 22.5 28.5t12 27.5t15.5 23q21 26 27 43.5t19.5 42.5t28.5 51q39 66 39 71q0 29 -70 29l-98 -7q-111 0 -160 56q-14 -6 -35.5 -6t-41 5t-39.5 11 q-53 16 -76.5 16t-46 -7t-41.5 -20q-45 -30 -52 -59t-15 -46.5t-17.5 -34.5l-19 -34t-15.5 -33.5t-18 -30t-27 -22.5q-34 -21 -66 -21q-32 27 -32 65z" />
<glyph unicode="8" horiz-adv-x="1226" d="M106 443.5q0 21.5 4 41t9 39l10 39t10 58t38 89.5t84 83q6 4 6 13t-7.5 22.5t-17.5 29.5q-29 47 -36 74l-28 29q-7 21 -7 62v28l-10 97q0 49 37 84q13 13 24.5 26t11.5 30.5t9 25.5t20 14q29 18 29 30q0 16 13 21.5t36 18t48 24.5q65 33 74 33l39 -7l8 4q9 22 119 22 q36 0 84 -16q90 -29 113.5 -29t35.5 2q9 -26 98 -93l16 -12l-4 -14l4 -9h29q5 -7 7 -14.5t14 -24.5t21.5 -34t13 -36t3 -46t-0.5 -71.5t-6.5 -84.5t-25.5 -64t-28 -44.5t-15 -43.5q-15 -53 -15 -77.5t7.5 -35.5t19.5 -20t26.5 -18t28.5 -24q31 -34 42 -99q1 -9 6 -32t10 -47 t14 -62q0 -17 -8 -35q-15 -35 -15 -51l8 -31q0 -49 -111 -147q-71 -63 -82 -98q-43 -4 -85.5 -13t-85.5 -18q-109 -23 -171 -26v13q-3 -3 -8 -3l-22 -4q-77 -14 -105 -1.5t-50 24.5q-55 31 -84 31t-39 7.5t-27 25t-40 32.5t-41 32q-40 38 -40 117q0 22 7.5 40.5t7.5 35 t-4.5 25.5t-10.5 18q-15 23 -15 44.5zM271 462q0 -61 49 -129q9 0 22 -18t29 -40q45 -61 71 -67q135 -33 199 -33l121 2q14 8 20 22.5t18.5 26t25.5 18t24 12.5q27 15 34 36t13 25.5t11 8.5q14 8 14 28t4 37t9 33q13 43 13 68q0 37 -21 74t-28.5 53.5t-19.5 27.5t-26 18.5 t-29.5 14.5t-43.5 26q-55 36 -149 36t-153.5 -19.5t-105.5 -56.5q-101 -80 -101 -204zM307 1093q0 -101 106 -201q34 -34 161 -34q85 0 129.5 14t71 23.5t60 15.5t53 28t32.5 51q27 59 27 104.5t-21.5 77t-53.5 56.5q-43 33 -95.5 56t-63 30.5t-21.5 14.5q-25 17 -41 17 l-66 -10q-19 0 -37 9q-5 -32 -30 -35q-11 -2 -23.5 -1.5t-38 -11t-55.5 -29.5t-51 -42q-43 -49 -43 -133zM491 54q0 -33 32 -33q42 0 69 34q8 10 8 21q0 18 -23 29q-11 -4 -12 -22q-2 -33 -17 -33l-53 13h-4v-9z" />
<glyph unicode="9" horiz-adv-x="1197" d="M99 1018l13 94q0 45 67 154q29 46 53 50q28 5 28 16l-1 14q0 25 13.5 29t22.5 5.5t18.5 12.5t19 19t17.5 12q13 7 39 7h38q17 33 123 33q36 0 91 -12q102 -24 123.5 -24t32.5 3q0 -39 10 -45.5t21.5 -10t31.5 -17.5q30 -20 80 -84q-2 -5 -5.5 -18t-10.5 -28 q-19 -36 -43 -36q-34 0 -75 44q-27 29 -81 51t-70 30q-27 35 -71.5 35t-82 -13.5t-74.5 -21.5q-21 -19 -29 -43q-8 2 -15.5 2t-22 -4t-28.5 -12q-33 -18 -33 -36v-9q0 -17 -10 -28.5t-20.5 -28.5t-9 -40t-2.5 -39.5t-14 -31t-10 -27.5l7 -61q0 -23 18 -64q33 -79 49 -79 q8 0 11 10q6 21 10 21t18 -9.5t32.5 -23.5t41 -30.5t44.5 -30.5q52 -33 81 -33q63 0 100.5 10t44 15t11.5 11q21 22 40.5 23t30.5 1q29 2 40 13t20 26t17 33q20 45 20 61.5t4.5 32t9.5 31.5q14 45 14 64l-13 104q0 24 54 33q12 2 23 2t20.5 -7.5t17.5 -16.5q21 -26 33 -27 q25 -2 25 -13q0 -25 -43 -50q-15 -9 -28.5 -17.5t-13.5 -20t19 -11.5l66 10q26 0 26 -33v-16q0 -48 9.5 -94t9.5 -89t-1 -81.5t-7 -75.5q-14 -85 -56 -140q-22 -29 -27 -79q-18 0 -35 11q-33 19 -49.5 19t-16.5 -15q0 -22 13.5 -33.5t19.5 -11.5q9 3 11 16q14 -8 14 -17.5 t-11 -17.5t-23 -16q-35 -20 -35 -29t10 -12.5t21 -6.5q32 -8 32 -17.5t-12.5 -15.5t-23.5 -11t-26.5 -22.5t-29.5 -35.5q-33 -47 -41 -47l-36 4q-38 0 -38 -23t28 -33q-9 -10 -23 -10l-26 2q-23 0 -39.5 -21.5t-21.5 -25t-18 -7.5l-33 -10q-120 -37 -148 -37 q-42 0 -113.5 31t-90 46.5t-32.5 33.5t-26 39t-27 45l-29 14v29q-8 13 -13.5 20.5t-10.5 14.5q-8 13 -8 34.5t3 38.5t9 34q12 37 35 52q72 47 100.5 47t43 -9t29.5 -21q40 -34 69 -40v-16q0 -20 -8 -36t-8 -30t1 -18q-42 6 -57 6t-57 -6q8 -20 53.5 -26.5t75.5 -11t55 -13.5 q60 -19 60 -62q0 -10 -1 -15q59 50 181 93q34 11 54.5 11t20.5 -19q18 0 25 25.5t11 44t11 36.5q16 41 53 51q-5 13 -5 29t7 36t16 40q23 53 23 88.5t-27 62.5q-93 -47 -302 -93q-27 -6 -40.5 -6t-28 3.5t-29.5 7.5q-41 11 -64 11t-30.5 5.5t-12.5 11.5q-16 17 -38 17 t-39.5 15t-36.5 35t-35.5 39.5t-23.5 25t-13 9t-13 6.5q-26 11 -28 30l-2 32q-2 33 -19 33l-5 -1q-9 0 -9 19.5t-4.5 37t-9.5 35.5q-15 47 -15 70z" />
<glyph unicode=":" horiz-adv-x="703" d="M106 292q0 61 41 61h5q-18 25 -18 42t4 17l19 -6q14 6 14 14l-7 16q4 5 20.5 8.5t21 7.5t5.5 10q3 14 10.5 18t24.5 7t36.5 6t38 5t26.5 3q10 -18 50.5 -23t67.5 -8t49 -10q52 -16 52 -55l-1 -9l-4 -1l-40 14q-9 13 -31 -12q-45 -51 -16 -41q7 2 13.5 6.5t12.5 4.5 t12 -5.5t14 -11.5q38 -26 68 -11q14 -81 14 -105t-17.5 -43t-39 -30t-39.5 -18.5t-18 -21.5l6 -8q30 0 49 -8.5t19 -13.5q-4 -15 -18 -17t-19 -4q-11 -3 -15 -19.5t-12 -22t-16 -8.5q-23 -10 -23 -21v-2q-23 17 -51.5 17t-56.5 -9.5t-54.5 -9.5t-54.5 14t-52 35 q-56 51 -56 101q0 11 12 23q-7 17 -19.5 21t-17 8.5t-4.5 18.5zM131 859l29 10q-3 12 -29 12q5 17 19 38q24 36 26 63q21 10 44 29t47 33q59 34 96 -5q17 12 34.5 8t20.5 -27q11 12 35 7q3 -11 9.5 -19t6.5 -20q77 3 74 -74q-25 -8 -35 -16q11 -7 12.5 -23t-12.5 -22 q5 -5 17 -7q21 -3 24 -10q-5 -63 -34 -98q-56 -66 -113 -49q-6 -1 -6 -12q0 -20 -4 -23q-50 -14 -85 4.5t-56.5 30.5t-51.5 16q-40 70 -68 154zM180 168q3 -56 57 -57l1 9v3q0 18 -15.5 25t-25.5 10.5t-17 9.5zM280 196q14 8 37 8h21q35 0 42 35l-64 -8q-17 0 -36 8v-43z M373 846q44 18 41 58q-6 0 -8 3t-10 1q0 -12 -10 -27q-19 -25 -13 -35zM408 181.5q0 -3.5 10 -3.5q37 0 37 15q-6 12 -18 17l1 -2q0 -6 -10.5 -11.5t-15 -8.5t-4.5 -6.5z" />
<glyph unicode=";" horiz-adv-x="673" d="M94 -313l16 37q-4 8 -4 16t5.5 10.5t12.5 4.5q21 6 27.5 23.5t23.5 32t37.5 28t43 27t40.5 30.5q42 41 42 97v11q0 42 -4 42q-18 0 -35 -8t-31.5 -8t-31.5 13t-36 30.5t-36 34t-27 24.5v24l-15 148q0 45 15 73q28 51 28 68q8 -2 13.5 -2t14.5 6t17.5 13.5t26.5 25.5 q11 5 23 5h22q12 0 22.5 3.5l21 7l21 7t29 3.5t42 -5t47.5 -7q7 -9 10.5 -19t8.5 -19q10 -20 21.5 -20t13 0.5t3.5 0.5q-3 -10 -12.5 -22.5t-9.5 -22t11.5 -23.5t22.5 -14l23 6q5 0 7 -8q5 -15 15 -15v-4q0 -16 -9 -20t-20 -5q1 -13 17 -17.5t22.5 -9.5t6.5 -18l-6 -42 q0 -24 17 -27q-30 -34 -30 -80q0 -10 2 -20q-4 -15 -11 -31l-14 -32q-16 -39 -18 -65q-12 -20 -29 -28q-6 -24 -6 -51t-10.5 -34t-23.5 -12q-35 -13 -39 -38q-5 -22 -36.5 -61.5t-41.5 -52.5t-22 -28.5t-26 -27.5q-29 -27 -57 -30t-41.5 -8.5t-29 -5.5t-25 10t-14.5 23 t-9.5 25.5t-11.5 15.5q-20 8 -20 15zM119 859l29 10q-3 12 -29 12q5 17 19 38q24 36 26 63q21 10 44 29t47 33q59 34 96 -5q17 12 34.5 8t20.5 -27q11 12 35 7q3 -11 9.5 -19t6.5 -20q77 3 74 -74q-25 -8 -35 -16q11 -7 12.5 -23t-12.5 -22q5 -5 17 -7q21 -3 24 -10 q-5 -63 -34 -98q-56 -66 -113 -49q-6 -1 -6 -12q0 -20 -4 -23q-50 -14 -85 4.5t-56.5 30.5t-51.5 16q-40 70 -68 154zM361 846q44 18 41 58q-6 0 -8 3t-10 1q0 -12 -10 -27q-19 -25 -13 -35z" />
<glyph unicode="&#x3c;" horiz-adv-x="949" d="M64 721.5q0 21.5 5.5 30t14 14.5t19 10.5t20.5 11.5h28q4 4 5 16q2 22 11 27t19 7l20 4q28 7 42.5 18t26 19.5t24 18.5t28.5 16.5t32 11.5q52 18 69.5 39t25.5 29q20 22 44 33t38 17.5t20.5 10.5t9 6.5t4.5 5.5q5 8 35 34q63 56 126 56q40 0 58 -19q30 -31 30 -58 q0 -54 -45 -60q-29 -4 -36 -28q-2 -6 -20.5 -13t-28.5 -11.5t-21.5 -15t-23.5 -22.5q-32 -32 -41 -33l-16 19q-6 0 -6 -19v-20q-62 -12 -111.5 -48t-76.5 -54.5t-59 -29.5l2 -12l-69 -40q0 -27 -3 -27l-5 3q-4 0 -7 -25q1 -1 20 -11.5t42 -23.5q58 -34 62.5 -34.5t15.5 -0.5 h20q32 0 46 -14q30 -30 50.5 -34t29 -9.5t16.5 -13t15.5 -15.5t20 -19.5t38 -20.5t52.5 -13.5t52.5 -6t46.5 -5.5q42 -16 42 -60q0 -40 -23 -68q-39 -48 -72 -48q-38 0 -106 58q-17 15 -26 29h-8l-30 -2q-17 0 -32.5 15t-28 21t-25 9l-25 6t-33.5 15q-33 18 -83 71 q-137 55 -176 80t-73 53l1 15q0 29 -8.5 56t-8.5 48.5z" />
<glyph unicode="=" horiz-adv-x="1304" d="M130 999v17q10 8 32 12q39 9 48 21q21 -23 65 -25q89 -6 115 -20q34 17 84 17l65 -2q19 0 37 3q18 -16 62 -16t100 16q25 -16 57.5 -16t65 8.5t65.5 8.5t62 -13q8 22 33 35q19 -9 41.5 -15.5t42.5 -15.5q47 -20 57 -55q-3 -10 -8 -10l-23 6h-4q0 -11 11 -13q23 -4 24 -10 q-1 -4 -1 -8v-6q0 -26 11 -43q-8 -20 -23 -33t-26 -28q-12 -2 -31.5 -3.5t-31.5 -13.5q-26 9 -86 14q-104 9 -140 31q-27 -15 -58 -15t-71 15q-48 -4 -90 -4l-102 2q-86 0 -158 -16q-3 1 -3 6l2 13q0 10 -16 10t-19.5 -8t-8.5 -15q-17 3 -35 3t-61 -9q-84 32 -84 175z M139 569q41 86 233 15q37 17 74.5 17t53.5 -11t27.5 -11t17.5 3.5t12 7.5q16 11 22 12q12 -12 61.5 -19t81.5 -7t93 16q28 -16 52 -16t48 5t54 11t62 10t59 1q61 -7 63 -50l-8 -19q0 -14 19 -66q-9 -20 -25.5 -33.5t-29.5 -28.5q-13 -2 -34.5 -3.5t-35.5 -13.5q-35 11 -52 6 t-28 -3t-38 17q-21 -11 -99 -18t-101 -7t-65 15q-19 -1 -24 6q-20 31 -58 6q-13 -9 -29.5 -9t-23 -1.5t-11 -4t-9.5 -5t-19 -5.5q-29 -5 -104 -5l-74 19q-25 0 -72 -9q-93 32 -93 178zM226 967q0 -16 12 -16.5t14 5t2.5 12t1 14t3.5 12.5l-6 1q-11 0 -19 -10t-8 -18z M993 462.5q0 -5.5 2 -12.5t5 -14q10 -20 18 -20q12 2 13.5 21.5t4.5 24.5l-7 1q-6 0 -12.5 1.5t-11.5 1.5q-12 2 -12 -3.5z" />
<glyph unicode="&#x3e;" horiz-adv-x="949" d="M128 352q0 55 42 71q21 4 46.5 5.5t52.5 5.5q72 12 111 54q29 32 51.5 36.5t34 13t19.5 16.5q20 20 52 20h20q18 0 59 24q74 43 81 46q-3 25 -7 25l-5 -3q-3 0 -3 27l-69 40l2 12q-37 13 -88.5 50t-80.5 54q-31 19 -78 28v7q0 32 -6 32l-16 -19q-9 1 -31 23 q-41 41 -53 46.5t-22.5 9.5t-18.5 7.5t-9.5 8.5t-4.5 10q-8 15 -31 18q-46 6 -46 54q0 53 50 76q17 7 41 7q60 0 134 -65q19 -17 22.5 -22.5t6 -8t8.5 -6.5q8 -4 42 -20t43.5 -24t17.5 -16.5t16 -18t20 -20.5t27.5 -17.5t31.5 -12.5q43 -14 58 -26q57 -45 70.5 -50t24 -7.5 t20 -4.5t18 -6.5t10 -10t1.5 -11.5q2 -18 6 -22h28q10 -7 20.5 -11.5t19.5 -10.5q19 -14 19 -40t-8.5 -53t-8.5 -56l1 -15q-78 -64 -178 -104q-31 -13 -71 -29q-71 -75 -116 -86l-26 -6q-28 -7 -48 -26t-37 -19l-30 2h-8q-29 -45 -101 -78q-19 -9 -33.5 -9t-31 10.5 t-30.5 27.5q-31 38 -31 67z" />
<glyph unicode="?" horiz-adv-x="963" d="M71 1183.5q0 33.5 15 68t39 64t53 56t57 53.5q156 67 184 67t49.5 -5t43.5 -11q60 -17 76.5 -18t25.5 -6l19 -9q26 -13 33.5 -13t16.5 -6t18 -15q19 -19 24 -30t11.5 -15.5t15 -8.5t17.5 -8t20 -12t19 -17t12 -19q6 -12 13 -54q71 -99 71 -160q0 -20 -10 -39t-10 -39 t-7.5 -30t-18 -17.5t-22 -14.5t-18 -18.5t-7 -21t-1.5 -17.5q-1 -21 -21.5 -34.5t-35.5 -25.5t-27.5 -23.5t-24 -22.5t-21.5 -18.5t-18 -17.5t-17.5 -20.5t-18 -20t-19 -15.5t-24 -9t-23.5 -6q-22 -7 -26.5 -28.5t-3.5 -44t3 -45.5t4 -45.5t2 -36.5t-4.5 -19.5t-10.5 -10.5 q-16 -15 -19 -25q-20 -10 -49.5 -10t-50 11t-35.5 29q-66 78 -18 234q8 28 15.5 46t14.5 31.5t23.5 25t36.5 19.5q60 27 74.5 38.5t30.5 15t34 6.5q48 8 61.5 17.5t31.5 26t34 36.5q37 47 37 69.5t6 36.5t13 28q19 40 19 53t-3 25t-7 24q-10 30 -7 45q-20 47 -79 78 q-17 9 -31 10t-24 1q-22 0 -25.5 2t-13 1.5t-20 -1t-20 -1t-21.5 10.5q-28 26 -70 26q-77 0 -95.5 -7.5t-27.5 -16.5t-23 -19.5t-26.5 -17.5t-19.5 -15q-15 -14 -10 -54l7 -46q12 -11 21 -15t15 -9q12 -10 12 -42l16 2l12 -2q9 -12 26 -22.5t33 -21.5q40 -28 40 -53.5 t-12.5 -51.5t-33.5 -45q-45 -44 -100 -44q-50 0 -100 24.5t-62 37.5t-15.5 28t-4.5 34q-6 70 -20 100t-17 38q-6 14 -6 47.5zM302 174q0 63 89 94q23 8 42 17q81 -55 115 -68q2 -13 15 -34q24 -39 24 -55t-1.5 -21t-4.5 -7.5t-7 -5t-8.5 -9.5t-5.5 -15.5t-7 -17t-21 -17 t-32 -15.5q-34 -14 -76 -14t-75.5 32.5t-33.5 86.5z" />
<glyph unicode="@" horiz-adv-x="1362" d="M95 624l6 178q0 14 12.5 28t12.5 17v28q0 9 5 21q-2 6 -2 10l12 39q0 74 36 115v-1q9 11 18 23q17 24 33 45t28 47q29 60 68 79q16 7 33 29t31 33t31 20q36 19 74 19q30 18 74 27t53 9l136 2q9 0 25 -5t24 -6t18 -3q27 -7 37 -13l67 -21q3 -2 11.5 -7.5t18.5 -14.5 q25 -21 30.5 -33t16 -20t22.5 -16q31 -21 39.5 -28t20 -15t21.5 -18q23 -23 23 -43q25 -21 38 -52t19 -40t9 -13q15 -17 19 -30l-1 1q2 -5 2 -9v-8l-1 -23q0 -17 10 -40q19 -45 19 -71l-9 -122l2 -16q0 -4 1 -6v2q3 -11 3 -29.5t-7 -40.5t-16.5 -41.5t-19.5 -36.5t-15 -30 l-8 -26q-11 -15 -19.5 -18.5t-11.5 -8.5t-4 -12t-9 -16.5t-13.5 -14t-8.5 -6.5q-4 -3 -8 -15t-11 -20q-14 -14 -26 -16.5t-23 -8t-23 -11t-22 -9.5q-15 -6 -47 -13.5t-39 -10.5t-16 -3q-77 0 -126 77q-18 -6 -23 -7t-9 -3q-8 -3 -18 -16.5t-26 -22.5t-34 -13q-28 -6 -63 -6 q-69 0 -102 14l1 -1q-13 4 -22 10q-20 13 -31 13h-5q-8 14 -16.5 24t-16.5 20v-1q-44 49 -44 95q0 16 3 30q-8 16 -8 45t9 47q-13 21 -12 43t26 72q-4 21 15 61.5t28 55.5l29 51q19 52 87 99q73 53 131 53q103 0 186 -48q18 -29 36 -35q6 3 10.5 11.5t10.5 16.5q16 23 43 23 t45.5 -19.5t18.5 -37.5t-4.5 -28t-11 -19t-14 -19t-14.5 -23v1q-13 -23 -13 -34.5t0.5 -11.5t0 -1.5t-1 -6t-9 -23t-15.5 -31t-11 -22.5q-8 -15 -8 -49q0 -44 -14 -67q-30 -50 -30 -138q0 -43 25 -54q11 -5 33.5 -5t42.5 10.5t36.5 26t31 33.5t28.5 33q-1 3 -1 7q0 33 35 60 l12 116q0 8 -7 22q-15 27 -15 37l7 45l-7 45l4 25q0 6 -16 28q-7 16 -10 35q-6 38 -8.5 45t-14 18.5t-14.5 19.5t-4 18.5t-5 24.5q-11 35 -28 48v-1q-9 4 -16.5 12t-26.5 27q-44 22 -59 39v-1q-48 35 -93 42q-52 7 -138 7l-70 -13q-2 0 -9.5 -4.5t-17 -9.5t-19 -10.5t-24 -9 t-36.5 -16t-42 -30.5q-41 -37 -59 -81q-34 -20 -59 -66.5t-32 -65.5v-12q1 -17 -13 -48l-11 -22v-11q0 -22 -7 -39t-12 -38l5 -45q0 -15 -9.5 -31t-9.5 -23q0 -12 7.5 -36.5t7 -31.5t0.5 -15l-2 -67q0 -26 8 -38q10 -17 13 -34.5t7 -30t10 -25.5q16 -40 19 -57l30 -31 q7 -28 29 -55q44 -52 53 -76q13 -9 26 -14.5t25 -10.5q30 -14 44 -31q40 -5 74.5 -16t61 -11t42 -3.5t30.5 -7.5q58 -16 69 -11q6 3 30 20q18 6 32 8t36 4q31 4 85 32h-1l27 15q19 11 35.5 29t36.5 24q9 15 31 38.5t32.5 44.5t20.5 39q25 46 53 46q53 0 53 -57 q0 -61 -66 -141q-21 -27 -38 -37t-22 -13q-10 -6 -19 -19q-13 -27 -46 -40q-45 -18 -67 -41q-35 -37 -118 -37l-73 2q-5 0 -9 -2.5t-9 -5.5h1q-41 -30 -109 -6q-35 10 -66.5 13.5t-51.5 7.5q-23 21 -57.5 26.5t-53.5 7.5t-32 9.5t-17.5 15t-11 14t-14.5 11t-16 8.5 q-21 12 -26 24q-28 6 -52 37q-51 38 -63 58q-8 21 -17 30q-15 15 -15 30l-2 10q-17 41 -30 59q-20 29 -37 80l-11 22q-12 22 -12 61zM512 633q5 -10 5 -26l-3 -32q0 -24 15 -56t16 -34q10 -5 15 -9t9 -6q9 -6 31 -6q65 0 101 47q6 6 9.5 19.5t8.5 21t17.5 23.5t25.5 35 q31 46 31 68.5t4.5 37t10.5 30.5q14 40 14 60.5t-2 49t-8 56.5q-15 68 -44 68h-67q-24 0 -54.5 -30.5t-37 -41t-9 -21.5t-5.5 -23q-9 -38 -22.5 -51.5t-16.5 -18.5q-5 -7 -5 -26q0 -35 -13.5 -53t-15.5 -27t-2 -18q-2 -27 -8 -37z" />
<glyph unicode="A" horiz-adv-x="1126" d="M-2 40q0 51 70 74q19 7 38 13q53 16 67 28q21 17 29.5 62t12.5 70.5t6 35.5t2.5 17.5t0.5 15.5q3 36 14 42t14 8q3 3 3 30.5t5 34t10.5 11.5t10.5 9.5t5 15.5t-8 22.5t-8 22.5t4 17t10 11q13 12 13 24l-9 44q0 12 12 15.5t17.5 5t5.5 4.5q-3 6 -13 6t-10 -13 q-17 12 -17 24t5 20.5t12 19.5q16 28 16 59l-12 80q0 17 11 33l17 26q16 22 16.5 51.5t1.5 50.5q1 54 12.5 75t16.5 31t9 20q8 18 13 49t15.5 58t13.5 52.5t3.5 41t4.5 27.5q21 55 156 55q30 0 62 -3q4 -22 25 -46q41 -47 46 -69t6.5 -42.5t12.5 -36t11 -30.5l-12 -87 q0 -23 19 -82q34 -107 43.5 -144t10 -77t12.5 -79q28 -91 31.5 -145t11.5 -90.5t17 -73t16.5 -73.5t7.5 -78t-16 -58q65 -77 87.5 -91.5t43.5 -17.5t43 -8q54 -11 54 -37q0 -34 -41 -55q-11 -5 -21 -5l-28 2q-10 0 -15 -11q-10 -23 -28 -23l-35 4q-19 0 -36.5 -7.5t-36 -7.5 t-52.5 5.5t-69 16.5q-86 29 -86 67q0 17 19.5 34.5t43.5 38.5q63 57 63 112q0 57 -60 111q-16 15 -31 28q-5 2 -15 2l-108 -11q-40 0 -48 24q-60 -30 -91 -40.5t-38.5 -13.5t-11 -7t-5 -12t-6.5 -20.5t-5 -20.5v-18q0 -16 -11 -29q-20 -24 -20 -35t3 -18l-1 -5q0 -26 28 -37 q11 -4 24 -8q28 -9 40 -26t20 -32q17 -37 17 -58v-5h-13q-58 0 -128 -8q-130 -15 -188 -15q-158 0 -158 52zM457 643.5q0 -23.5 2 -45.5t9 -36q14 -30 43 -30t59.5 4t61.5 14q75 23 75 60q0 9 -7 23.5t-16 32.5q-22 48 -22 79t-8 57.5t-10.5 51t-5 51t-10.5 49.5 q-19 55 -72 55q-3 -14 -21 -19t-22 -10q1 -3 1 -15t-7.5 -27.5t-14.5 -31.5q-11 -30 -12 -72l3 -61q0 -34 -9 -59q-17 -47 -17 -70.5z" />
<glyph unicode="B" horiz-adv-x="1237" d="M60 1355q0 26 10 37.5t24 19.5q27 14 61 14l127 -13q64 0 135 9q131 18 181 18t85 -2.5t70 -4.5q13 -17 59 -24t62.5 -10.5t34 -9t29.5 -15.5q25 -18 33 -42t16.5 -30t19.5 -12q29 -16 38.5 -25.5t23 -36t24.5 -56.5q25 -68 25 -106q0 -44 -19.5 -105.5t-33 -80.5 t-26.5 -38q-32 -48 -32 -81q0 -54 43 -120q9 -15 27 -35q49 -54 55 -106t6 -72v-32q0 -4 1 -8q0 -8 -1 -16q-1 -39 -26 -46q-10 -2 -20 -2q-28 -2 -42 -10q2 -12 18 -15t22.5 -7.5t6.5 -21.5t-6.5 -30.5t-15.5 -23.5q-27 -31 -32.5 -49.5t-14.5 -26.5t-20 -12 q-31 -14 -42 -27t-18 -13l-17 2q-14 0 -14 -12q0 -2 2 -2t-4.5 -6t-37.5 -20.5t-71 -27.5q-94 -29 -166 -29l-270 7h-133q-3 0 -8.5 -6t-14.5 -6t-26.5 3t-34.5 10q-42 17 -42 42q0 5 1 8.5t6 20t21 31t34.5 25t38 21.5t34.5 31q36 46 36 145l-13 206q1 96 4.5 190t4.5 190 l1 157q0 129 -39 174q-18 21 -43.5 23t-47.5 10t-41 21q-48 33 -48 59zM380 869q120 -30 194 -30q231 0 314 71q17 15 19 29t8.5 24t14.5 19q19 25 19 39.5t-3 29.5t-7 30.5l-8 31t-6.5 29t-8.5 23t-14 16t-18 13t-27.5 22t-40.5 28.5t-48 20q-43 12 -90 12q-114 0 -118 -12 q-5 -14 -39.5 -14t-53 -8t-29.5 -22q-17 -24 -18.5 -69.5t-2 -80.5t-3.5 -70q-7 -78 -34 -131zM391 228q0 -49 31 -85l76 -15q14 0 27.5 7t21.5 7t12.5 -7t15.5 -7h4q10 16 75 16l59 -2q150 32 198 90q71 71 71 125q0 26 -6.5 52t-10 51t-6 39t-7.5 25q-9 16 -45 46 q-7 30 -22 30l-21 -1l-14 28q-38 26 -64.5 28.5t-46 8.5t-34.5 6t-20 -7t-8 -7l-67 15q-56 0 -173 -30q-43 -113 -43 -196q0 -17 5 -26q9 -15 9 -40t-8.5 -63.5t-8.5 -87.5z" />
<glyph unicode="C" horiz-adv-x="1186" d="M95 635q0 36 3.5 65t8.5 58t10 57.5t7 56.5t2.5 56t1.5 56q6 97 46 161q67 108 74.5 142t28.5 50.5t52 31t67.5 26t72.5 19.5q74 18 120 18q78 0 179 -45q44 -20 88 -20q33 0 43.5 18t14.5 27.5t12 14.5l-3 -1q3 3 14.5 2.5t23 -3.5t23.5 -7q29 -10 35 -14.5t13 -15.5 t14 -24q19 -32 19 -38l15 -94l-15 -102l3 -125q0 -63 -6.5 -92.5t-8.5 -40.5t-5 -21q-9 -24 -24 -24q-9 0 -16 3q-10 -2 -20.5 -2t-10.5 8q0 25 -28 28q-43 4 -43 23q0 18 11 11q24 -15 34 -11q-16 18 -36 53q-39 67 -53.5 82.5t-22.5 32.5t-15 35q-19 44 -38 58 q-116 88 -217 88q-71 0 -148 -46q-14 -8 -26.5 -14t-24.5 -14q-36 -24 -36 -77v-6q0 -36 -26 -48q-19 -9 -21.5 -48.5t-2.5 -65.5q-2 -75 -9 -99q-12 -41 -12 -84l5 -148q0 -151 46 -236q16 -29 22 -53.5t16.5 -43.5t25.5 -35q33 -37 69 -37l54 7l60 -5q73 0 106 35 q19 20 53 27.5t51 14t27.5 20.5t19 37t17.5 48q23 63 35 70q17 9 17 75v46q0 106 35 106q11 0 17.5 -7.5t16.5 -7.5l40 13q33 0 68 -72q6 -13 12 -14q10 -3 10 -31q0 -80 -12.5 -108t-14.5 -41.5t-4 -25t-15 -11.5l-8 1q-33 0 -44 -78q-2 -18 -5 -29t-3.5 -19.5t-1.5 -15.5 q-1 -14 -17.5 -27t-31.5 -24t-25.5 -24t-13.5 -21t-6 -15q-6 -15 -30 -23t-45 -18t-45 -19t-47 -21.5t-47 -23.5q-55 -25 -104 -25q-53 0 -99 29q-33 3 -50 46q-10 23 -20 27t-18 6t-36 20q-48 31 -134 149q-8 12 -14 38q-16 69 -43 72q-21 2 -25.5 18.5t-4.5 46.5t-4 55 t-10 52q-13 65 -13 101z" />
<glyph unicode="D" horiz-adv-x="1275" d="M74 1296q0 58 64 104q17 12 38 28q34 26 94 26h43l115 5q49 0 72 -9.5t34.5 -9.5t21.5 8.5t15 8.5t5 -2l-1 -9q0 -6 6.5 -6t9 6t11.5 8q7 -3 11 -6.5t7 -6.5q9 -7 24 -7l84 7q64 0 133 -62q49 -43 65 -50.5t29 -14.5q33 -16 44.5 -40.5t25 -44t27.5 -37.5 q66 -92 80.5 -177t22.5 -128.5t14 -70t6 -52.5l-10 -54q0 -12 7 -25q13 -23 13 -47.5t-6 -64t-16.5 -83t-24 -89.5t-28.5 -89q-48 -135 -78 -160q-59 -50 -59 -66q-48 -6 -79 -19t-34 -19q-11 -21 -13.5 -28t-5.5 -8.5t-11.5 -1t-25 -3t-30 -7.5t-28.5 -8q-32 -9 -48 -9 l-85 14q-14 0 -38 -9q-56 -21 -131 -21l-141 19q-28 -7 -56 -7q-40 0 -87 7q-3 15 -9.5 28.5t-12.5 27.5q-16 37 -16 60.5t13 35t33 16t42.5 7t42.5 11.5q46 21 46 85q0 32 -8 74q-15 79 -15 111l6 67l-9 123l8 143l-13 134l2 76q0 49 -8.5 79t-9.5 54t-6 44q-11 43 -66 55 q-12 2 -22 11q-18 16 -40 19q-44 6 -44 49zM442 296q0 -88 52 -107q90 -32 118 -32t47 9.5t35.5 14.5t33 8.5t32.5 8.5q37 10 53.5 28.5t30.5 31.5t32.5 16.5t22 10t5.5 15.5q4 25 18.5 35.5t23 26.5t12.5 34t6.5 36.5t10.5 47.5t22.5 70t14.5 83l-10 39q0 6 2.5 7.5 t5.5 4.5q8 6 8 26q0 82 -45 145q17 17 17 55l-3 59q0 12 -19 27t-22.5 24t-5 16.5t-2.5 14.5q-2 15 -11 29q-14 22 -14 35.5t3 24.5q-11 21 -43 24.5t-48.5 12.5t-34.5 20q-47 29 -75 29t-56 -5t-53.5 -8.5t-51.5 -4t-48 -5.5q-53 -12 -53 -61l9 -145l-13 -316l8 -148 l-15 -194v-43z" />
<glyph unicode="E" horiz-adv-x="1308" d="M78 1318q0 22 16 34.5t41 20t56 12t60.5 7t54 3.5t40.5 3q30 5 75 5l157 -5l165 16q38 0 75 -8.5t72.5 -8.5t69.5 8.5t59 8.5t40 -3q22 -24 40.5 -40t32.5 -33q34 -42 34 -124t21 -88q0 -14 -14 -14q1 -14 6 -28.5t10 -29.5q13 -37 13 -48.5t-5 -23.5t-11 -26 q-16 -33 -25 -42l2 -1q-2 0 -4 -1h-5q-4 -1 -8 -1h-10l4 1q-59 3 -78 52q-17 44 -17 60l3 34l-12 122q0 46 23 74h-5q-12 0 -19 7.5t-34 7.5t-63 -9t-76 -9l-65 1l-119 -14q-3 0 -3 1l14 11q0 4 -7 4h-8q-8 0 -13.5 -8t-18.5 -11.5t-30 -3.5h-33q-114 0 -119 38 q-14 -4 -18.5 -19t-9.5 -21.5t-26 -8.5q-38 -2 -38 -53l2 -44l-3 -159q0 -167 35 -175q12 -3 35 -3l137 16l52 -8q51 0 51 148l-3 99h6q25 0 47 -8t39 -8t22 1l14 -81q0 -26 -28 -33q18 -32 18 -57l-4 -43q0 -10 6.5 -15.5t6.5 -15t-9.5 -27.5t-9.5 -38.5t4 -44.5t9 -50 q13 -68 13 -95t-1.5 -44t-6.5 -32q-13 -35 -40 -51q-77 8 -77 146q0 47 -45 62q-27 9 -63 9t-65.5 -3t-58.5 -11q-72 -18 -72 -56l5 -47l-2 -41l6 -107l-15 -114q0 -94 159 -94l192 12l120 -6q107 0 148 35q19 15 22 33.5t7.5 22t10.5 6.5q13 6 13 14.5t-6 19t-9 24.5 q-4 19 -4 60.5t9.5 64t9.5 49.5l-1 30q0 16 33 24.5t48.5 8.5t31.5 -17.5t25 -42.5q14 -43 14 -86t-5 -82t-13 -80q-33 -157 -66 -179q-6 -5 -13.5 -9.5t-16.5 -14.5q-13 -15 -78 -15l-62 2q-33 0 -53.5 -8t-36 -8t-19.5 5.5t-11.5 5.5t-13.5 -6t-18 -6l-50 1 q-75 0 -149 -4.5t-137 -6.5t-113 -12t-84.5 -10t-57.5 3.5t-43 12.5q-49 21 -49 63q0 49 101 111q24 14 39 27q-1 8 -1 15v18q0 53 12.5 71.5t12.5 26.5t-2.5 14t-8.5 23q-16 41 -16 98t17 105q-14 24 -14 43l14 142q-1 3 -1 10l6 37l-16 91q0 8 4 19t8 24q13 36 13 62 l-13 47l12 50q0 25 -17.5 62t-24 52.5t-15.5 24.5q-16 17 -49.5 19.5t-46 10t-21.5 19.5q-22 27 -22 49zM318 741q49 -28 78.5 -56.5t35.5 -30.5h1q6 0 12 15q3 6 3 13q0 10 -6 19q-10 16 -30 27q-40 24 -65.5 24t-28.5 -11z" />
<glyph unicode="F" horiz-adv-x="1240" d="M60 1357q0 46 127 46l93 -3q117 0 138 40q15 0 32 -10q31 -19 45 -19l53 13l46 -11q30 0 82 12.5t78.5 18.5t60.5 6t59 -25q41 17 68.5 17t47.5 -2t42 -4q57 -7 61.5 -12t7.5 -17t5 -25q7 -37 13 -43t12.5 -7.5t12.5 -3.5q14 -5 16 -23t3 -40.5t7.5 -45t14.5 -45.5 t15 -46q18 -54 18 -94t-24.5 -64t-52.5 -24q-38 0 -67 9q-23 31 -33 94t-17 96.5t-22 60.5q-32 59 -108 59l-108 -11q-106 0 -139 22q-7 5 -27 5h-22q-56 0 -88.5 -14.5t-55 -20.5t-31 -13t-11.5 -16.5t-2.5 -22.5t-0.5 -28q-2 -28 -2 -49l4 -145l-9 -90q0 -30 29 -41 q11 -4 20.5 -9t9.5 -20q14 -2 37 -2t56 9.5t59 16t35 30.5t12 54.5t3 60.5t2.5 44.5t10 26.5t18.5 21q24 20 44 20t36.5 -8.5t26 -25t12.5 -36.5t2.5 -41t2 -44.5t2.5 -49.5l-9 -188q0 -57 9.5 -88t9.5 -46l-7 -66l3 -37q0 -30 -18 -52q-34 -41 -56.5 -41t-38 14.5 t-27.5 32.5q-25 37 -25 47.5t4.5 13t9.5 4.5q14 8 14 15t-4.5 9.5t-10.5 5.5q-14 6 -14 16.5t2 14t5 5.5q7 5 7 11t-7 18.5t-17 24.5q-26 29 -46 29l-60 -11l-47 10q-24 0 -84 -70q-10 -10 -10 -50l9 -137l-1 -60q0 -111 39 -122q21 -7 47 -5h20q66 0 84 -31q19 -32 19 -61 t-2.5 -44t-9.5 -28q-15 -29 -42 -29l-126 13q-25 0 -56 -8q-54 -15 -152 -15q-151 0 -151 53q0 135 87 135l35 -2q27 0 38 14.5t17 21.5t18 9l-9 125q0 61 23 103q-23 25 -23 142v19l11 67l-3 29q0 19 5 23q9 6 9 16l-13 100l9 91l-9 180q0 103 -49 147q-19 17 -48 17 l-55 -3q-30 0 -48 13q-2 19 -9 37t-7 37zM132 99q0 -38 30 -42l1 15q0 38 -30 42z" />
<glyph unicode="G" horiz-adv-x="1260" d="M94 705q0 22 4 46t7 61l6 74q8 95 17 137q23 101 23 146q8 11 21.5 23t27.5 24q32 30 37 53q6 25 35 57q59 63 91.5 63t32.5 21q0 7 -3 15q54 5 107 17t86 12t59 -1t53 -7q66 -13 66 -44v-5q3 1 6 1h7l62 -12q92 0 125 40q54 0 70 -130q3 -30 3 -65t-16 -76q3 -17 16 -35 q26 -32 26 -51q-7 -18 -8.5 -51.5t-6.5 -67.5q-11 -82 -58 -82q-37 0 -55 44l2 -1q13 0 13 12q0 4 -14 14l-23 15q-33 23 -47 108q-3 19 -3 30v14q0 4 1 8l-1 -1q-3 1 -12.5 13t-21 26.5t-22 28t-22.5 26t-35 28.5t-43 36q-19 -12 -30.5 -12t-16.5 3.5t-10 7.5 q-14 13 -27 13l-85 -10q-23 0 -45.5 9t-35.5 9q-16 0 -22 -3l9 -34q0 -22 -27 -43t-42.5 -32.5t-25 -23.5t-16 -28t-12.5 -31q-15 -39 -42 -53q8 -21 8 -40l-4 -53l10 -127q0 -39 -11 -83q-19 -83 -19 -114t5.5 -52t12.5 -41q18 -51 18 -72l-4 -44q0 -43 19 -72.5 t43.5 -55.5t47.5 -52.5t31 -63.5q15 3 31 3t34 -4t35 -10q42 -13 75.5 -13t73 15.5t73.5 41.5q74 58 92 131q16 74 35 83q6 3 11 4q11 2 11 9q0 6 -6.5 11t-6.5 10.5t4 10t10 10.5q13 15 13 34.5t-12 32.5t-30 22.5t-38.5 17t-38.5 18.5q-42 26 -42 71q0 56 78 73 q20 5 35 7.5t29 8t28 10.5q37 15 50 15t27 -5.5t30.5 -8t45 -7.5t54.5 -15q63 -24 63 -70q0 -34 -12 -51t-20 -17l-14 2q-8 0 -20 -15q-21 -28 -33.5 -28t-22.5 2q8 -40 8 -76t-4 -66.5t-9 -61.5q-13 -81 -13 -124l11 -146q0 -65 -34 -91q-13 -10 -36.5 -10t-39 17.5t-26 38 t-19 38t-19 17.5t-21 -7.5t-23.5 -17.5q-34 -26 -56.5 -30.5t-29.5 -11.5t-14 -13q-18 -17 -67 -17l-87 4l-63 -4q-41 0 -61 11q-48 27 -66.5 32.5t-28.5 9t-18 8.5q-10 5 -27.5 19.5t-27.5 20.5t-19 12q-21 16 -22.5 30t-3.5 18t-5.5 6t-8 3.5t-11.5 5.5q-12 18 -18 37 l-12 38q-15 45 -42 68q3 10 3 26.5t-8 36t-18 39.5q-25 52 -25 83l5 56q0 23 -10 57q-18 64 -18 79z" />
<glyph unicode="H" horiz-adv-x="1337" d="M82 32q0 16 3 29.5t9 26.5q14 31 34 40.5t47.5 15t52.5 18.5q58 29 58 116l-4 102l2 57l-9 171l6 72l-14 97q0 5 2.5 8.5t5.5 19t5 33.5q6 40 6 58l-9 95l5 57q0 8 -5 9q-9 3 -9 13.5t9 23t9 22.5t-6 26.5t-16 33.5q-22 41 -39 50q-19 9 -43.5 13.5t-46.5 12.5 q-52 17 -52 67q0 47 53 73q40 20 109 20t123 -29q54 18 100 18q98 0 98 -80q0 -24 -13 -24q-55 0 -105 -46q-52 -47 -52 -101q0 -13 6 -34q18 -65 18 -114l-8 -107q0 -110 175 -111l117 6l118 -15q31 0 44 9.5t20.5 14.5t14 9t9.5 4q46 8 46 139q0 24 -12 49q-21 48 -21 73 l7 81q0 96 -104 107q-64 7 -84.5 25.5t-20.5 50.5q0 62 97 62l125 -8l139 12q158 0 158 -81q0 -43 -69 -65q-80 -25 -92 -50q-10 -17 -10 -56l5 -102l-12 -356q0 -134 12 -170.5t12 -58t-3 -29.5t-6.5 -14t-6.5 -11t-3 -16.5t8 -27.5t8 -33l-9 -88q0 -16 13 -52.5t20.5 -44 t24.5 -13.5t36 -11q53 -12 67 -22q38 -27 38 -46q0 -57 -203 -57h-32q-36 0 -71 -13q-66 -25 -81 -25t-24.5 9t-24.5 9t-29 7t-25 18q-24 26 -24 51t9.5 38t24.5 21q27 16 62 16t55 -16q1 20 16 37q28 33 28 56l-6 105l7 69l-5 83q0 20 6 33t6 29t-7 37.5t-19 38.5 q-27 40 -69 47.5t-92 7.5l-45 -9l-25 9q-15 0 -41 -9q-52 -19 -71 -19t-42.5 -0.5t-46.5 -4.5q-50 -7 -79 -40v-7l2 -77q0 -52 -10 -72t-10 -26l12 -61l-10 -32q0 -20 11 -43q19 -45 22 -69t20.5 -38.5t40.5 -23t48.5 -15.5t44.5 -20q-2 -10 -2 -15l12 -64q0 -48 -110 -48 q-3 0 -42 13q-94 -19 -182 -19q-44 0 -86 5q-57 5 -80.5 24.5t-23.5 35.5z" />
<glyph unicode="I" horiz-adv-x="1014" d="M54 1300q0 41 64 112q23 23 130 23l82 -1q102 0 158 8t57 12q6 -3 14.5 -9.5t18.5 -12.5q25 -16 31.5 -16t10 4.5t6.5 10.5q4 11 4 23h7q37 0 37 -44q0 -4 -0.5 -7t-0.5 -6q14 3 19.5 18t10 21t12 6t15.5 -2h7q60 -49 66 -49l13 -1q0 4 -10 12q-19 14 -19 23q18 0 27 8 q18 16 30 16t19 -4t12 -8.5t9 -8.5t11 -4l17 2q9 0 12 -16t5 -24t5 -14t7.5 -12.5t11.5 -16.5t7 -20t-7.5 -19t-18 -17.5t-21.5 -15.5t-23 -17t-36 -10l-61 8q-7 0 -15 -6q-12 -7 -33.5 -7t-35 7.5t-14.5 15.5l7 7q-17 -6 -19.5 -16t-3.5 -17t-5.5 -15.5t-15 -10.5t-20.5 -9 q-27 -18 -27 -87l4 -73l-12 -144l-13 -84q0 -31 26 -43q-21 -9 -21 -94v-11q0 -31 7.5 -38.5t7.5 -19.5l-8 -47l13 -195l-13 -128q0 -74 76 -84q22 -3 46 -3l150 13q37 0 57.5 -23t20.5 -54.5t-8.5 -55t-23.5 -40.5q-34 -38 -88 -38q-20 0 -52 6q-68 14 -155 14l-140 -3 l-166 2l-57 10q-11 0 -38 -7q-52 -15 -75 -15q-91 0 -91 74q0 13 2 23.5t10.5 26.5t19.5 31q28 38 41.5 38t21 -4t17.5 -10q23 -13 56 -13t72 7t72 24q74 41 74 118q0 16 -2 31.5t-6 49.5q-6 51 -6 139.5t9 121t9 67.5l-14 75l5 37l-9 84l15 140q0 27 -11 65q-20 74 -20 94 t3 34q-8 19 -31 31.5t-35.5 19.5t-19.5 20q-10 -1 -12 -15q-4 -27 -16 -28q-65 -7 -113 -7q-136 0 -136 67zM420 1248q3 -15 21 -15t18 25q2 3 2 7q0 5 -5 11q-9 10 -20 10q-18 0 -18 -21q0 -7 2 -17z" />
<glyph unicode="J" horiz-adv-x="1108" d="M34 291.5q0 30.5 1.5 53t5.5 45.5q9 51 24 75.5t24.5 39t21.5 23.5q24 18 64.5 18t66 -4t44.5 -16q47 -30 64 -126q3 -18 3 -36q0 -53 -33 -65q-8 -10 -17 -20.5t-17 -22.5q-18 -28 -18 -49q0 -76 150 -76q21 0 39 10t36 16.5t37 11t37 9.5q44 14 66 36q23 78 27 160 q3 73 3 120q0 6 -1 12q0 50 -2.5 55.5t-5.5 8.5q-7 5 -7 20l9 70l-11 113q0 57 8.5 112.5t8.5 112.5l-13 45l10 33q0 11 -13 40q-29 61 -31.5 78.5t-7.5 29t-13 16.5q-21 15 -104.5 15t-91 2t-12 6t-8.5 11t-14 20q-29 38 -29 59t8.5 31.5t21.5 17.5q23 11 56 11l97 -6 q32 0 50 11q35 20 53 20l103 -12q20 0 44 -8q45 -15 66 -15t42.5 8.5t42 8.5t37.5 -3t35.5 -6.5t35 -5.5t29.5 -7q29 -12 43 -52q3 -9 3 -21t-7.5 -21.5t-16.5 -18.5q-27 -25 -31 -45h-3q-16 2 -45.5 2t-69.5 -6t-82 -10q-8 -21 -17 -27.5t-16 -13.5q-18 -16 -18 -78l8 -163 l-11 -133l26 -381q0 -59 -18 -125t-26.5 -79.5t-25.5 -20.5t-27.5 -17t-20.5 -24t-21 -28q-26 -37 -41 -40q-7 -8 -13.5 -16.5t-15.5 -17t-12 -14t-6 -8.5q-5 -6 -28 -8t-43.5 -8t-40.5 -12q-51 -16 -96 -16q-36 0 -67 10q-37 13 -62 26.5t-33.5 17t-15.5 6.5 q-14 8 -33.5 31.5t-44.5 41.5t-45.5 33t-28.5 31.5t-12 35.5q-8 32 -8 62.5zM420 1340q29 0 29 15t-15 15q-14 0 -14 -30z" />
<glyph unicode="K" horiz-adv-x="1193" d="M58 1334q0 74 76 94q98 27 334 27q67 0 85 -16q29 -26 29 -100.5t-72 -74.5l-44 3q-27 0 -48 -27q-34 -44 -34 -60l13 -67l-12 -76q0 -14 2.5 -25t3.5 -29t2 -40.5t3 -46t6 -42.5q9 -45 26.5 -45t39 26t42.5 61q47 79 54 116q33 15 55 38t42.5 46t41.5 49q52 64 52 83 t-8 36t-17 36q-25 53 -25 75t22 33t52 18q53 11 118 11q133 0 280 -69q-25 -72 -99 -78q-91 -6 -131 -48q-16 -17 -30 -35t-29 -35q-35 -42 -67 -60v-5q0 -36 -19 -64t-41.5 -57t-41.5 -63t-19 -70t5 -64.5t16 -54.5q25 -62 71 -78q0 -42 11 -81t17.5 -47t8 -13t1.5 -9 q2 -14 5 -21q7 -5 14 -8t15 -7v-42q4 -13 15.5 -13t15 -13t7.5 -32q10 -57 19.5 -72.5t17 -34.5t15.5 -37q19 -48 38 -69q35 -38 102 -51q53 -15 77.5 -34t24.5 -27q0 -30 -212 -30h-47l-113 -4q-90 0 -90 37q0 17 16 48q33 64 65 64q11 0 20 -3q3 13 3 35t-11.5 46 t-26.5 47q-41 66 -45.5 90t-12 35.5t-16.5 22.5q-22 29 -25 47t-5.5 24.5t-6.5 10.5t-10.5 7t-16.5 9.5t-13.5 14.5t-5 16.5t-2.5 18t-5 18.5q-8 4 -14.5 7t-14.5 7q-6 14 -11 31.5t-12 33.5q-18 37 -51 37q-25 0 -83 -73q-14 -17 -28 -29q-1 -4 -1 -8v-8l2 -49 q0 -24 -11 -44q-19 -37 -19 -58l15 -128l-3 -68q0 -84 87 -102q57 -11 72 -19.5t15 -23.5t-6.5 -30t-17.5 -28q-26 -31 -41.5 -32.5t-21.5 -1.5h-12l-61 7q-13 0 -25.5 -4t-35.5 -9q-72 -16 -102.5 -16t-48.5 8t-35 21q-39 31 -39 62q0 54 61 75q11 19 34 22t32 9.5t11 28.5 t11.5 38t9.5 35l-16 144q-7 69 -7 138q0 200 9.5 255t9.5 70.5t-8 29t-8 30.5l5 77l-5 53l2 74q0 77 -18 93q-26 22 -104 22q-65 0 -85 26q-9 11 -9 32z" />
<glyph unicode="L" horiz-adv-x="1234" d="M49 1326q10 15 19 39t20 46q29 54 67 54q19 0 35.5 -9t38 -9t43.5 10t44.5 10t38.5 -14q18 5 33 5l39 -6q30 0 58.5 8.5t55.5 8.5t49 -7t43 -16.5t42 -19.5t44 -15q2 -10 2 -17v-4l-8 -42q-6 -18 -10 -39q-6 -34 -47 -34l-34 1q-75 0 -145 -22q-10 -19 -10 -39.5t4 -38.5 t6 -36l-39 9q-8 0 -14.5 -9t-6.5 -17q0 -25 45 -25l1 -20q0 -37 -8.5 -72.5t-8.5 -72.5l5 -44q0 -19 -23.5 -19t-23.5 -6.5t-1.5 -11.5t-1.5 -12.5t7 -9.5t15 -2q22 -2 22 -11l-6 -40q0 -27 11 -52t11 -52l-13 -95q0 -20 10 -47q19 -50 19 -70l-14 -82q0 -5 3 -21.5t6.5 -48 t12.5 -59.5q22 -69 78 -69q31 0 60 9.5t54 9.5t43.5 -4.5t36.5 -10.5q45 -15 75 -15t59.5 7t65.5 13q78 15 78 93q0 45 -10.5 87.5t-10.5 78.5q0 68 33 107q24 8 48 8q80 0 80 -96q0 -17 -7 -23.5t-7 -10.5t4 -7.5t9 -8.5q13 -13 13 -23.5t-6 -13.5q0 -11 -1 -27l-2 -32 q-1 -39 6 -51l8 7l-10 -48l8 -39q0 -31 -12.5 -72.5t-16.5 -47.5h-29q-4 -21 -14 -43q-59 -28 -123 -28l-63 1q-71 0 -112 -24q-9 -4 -23.5 -4t-33 4t-36.5 9q-47 13 -74 13l-108 11q-28 0 -62 -8q-65 -15 -93 -15l-70 8l-127 -11q-97 0 -97 86q0 18 15.5 46t40 46.5 t47 26.5t42.5 11t35 13q32 21 32 94t-9.5 130.5t-9.5 117.5l12 114l-9 196q0 34 -9 66.5t-9 66.5l8 76q0 29 -3 58t-4.5 51.5t-5 38t-11.5 26.5q-18 26 -53 26l-72 -12q-18 0 -41 7q-5 7 -8.5 16t-7.5 17q-10 21 -27 24z" />
<glyph unicode="M" horiz-adv-x="1429" d="M96 87.5q0 28.5 14 46.5t35.5 28t46.5 18t47 20q7 24 7 70l-5 116l8 76q0 10 -9 33q-15 42 -15 95t4.5 69t10.5 32q14 42 14 65l-8 122l8 78q0 20 -8 38.5t-8 35.5t7.5 28t7.5 22t-8 19t-8 26l3 60q0 72 -66 88q-40 9 -53 17t-13 21.5t14.5 27t36.5 26.5t48 25.5t48 22.5 t37.5 17t17.5 10q7 -13 29.5 -13t30.5 -2.5t13 -7.5t9 -10q12 -13 43.5 -21t51 -26.5t19.5 -60.5l-4 -43l25 -71q3 -11 6.5 -22.5t5.5 -22.5q25 -20 29 -106q2 -46 11.5 -73t9.5 -50l-9 -57q0 -38 16 -81q31 -84 31.5 -108t3 -49t7 -55.5t11 -63t15.5 -59.5q22 -61 50 -61 q18 0 23 10.5t6 24.5q3 41 15 47.5t19.5 24t12.5 38.5q7 31 10.5 78.5t3.5 102.5t2 111q5 126 32 212q3 8 8 15t10 15q12 18 12 27.5t-3 14t-7 7.5q-9 8 -9 13t3 7.5t11.5 12t12 38t4.5 60.5q3 94 15 118q12 -5 24.5 -5t25.5 5.5t25 11.5q36 17 55 17l22 -1q20 0 36 9t28 9 t15 -3t4 -6q5 -9 10 -9l69 8q21 0 30.5 -13.5t23.5 -17t28 -6.5t24.5 -10t10.5 -33t-17 -39t-39.5 -17.5t-44 -8t-31 -20t-11.5 -36.5t-7 -33q-10 -24 -10 -38t4 -29t10 -29q23 -62 23 -131t-3.5 -101t-7.5 -64q-11 -88 -11 -119t-15 -46l-1 -23q0 -41 9 -93q17 -97 17 -137 t-11 -78t-11 -77q0 -63 56 -63l57 3q38 0 55 -17q-1 -4 1 -12q2 -12 3 -20q0 -4 -1 -8q-1 -5 -5 -2q-19 -65 -135 -65q-46 0 -87 7t-63.5 8t-44.5 5q-53 10 -53 47q0 54 68 58t68 65q0 23 -8 56q-14 64 -14 81t7.5 30.5t7.5 37.5q0 52 -14 89t-14 53l13 59l-14 81l12 110 q0 52 -41 175q-55 -25 -72 -133q-7 -39 -21.5 -76t-21.5 -80.5t-8.5 -90.5t-5.5 -93q-8 -115 -40 -185q-12 -25 -12 -63l2 -57q0 -46 -14.5 -64t-22.5 -27.5t-11.5 -27t-17 -26t-31.5 -14t-36 -9t-30 -9.5q-11 23 -26.5 43t-29 42.5t-17 48.5t-10 45t-12 28t-10.5 19 q-11 24 -11 43l2 41q0 24 -12 63q-33 108 -39.5 174t-9.5 116t-16.5 85t-25.5 56t-17 35t-6.5 25t-4.5 23q-6 30 -13 32q-5 -4 -9.5 -17t-8.5 -20t-7.5 -11.5t-8.5 -9.5q-22 -22 -22 -43.5t10 -43t10 -44.5l-8 -45q0 -29 8.5 -57.5t8.5 -57.5l-14 -89l11 -95q0 -23 -9 -59 q-16 -70 -16 -102.5t16 -49.5t38.5 -26t46.5 -17.5t41 -31.5q-9 -15 -13.5 -32.5t-13 -31.5t-17 -19t-17 -6.5t-18.5 -2.5q-24 -4 -32.5 -14.5t-12.5 -15.5q-8 -9 -35 -9l-68 8l-70 -11q-72 0 -107 60q-10 19 -10 47.5zM381 1089q0 -47 29 -48q1 4 1 8v9q0 52 -29 68z M695 228l15 -1q43 0 43 33l-1 11l-15 1q-42 0 -42 -33v-11zM1137 126.5q0 -6.5 24 -6.5q30 0 30 8q0 17 -21 17q-17 0 -25 -6t-8 -12.5z" />
<glyph unicode="N" horiz-adv-x="1286" d="M84 42q0 30 20 54.5t42.5 28.5t41 4t36.5 1q43 4 61 27q-4 15 -4 42t9 60t9 57.5t-7.5 66.5t-7.5 112l2 81q0 52 -7.5 103t-9.5 104.5t-2 107t-7 87.5q-8 39 -8 74v36q0 76 -14 89.5t-29.5 16t-33.5 5t-31.5 13.5t-25.5 26q-26 35 -26 60v22q0 99 94 106q29 2 62 2 q191 0 241 -83q17 -29 29 -65q25 -77 33.5 -91.5t11 -25t5.5 -21.5q6 -26 13.5 -36t17 -18.5t16.5 -23.5t10.5 -36.5t6.5 -43.5q11 -75 23.5 -93.5t16.5 -26.5q12 -18 16 -62t11 -62t17 -31t20 -25q30 -36 38 -60.5t17 -50.5t35 -46q-15 -23 -15 -42.5t10.5 -40t17.5 -37.5 q15 -37 32.5 -45.5t22.5 -14t6 -12t0.5 -15t1.5 -18t5 -18t7 -16.5q11 -21 26 -21t15 26t7.5 37.5t7.5 27.5t-7.5 30t-7.5 31l11 51q0 10 -7.5 17t-7.5 12t3 5.5t6 1.5q9 3 9 20t-5.5 39.5t-12.5 45.5q-18 59 -18 94q0 24 10 42t10 24l-13 47l15 57q0 12 -9 28 q-22 40 -23 65.5t-1 41.5v43q0 59 -9 93.5t-10 54.5t-6 35q-11 33 -65 36q-23 2 -46 2.5t-42 5.5t-26.5 18t-10.5 29t-3 33v26q0 48 114 64q26 3 37.5 2.5t34.5 -1t51 -3.5t58 -7.5t55 -12.5q57 -17 57 -40q22 24 40 24t29.5 -7.5t19.5 -19.5q17 -25 17 -53.5t-20 -28.5 q-6 0 -12 9q-9 16 -16 18q2 -47 -9 -48q-3 -1 -9 -1q-13 0 -31.5 -4.5t-30 -6t-16.5 -6.5t-8 -37q-5 -54 -5 -85l9 -188l-7 -90q0 -20 8.5 -39.5t8.5 -30.5t-3.5 -15.5t-7.5 -9.5q-12 -13 -12 -25l15 -81q0 -39 -9 -100q-16 -117 -16 -149q0 -62 9 -85q13 -33 13 -43 t-6.5 -18.5t-6.5 -14t6.5 -12.5t10.5 -21q13 -41 13 -78t-11 -57t-29 -35q-41 -36 -79 -36t-59.5 19t-37 46.5t-28 57.5t-23.5 50t-16.5 36.5t-11.5 32.5q-14 38 -33.5 56t-26.5 34.5t-11.5 35t-8 37t-11 46t-22.5 65.5t-24.5 63t-17 40t-15.5 30q-21 39 -23.5 63.5 t-15.5 51t-28 50.5q-42 67 -46 91t-9 40.5t-13 32.5q-20 41 -42 41q-35 0 -35 -86l5 -80l-12 -57q0 -9 6.5 -15t6.5 -14l-4 -31l5 -97q0 -97 -59 -106q6 -11 18.5 -13t17.5 -4t5 -11l-1 -16q0 -15 10 -27q20 -21 20 -34l-6 -45l12 -93q0 -23 -8.5 -28t-8.5 -11l6 -37 q0 -15 -8 -23q1 -16 18 -23q33 -14 38 -25t9.5 -18.5t18.5 -7.5t28 7.5t30 7.5q46 0 46 -63q0 -42 -31 -57q-11 -5 -20.5 -10t-9.5 -13t0.5 -9t0.5 -3q-28 18 -65 18q-26 0 -56 -9t-60 -9l-86 8l-55 -7q-33 0 -68 17q-67 32 -67 53zM226 87q0 -7 5 -11.5t13 -6.5 q19 -5 26 -12q2 6 2 13t-5 11.5t-13 6.5q-21 6 -26 12q-2 -6 -2 -13z" />
<glyph unicode="O" horiz-adv-x="1263" d="M88 894l14 26q5 12 8.5 30t9 45t18 66t24.5 82q28 96 91 143q42 34 51 68q8 6 23 6h8q16 0 29 11q25 23 48.5 23t60.5 -8q21 20 31 25v-3q0 -11 8 -11q13 0 25 6t33 9.5t50 14t60 10.5t67.5 -4t71.5 -15q81 -25 113 -81q12 -21 26 -30l22 -15q28 -20 43.5 -54.5 t38.5 -56.5q49 -45 49 -125l-6 -45q0 -14 11 -35q18 -38 21.5 -62t9.5 -49.5t13 -56.5q14 -59 14 -113q0 -52 -13 -101q-13 -51 -13 -80l2 -31q0 -31 -14.5 -59.5t-16 -44.5t-1.5 -32q-2 -40 -16 -62q-2 -10 -5.5 -29.5t-6.5 -24.5t-8 -6t-11 -2q-25 -4 -33 -27 q-13 -40 -31 -40q-9 0 -23 7q-24 12 -38 8q3 -2 2 -9.5t0 -15.5q5 -22 24 -22q27 0 45 4q-13 -35 -35 -50.5t-36.5 -25t-30 -25.5t-31 -20t-38 -10.5t-32.5 -16.5t-22 -19q-29 -22 -112 -22q-58 0 -143 11q-30 3 -55.5 18.5t-37 20t-22.5 9t-23 9.5q-42 17 -46 29.5t-6 21.5 q-5 22 -14 28q-28 4 -57 14q-4 11 -7.5 21.5t-7.5 21.5q-13 14 -25 23.5t-21 19.5q-21 23 -24 54t-12 55.5t-19 48.5q-24 62 -24 94.5t11 60.5q-43 61 -43 187l1 62q0 17 -7.5 26.5t-7.5 27.5t6.5 39t8.5 43q-13 2 -17 10zM260 692q0 -111 12 -136t12 -42l-10 -45 q0 -14 8 -22.5t15 -18t11.5 -22t9.5 -23.5q11 -27 17 -27l14 3q20 0 30.5 -17.5t10.5 -33t8 -25t19 -17.5t22.5 -15.5t22 -19.5t18 -17t13.5 -6.5t11.5 -2.5t15.5 -8t21.5 -16.5t32.5 -24.5q34 -24 135 -24q20 0 43 16q45 29 62.5 29t31.5 -6q23 35 44 56t38 41 q38 45 46 117q2 19 10.5 35.5t12 45.5t4 69t4.5 68q6 42 6 87.5t-9.5 100.5t-16 92.5t-15 55.5t-17.5 45.5t-20 63.5t-20 65t-30 45.5t-49 28t-60.5 19t-62.5 12.5q-50 7 -94 7l-85 4q-47 0 -73.5 -21t-55.5 -43.5t-41.5 -48.5t-19.5 -31.5t-14 -10.5q-15 -14 -19 -39.5 t-10.5 -54t-6.5 -58.5q0 -64 -13 -96q-18 -44 -18 -56.5t7 -23t7 -16.5t-2.5 -6.5t-4.5 -1.5q-8 -5 -8 -30z" />
<glyph unicode="P" horiz-adv-x="1133" d="M62 1289l2 7l6 2q12 0 27 -15q-10 -13 -19 -13q-16 0 -16 19zM83 1340q31 39 137 50q27 2 42 6q22 5 35 5l70 -7q19 0 30.5 8.5t27.5 8.5q30 -15 42 -15l133 8q50 0 110 -21.5t93 -33.5t56.5 -16t35 -11t22.5 -16.5t21.5 -19.5t22 -19t20 -23t17.5 -28q22 -39 39 -50 t25 -27.5t12 -35.5q5 -30 5 -72q0 -91 -16.5 -134.5t-39 -71.5t-30.5 -50t-22 -33t-31 -22t-33.5 -20.5t-49.5 -29.5q-91 -57 -213 -57h-6q-27 15 -56 15q-64 0 -92.5 -9t-50.5 -17q-57 -23 -57 -31v-4q2 -7 5 -7l20 11q15 0 15 -39l-12 -115l-1 -115q0 -98 21.5 -116 t49.5 -24.5t73 -18.5q-3 -9 -3 -19t7.5 -15.5t16.5 -10.5q23 -16 23 -32t-11 -27t-14.5 -19t-6.5 -12q-9 -14 -135 -14l-73 1q-103 0 -139 -9.5t-65 -9.5q-57 0 -57 68q0 70 88 101q57 20 72 29.5t15 22.5l-9 46q0 7 7 27t7 39v29q0 11 -1 22q-15 7 -15 35v34l10 151l-6 94 q0 7 4 10q-9 7 -9 20l9 51q0 25 -8 62q-16 67 -16 87.5t3.5 31.5t7 22.5l7 23t3.5 24.5l-13 133q0 29 30 45q11 6 20.5 11.5t9.5 14.5t-6.5 14t-16.5 5t-20 -9t-20.5 -9t-17 10.5t-13.5 22.5q-21 33 -40 33l-44 -6q-23 0 -23 25l1 20q0 26 -17 26q-6 0 -12 -2zM369 925 q0 -9 13 -30t29 -45q42 -61 42 -66q24 -3 43 -3t53.5 1.5t72.5 3.5q124 9 131.5 18l12.5 15q12 15 37 15q111 0 111 136q0 129 -76 206q-77 80 -204 80h-30q-182 0 -202 -32q-7 -11 -19.5 -26.5t-12.5 -27t6 -23t14 -24.5q20 -36 20 -54q-22 -3 -22 -17.5t9.5 -32.5 t9.5 -34.5t-6 -24t-13 -12.5q-19 -14 -19 -23zM381 572v5l1 -6v-4q-1 3 -1 5z" />
<glyph unicode="Q" horiz-adv-x="1233" d="M87 805.5q0 21.5 5 40.5t12 38q23 67 23 111q0 53 3 65q3 16 8 24.5t10 17.5q13 22 13 28t-9 18t-9 20.5t6 19t15 21.5q20 27 30.5 27t20.5 -10q8 45 27.5 74.5t23.5 37t8 14.5q9 18 19 18l17 -3q6 0 6 4l-4 19q0 23 155 38q32 3 47 3t15 -4q29 29 84 29q94 0 143 -21 q13 -5 26 -9l26 -8q27 -10 43 -30q24 -30 57 -63.5t63.5 -70t51.5 -75.5t21 -66.5t-2 -43.5q46 -19 46 -154v-17q0 -35 2 -54q6 -40 6 -80t-6 -92t-7.5 -93.5t-7.5 -69.5t-13 -55q-19 -83 -20 -112q-27 -9 -48 -47t-31.5 -59.5t-22.5 -37.5t-29.5 -32.5t-32.5 -33.5 q-38 -41 -38 -76.5t8 -62.5t8 -43.5t9.5 -22.5t21.5 -11.5t23.5 -10t17.5 -9.5q20 -17 35.5 -17t26 13t19 33t16 43t18.5 43q25 46 70 46q56 0 56 -55q0 -45 -21 -63q-11 -9 -19 -34.5t-14.5 -36.5t-19.5 -18t-28 -10t-31 -4.5t-31.5 -6t-31.5 -8.5t-24 -11q-12 -9 -17 -9 l-25 12l-48 -8q-68 0 -109 81q-33 65 -36 142q-26 -2 -66 -2q-56 0 -136 16t-94.5 18t-27.5 6q-28 7 -51.5 34t-48 50.5t-47.5 49.5q0 41 -17.5 77.5t-37.5 73.5q-56 100 -56 150t12 83q-17 17 -20 39.5t-5 42.5t-7 37t-10 35q-15 46 -15 67.5zM222 708q0 -89 10.5 -154 t10.5 -78t5 -21.5t12.5 -16.5t15.5 -15.5t16.5 -19.5t18 -30t21.5 -33q27 -34 68 -41q2 14 6 21.5t17 7.5h6q2 53 43 92q39 38 94 38l24 -2q5 0 12.5 7t23.5 7q19 0 54 -18t48.5 -22.5t24.5 -9.5q22 -12 33.5 -33t17 -31t12.5 -18q15 -21 32.5 -21t33.5 20t29.5 46 t23.5 52.5t19.5 48.5t14 53.5t7.5 62.5q6 79 23 113q-27 28 -28.5 71t-2.5 72.5t-5 57.5q-9 64 -29.5 102.5t-37.5 65t-23.5 52t-9.5 42.5t-9 32q-14 30 -45.5 41.5t-71 23.5t-77.5 23q-91 27 -89 30q-12 -29 -70 -32q-67 -3 -84 -18t-29 -34t-24.5 -31t-22.5 -17.5 t-20 -10.5q-26 -13 -35 -28q13 -11 13 -36.5t-8.5 -50t-18.5 -49.5q-27 -67 -27 -101l9 -37q0 -28 -10 -57q-22 -67 -22 -116zM526 252q0 -28 17 -52q21 -8 37 -8q49 0 49 73v3l1 7q0 26 -33.5 26t-52 -16.5t-18.5 -32.5z" />
<glyph unicode="R" horiz-adv-x="1304" d="M30 36.5q0 22.5 7 33.5t19 19q28 20 51.5 20t28.5 2q12 4 22 14q15 15 25 15l20 -2q59 0 61 124q1 24 6 45t5 48t-8.5 61t-8.5 69l12 168l-1 42q0 72 9 142t9 116q0 64 -3 92t-5 51.5t-6 48.5t-10.5 50t-18.5 45q-26 44 -67 44l-21 -2q-36 0 -36 62q0 78 113 78h3h20 q47 0 75 8q34 10 67 9.5t71 -10.5t73 -10q63 0 102 13t64.5 13t63.5 -10t70 -12t60 -9.5t52 -21.5q57 -30 66 -83q5 -28 27 -50q42 -42 42 -51q0 -7 -6.5 -10.5t-6.5 -10t6.5 -12.5t14.5 -14q21 -21 21 -37t-9.5 -27.5t-9.5 -26.5l2 -3l14 4q5 -5 5 -45.5t-1 -63.5t-5 -45 q-12 -66 -54 -81q-37 -14 -43.5 -35t-18.5 -36t-24 -29q-32 -37 -32 -64.5t13.5 -52.5t24.5 -51.5t16 -54t7.5 -55.5t4 -56t4.5 -48t10.5 -47.5t18.5 -55.5q27 -70 54 -70q13 0 21 14t16 32q20 50 42 58q61 -6 78 -29q25 -36 25 -98q0 -38 -11 -43q-15 -9 -15 -41t-9 -32 l-16 5q-5 0 -10 -5t-5 -10l7 -15q0 -13 -52 -23t-73 -10t-57 13t-73.5 25.5t-57 44.5t-28.5 72t-13.5 82t-13 66t-8.5 34q0 17 6 24q11 14 11 22.5t-7 20.5t-7 32l1 43q0 62 -18 93.5t-33.5 51.5t-34.5 48q-9 -2 -18 -2h-20l-79 4l-86 -8l-56 9q-35 0 -57 -18 q-39 -32 -39 -67v-32q0 -87 -9 -136q-12 -71 -12 -99.5t16.5 -53.5t40.5 -40.5t53 -25.5t53 -21q57 -24 57 -66q0 -33 -36 -66q-22 -20 -46.5 -24.5t-43.5 -9.5q-33 -7 -75 -7l-110 13q-31 0 -69 -8q-70 -15 -92 -15t-38.5 3t-30.5 10q-33 18 -33 40.5zM390 936.5 q0 -18.5 3.5 -37t12.5 -33.5q20 -32 50.5 -32t49.5 8.5t35 8.5t26 -5.5t20 -11.5q28 -17 42 -17q21 0 49 13q86 40 155 40q29 0 89 88q56 82 56 120q0 40 -25.5 81.5t-35.5 52.5q-32 0 -35.5 7.5t-6 13.5t-25.5 17q-61 30 -119 30l-40 -12l-90 11q-33 0 -62 -7t-52 -12 t-41 -15q-41 -23 -41 -74l13 -122q0 -19 -10 -44q-18 -50 -18 -68.5z" />
<glyph unicode="S" horiz-adv-x="1206" d="M106 449q0 9 6.5 15t6.5 14l-2 48q0 67 24 67q32 0 71 -75q35 -69 35 -94t-14 -25q14 -25 14 -43l-7 -46q0 -26 17 -43t24 -19q10 -4 38 -6q40 -59 99 -99q99 -22 157 -22t85.5 8t51 21t45.5 30l46 34q17 12 36 23t37 23q43 29 55.5 50.5t26 34t13.5 23t-2.5 28t-4 48 t-3.5 61.5t-13 46.5t-27.5 26t-35.5 20.5t-37.5 28.5t-42 23.5t-48.5 6q-70 3 -95 22q-6 4 -10 4l-36 -11q-22 0 -49 9l-42 14q-24 8 -49.5 10t-35.5 4q-23 6 -64 33t-100 43q-11 28 -29 57q-11 7 -21.5 13.5t-20.5 14.5q-22 37 -39 102t-17 82q0 50 28 76q12 8 12 14 q0 5 -7.5 7.5t-7.5 10.5q17 68 130 150q13 9 22.5 23t20.5 20l28 1l29 -1q11 4 15 9.5t8 10.5q9 11 34 11l44 -1l151 2q103 0 131 -9t46.5 -9t26 7t12.5 15q12 22 32 22t42.5 -11t42.5 -18q-4 -16 -4 -28.5t5.5 -29t11.5 -32.5q17 -45 17 -66l-4 -41q0 -20 8 -28.5t8 -16 t-7 -13t-7 -16.5l6 -103q0 -106 -37 -106q-24 0 -44.5 24t-26.5 40.5t-10 34.5q-11 48 -25 70q-26 37 -47.5 73.5t-29.5 43.5t-17 9.5t-20.5 2.5t-29 3t-35 9t-35.5 11q-46 15 -73 15t-57 -9t-60 -22.5t-59 -28t-56 -24.5q-25 -53 -25 -105.5t10 -80.5t27.5 -47.5t40 -34.5 t48.5 -32q41 -28 106 -28l67 2q28 0 57 -11q54 -22 81 -22l64 4q19 0 39 -15q37 -29 56 -30q55 -27 70.5 -48.5t27 -40.5t29.5 -33t25.5 -27.5t8.5 -23t3 -18.5q5 -20 21 -22q2 -22 2 -58t-6.5 -85t-9.5 -100q-16 16 -30 16q-34 0 -34 -25q0 -20 35 -20q10 0 14 1 q0 -29 -42 -71l-19 -19q-6 -6 -13 -17t-16 -22q-20 -25 -35 -25l-30 11q-16 0 -16 -34v-12q0 -10 -82 -34.5t-113 -37.5q-83 -35 -138 -35t-85.5 8.5t-60.5 18.5q-80 28 -109 28q-60 0 -73.5 -10t-18.5 -20.5t-11 -10.5q-8 0 -29.5 11t-37.5 30.5t-27 42.5q-21 44 -21 98 l7 67l-11 94l11 68z" />
<glyph unicode="T" horiz-adv-x="1217" d="M52 1223.5q0 28.5 6 65.5t20 71q35 81 98 81l100 -11l116 10l75 -13l40 11l47 -11l40 6l58 -8l121 15l54 4t80 2t166 -26v-1q69 -17 69 -147v-15v-13q0 -46 6 -100q7 -62 7 -90q0 -80 -10.5 -96t-20.5 -26q-22 -22 -38.5 -22t-20.5 12t-5 26q-5 38 -27 38l-17 -4 q-2 0 -4 12t-5 29q-8 44 -16.5 63.5t-18 40t-9.5 40t6 31t13 21.5q19 27 19 45.5t-13 33.5t-32 24q-38 19 -72 19t-59.5 -6.5t-51 -15.5t-50.5 -19t-50 -17q8 -22 8 -59l-6 -135q0 -46 9 -114q16 -132 16 -176.5t-9 -69.5t-9 -33t5 -18.5t11 -21.5q17 -30 17 -49l-8 -45 l9 -62q0 -13 -15 -13t-15 -6l13 -57l-11 -49q0 -13 11.5 -23t16.5 -25.5t8.5 -37.5t13.5 -42q25 -47 98 -47h29q64 0 83.5 -18t19.5 -34l-12 -62q0 -5 2 -15q-34 0 -43 -28q-35 7 -83.5 7t-98.5 -7.5t-101 -16.5q-139 -23 -202 -23q-146 0 -146 63q0 47 13.5 56.5t24.5 10.5 q23 2 23 10t-14 14q27 24 66 27.5t62 5.5t37 7.5t23 19.5t17 31q16 37 16 60v2q-15 103 -15 188q0 14 22 58q-27 44 -27 56.5t4 23.5q12 33 12 79q0 60 -11 109.5t-11 120t10 145.5t10 126t-9 65.5t-39 23.5q-72 21 -121.5 21t-80 -6.5t-56.5 -21.5q-58 -33 -58 -94l4 -66 q0 -16 -6.5 -27.5t-6.5 -24.5t8 -26t8 -25.5t-4.5 -24.5t-10.5 -24q-16 -34 -21 -48q-11 -36 -37 -36q-14 0 -26 9.5t-12 23.5l11 33q0 16 -9 34q-18 33 -18 51l9 54q0 30 -9.5 59t-9.5 57.5z" />
<glyph unicode="U" horiz-adv-x="1273" d="M50 1366q0 16 17.5 29t41.5 21q51 17 85 17l61 -8l124 15q39 0 80 -14q82 -29 82 -59q0 -37 -33.5 -67t-57 -49t-43.5 -41q-47 -52 -47 -111l3 -81l-15 -159q0 -33 9.5 -59.5t9.5 -41.5l-7 -58l1 -26q0 -25 -14.5 -45.5t-14.5 -29.5q12 10 21 10q22 0 22 -43l15 -102 l-8 -94q0 -23 3.5 -42.5t17 -26.5t18.5 -17l11 -22q15 -33 25 -41.5t24 -15.5t29 -13q37 -17 49 -31.5t26 -23t27 -17.5q34 -24 34 -48q0 13 4 21q1 -3 1 -10t-4 -11q3 3 11 17q14 24 21 24q19 0 19 -18l-9 -37q36 0 55 32q5 9 5 20q0 20 -26 20l-31 -2h-3q12 35 65 52 q45 15 59.5 30t25.5 30t22 30.5t27 28.5q1 7 1 13v12l-3 83l13 92l-10 77l10 71l-10 112l13 147q0 48 -8.5 94t-8.5 105t26 59q-28 3 -71 68q-9 14 -9 22q-10 -2 -21.5 -2t-24 5t-24.5 11q-34 15 -53 15h-5q-4 25 -12.5 48t-8.5 49q0 61 105 61l110 -6q21 0 39 9.5t33.5 9.5 t27.5 -4.5t25 -10.5q45 -22 78.5 -22t54.5 -2q50 -5 66 -19q30 -26 30 -41t-9 -23.5t-21.5 -14.5t-25.5 -11t-21.5 -9t-14 -9t-11.5 -10q-19 -20 -40 -20t-30 -2q-31 -5 -38 -58q-11 -72 -52 -72q0 -15 16 -35q30 -39 30 -55l-10 -46l-1 -61q-1 -20 7.5 -39.5t8.5 -40.5 l-10 -48q0 -42 8.5 -83.5t8.5 -105.5t-29 -99q1 -14 6 -23.5t10 -19.5q14 -30 14 -52t-3.5 -51.5t-12.5 -56.5q-22 -69 -63 -69q-4 0 -8 1l-1 -6v-3q0 -14 8.5 -25t8.5 -21.5t-8.5 -21.5t-20.5 -23t-24.5 -23t-21 -19.5t-13 -17t-8.5 -14.5q-10 -14 -35.5 -19t-45.5 -15 t-39 -20q-43 -24 -90 -24q-34 0 -69 12q-39 13 -65 13l-51 -3q-19 0 -26 7.5t-17.5 12.5t-22.5 10q-20 7 -41 12.5t-37.5 20.5t-30.5 35q-46 66 -54 124.5t-11 93.5q-9 112 -20.5 148.5t-11.5 49.5t2 23.5t7 36.5q14 75 14 156l-11 226v21q0 32 8 55.5t8 37t-2 19.5t-9 23 q-8 19 -12.5 74.5t-18 73.5t-34 26t-45 13.5t-42.5 18.5q-28 20 -28 36z" />
<glyph unicode="V" horiz-adv-x="1252" d="M-2 1348q0 28 12.5 40t32.5 19t45 10.5t49 6t45 4.5t34 7q36 13 58.5 13t42.5 -3t42.5 -5l45 -4t41.5 -9q44 -16 58 -63q5 -15 5 -32t-11.5 -31.5t-28 -25t-35.5 -19t-34 -16.5l1 -9q0 -45 -29 -62q24 -16 25 -51t3 -55.5t17 -38.5q24 -30 24 -90v-37q0 -49 10 -70.5 t10 -34.5t-18 -22q11 -26 22 -54.5t35 -45.5q-1 -5 -1 -11v-11q0 -72 28 -120l2 -1v-5q0 -13 -7.5 -23.5t-7.5 -28.5t57 -85h6q57 0 77 68q12 45 17.5 75.5t13.5 61.5q21 80 41 80h2q-2 10 -13 26q-18 28 -18 39q0 16 10.5 37t18 39.5t12.5 36.5q7 29 10.5 60.5t11.5 54 t18 47.5q27 62 32 70q6 10 6 20l-5 24q0 14 9 24.5t9 24.5q0 32 -51 76q-12 11 -21 20h-29q-11 13 -16.5 28.5t-13.5 24.5q-21 23 -21 33.5t5.5 24.5t9 28t7 21.5t9 11t14 5t24 7t31.5 5.5l34 -2q13 0 46 10q64 19 92.5 19t50.5 -8t46 -8l33 2q23 0 44.5 -10.5t37.5 -15 t33 -9.5q39 -10 62 -25v-17q0 -83 -84 -110q-66 -20 -93.5 -35.5t-45.5 -38.5t-27 -49.5t-16 -54.5q-19 -77 -33 -95q-21 -28 -21 -41l6 -46q0 -80 -46 -214q-21 -63 -40 -69q16 -45 16 -87.5t-2.5 -54t-7 -15.5t-10 -8t-14 -31t-24 -64t-15.5 -62t-4.5 -44.5t-12.5 -39.5 q-20 -50 -40 -50q1 -15 11 -30q19 -29 19 -38t-5.5 -24t-14.5 -33q-24 -48 -37.5 -56t-25 -13.5t-23.5 -10.5q-28 -10 -40 -10t-27.5 5.5t-32.5 12.5q-46 20 -53 27t-15.5 31.5t-17 54t-15.5 57t-16 52.5q-36 98 -46 136.5t-17 52.5v6l11 57q0 10 -8.5 35t-18.5 63t-18 66 t-16.5 47t-16.5 39q-19 46 -19 75.5t15 53.5q-9 24 -18.5 47.5t-18 54.5t-11.5 66t-7 69q-11 82 -37 120t-39 48.5t-27 15t-31 5.5t-45.5 6t-55.5 26t-27 49z" />
<glyph unicode="W" horiz-adv-x="1318" d="M18 1309.5q0 18.5 12 30.5t29 20q33 17 67 17l57 -12q19 0 36.5 9.5t37.5 9.5t36.5 -4.5t33.5 -9.5q48 -14 68.5 -14t38 7.5t34.5 16.5q44 24 78 24t73 -9.5t80 -9.5q18 25 38.5 25t37 -7t33.5 -15q47 -23 70.5 -23t40 5.5t33.5 12.5q42 18 73 18l135 9q58 0 95 -25 q2 -14 2 -24v-13q0 -4 -1 -9q-2 2 -2 3q-9 -46 -40.5 -75t-42.5 -41.5t-17 -26t-9 -30t-12 -58t-23 -95t-16 -96.5q-5 -71 -13 -101t-8 -39l11 -50q0 -44 -15 -96q-28 -97 -28 -140l15 -100q0 -118 -33 -196q-8 -19 -10 -39t-4 -39q-5 -51 -17.5 -66.5t-17.5 -23.5t-10 -14 q-13 -15 -37 -15q-18 0 -41 8t-40.5 14.5t-28 20.5t-17.5 32q-14 31 -20.5 56.5t-7 42t-0.5 33.5q-2 46 -10 67q-13 34 -13 91l3 99q0 37 -12 81q-23 87 -25 115t-11 51.5t-9 41.5t3 25.5t6 13.5t6 11.5t3 16.5t-6.5 30t-14.5 37q-21 49 -21 70q-51 -9 -59 -98 q-5 -56 -18.5 -76.5t-36.5 -25.5q5 -6 12.5 -13.5t14.5 -16.5q16 -21 16 -32t-4 -15.5t-9 -8.5q-13 -9 -13 -29l9 -116q0 -31 -11 -60.5t-11 -52t5.5 -29.5t5.5 -18q0 -17 -10 -37q-20 -36 -20 -55.5t7.5 -37t7.5 -41t-9 -55.5t-26 -59q-39 -66 -95 -66q-40 0 -64 22 q-43 41 -43 81l9 95q0 22 -9 43l-13 33q-12 31 -12 91l1 56q0 48 -13 97q-25 93 -25 129l-14 89l10 40q0 15 -14 41q-28 48 -28 63.5t5 23.5t11 16q17 22 17 40v20q0 23 13 33q37 -8 40 -55q2 -19 3 -38t9.5 -29.5t15 -34.5t11.5 -52q12 -68 16 -91q7 -50 33 -71 q-8 -26 -8 -112.5t37 -86.5q30 0 42.5 22.5t12.5 48.5l-8 84q0 26 23 68q32 57 32 149l-1 61q0 66 9.5 94.5t15.5 45.5q15 44 15 72l-6 59l8 43q0 43 -52 80q-49 33 -81 33t-47.5 -9.5t-28.5 -12.5t-25 -6q-47 -12 -74 -81q-3 -9 -3 -14.5t6.5 -10t14.5 -10.5q22 -15 22 -28 t-2 -22.5t-6 -18.5q-8 -24 -21 -24t-26.5 17t-25.5 39t-21.5 44t-17 35t-16.5 21t-18.5 11t-21.5 4t-24.5 3.5t-24.5 7t-23 11.5q-24 16 -24 34.5zM744 1189.5q0 -20.5 8 -34.5t18 -26q26 -31 26 -42.5t-3.5 -19.5t-6.5 -16q-11 -24 -11 -38.5t7 -33t16 -39.5q22 -54 22 -95 l-3 -50q0 -6 6 -9t13 -8q18 -14 18 -47l-12 -79v-8q25 -23 25 -48q0 -1 -11 -52h21q24 0 37 9t13 36l-3 50q0 20 16 50.5t22.5 54t10 60.5t8.5 72.5t14 70t9 69.5l-12 69q0 19 11 44q21 47 21 70t-16 45t-41 38q-53 34 -91.5 34t-56 -14t-36.5 -26t-29 -39t-10 -47.5z" />
<glyph unicode="X" horiz-adv-x="1192" d="M7 68q0 35 28.5 59.5t49.5 33t43 15.5q61 19 85 39t41.5 48.5t31.5 58.5q43 90 59 107.5t23 30.5t12 28q11 33 11 48.5t7.5 21t19.5 14.5q24 19 36.5 54t28 65t15.5 52.5t-5.5 43t-14.5 41.5q-25 64 -52 83q-23 16 -23 38t-5 35t-13 24.5t-17.5 22.5t-20 26.5t-19 37 t-16.5 43.5q-18 54 -38.5 78.5t-32.5 37.5t-25 20q-22 13 -55.5 13t-53.5 7.5t-39 19.5q-45 28 -45 49t13.5 28t31.5 10.5t36 4t37.5 2t49.5 4t60 2.5l79 -4q35 0 67 3t50 -4t27 -18q14 -17 14 -34t-12.5 -29.5t-27.5 -24.5q-42 -32 -45 -49q59 -175 149 -264q15 -16 23 -16 t16 6.5t19 15.5q26 23 41.5 29.5t25 28.5t17 49t14.5 53t15.5 39t19.5 29.5t11 30.5t-11 22t-24 16q-35 22 -35 56q0 47 39 55q84 19 143 19l66 -12q19 0 36 8t36 8q99 0 138 -55q8 -11 8 -24t-19 -24t-44 -19t-50 -13.5t-51.5 -13t-56.5 -32t-51 -56.5q-30 -42 -56 -111 t-47 -107t-40 -77q-46 -94 -46 -147.5t11 -81t24 -50t24 -42t11 -32.5t7.5 -21.5t17.5 -17.5q28 -25 39.5 -45t26 -57.5t31.5 -72.5q53 -110 137 -126q30 -5 62 -8.5t49.5 -7t28 -9t16.5 -13.5q7 -9 13 -36q-15 -69 -25 -87t-28.5 -25.5t-39.5 -11.5q-27 -5 -83.5 -5 t-116 6.5t-101 9t-62 4t-37.5 9.5q-35 16 -35 64t12 71.5t27 38t27 25.5t12 31q0 21 -23.5 57.5t-32 67t-19.5 57.5q-26 63 -90 63q-31 0 -36 -27q-6 -35 -22 -46.5t-32 -34.5t-28 -49q-26 -56 -26 -88.5t13 -49t29 -33.5q42 -45 42 -75t-12 -30l-19 6q-9 0 -9 -12 q0 -4 5 -4h2q10 0 10 -10q0 -34 -77 -34l-77 4l-218 -9q-110 0 -110 57z" />
<glyph unicode="Y" horiz-adv-x="1149" d="M-41 1343q0 33 29 64t55.5 41t56.5 16q45 8 115 8h21l64 -1q43 0 102 -17t81.5 -19.5t34.5 -20t16 -39.5q3 -15 3 -28q0 -31 -18 -45q-24 -6 -46.5 -27.5t-37.5 -34.5q-3 -20 -3 -40.5t5 -33t11 -20.5q16 -23 16 -39.5t12.5 -40.5t30.5 -46q20 -25 70 -79h3q17 0 35 19 q34 36 34 50.5t7 23t16.5 17t19 16t14.5 16.5v43q6 6 11.5 11t9.5 11q8 12 8 35l-1 29q18 28 29 42q15 35 -25 42q-16 3 -35 4q-77 2 -96 41q-8 17 -8 33q0 23 18 41q22 22 56 31q77 22 111 22l119 -11l127 12q101 0 117 -72q3 -14 3 -25q0 -7 -1 -12q-3 -14 0 -22 q-23 -58 -88 -75q-27 -7 -55 -11.5t-50 -17.5q-51 -30 -51 -122q-40 -25 -67 -69t-33 -59q11 -4 12 -12q-8 -14 -13 -30t-12 -28.5t-13.5 -18t-12.5 -11.5q-12 -15 -12 -36q0 -35 -19 -50t-34.5 -45.5t-24.5 -64.5q-14 -59 -14 -111t8.5 -78t8.5 -53l-8 -109l4 -52l-1 -39 q0 -15 15.5 -33.5t23 -29.5t19 -11t28 4.5t32.5 9.5q44 15 57 15t22.5 -2t20.5 -5q27 -7 42 -9q10 -18 14 -28q9 -4 20.5 -8.5t21.5 -10.5q24 -16 24 -37l-9 -59q0 -36 -172 -36l-269 10l-168 -15l-90 12q-26 0 -50.5 -8.5t-45 -8.5t-32.5 4q0 17 -12 37q-23 37 -23 57.5 t21.5 36t54.5 25t73.5 14.5t79.5 7.5t71 3.5t49 4q26 50 28.5 130t2.5 120t1 79v20q0 29 -2 56q-9 131 -64 188q-45 46 -60 94.5t-41 95.5q-66 117 -108 244q-21 3 -29 14q-18 23 -29 28.5t-33 9t-48 7t-52.5 8.5t-48.5 13q-50 17 -50 51z" />
<glyph unicode="Z" horiz-adv-x="1213" d="M102 271q19 0 19 18.5t11 41t29.5 47t42 49t47.5 43.5q54 43 87 43h6q2 8 2 15.5t-6.5 11t-13.5 4.5q-21 5 -21 15.5t9 25t22 28.5q26 28 51 43v8q0 70 108 171q14 14 25 43q20 54 37 62.5t23 12t8.5 7t4 11t7.5 23t11.5 16t8.5 0.5q9 2 9 27.5t2 35t6 17t10.5 15 t15.5 18t19 24.5t18 29q19 36 19 62t-16.5 35t-38.5 11.5t-44 6t-33 20.5q-14 0 -34 -15q-36 -27 -49 -27q-11 0 -24.5 8t-33.5 8l-71 -3l-66 8q-61 0 -61 -113l4 -95q0 -136 -48 -136q-11 0 -30 12q-32 18 -32 72l1 30q0 4 -2 23.5t-4 42t-4.5 40.5t-2.5 20q-6 -6 -10 -6 q-10 0 -10 39l6 89q0 26 16 42l24 24q10 10 17 23q6 3 12 3l46 -9q5 0 11.5 5.5t16.5 12.5q26 18 60 18t70.5 -11t70.5 -11t58 15q39 24 99 24l106 -5l158 11q64 0 71 -8t8 -12q8 -24 32 -28q51 -9 51 -101q0 -13 -11.5 -31t-18.5 -32.5t-11.5 -32t-11.5 -30.5t-14.5 -23 t-15.5 -20q-18 -25 -18 -43l1 -6q-35 0 -59 -49q-9 -19 -16.5 -38t-19.5 -30q-38 -33 -62 -39q-7 -22 -28 -56q-39 -62 -42 -80.5t-8 -21.5t-10 -5q-11 -3 -11 -20t-5 -19.5t-12 -3.5t-14.5 -2t-11.5 -6q2 -10 2 -21.5t-6.5 -24.5t-17.5 -23q-21 -22 -50 -31l1 -12 q0 -18 -19.5 -39.5t-28.5 -34.5t-9 -26.5t-5 -20t-12 -12.5t-14.5 -11t-17 -12.5t-14.5 -16.5t-8 -17t-5.5 -17.5t-9 -21t-16.5 -23.5t-19 -25q-23 -33 -23 -50q0 -30 42 -41q11 -3 20 -3l73 9l225 -15q113 0 173 48q23 19 23 46l-1 19q0 52 7.5 85t7.5 29l-11 24l11 48 l-1 32q0 18 9 23q18 9 18 17l-11 31q0 18 27 18t35.5 -6.5t12 -15.5t6 -20t10 -19t16 -10.5t17.5 -4.5q26 -4 33 -12q-4 -11 -4 -28.5t8.5 -37.5t8.5 -41l-13 -64l12 -73q0 -24 -14 -43q-25 -36 -25 -45t1.5 -12.5t3.5 -7.5q5 -8 5 -27v-33q0 -54 -6 -64t-7 -22t-4 -22 q-5 -24 -37 -24l-91 7q-38 0 -75.5 -9.5t-76.5 -9.5l-216 11l-46 9q-15 0 -34 -11t-41 -11t-38 5t-32 11q-45 15 -66 15l-154 -15q-44 14 -44 68q0 23 3.5 48t2.5 45t-4 27t-6 10t-6 5t-3 11q-12 20 -14 43zM186 1136q0 -20 8 -20q18 0 18 21q0 15 -24 18q-2 -5 -2 -9v-10z M971 185q30 0 30 15t-15 15t-15 -30z" />
<glyph unicode="[" horiz-adv-x="639" d="M176 632q0 31 9.5 68.5t9.5 75.5l-10 117l6 59l-8 43l12 90l-12 136q0 32 8 62.5t8 62.5l-2 69q0 88 33 111q16 10 45 10l47 -10l125 6l82 12q78 0 78 -60.5t-75 -55.5q-20 2 -32.5 2t-34 -4.5t-43.5 -11.5q-57 -19 -57 -38l6 -51l-10 -53l6 -60q0 -3 -7 -18t-7 -29 l14 -84l-6 -49q0 -25 8.5 -47t8.5 -45l-15 -88l12 -115l-8 -96l15 -109l-11 -55l4 -67l-12 -60q0 -15 8 -30q15 -28 15 -37l-8 -39l8 -64q0 -40 -10.5 -79t-10.5 -69.5t9 -40.5t22 -15q16 -5 55 -5q110 0 110 -59t-77 -59q-42 0 -82 9t-80 9l-47 -10q-89 0 -79 133 q3 33 3 63.5t-9 65t-9 72.5l2 69l14 117l-12 51l14 64q0 23 -8 52q-15 53 -15 84z" />
<glyph unicode="\" horiz-adv-x="1141" d="M44 1492q0 25 27.5 44t58.5 19q41 0 65 -17h-1q21 -13 35 -17q0 -24 20.5 -51.5t27.5 -31.5q5 -46 56 -123q10 -15 19 -25q13 -12 47 -73.5t47 -96.5q31 -89 73 -125q0 -39 53 -119q13 -19 22 -26v-11q0 -12 15 -32v1q6 -7 17 -26v1q7 -11 9.5 -20.5t5.5 -19.5h-1 q8 -27 39 -70q59 -86 74 -120t28.5 -60.5t28.5 -52.5q29 -48 62.5 -94t47 -66t22.5 -34q20 -33 29 -43q20 -17 34 -40.5t35 -48.5q52 -58 52 -99q0 -34 -18 -57q-35 -41 -68 -41t-53 17t-34 40q-26 42 -33 78q-46 50 -78 105.5t-34 67.5q-62 93 -71 167q-12 9 -19 27 q-15 35 -32 51q-57 51 -57 102v2q-39 35 -56 76t-17 53v7q-35 29 -52 64.5t-29 55.5t-37 42q-2 9 -7.5 16t-11.5 15v-1q-25 28 -25 42t3 20q-24 35 -73 122q-26 13 -37.5 38t-17.5 40.5t-14 30.5q-16 31 -24 59q-76 68 -76 116q0 25 4 41q-59 20 -70 38t-11 43z" />
<glyph unicode="]" horiz-adv-x="640" d="M33 -86.5q0 60.5 75 54.5q19 -1 31.5 -1t34.5 4.5t44 11.5q56 18 56 37l-6 52l10 53l-6 59q0 10 7.5 21.5t7.5 25.5l-15 84l6 50q0 24 -8 46.5t-8 45.5l14 88l-12 114l8 97l-14 108l10 56l-4 67l12 60q0 20 -10 36.5t-10 30.5l6 39l-8 64q0 40 10 79t10 72.5t-14.5 43.5 t-36.5 12.5t-47 2t-47 2.5q-51 7 -51 54q0 61 78 61q42 0 81 -9t81 -9l47 10q86 0 78 -134q-2 -32 -2 -63t9 -65.5t9 -71.5l-2 -69l-12 -117l10 -51l-14 -64q0 -20 7 -50q15 -58 15 -87.5t-9 -67t-9 -75.5l10 -117l-6 -60l8 -43l-12 -90l12 -135q0 -23 -4.5 -45t-8.5 -46.5 t-2.5 -52t1.5 -52t-2 -45t-10 -37.5q-18 -37 -66 -37l-47 10l-125 -6l-82 -12q-78 0 -78 60.5z" />
<glyph unicode="^" horiz-adv-x="819" d="M0 836q0 38 52 96q14 15 26 23l-2 34q0 17 13.5 30t19 24.5t7.5 22.5q11 49 38 80t45 48q15 36 26 64t23 54q24 48 71 106l14 -1l99 15q29 0 44 -34q4 -10 10 -19v-25q5 -4 15 -5q26 -3 31 -27q9 -42 20 -56q18 -24 30.5 -40t18 -30.5t10.5 -29.5q16 -46 35 -61.5 t26 -22.5q20 -20 30 -41t16 -33.5t9 -18.5t5 -8t5 -4.5t8 -6.5t26 -28q48 -53 48 -110q0 -55 -49 -74q-13 -5 -28 -5q-41 0 -47 40q-4 28 -25 33q-4 1 -7 8.5t-7 17t-7.5 18.5t-13.5 19.5t-21 20.5q-28 29 -29 37l17 15q0 5 -17 5h-18q-13 57 -45 101q-63 89 -74 121l-11 -2 l-36 63h-19q-5 0 -5 2l2 5q0 3 -22 6l-62 -112q-1 -4 -1 -24.5t-5.5 -32t-12.5 -18.5q-21 -23 -25.5 -46t-20.5 -38.5t-28.5 -30t-20.5 -37t-12 -46.5t-6 -47t-5 -42q-15 -38 -54 -38q-35 0 -60 20q-44 35 -44 65z" />
<glyph unicode="_" horiz-adv-x="1396" d="M262 -342q0 75 106 71q25 -1 39 -1l232 4q27 0 53.5 8.5t47 11t36.5 2t29 2t22.5 5.5t19.5 3l79 -14q108 0 126 9.5t30.5 9.5t26 -5.5t35 -9t50.5 -5.5t58 -13q8 -14 17.5 -25t16.5 -28q-10 -50 -29 -64q-23 -3 -47 -5t-40 -4.5t-24 -6.5t-19 -4t-23.5 8t-25.5 8l-32 -6 l-28 6q-16 0 -30 -3.5t-47 -7.5q-48 -7 -184 -7l-58 -11l-33 11q-8 0 -16.5 -4.5t-22 -7t-29.5 -1t-33 1.5l-46 -10l-40 14q-14 0 -27.5 -8t-28.5 -8l-37 10q-14 0 -27 -11t-31.5 -11t-56.5 35l1 10z" />
<glyph unicode="`" horiz-adv-x="446" d="M0 1456.5q0 20.5 3.5 33.5t10.5 23q16 23 37 23q76 0 95 -44q7 -17 30.5 -37.5t40 -35.5t30.5 -25q16 -13 57.5 -34.5t60 -34.5t36.5 -29t31.5 -32t13.5 -26t-4.5 -19.5t-11.5 -17.5q-17 -19 -35 -19t-28.5 13t-21.5 22.5t-21 12.5q-22 6 -29.5 19.5t-24.5 22.5 t-29.5 16.5l-22.5 13.5q-65 41 -86 44.5t-36 5.5q-36 3 -50.5 12t-22 21t-13.5 25q-10 26 -10 46.5z" />
<glyph unicode="a" d="M78 198l13 40l-7 53q0 40 28 89.5t37.5 68t27.5 30.5t38 21l40 18t35 24q15 -17 39 -17l98 15l77 -8q30 0 59 25q25 22 71.5 30t73 13t47.5 14q47 22 47 63t-18.5 76.5t-47.5 64.5q-65 67 -129 67q-8 0 -17 -1q-24 -4 -54 -5.5t-56 -8.5q-62 -18 -62 -77l7 -79 q0 -55 -51 -82q-40 -21 -86 -21t-68 8t-34.5 33t-25 49.5t-12.5 50.5t9.5 49.5t21.5 46.5q34 64 40 93q13 8 50.5 17.5t54 14.5t39 14.5t45.5 17.5q58 19 96 21l31 1q142 0 257 -71q76 -46 106 -112q38 -86 38 -208l-5 -165q0 -60 11 -129q19 -128 19 -187q3 -35 16 -35 q31 0 60 44q30 44 57 44q54 0 54 -33q0 -17 -6 -32t-10.5 -30t-6 -24t-4.5 -15q-7 -15 -67 -44.5t-91.5 -29.5t-57 13.5t-47 30t-39 30.5t-30 14t-22 -7t-19.5 -15q-26 -22 -44.5 -22t-33.5 -5t-30 -11q-79 -35 -137 -37.5t-104 -2.5q-152 0 -152 48q0 4 1 7 q-14 -16 -31 -16q-36 0 -88 71q-51 70 -51 100zM221 251q0 -36 14 -57t37 -36t52 -26t58 -17q60 -12 94.5 -12t67.5 3.5t66 11.5q97 21 118 68q13 29 32.5 44.5t32 38.5t18.5 48q8 33 8 115.5t-23 82.5l-10 -3q-112 -62 -158.5 -66.5t-72 -4.5t-52.5 -5t-59 -12 q-68 -13 -88 -19.5t-25.5 -11.5t-8.5 -11t-6 -12.5t-12 -14t-20.5 -12.5t-23.5 -17q-39 -39 -39 -75z" />
<glyph unicode="b" d="M-55 1323q0 81 137 81q52 0 103 -9.5t103 -11.5q20 -5 17.5 -24t-5.5 -34t-3 -32l-3 -126q0 -179 30 -243q8 -17 19 -17t19.5 5t16.5 12t15.5 14.5t22.5 13.5q36 16 67.5 16t40.5 5t18 11q25 15 40 15t28.5 -4.5t26.5 -10.5q34 -17 54 -18q81 -7 95 -27q13 -18 29 -19.5 t26 -2.5q25 -3 42.5 -17t33 -26.5t28.5 -26.5q32 -33 39 -68q21 -107 47 -144q47 -68 47 -115.5t-36 -49.5q6 -19 18 -36t12 -34.5t-4.5 -31t-10 -26.5t-11.5 -26t-10 -29.5t-21.5 -53t-39.5 -75.5q-50 -92 -70.5 -111t-32.5 -23t-24 -6t-25 -3.5t-31 -9.5t-39.5 -22.5 t-40.5 -14.5t-28 5t-17 11q-23 16 -38 16q-42 -26 -139 -26t-160 83q-11 -3 -25 -14q-26 -19 -32 -19l-2 13l-6 7q-13 0 -23 -12q-19 -24 -41.5 -24t-22.5 21l9 39l-6 49l5 50q0 19 -9 46q-19 54 -19 74t9 39t9 33t-2 18.5t-4 8.5q-6 10 -6 25l1 41l-6 62l14 104l-11 141 q0 19 8 42q15 43 15 66t-4 49l-8 52q-12 68 -12 107l1 63q0 110 -109 118q-69 5 -89 20.5t-20 46.5zM299 385q0 -22 1 -26.5t13.5 -18.5t15 -36t4 -42.5t8.5 -37t27 -23t27.5 -12t12.5 -12.5t9.5 -15.5t12.5 -18.5q21 5 43 7t43 7q0 -40 103 -40q104 0 130 49 q15 26 35.5 37.5t41.5 20.5q51 23 63 61.5t24 75t12 61.5q0 39 -10 63q12 -6 24.5 -15t24.5 -9t12 12q0 13 -10 20t-20 11q-26 11 -21 22q6 16 18 16q-2 18 -17 42t-21.5 41.5t-8.5 30.5t-6 24q-9 23 -28 35t-26.5 16t-13.5 9q-10 8 -18 28t-16.5 26.5t-19 9.5t-23 5 t-35.5 11q-69 25 -128 25t-105.5 -20.5t-76.5 -58.5q-55 -68 -66 -201q-3 -31 -14 -75q-21 -83 -21 -105z" />
<glyph unicode="c" horiz-adv-x="1121" d="M81 511q0 50 18 57q25 11 25 20l-14 51q0 10 4.5 17t11 17.5t13 41t13.5 61.5q20 77 50 77l52 -8q12 0 23 3l1 8q0 16 -23.5 19t-23.5 11t5.5 12.5t13 8t15.5 6.5t15 8.5t11 13t7 14.5q12 23 44 24t46 1q38 2 56 7l-10 10q15 27 64 27t82 -9t66 -9l55 7q21 0 39.5 -10.5 t35.5 -19.5l4 -1q9 0 15 7t11.5 7t8.5 -4.5t8.5 -11t19 -9t19.5 -12.5t15 -14.5t18 -6.5t19 -4t19 -9v-28q20 -26 37.5 -39.5t31.5 -27.5q28 -31 28 -87t-7.5 -89t-26.5 -56q-36 -44 -119 -44h-7l-65 1q-8 13 -23 36.5t-30 48.5q-38 65 -38 83l5 60q-22 60 -113 60 q-56 0 -101 -17q0 24 -20 24q-42 0 -112 -68q-22 -21 -39 -50.5t-30 -50.5q-35 -53 -55 -55q27 -126 27 -161t8 -55t8 -43l-9 -68q0 -15 4.5 -20t19.5 -9.5t21.5 -16.5t11.5 -25q10 -30 34 -30h5l12 1q12 -16 14.5 -36t14.5 -36q7 1 11 11q7 18 21.5 18t21.5 -6t13 -14 q16 -19 31 -19t35.5 6.5t42 15t42.5 17.5t50 18q84 24 123 92q11 20 26.5 37t24.5 38l41 2h22q19 0 19 -9t-6.5 -14.5t-13.5 -9.5q-20 -12 -20 -26l11 1q54 0 105 -46q15 -13 15 -25t-7.5 -16t-16.5 -9t-16 -13t-13 -17.5t-11 -20t-15 -25.5t-34.5 -23t-48.5 -15 t-43.5 -19.5t-24.5 -42.5h-5q-29 0 -65 -17q-69 -34 -89.5 -34t-31 4t-20.5 9q-28 13 -44 13l-61 -4q-51 0 -76 26q-9 10 -9 19.5t1 12.5q-8 -8 -30.5 -8t-48 13.5t-48 33t-42 42t-40.5 43.5t-33.5 51t-38.5 73q-43 69 -43 227zM931 142q0 -5 6 -6h1q7 0 9 1q16 0 16 14 t-15 14q-7 0 -12 -8.5t-5 -14.5z" />
<glyph unicode="d" horiz-adv-x="1235" d="M83 446.5q0 71.5 6 107t15 70t18.5 68.5t16 65.5t15.5 45t20.5 23.5t25 19t23.5 21t11.5 17.5t3.5 8.5q2 7 16.5 7t19 5t8.5 12l8 14q7 17 30 20q49 5 73.5 17.5t36.5 18.5q27 11 66 11t72.5 -8.5t66.5 -18.5q89 -27 134 -27q83 0 83 130q0 39 -5 77.5t-7 76.5l-9 -4 q-14 0 -27 12q-25 23 -37.5 23t-15.5 -5.5t-10 -10.5q-22 -2 -45 -2h-44q-29 0 -55 22q-47 40 -47 60.5t8.5 35t21.5 26.5q28 27 56 27l48 -13l86 14l87 -15l69 2q44 0 71 -15v-6q0 -20 8 -44q15 -45 15 -63.5t-8.5 -35t-8.5 -35.5l16 -139l-2 -352l-12 -357q0 -158 57 -214 q26 -25 71 -25l35 3q24 0 36 -18q18 -29 18 -61.5t-28 -32.5l-40 5q-16 0 -16.5 -6t-2.5 -13q-5 -20 -67 -20l-91 8q-17 0 -37 -5q-8 10 -17.5 15t-18.5 10q-20 14 -20 31.5t-14 17.5l-19 -2q-12 0 -12 10q0 2 1 3q-21 -1 -32 -14q-29 -34 -41 -39.5t-23 -8.5 q-29 -10 -41 -21.5t-33 -16t-44 -6.5q-33 -4 -72.5 -4t-58 5t-33 12.5t-30.5 16t-42 16.5t-64 30t-72 51q-83 69 -83 127q0 25 -16 47.5t-26 36t-23 38.5q-23 47 -23 118.5zM227 372h8q46 0 63 -34q7 -16 11.5 -36t10.5 -40q14 -49 40.5 -67t46 -31t41.5 -24q50 -26 83 -26 t64 9t53 9.5t36 -2.5q60 94 128 114l-1 22q0 41 17 102q31 115 31 161.5t-6.5 88.5t-22.5 78q-39 85 -117 89q-12 1 -36 16q-45 28 -56.5 28t-19.5 -3.5t-16 -7.5q-20 -12 -34 -12l-65 4q-92 0 -160 -104q-61 -94 -61 -191l5 -72q0 -16 -15 -29q-28 -24 -28 -42z" />
<glyph unicode="e" horiz-adv-x="1114" d="M82 486.5q0 48.5 26 95.5q-10 28 -10 50.5t11 60t29 75.5q42 93 76 106q14 5 19.5 8.5t5.5 17.5t9.5 22t23 13t27 9t36.5 15t56.5 23.5t66.5 21.5q66 16 117.5 16t72.5 -6t40 -16q22 -10 76 -43q14 -2 27.5 -8.5t28.5 -8.5q14 -17 36.5 -32.5t43.5 -32.5q53 -42 53 -81 q0 -7 -2 -17l4 5q13 -10 22 -56q8 -13 21.5 -21t21.5 -22q-10 -10 -10 -26l14 -67l-4 -77q0 -21 -36 -37q-14 -6 -25 -12t-11 -15.5t-9.5 -9t-34.5 0.5t-68.5 11t-86.5 11l-186 -13l-139 4q-54 0 -109 -16.5t-65 -23.5q-1 -5 -1 -33t27.5 -78t72.5 -91t101 -68t127 -27 t115 -17q56 27 134 105q20 20 32.5 32t28 15.5t33.5 6.5q40 5 60 5t40 -7q6 -23 6 -47.5t-8.5 -43.5t-22 -34t-31 -28t-33.5 -26.5t-27 -19.5t-21.5 -10t-22 -8t-29 -12.5t-31 -17t-26.5 -15.5q-27 -14 -68.5 -19t-82 -12t-64.5 -7t-32.5 3.5t-19.5 6.5q-33 11 -55 11t-34 6 t-21.5 14t-19.5 17.5t-48 26.5t-80 55t-72 85q-53 82 -84 217q-11 42 -11 90.5zM245 645.5q0 -20.5 12.5 -32t32 -19.5t43 -14t46.5 -9q46 -6 73 -6l150 15l156 -7q118 0 118 42q0 15 -5 29t-9 35.5t-4 48t-8 53.5h-1q0 -17 -13 -17q-25 0 -44 21q-38 17 -68.5 32t-61.5 27 q-64 24 -144 24q-10 0 -14 -4l5 -11l-53 -11q-30 -8 -51 -26t-36.5 -31.5t-27 -18t-23.5 -8.5q-30 -9 -39 -20q-7 -25 -20.5 -48.5t-13.5 -44z" />
<glyph unicode="f" horiz-adv-x="969" d="M41 32q0 80 102 87q29 2 59.5 3t59.5 3.5t52 12.5q50 22 50 87q0 26 -9 60h2q15 23 15 72v60q0 95 -8.5 117t-8.5 30l16 91q0 14 -4 19q-8 11 -9 19q16 25 16 43t-5 26.5t-11 15.5q-17 22 -17 34q-231 0 -231 79q0 26 40 48q34 19 66 19l57 -2q53 0 63 8t14 20.5t7 27.5 q7 37 7 50l-7 88q0 73 34 107t59.5 60.5t53.5 47.5q61 47 113 54t82.5 12t54.5 5t52.5 -4.5t61 -13t65.5 -20.5t60 -28q61 -35 61 -73q66 -2 74 -127q2 -36 11 -58l-5 -1q-11 0 -19 6.5t-18 8.5l-1 -4q0 -12 11 -23q21 -21 21 -30t-11.5 -10t-20.5 -3.5t-16 -14t-16 -25.5 q-25 -34 -64.5 -34t-77 17.5t-55.5 45t-24 57.5t-7 59.5t-7 53.5q-13 53 -79 53q-143 0 -205 -86q-22 -31 -22 -76t4 -70.5t17 -37.5q16 -14 105 -14q15 0 41 -27q46 -49 46 -69q0 -62 -165 -62q-51 0 -51 -78l15 -268q0 -39 -10.5 -64t-10.5 -41l9 -44l-13 -85 q0 -26 14 -46q27 -39 31 -57q27 4 53.5 11t49.5 7t54.5 -2t61.5 -9q76 -19 76 -62t-16 -67q-30 -42 -63.5 -47t-59.5 -16t-48 -11t-37.5 6t-31.5 13q-47 18 -81 18q-165 0 -202 -10t-61 -16q-67 -18 -98 -18q-10 0 -16 2q-27 7 -42 14q-37 16 -52 30z" />
<glyph unicode="g" horiz-adv-x="1194" d="M87 -184q0 99 76 184q0 37 -16 91q-31 106 -31 134.5t5.5 41t11.5 21t11.5 16t5.5 14t14.5 20.5t31.5 32q47 48 47 67t-10.5 30.5t-22.5 22.5q-33 32 -33 53t3.5 43.5t7.5 43.5q12 55 12 89l-4 17q0 18 12 29q24 22 24 30t-6 15.5t-6 21.5v9q16 11 26.5 26t27.5 29 q30 26 95 60q8 -1 11 -8t10 -7t20 6.5t30 14.5q45 22 68.5 22t39.5 -2.5t40 -5.5t49 -4t47 -7q43 -12 78 -67q10 9 23 16t25 14q29 19 37 41q10 -5 19 -5t18 6t21 12q34 19 67 19t65.5 -7t66.5 -10q2 -29 17 -67q28 -73 28 -95.5t-15.5 -41.5t-37.5 -36q-53 -38 -94 -38 q-10 0 -10 8l13 34q-17 9 -19 9q-51 0 -51 -99l2 -67q0 -25 -3 -44.5t-21.5 -37t-28.5 -38t-20 -42.5q-27 -60 -58 -84q-12 -12 -19.5 -18t-10.5 -9q-5 -4 -20 -4t-40 -7.5t-50 -16.5q-69 -23 -106 -23t-76.5 9.5t-70.5 9.5t-56 -8t-47 -22q-51 -35 -51 -77q0 -50 45 -75 q14 -8 30 -8t30.5 8t29 8t22 -6.5t16.5 -7.5q0 16 16 16l26 -16q10 17 30 17q18 0 45 -15q36 -20 46.5 -12.5t17.5 13.5q17 15 39 15l41 -3l57 15q8 0 15.5 -4t18.5 -9q29 -13 55 -13t42 -5t31 -12q44 -20 61.5 -25t26.5 -10t14.5 -11t11.5 -14t19.5 -19t27.5 -17.5 t26 -13.5q26 -15 32.5 -44.5t12.5 -52.5t6 -51t-21.5 -63.5t-50.5 -65.5q-68 -69 -99 -69q-48 0 -86 -18.5t-81.5 -29.5t-92.5 -19q-112 -20 -152.5 -20t-73 2t-65.5 6q-106 15 -146 43q-31 22 -57 22t-39 7.5t-21.5 19.5t-16 26.5t-23.5 35.5q-38 52 -38 112zM228 -154 q0 -29 8.5 -55t25.5 -45q37 -41 99 -41q26 0 51 -19q37 -28 152 -28q26 0 49.5 11t48.5 16.5t50.5 5t46 9t31 17t30.5 7.5l65 -6q52 0 71 56q6 15 6 31l-1 10q29 0 29 39t-15 55t-37.5 25t-48 13.5t-46.5 10.5l-1 1q-141 41 -222 41q-7 0 -29 14q-11 0 -21 -9 q-19 -17 -29 -17l-42 9q-28 0 -67 -14q-74 -27 -94.5 -27t-38 -12t-33.5 -29q-38 -40 -38 -69zM335 630q0 -13 6 -26.5t15.5 -32.5t21 -40t22.5 -40q25 -46 34 -57q19 -23 58 -23l60 4l46 -5q62 0 129 76q64 73 64 138q0 84 -62 149q-19 20 -41 27l-116 41l-48 -13l-47 10 q-11 0 -32 -21q-10 -10 -20 -14q-17 -6 -25.5 -11.5t-19.5 -29.5t-21 -52q-24 -67 -24 -80zM819 855q11 -3 21 -13q18 -18 32 -18q9 0 18 3l1 7q0 16 -17 26t-28 10q-23 0 -27 -15z" />
<glyph unicode="h" horiz-adv-x="1263" d="M11 1348q0 30 39 30l29 -1q30 0 43 13q31 2 61 5t54 3t37 -8t26 -18q32 -28 54 -32l-7 -86q0 -21 8.5 -39.5t8.5 -31.5t-4 -13.5t-8 -1.5q-12 -3 -12 -15t3.5 -20t7.5 -15q11 -21 11 -33l-11 -60q0 -87 31 -147q11 -22 29.5 -22t37.5 10t36.5 24.5t33.5 31t27.5 27 t37.5 18.5t56 15q69 14 101.5 14t47 -4t24.5 -11.5t20 -17.5t27 -18.5t26.5 -10t17.5 -2.5q20 -4 34 -21q13 -17 32.5 -36.5t36.5 -40.5q42 -54 42 -91l-11 -60l10 -39q0 -100 -24 -131q25 -42 25 -109l-7 -139q0 -108 94 -131q57 -14 75 -34t18 -44q0 -39 -20 -70 q-46 -4 -89 -4l-88 1l-121 -12q-41 0 -44 43q-16 0 -37 -18q-41 -35 -64 -35q-17 0 -34.5 10t-17.5 23.5t3.5 19.5t8 10.5t8.5 8t4 7.5t-4 8t-10 8q-13 10 -13 23t12 20.5t31 10.5t41 3.5t43 1.5q49 2 59 21t16 44t9 52q7 50 7 98q0 138 -27 215q-6 19 -6 35.5t4 26.5t8 18 q13 22 13 35t-10 25.5t-15 27t-6.5 29t-7 26.5t-13.5 20.5l-16 17t-16 16.5t-12 19q-35 3 -73 3t-75.5 -5.5t-70.5 -19.5q-67 -28 -121 -95q-10 -12 -24 -27t-28 -31q-35 -39 -43 -70q-18 -80 -18 -134t3.5 -68t8.5 -28q11 -34 11 -48t-4 -32.5t-10 -37.5q-15 -48 -27 -48 q7 -24 72 -60q14 -8 21 -8l34 3q38 0 66 -23q32 -25 32 -36q0 -8 -18 -8l-21 -1q-13 0 -18.5 12t-8.5 17.5t-11 5.5t-8 -12.5t8 -22t18 -19.5q25 -27 25 -39t-12 -12l-39 6q-9 0 -17 -7.5t-21 -16.5q-35 -24 -70 -24t-40 11t-9 24.5t-9 24.5t-16 11q-18 0 -24 -18h1 q12 -12 22 -51q-36 2 -60 -4q-44 -13 -65 -13q-8 0 -12 2q-18 6 -32.5 12.5t-32.5 7.5t-33 4q-34 7 -34 52q0 58 49 86q15 8 32 8l46 -11q14 0 24 13q19 26 33 29q1 53 9 104.5t8 104t-9.5 103t-9.5 92.5t8.5 72t8.5 62l-15 65q0 13 7 20t9 18h-3q-13 0 -13 14t6 14t11 -3 q0 11 -10 25q-20 30 -20 41q18 34 18 69l-3 63q0 22 9 42t9 42.5t-21 22.5q-5 0 -13 -2q0 78 -19.5 104.5t-38.5 26.5l-47 -3q-38 0 -59 26q-37 46 -37 82z" />
<glyph unicode="i" horiz-adv-x="1164" d="M74 46q0 19 16 29t38 17q39 11 78 11l96 -13l84 12l75 -5q45 0 89 31q15 92 15 197l-16 195q0 4 5 5q8 2 8 10l-12 82l14 102q0 37 -21 59q-37 40 -66 40t-49.5 -5t-42.5 -11q-56 -17 -88 -17q-43 0 -87.5 7.5t-62 9.5t-33.5 7q-38 12 -38 45.5t12.5 52t31 27.5t41.5 11 t53 5q88 7 142 7l185 -11q112 0 151 -92q13 -31 13 -77.5t-41 -92.5q8 -14 20.5 -21.5t16.5 -13t4 -27.5t16 -23l-2 -212q0 -193 24 -223q12 -15 50 -15t82 9.5t79.5 9.5t59 -13t44.5 -28q59 -41 81.5 -41t22.5 -50.5t-51 -74.5q-15 -7 -27.5 -7t-24 12t-31.5 14.5t-42 5.5 q-54 6 -72 45q-8 17 -17 22t-40.5 5t-71.5 -14t-79 -32q-101 -45 -157.5 -45t-98.5 19q-9 -9 -26 -9l-25 2q-7 0 -23 -8l6 -10q-16 -24 -120 -42q-23 -4 -45 -4q-47 0 -83 47q-7 10 -17.5 20t-20.5 20q-22 25 -22 44zM360 1186q0 24 5.5 49.5t6.5 51.5q13 6 31 32t27.5 37 t20.5 14q39 10 57.5 10t48 -10.5t56.5 -27.5t46 -40t19 -49.5t-9.5 -57t-27.5 -55.5q-41 -59 -100 -59q-53 0 -97 19q-84 37 -84 86z" />
<glyph unicode="j" horiz-adv-x="851" d="M-23 -150q0 63 23 109q6 14 29.5 25t32.5 20q14 14 51 14t66 -12t48.5 -28.5t35.5 -34t42 -29.5q-3 -8 -3 -17.5t3 -39.5q-3 -18 -10.5 -35t-14.5 -34q-18 -46 -18 -72t15 -44l13 -1h8q42 0 71 22q51 40 51 81q0 8 -1 12l12 1l54 -8q22 0 27.5 37.5t11.5 63.5l12 52 q14 59 14 101.5t-8.5 77.5t-8.5 71l7 56q0 29 -10.5 55.5t-10.5 55.5l12 114l-14 184l2 66q0 99 -138 99l-85 -2q-98 0 -140 38q-18 15 -18 41q0 67 111 67l184 4q26 0 29 -5v14q20 8 62 8q105 0 105 -44q0 -11 -10 -21l71 -43q1 -14 1 -27v-28l-4 -192q0 -83 8.5 -111.5 t8.5 -44.5t-4.5 -26t-9.5 -20q-15 -25 -15 -36t10 -11q4 -84 4 -162.5t-14 -131.5l-1 -8q0 -33 10 -70q20 -69 20 -111.5t-15.5 -89t-45.5 -80.5q-66 -76 -171 -76q-12 0 -14.5 -12t-4 -19.5t-6.5 -13.5t-13.5 -7.5t-18.5 -3.5q-25 -3 -40.5 -19t-24 -25.5t-17.5 -15.5 q-17 -11 -57.5 -11t-64 5t-40 16t-32.5 29t-33.5 35t-28 21t-19.5 9q-23 10 -23 23.5t-9 36t-20 51.5q-29 76 -29 107zM292 1236q-12 19 -12 38q0 27 25 52q22 10 44.5 22.5t44.5 23.5q54 26 96 26q156 -21 156 -72q-5 -39 30 -43v-128q0 -35 -22.5 -61.5t-57.5 -26.5h-5 q-5 0 -15 2v2q-2 6 -2 14.5t8.5 18.5t8.5 26v4l-1 6q-45 -11 -61 -92q-4 -20 -10 -36q-48 2 -97 39q-90 69 -90 117q0 17 -14 33.5t-26 34.5zM593 1067h1h-1z" />
<glyph unicode="k" horiz-adv-x="1271" d="M23 1307q0 27 13 45.5t33 28.5q34 17 91 17q172 -37 187 -59q24 -72 24 -260q0 -27 -8 -51.5t-8 -51.5t7.5 -53t9.5 -49q2 -38 2 -76l-1 -107q0 -87 10 -149q5 -2 9 -2h9q30 0 49 24.5t31 39t33 23.5t37.5 28.5t31.5 40.5q39 54 68 66t29 32.5t-4 35t-10 28.5 q-13 34 -13 58l1 11l8 -1h3q12 0 12 5q-5 8 -5 18q0 22 23.5 22t44 -8t39.5 -8t33.5 4.5t29.5 10.5q40 14 60 14l106 -14q28 0 55 8t44 8t26 -3t17 -8q22 -13 21 -21.5t-7 -11t-6 -7t5 -11t11 -14.5q17 -19 17 -32.5t-24 -25.5t-55 -22q-68 -20 -96.5 -20t-39 7.5t-23.5 7.5 t-38 -12.5t-53.5 -32.5t-57.5 -45.5t-52 -50.5q-55 -58 -55 -86l-9 -62q0 -21 21 -34q44 -28 52.5 -46t26.5 -43.5t39.5 -54t43.5 -57.5t41 -57q41 -61 41 -94v-7q50 11 95 11t133 -11v-14q0 -30 16 -47q30 -32 30 -45t-5 -19.5t-12 -11.5q-16 -13 -16 -22t1 -12 q-58 -15 -109.5 -15t-59 2.5t-14.5 6.5q-16 8 -16 20q-12 -4 -26.5 -6.5t-27.5 -6.5q-32 -9 -46 -30q-13 4 -34.5 7t-45.5 7t-48 9.5t-44 13.5q-44 20 -44 51q0 38 8.5 57t14.5 19l40 -8l10 1l1 8q0 20 -30 20h-13q21 21 21 52.5t-4.5 55t-14.5 45.5q-24 52 -59 61 q-38 82 -86 82q-33 0 -80 -44q-86 -79 -86 -97l6 -42q0 -31 -25 -56q7 -40 77 -47q17 -1 31 -4q6 -6 17.5 -15t21.5 -19q27 -27 27 -39.5t-7.5 -14.5t-16.5 -3q-24 -3 -24 -17q0 -7 2 -12q-82 -3 -143 -18t-80 -16t-38 -1q-50 0 -71.5 -4.5t-40 -4.5t-38.5 9t-35 25 q-32 34 -32 68q0 71 51 71q8 0 13 -7.5t11 -7.5t9 4.5l7 10.5q8 14 30 18t40.5 19t28.5 36q18 39 18 98l-9 76q0 26 9.5 53.5t9.5 61.5l-11 185l8 142q0 18 -8 37q-14 38 -14 49l14 80l-15 88l7 70q0 83 -104 91q-65 5 -85 19t-20 41z" />
<glyph unicode="l" horiz-adv-x="1107" d="M10 -18q0 26 9.5 52t9.5 50v2q-13 0 -15 14q3 7 12 9q17 5 17 15v4q60 -6 129 -6t116.5 2.5t87.5 14.5q96 28 96 105v23q-16 352 -16 433l-9 112q0 83 52 129q-2 10 -11 11q-21 4 -26 6.5t-7 13.5t-3 24q-5 38 -10 45q3 29 10 57t7 53t-5.5 37t-12.5 20q-18 21 -18 30 t5 16l-8 1q-13 0 -21 -11q-16 -21 -25 -21t-18 3q-17 -5 -42 -5t-59.5 9.5t-69.5 9.5l-73 -3q-66 0 -98 32v12q0 53 35.5 80t78.5 27t77 -9t61 -9t48 4t43 9q57 13 90 13t63 -14.5t60 -27.5l-1 -8q0 -13 11 -26q19 -24 19 -37l-5 -35q0 -22 8.5 -42t8.5 -43l-11 -94l14 -116 l-15 -93q0 -26 11 -54q19 -52 19 -79v-20q0 -39 -16 -58q16 -61 16 -101t-30 -63q18 -52 21 -109.5t6 -76.5t6 -37q8 -50 8 -56l-12 -66q0 -42 28 -42q12 0 31 12q35 23 68 23l98 -14q29 0 62 8q66 16 98.5 16t60 -23t27.5 -63t-23.5 -60.5t-56.5 -30.5q-52 -17 -107 -17 t-76.5 6t-37.5 12.5t-28 12.5t-25 6l-67 -12q-20 0 -28 10q-24 26 -35 12q-4 -6 -9 -13q-13 -18 -42 -18l-82 9l-80 -15q-8 0 -12 5.5t-15 5.5t-29.5 -8t-37.5 -8l-39 5q-17 0 -34 -8t-34 -8t-47.5 2.5t-62.5 7.5q-83 13 -83 29zM494 1295q4 -14 10 -14q10 0 23 16 q-13 12 -25 12q-9 0 -9 -8q0 -2 1 -6zM556 998q8 -4 12 -4q19 0 19 25t-19 25q-6 0 -12 -3v-43z" />
<glyph unicode="m" horiz-adv-x="1359" d="M96 882q0 20 9.5 28.5t22 13t24.5 8.5t16.5 14.5t8 12t22 1.5t43.5 -8.5t48 -17.5q64 -27 85.5 -27t45 13.5t51.5 29.5q75 43 141 43q46 0 101 -54q15 -14 25 -27q93 89 263 89q66 0 108 -100q23 -57 33.5 -97t14.5 -52q6 -17 6 -29t-4 -25l-8 -26q-13 -34 -13 -52 l11 -54l-12 -57l15 -76q0 -19 -10 -45q-19 -48 -19 -60q0 -16 4 -26l39 -98q11 -27 53 -61t59 -53.5t17 -34.5t-2.5 -29.5t-7.5 -29.5q-14 -36 -29 -36l-44 9l-138 -13q-21 0 -48 10q-56 19 -77 21t-33.5 19t-12.5 42t14.5 43.5t32.5 38.5q47 54 47 140t-8.5 182.5 t-8.5 194.5v30q0 85 -35 111q-15 11 -42 11q-55 -34 -71.5 -56.5t-24.5 -45.5t-15 -53t-13.5 -64t-11.5 -65q-11 -68 -11 -96l11 -153l-7 -77q0 -21 7 -32q88 -48 88 -87q0 -29 -21 -47t-49 -18l-26 2q-13 0 -31 -8q-34 -15 -65 -15q-16 0 -31 4q-44 12 -64 12t-27 7.5 t-12 17.5q-8 19 -8 38t7.5 28.5t18.5 16.5t24.5 14.5t24.5 20.5q26 31 26 95q0 18 -9 45q-15 48 -15 69l12 104l-14 71q0 13 7.5 23t7.5 23l-13 101l9 72q0 34 -40 49q-11 4 -24.5 4t-29.5 -6.5t-30 -16.5t-27 -22t-25 -23q-3 -9 -5.5 -19t-7 -17t-13 -11t-16.5 -8 q-22 -10 -22 -20q0 -16 17 -22q10 -22 10 -40t-3.5 -34t-7.5 -32q-12 -39 -12 -64l1 -100q0 -19 8 -24q16 -8 19 -29q9 -51 9 -82l-8 -83q0 -48 44 -54q27 -3 35.5 -16t8.5 -34q0 -40 -41 -51q-137 -37 -264 -37q-44 0 -55 8q-18 14 -18 49.5t18.5 54t40 35.5t40 34.5 t18.5 38.5l-1 30q0 20 13 38q0 27 -10 68q-18 80 -18 117t8.5 82t8.5 81q0 156 -25 193q-12 20 -47.5 36.5t-48 29.5t-12.5 33z" />
<glyph unicode="n" horiz-adv-x="1295" d="M66 921q0 64 100 68q24 1 47.5 1t52 -8.5t49.5 -10t33 -9t22 -18.5q21 -21 22 -38t5 -32.5t9 -31.5q15 -41 26 -41q7 6 10.5 18t16 22t28 21t30 21t20.5 16.5t9.5 14t7.5 14.5q7 14 26 14h5q11 0 21 9.5t26 21.5q41 31 94.5 31t90.5 -2t71 -10q75 -20 114 -81 q17 -27 28 -40t18 -25q12 -21 12 -57.5t5 -48.5t11 -24q17 -32 17 -59l-8 -139q0 -25 -9.5 -49t-9.5 -49l12 -48l-8 -69q0 -16 7.5 -28t7.5 -23.5t-3.5 -16.5t-7.5 -10q-12 -13 -12 -26t7.5 -28.5t19.5 -28.5q26 -27 57 -27l43 11q25 0 45 -39q18 -33 18 -61q0 -45 -71 -45 q-15 0 -30 2l-30 4q-63 -22 -97 -22l-22 4l-69 -13q-29 0 -55.5 7.5t-64.5 10.5t-63.5 35.5t-27.5 77.5q54 33 114 33t100 -4q-3 75 -13 150t-10 126q0 114 14.5 160t14.5 68q0 31 -12.5 54t-14.5 38t-5 30.5t-9 30.5t-19 27q-30 26 -101 26q-56 0 -103.5 -16.5t-54 -23 t-14 -15.5t-15.5 -19q-22 -23 -34 -25.5t-19.5 -4.5t-12 -6t-7.5 -11.5t-7 -16.5q-16 -32 -23 -32l-14 8q-4 0 -11 -7v-28q-7 -8 -12.5 -8.5t-9.5 -1.5q-6 -2 -6 -18.5t-5 -25.5t-11 -18q-15 -25 -15 -40l11 -77q0 -20 -10 -33q-17 -24 -17 -37.5t5.5 -25t11.5 -23.5 q17 -34 17 -53l-8 -70q0 -37 17 -46.5t31 -12.5t29 -9q37 -14 57 -43l6 1q33 0 33 -43q0 -14 -6 -24.5t-6 -27.5q0 -31 -148 -39q-31 -1 -42 -1t-35.5 0.5t-55 2t-63.5 4.5t-61 8q-63 13 -72 35q-15 36 -15 53q0 27 20.5 46t38.5 21.5t35.5 3.5t34 3t29.5 15q27 29 27 120 q0 23 -5 44q-9 38 -9 45t3.5 14t7.5 14q12 20 12 37l-13 66l10 54l-12 43l8 46q0 26 -6 53.5t-11.5 56t-22 44t-37.5 23.5t-44 13t-42 16q-44 24 -44 87zM306 451l1 -6l1 3q5 -19 34.5 -29.5t37.5 -17.5q8 9 8 20.5t-2.5 21.5t-7.5 19q-10 23 -26 23l-39 -13h-4 q-3 -11 -3 -21zM993 401.5q0 -30.5 19.5 -30.5t23.5 30v2q0 10 -6.5 19.5t-17.5 9.5q-19 0 -19 -30.5zM1005 177q0 -12 17 -19q1 6 6.5 12t10.5 13q14 20 14 29.5t-17 17.5q-2 -6 -7 -12t-10 -13q-14 -20 -14 -28z" />
<glyph unicode="o" horiz-adv-x="1195" d="M82 350.5q0 33.5 4 52.5t8 39q13 54 13 77v11q0 10 -10 20t-11.5 10t-1.5 -1q4 35 19 76.5t21 46.5q16 15 16 25l-2 35q0 17 8 17q16 0 23 12q31 63 51.5 80t38 26.5t33 22.5t31.5 26q38 31 66.5 31t54 9.5t58.5 15.5q101 16 140.5 16t72.5 -7.5t67 -19.5q78 -27 114 -57 v-3l-10 -57v-4t2 -2l65 9q2 -17 15 -23t25.5 -11.5t23 -21t19.5 -35t17.5 -38.5t16.5 -31q34 -51 34 -131q0 -30 -16 -49q-32 -37 -32 -47q0 -16 11 -27q2 1 8.5 2t6.5 6v1q0 8 -6.5 15t-6.5 17.5t6.5 10.5t12.5 -7.5t11.5 -16t8.5 -14.5t3 -4l-1 1q2 -10 2 -20t-4.5 -22.5 t-10 -21.5t-10 -15t-4.5 -7l13 -45q0 -10 -11.5 -10t-17.5 2l6 -74q0 -42 -17 -48q-6 -2 -11.5 -4.5t-5.5 -15t-12.5 -26.5t-30.5 -28q-42 -34 -55 -34t-17 2l2 -34q0 -13 -8 -17.5t-20.5 -10t-28.5 -19t-33 -27.5q-42 -34 -73 -34q-14 0 -27 7q-14 8 -31 8t-28 -4.5 t-21 -9.5q-26 -16 -50 -16q-16 0 -32 8q-38 20 -57 26.5t-35 9t-31 5.5q-34 7 -53.5 30.5t-47.5 40.5t-57 32q-77 40 -97.5 68t-39.5 52.5t-36 51.5q-38 63 -38 96.5zM253 519q0 -168 44 -204v-28q5 -5 17 -5q22 0 26 -10q20 -56 79 -90q24 -13 48 -26.5t44 -39.5q16 2 34 2 l124 -9q61 0 105 60q33 47 55.5 64t34 25t20 14t16.5 14q21 18 21 29l-5 36q0 47 28 73q10 8 27 8t39 -17q2 10 2 20.5t-12 14t-27 4.5t-29.5 3t-19.5 15v10q0 76 -66 261l-5 14q-8 -2 -19 -2t-23.5 7t-28.5 15q-42 22 -97 22l-162 11q-109 0 -191 -92q-79 -89 -79 -199z " />
<glyph unicode="p" horiz-adv-x="1203" d="M5 878q0 45 97 60q22 4 47 4t40 -15q18 18 59.5 18t64.5 -13t36.5 -28.5t22 -28.5t18.5 -13q14 0 34.5 10t62.5 24.5t89 27.5q110 32 138 32t48.5 -5.5t45.5 -14t52 -20t50 -23.5q52 -27 63 -44q25 -40 57 -51q9 -12 9 -36v-19q0 -29 15 -43t22 -20.5t7 -18.5l-8 -24 q0 -15 7 -30.5t15 -34.5q22 -50 22 -89t-9 -80t-13 -69t-4.5 -39.5t-2.5 -22.5q-4 -23 -20 -39q-16 -18 -26 -50t-17.5 -40.5t-16 -14.5t-18 -11.5t-17.5 -14.5t-9.5 -16t-2.5 -14q-3 -16 -18.5 -22.5t-22.5 -15.5q-43 -52 -123 -72q-20 -5 -35 -5l-75 8q-15 0 -23 -7 q-14 -15 -28 -15t-47 13.5t-69 29.5q-97 44 -118 44t-30.5 -11.5t-15.5 -29t-8.5 -38t-3.5 -38.5l1 -42q0 -16 -10 -16t-20 2q0 -19 11 -45q22 -53 27.5 -77t13 -38t19.5 -19t30 -4.5t38.5 -2t35.5 -6t27 -11.5q28 -17 28 -45q0 -61 -69 -61l-164 12l-174 -10q-57 0 -104 34 q-14 10 -14 21t10.5 19.5t23.5 14.5q30 13 49 13t34.5 5.5t30.5 11.5q42 17 62 17q14 59 14 152l-1 108l15 211q0 33 -2.5 66t-4.5 66q-11 14 -16.5 83t-5.5 78.5t3.5 18t7.5 15t7.5 11.5t3.5 7.5t-3 8.5t-6 15q-10 24 -10 42l15 128q0 43 -23 66.5t-32 31.5t-18 11.5t-21 5 l-28 3.5t-35.5 7.5t-38.5 13.5q-48 20 -48 43zM370 494l9 -143q0 -39 -5 -109q25 -27 48 -54t48 -48q60 -50 129 -52q16 0 32 -4l32 -8q44 -11 61 -11t34 6.5t34 16.5q36 22 50 37.5t25.5 19.5t18.5 11t9 14t3 14q4 18 20 26.5t21 13t5 16.5v19q0 11 11 20q21 15 21 41 l-4 51q0 19 10 37q19 34 19 56t-8 50.5t-20 55.5q-15 33 -38 69.5t-24 44t-1 14.5q0 35 -23 40q-7 1 -13 2q-19 3 -26.5 17.5t-24 25.5t-35.5 21q-45 23 -66 23t-40.5 -8.5t-36.5 -8.5t-28.5 5t-22.5 11q-29 15 -44 15h-5q2 -10 2 -17.5t-4 -13t-10.5 -9.5t-14 -7.5t-15 -11 t-8 -18.5t-9 -11t-12.5 2q0 -10 -9 -13q-19 -8 -20 -15q-43 -3 -67 -153q-8 -52 -8 -80zM631 898q30 0 30 15q0 5 -5 10t-10 5q-15 0 -15 -29q0 2 1.5 2t2.5 -1z" />
<glyph unicode="q" horiz-adv-x="1163" d="M89 403l5 36l-2 50l11 37l-7 86q0 30 14 30l6 -1q0 18 -14 29q7 26 25 57t23.5 44t11.5 25q15 29 45 55.5t47 42.5q45 39 48 47q10 -3 26 -3t35.5 8.5t40.5 18.5q59 27 83 27t42 -3t41 -7.5t48 -10.5t47 -11q47 -12 58 -21l74 -65q25 2 31 32q4 24 14.5 33.5t19.5 16.5 q24 20 24 28q12 -16 50 -16h21q25 0 34.5 -7t9.5 -42t-9 -77.5t-9 -85t10 -80.5t10 -82.5t-31 -66.5q17 -66 17 -162l-4 -170l17 -306q0 -97 22 -149q2 -5 23.5 -17.5t46.5 -28.5q66 -40 66 -60q0 -12 -16.5 -15t-36 -6t-47.5 -17.5t-60 -23.5q-21 14 -50.5 14t-55 -6 t-51.5 -8q-15 15 -22 15t-14 -3t-17 -6q-29 -10 -50 -10q-83 0 -83 55q0 40 17.5 53t43.5 15t56.5 1.5t56.5 11.5q61 30 61 152q0 108 -30 172q-12 25 -29 25t-41 -7.5t-51 -17.5q-111 -41 -232 -41q-95 0 -137 18q-68 29 -127 102q-16 19 -21 42q-5 21 -18 27 q-38 17 -44 50q-8 48 -15.5 53t-14.5 11q-16 14 -16 50.5t-4 40t-10 6.5q-13 7 -13 16zM240 589q0 -207 76 -361q16 -36 98 -73q20 -9 39 -19q49 -26 85.5 -26t63 8t52.5 20t51 26.5t45 25t26 21.5t8.5 23.5t5 25.5t13 28t19.5 26.5t15 23.5q11 22 11 65l-6 101q0 7 2 22 t3 34q1 10 1 20q0 57 -21 90q-24 39 -41 58q-36 42 -63 42q-8 0 -14 9q-10 18 -28 20t-40 8.5t-43 13.5q-53 17 -88 17h-9q-27 -1 -45.5 -13.5t-29.5 -20t-26.5 -11.5t-24.5 -10.5t-17 -13.5l-16 -14t-20 -12.5t-24 -9.5t-12 -19l2 -22q0 -9 -7 -10q-41 -5 -41 -93z" />
<glyph unicode="r" horiz-adv-x="1186" d="M59 24q0 14 21 37q39 40 52 40l64 -2q58 0 93 25q62 44 62 102l-4 51l12 104l-15 145l3 131q0 175 -56 175l-89 -10q-84 0 -120 34q-15 14 -15 38t7 39.5t18 23.5q21 14 61 14l66 -2l127 7q97 0 115 -34q9 -16 16.5 -33t17.5 -30.5t26 -13.5t24.5 5.5t16.5 12.5 q21 18 39 21t36.5 14t36.5 22q47 29 68.5 29t41 3t38.5 8q46 13 65 32q65 -5 116 -33q98 -54 105 -109q4 -23 20 -55q30 -58 30 -81.5t-8 -37.5t-18 -26q-28 -38 -31 -57q-13 6 -38 6l-94 -7q-48 0 -73 57q-18 42 -18 85.5t9 72.5q-8 3 -17.5 3t-15 -8t-15.5 -8l-33 13 q-33 0 -68 -25q-65 -46 -65 -75q-30 -3 -59 -21.5t-38 -35.5t-16.5 -36.5t-15 -39.5t-20.5 -38q-39 -49 -39 -87t11 -74t11 -73l-7 -95q0 -74 76 -84q22 -3 45 -3l92 3q13 -15 7 -33.5t-6 -25.5t2 -13q32 0 42 29q18 -5 18 -18q0 -10 -7 -18q-13 -16 -13 -26.5t4 -16.5 q-9 -14 -28.5 -14t-30 5t-19 11t-15.5 11t-14 5t-15 -2t-16 -5q-20 -8 -20 -16l11 -28q0 -19 -41.5 -19t-80 8.5t-67 8.5t-46.5 -8t-33.5 -8t-21 4.5t-9.5 10.5q-10 15 -26.5 15t-35 -4t-36.5 -8q-48 -12 -66.5 -12t-32.5 2.5t-27 8.5q-31 14 -31 37z" />
<glyph unicode="s" horiz-adv-x="1064" d="M99 349.5q0 6.5 5 16.5t12 18q14 20 25 20t18.5 -5t14.5 -11q24 -17 40 -14q14 -23 22 -49.5t16 -52.5q23 -68 88 -113q19 -14 32 -14l43 4q15 0 15 -6t-2 -12h19q38 0 76 9t80 9t67 -18q19 9 32 23l26 28q33 34 70 35q6 7 6 22q0 26 9 35q21 19 21 44t-15 48.5t-38.5 43 t-54 35t-62.5 26.5q-62 22 -114 22t-94 -20q0 22 -10 29t-24 10q-41 9 -51 33q-32 -42 -94 -42q-49 0 -77 27q-48 46 -50 96q-1 23 -14 45q-24 41 -24 76t4.5 60.5t11.5 39t15.5 19t17.5 10.5q22 14 27.5 38.5t11.5 29.5t20 7t18 6t6 9q9 31 42 36.5t55 5.5l51 -1l164 8 q60 0 140 -35q14 -7 23 -7l65 14q21 -18 38 -18t19 18q27 -8 44 -29q29 -37 29 -67l-11 -147q0 -38 10 -71q-14 -11 -30.5 -19.5t-27.5 -23.5q-57 57 -83 57h-2q-12 7 -12 17l12 36q0 13 -31.5 40t-39 28.5t-18.5 6.5l-22 10q-29 13 -36 13l-52 -8l-45 5q-33 4 -65 16 t-64 12t-46 -14t-23 -31.5t-18 -31.5t-22.5 -14t-16.5 1q21 -67 36 -89q25 -36 79 -71q3 -2 15 -13q20 -18 31 -18t26.5 8t32.5 8l45 -11l47 9q6 0 28.5 -5.5t52.5 -5t56.5 -0.5t49 -8.5t43.5 -20.5q42 -25 61 -50t31 -36t23 -22q28 -28 33.5 -51.5t14 -47.5t8.5 -40 t-4.5 -28.5t-10.5 -24.5q-17 -35 -20.5 -56t-19 -42.5t-35.5 -40.5t-42 -36.5t-38 -34t-33 -16.5l-38 4q-17 0 -32 -10q-28 -21 -53 -21l-49 -14q-17 0 -39.5 10t-49.5 10l-68 -3q-22 0 -46 10q-47 19 -72.5 19t-46.5 -15t-37.5 -33.5t-33 -33.5t-36.5 -15t-26.5 6.5 t-8 15.5t-2.5 19.5t-13 22.5q-21 22 -21 65.5t8.5 89t8.5 78t-4 48.5t-9.5 29t-9.5 22t-4 15.5z" />
<glyph unicode="t" horiz-adv-x="1045" d="M2 921.5q0 25.5 14.5 38t34.5 20t41.5 13t36.5 16.5t36 11l35 -1q84 0 84 106l-8 124q0 80 48 125q6 5 13 13t15 15q19 18 29 18q14 0 25 -9q35 -35 35 -57l-1 -42q0 -32 8 -63t8 -53l-15 -73q0 -20 15 -40q29 -37 29 -57q41 -29 283 -29q46 0 67.5 -13.5t36.5 -15.5 q37 -3 37 -33q0 -69 -122 -69l-116 4q-156 0 -199 -94q-15 -35 -15 -87l13 -200q0 -100 13 -127.5t21 -64.5t20 -70q30 -78 102 -78q82 0 133 39q18 13 18 31.5t-10 36t-10 34.5t6.5 27.5t16.5 18.5q18 15 45 27q42 54 98 54q37 0 73 -25q3 -18 3 -43.5t-7 -54t-16 -56 t-18.5 -56t-16.5 -68.5t-34 -73t-65 -52.5t-84.5 -29t-95.5 -14.5t-96.5 -7t-87.5 -7q-15 11 -25 24t-19 25q-21 26 -49 26q-8 0 -14 37q-10 70 -18 70q-70 0 -70 107q0 18 -13 40q-25 41 -25 58l9 169q0 29 10 44q20 29 20 39l-11 36q0 11 7 22q21 31 21 108q0 18 -2 34 q-31 26 -83 30.5t-78 8.5t-42.5 19.5t-28.5 33t-29 22.5q-36 12 -36 37.5z" />
<glyph unicode="u" horiz-adv-x="1308" d="M12 909q0 21 21.5 38.5t51.5 28.5q57 21 112 21q116 0 194 -70q2 -2 2 -3.5t0.5 -16.5t6.5 -43.5t6 -57.5l-9 -61l8 -68l-4 -44l14 -121q0 -36 -13 -83q-26 -89 -26 -125.5t15 -68.5t40 -55q54 -51 126 -51q51 0 72.5 14.5t29 21t15.5 6.5l28 -3q21 0 34 14q27 29 45 33 t35 12.5t17 28.5t11 20l15 -7q5 4 7 11t5.5 18.5t17 25.5t15.5 33t10 36t8 35t-9 31t-9 31l15 80q-17 23 -17 39t6 21.5t6 13t-4.5 17t-10.5 18.5q-15 23 -15 37l7 40q0 72 -124 72q-36 0 -52 16q-35 37 -35 66t21.5 43.5t50.5 22.5q48 12 105 12l63 -5l67 13q77 0 77 -153 l-5 -123q0 -43 8.5 -80.5t8.5 -58.5t-4.5 -31t-9.5 -20q-14 -28 -14 -38t3 -16l7 -58q-7 -6 -7 -21l7 -64l-8 -75q0 -46 31.5 -70.5t65 -24.5t57.5 8q7 -15 32 -38q41 -38 41 -63t-11.5 -45t-29.5 -37q-40 -38 -75 -38l-123 10q-50 0 -62 12q-31 5 -54 47q-8 16 -17.5 31 t-28.5 21q-57 -25 -100.5 -48t-85.5 -41q-94 -38 -207 -38q-48 0 -57.5 9.5t-15 20.5t-16.5 23q-15 15 -34 15h-5q-22 0 -26.5 17.5t-13.5 33t-21 31.5q-24 35 -45 49l-1 99v25q0 87 6 173q7 98 7 155.5t-1 84t-4 53.5q-9 67 -34 73t-48.5 5.5t-46.5 0.5q-72 3 -105 60 q-10 16 -10 37z" />
<glyph unicode="v" horiz-adv-x="1239" d="M4 886q0 86 131 86l133 -15l131 7q63 0 111 -34q19 -13 20 -33v-12q0 -43 -25 -67q-8 -8 -37 -14q-50 -10 -51 -16q-9 -43 -9 -70.5t3.5 -35.5t8 -12t8 -6.5t5 -11t3.5 -20t3.5 -22t9.5 -24.5t17 -28q23 -36 23 -47l-22 -11q0 -6 17 -10.5t19 -4.5v-15q0 -51 22.5 -106 t34.5 -85.5t15 -64.5l13 -1h5q31 0 55 42q26 43 55 44q1 5 1 14l-7 51q0 20 11 35q21 30 21 52.5t4 31.5t10 18t12.5 17.5t16 23t17 47t11.5 66.5q4 44 4 118q0 23 -18.5 32t-41 13.5t-41 10t-18.5 21.5q0 10 7 19q13 18 13 27l-7 25q0 48 110 48q26 0 48 -10q43 -19 56 -19 t20.5 11t11.5 18.5t9 10.5t44 5l35 1h18q139 0 195 -74q-6 -109 -183 -116q-37 -2 -52 -16t-22.5 -39t-16.5 -48t-21 -47q-29 -59 -47 -76l9 -44q0 -13 -10 -29t-14 -29.5t-5 -26t-2 -26t-9 -35.5q-15 -41 -55 -95q-36 -167 -68 -230.5t-60 -97.5l-15 1h-6q-27 0 -53 -8.5 t-46.5 -8.5t-29 5.5t-14.5 14t-10.5 19t-11.5 20.5v28q-5 4 -17 5q-21 2 -26 11t-6.5 23.5t-1.5 30.5q-2 48 -15 75t-19.5 41.5t-9 31.5t-4.5 34q-6 53 -22 75.5t-22 32.5q-17 25 -29 84q-40 187 -127 326q-22 -11 -51.5 -11t-56 6.5t-43 11t-27.5 13.5q-22 16 -22 68z M972 957q0 -9 9.5 -20t18.5 -11q12 0 17 15q-14 2 -22 13.5t-21 14.5q-2 -3 -2 -12z" />
<glyph unicode="w" horiz-adv-x="1390" d="M12 868q0 24 10.5 43t27.5 35q36 34 66.5 34t51.5 -9t44 -9l73 5l108 -4q26 0 57 -24.5t43 -30.5q-2 -35 -35 -52q-14 -8 -30.5 -15t-29.5 -19q-33 -31 -33 -83.5t13 -74t13 -35.5l-4 -44q0 -12 10.5 -24.5t14 -41t6.5 -58.5q6 -79 32 -95h7q60 0 63 124q0 29 2 47 q47 41 47 212q0 48 -17 73t-24.5 37.5t-7.5 32t23.5 35t56.5 25.5q64 18 105 18t45 -2q0 8 17 8t39 -4t44 -8.5t41 -8.5t38 -4q45 0 96 23q78 36 174 36q102 0 161 -46q20 -15 20 -34l-1 -11q0 -32 -20.5 -50t-48.5 -31t-57.5 -25.5t-52.5 -40.5t-35.5 -75t-19 -98t-11 -102 t-13.5 -80t-9 -48.5t-2 -38.5q-3 -44 -33 -56q-19 -8 -19 -14.5t6 -10.5t12 -7q19 -10 19 -27.5t-5.5 -37.5t-11.5 -40q-18 -54 -18 -78t-3.5 -31t-9.5 -11t-15 -6.5t-20 -8.5q-38 -25 -57.5 -16t-31 15.5l-23 13t-22.5 9.5q-11 44 -23.5 72.5t-17.5 41.5t-9 30q-8 36 -8 78 q0 67 -16 91.5t-25.5 52.5t-14.5 56.5t-7.5 58t-4.5 48t-3 31.5t-5 26q-8 31 -27 31q-11 0 -23.5 -9.5t-28.5 -21.5q-42 -30 -86 -30q15 -18 36.5 -21.5t28 -8.5t10 -12t6 -16t10.5 -22.5t8 -37.5q0 -42 -24.5 -80t-28 -56t-5.5 -36q-4 -51 -10 -64.5t-12 -26t-6 -18 t2.5 -10.5l5.5 -11q9 -16 9 -27t-5 -23.5t-11.5 -26t-13 -26.5t-11 -28t-15 -25.5t-25.5 -15.5q-20 -7 -56 -7t-52 2.5t-24 10.5q-11 11 -20.5 51t-16 64t-6.5 50t12 50q-8 13 -14 30t-15.5 27.5t-20.5 21t-21 21.5q1 11 1 21v20q0 142 -58 330q-11 32 -24 63t-19 65l-42 1 q-10 0 -22 -11q-23 -21 -37.5 -21t-29 10t-25.5 25q-26 32 -26 56zM781 868q0 -5 13 0q23 8 23 20.5t-24 19.5q-1 -11 -6.5 -17.5t-5.5 -12.5v-10zM847 627q0 -57 26 -88q8 -10 15.5 -31.5t15.5 -43.5q22 -55 45 -55q45 0 67 162q6 44 11 85q13 103 22 123q-41 50 -120 78 q-20 7 -27 7t-12 -5.5t-12 -12.5q-14 -17 -28 -24z" />
<glyph unicode="x" horiz-adv-x="1353" d="M29 921.5q0 50.5 141 50.5h45q30 0 39.5 -9.5t13.5 -9.5t4.5 7t17.5 10q34 6 93 6l80 -15l73 6q27 0 49.5 -16.5t22.5 -41t-12 -40t-27 -31.5q-39 -40 -39 -62.5t16 -46t38 -45.5q54 -52 77 -52t46.5 17.5t45.5 40.5q53 57 53 78t-8.5 32.5t-18.5 23.5q-27 32 -27 61.5 t20.5 49t49.5 31.5q52 20 96 20t62 -4.5t34 -10.5q38 -15 57 -15t39 4t36.5 8.5t27.5 8.5t18.5 4t22 -6.5t29 -16.5t26.5 -22q23 -21 26 -24q0 -20 -8 -36.5t-8 -28.5t2 -20h-15q-23 0 -45 -10.5t-46.5 -10.5t-36.5 21q-79 -17 -142 -57l-14 -29q-72 -32 -72 -93v-7 q-26 -3 -42 -31q-31 -55 -48 -63q-27 -12 -27 -55t7.5 -75.5t27 -61.5t44.5 -55t52.5 -50t43.5 -38.5t25 -26t19 -21.5q24 -22 49 -22h19l96 -14q61 0 69 -24q1 -4 2.5 -10.5t3.5 -12.5q7 -15 16 -15q6 0 14 5q-7 -11 -7 -35l3 -50q0 -46 -21 -46l-43 12q-6 0 -11.5 -5 t-14.5 -11q-27 -17 -60 -17q-12 0 -22 2q-46 7 -69 11q-64 13 -89.5 13t-48.5 -8.5t-41.5 -8.5t-28.5 6.5t-19 13.5q-25 22 -43 24q-34 4 -34 39q0 30 18 67q35 72 35 88.5t-2.5 29.5t-7.5 24q-12 24 -36 24q-4 0 -14 -2q-6 7 -10.5 19t-9.5 23q-14 26 -30.5 26t-26.5 -12.5 t-18 -27.5q-21 -42 -33 -42q-45 -42 -45 -60t8.5 -31.5t18.5 -28.5q27 -40 27 -53.5t-0.5 -22t-2.5 -17.5q-5 -22 -12 -26.5t-15.5 -5.5t-16.5 -3q-20 -3 -20 -18q0 -1 0.5 -2t0.5 -3q-9 8 -47 8l-263 -13q-162 0 -162 66q0 19 12 42.5t32.5 35.5t44 17t48.5 5t47 2 q52 2 62 16q21 28 37.5 56t35.5 52q45 56 110 70q7 14 10.5 25t7.5 21q8 25 23 38q23 21 23 44t-4.5 39.5t-12.5 30.5q-17 32 -47 44v7q0 11 7 18t7 18q-16 13 -35 20.5t-34.5 20t-23.5 29.5t-28 34t-44.5 39.5t-33.5 55.5q-6 -2 -17.5 -2t-30.5 10.5t-38 16t-52.5 10.5 t-66.5 15q-79 23 -79 73.5z" />
<glyph unicode="y" horiz-adv-x="1214" d="M2 859q0 13 3 27t9 26q12 30 29 30t31 -9.5t30 -9.5l91 4q20 0 39.5 11t37.5 20q27 15 82.5 15t83.5 1.5t56 -2.5q72 -10 72 -60q0 -55 -70 -92q-44 -22 -57.5 -40t-13.5 -45t19 -64.5t42 -74.5q63 -99 65 -119t8 -44t17 -47q26 -59 56 -59q29 0 48 63q5 14 11 32.5 t13.5 46.5t23 49t23.5 40.5t17.5 42.5t20 37t18.5 28q19 33 19 74t-10 52t-24.5 17t-31.5 10t-32 13q-34 20 -34 73q0 76 159 76h35l172 12q47 0 97.5 -24.5t50 -25.5t6 -10t6.5 -21q0 -39 -43 -71q-24 -18 -59 -20.5t-60 -7.5q-59 -12 -59 -57q0 -16 -2 -20.5t-10 -4.5 l-13 1l-9 -5q-14 -34 -16.5 -71t-12.5 -72q-40 -2 -60 -103q-7 -38 -56 -146.5t-69 -147.5t-24 -52.5t-9 -26.5q-12 -34 -27 -34q-12 5 -23 12.5t-19 7.5t-8 -4q0 -11 10.5 -18t22.5 -14q34 -19 34 -29.5t-6.5 -20.5t-14.5 -22q-22 -31 -23.5 -52t-11 -37t-20.5 -31 q-29 -39 -32.5 -64.5t-9 -43t-14.5 -32.5q-21 -35 -53 -40q-10 -61 -72 -110q-62 -50 -123 -50q-44 0 -76.5 16t-41.5 17t-16 2q-14 2 -33 26q-23 31 -57 63t-39 46t-9 28q-10 36 -32 48q-5 5 -5 16t7 39t18 57q29 77 50 77l30 -5q20 0 39 10t36 10t23.5 -7t9.5 -16 q8 -23 15 -23l25 7q34 0 74 -66q3 -5 9 -10.5t12 -11.5q14 -14 14 -23l-11 -38q0 -18 22 -18t40.5 15.5t35.5 40.5t31.5 55.5t25.5 60.5q23 64 23 90.5t-8 56.5t-21 66t-29 76t-32 77q-63 152 -76.5 195t-26 72.5t-29 57t-32.5 57.5q-42 74 -42 108q-13 0 -29 8 q-30 15 -40 15l-87 -11q-56 0 -75 18t-19 31zM337 -291l1 -8q9 2 19 3.5t19 4.5q19 7 19 26v8l-15 1h-6q-37 0 -37 -35z" />
<glyph unicode="z" horiz-adv-x="1083" d="M94 6q0 80 12.5 105t26 37t16.5 20.5t6 15.5q7 15 21 20t19 13.5t11 18.5q25 44 63 80t67 63t54 60t52.5 61t57 49.5t48 42t26 32t14.5 22.5q17 25 33 37t25 25t17 28q19 36 19 51.5t-11 25t-27 15.5q-25 10 -59 10l-54 -10l-57 10q-10 0 -22 -4t-31.5 -5.5t-39.5 -3.5 q-49 -5 -67 -18t-30 -27t-18 -28q-10 -22 -10 -57l1 -59q0 -78 -72 -78t-72 144l2 55q0 105 18.5 140.5t32 44.5t25 15.5t23.5 12.5q29 12 50.5 12t27.5 -16t13.5 -25.5t14.5 -18.5q19 -23 21 -38h5l30 -11q10 0 10 19t-7 26.5t-16 13.5q-23 15 -23 31l1 6q43 -8 98 -8 t99 3.5t88 7.5q122 13 153 13t42 -0.5t23 -2.5q28 -3 38 -13q-22 -25 -23 -39q6 -7 6.5 -7t6 -0.5t9 5.5t6.5 12.5t5.5 12.5t8.5 6t12 -9.5t11 -22.5q9 -27 9 -41t-2.5 -17.5t-6.5 -4.5q-19 -9 -23.5 -32t-22 -48.5t-48.5 -54.5t-53.5 -50.5t-33.5 -36.5t-21 -30 q-41 -61 -70 -76q-23 -12 -31 -22.5t-13 -25t-28 -31t-51 -37.5q-73 -53 -84 -85q-6 -17 -13.5 -34.5t-13.5 -36.5q-17 -46 -17 -73q0 -85 211 -85l65 1q132 2 149 134q4 36 6 71q7 88 36 116q5 1 10 1h24.5t79.5 -30l-14 -114q0 -14 14 -14q-1 -17 -7.5 -21.5t-6.5 -10.5 t4 -15.5t9 -21.5q13 -31 13 -56l-4 -68q0 -25 6 -50q-17 -2 -22.5 -14.5t-11 -24.5t-19 -18.5t-31.5 -10.5q-27 -5 -78 -5t-102.5 3.5t-103.5 7.5q-144 13 -202 13t-108.5 -10t-80.5 -10t-50 4t-41 11q-52 18 -52 32z" />
<glyph unicode="{" horiz-adv-x="563" d="M67 642q0 26 7 41t18 29q12 14 52 47l19 18q6 5 13 10.5t13 16.5q12 21 33 31l20 29l-7 14l9 34q0 2 -2 8l-18 14l-21 4q-6 11 -15 43t-15 47q-11 32 -20 54v6q-2 5 -2 17t7 41t18 59q29 75 57 84q3 9 8 17.5t7 16.5v2q18 54 92 119q20 17 35 25l28 -2q73 -15 73 -78 q0 -14 -10 -43l2 8q-8 -26 -32 -48t-50 -45q-65 -59 -65 -111l-25 -59q0 -2 1 -3q11 -28 11 -57v-6q0 -5 25 -50h-1q16 -32 24.5 -44.5t15.5 -24.5q19 -28 19 -57.5t-4 -48.5t-13 -30.5t-23 -23.5t-34 -37l-18 -23q-12 -15 -24 -26l29 -23q8 -10 13 -15q64 -14 81 -86 q5 -20 5 -50.5t-13 -65t-28 -67.5q-41 -90 -41 -139l13 -41v-3q6 -11 8 -18.5t4 -13.5q4 -10 20 -20q52 -44 52 -95l22 -22v1q26 -23 26 -39t-11 -32.5t-27 -30.5q-35 -31 -64 -35q-6 4 -20.5 15.5t-31.5 23.5q-27 21 -53 42l-11 55l-20 60q0 1 -9.5 7.5t-22.5 19.5 q-33 33 -43 80l7 64q5 26 6.5 40.5t3.5 23.5q4 18 18 37l2 33q4 43 17 75l16 19q10 12 10 17t-10.5 15.5t-24.5 21.5t-28 20q-1 1 -20 14.5t-33 22.5t-25 20q-25 25 -25 51z" />
<glyph unicode="|" horiz-adv-x="533" d="M180 4l15 115l-13 47l15 117l-12 65l8 193l-6 112l8 52l-4 88l16 150l-14 94l12 122q0 12 -8 52q-15 75 -15 103l13 55l-6 34q0 71 41 99q15 10 37.5 10t35.5 -9t21 -23q14 -24 14 -62l-8 -39l10 -140l-8 -95l16 -119l-8 -75l10 -60l-10 -116l6 -65l-8 -40l8 -135l-6 -40 l8 -35q0 -6 -1 -22.5t-2 -34.5q-2 -42 -4.5 -58.5t0.5 -34.5t3 -36l-8 -77l4 -25q2 -15 0 -29.5t-2 -29.5l8 -35l-6 -29l8 -25l-10 -33l6 -28q0 -28 -58 -40q-14 -3 -40 -3t-46 25t-20 60z" />
<glyph unicode="}" horiz-adv-x="567" d="M89 1400q0 22 21 41t53 26l30 2q11 -5 50 -41.5t44 -43.5v1q14 -16 20.5 -32.5t6.5 -18t1 -1.5l2 -8v3q5 -19 13 -31q-2 0 -3 -1q39 -23 47 -65v3l17 -41q25 -55 25 -76q0 -28 -4 -42l-17 -36q-2 -5 -7.5 -5.5t-13.5 -5.5q-19 -13 -32 -66q-1 -2 -5.5 -9.5t-8.5 -16.5 q-12 -21 -12 -25t-0.5 -8t-0.5 -12.5t5.5 -15.5t5.5 -9h-1q0 -16 17 -26q30 -20 40 -43q2 -4 8 -8.5t12 -9.5l20 -20l-1 2l28 -22t25 -25q26 -29 26 -55t-7 -40.5t-18 -26.5q-15 -16 -52 -39q-12 -10 -25.5 -12.5t-27.5 -5.5q-35 -7 -35 -17q0 -2 -9 -22q-17 -39 -16 -43 l18 -32l-2 2q23 -32 23 -54t-0.5 -31t2.5 -19l58 -87q5 -25 5 -58t-3 -39.5t-17 -25.5l-58 -40l-6 -27q5 -9 5 -18q0 -17 -15 -28.5t-15 -13.5l5 -35q-9 -10 -39.5 -31.5t-38.5 -27.5l-31 -23q-28 4 -52 26q-46 39 -46 60q0 33 25 51l-1 -2l24 23q-1 -1 -2.5 -1t-1.5 2l2 7 q0 56 51 86q12 7 18 13q1 28 11 44q16 30 16 53q0 31 -28 96t-40 99t-12 67.5t7.5 53.5t20.5 35q18 22 70 59v-1l23 22l-1 -2l5 4q-11 9 -25 29l2 -1l-20 23q-18 27 -35 40t-30 26q-28 28 -28 76t15 81.5t31.5 64.5t22 44t6 21t0.5 16t5 22q11 28 11 54.5t-21 54t-47.5 52.5 t-51.5 48.5t-32 48.5h1q-5 18 -5 40zM330 1297q3 0 5 -5z" />
<glyph unicode="~" horiz-adv-x="1145" d="M116 562q0 91 49 142q11 11 21 34q16 40 39 57q42 31 163 34q34 0 57.5 -21t32.5 -28t33 -20t52 -28q69 -35 83 -38.5t24 -9t20 -10.5q25 -14 43 -14l37 4h14l29 -1q32 0 45.5 16t13.5 33l-8 47q0 57 48 83q15 7 30.5 7t29.5 -7.5t26 -19.5q27 -27 36 -66.5t9 -55.5 q0 -20 -15 -34.5t-19.5 -23.5t-8.5 -18q-7 -20 -23.5 -30.5t-22.5 -16t-12 -10.5q-13 -11 -36 -11l-27 1q-19 0 -59.5 -14.5t-60 -14.5t-32.5 6t-24 14q-41 28 -55.5 26.5t-25.5 -1t-31.5 8.5t-42.5 18q-61 31 -81 34t-37 3h-24l-45 4q-26 0 -37 -18.5t-11 -36.5t5 -33 q-9 -13 -12.5 -29.5t-9.5 -31.5q-14 -35 -47.5 -35t-56.5 8.5t-40 23.5q-36 32 -36 73z" />
<glyph unicode="&#xa1;" horiz-adv-x="565" d="M142 285q0 59 11 81t12 35l-2 41q0 11 3.5 21.5t7.5 28.5q9 42 9 86t7.5 67t7.5 49l-2 41l28 180l-10 39q0 28 18 57q32 52 52 52q33 0 48 -57q5 -17 5 -35l-4 -60l14 -102q0 -14 3 -26.5t5 -27.5t1 -30t-1 -43t10 -65.5t14 -82t3 -94t2 -91t8.5 -74.5t5.5 -57.5 t-1 -32.5t-3 -15t-5 -13.5t-11.5 -32.5t-16.5 -53t-19 -43q-19 -28 -77 -28q-14 0 -23 10.5t-18.5 16t-16.5 6.5t-14 5t-14.5 16.5t-13.5 28.5q-14 37 -14 64l2 58zM181 1302.5q0 33.5 10.5 56.5t28.5 40q38 37 88 37q47 0 78 -38q29 -35 29 -89t-38 -86.5t-77.5 -32.5 t-58 11.5t-31.5 29.5q-29 38 -29 71.5z" />
<glyph unicode="&#xa2;" horiz-adv-x="1073" d="M62 -272q0 91 29 112q29 22 38 41l13 30q14 30 31 44v8q-2 35 16 53t27 29q38 126 106 207q-10 13 -29 18q-39 11 -63 28t-48.5 63t-21.5 94q-15 23 -28 69.5t-13 54.5t5.5 10.5t5.5 9.5t-5.5 10.5t-5.5 12.5t3.5 33t9.5 51q17 85 26 93t13.5 16.5t6 20t11.5 22t24.5 15 t32 18t30 25t20.5 20.5t15 16.5t18 15.5q20 13 81 36q15 21 37 23.5t36.5 6t31 12.5t35.5 9t33 -8.5t26 -18.5q32 -27 47 -27t21.5 6.5t11 15.5t8 19t8.5 17q-4 7 -4 21.5t11.5 31t18 30.5t9 25t6.5 21q10 25 29 31l-4 14q8 9 15.5 19.5t18.5 19.5q13 31 15.5 63t7.5 64 q14 14 18 35t10 40q13 48 56 48q51 0 61 -35q41 -15 41 -64q0 -16 -7.5 -22t-17 -15.5t-14 -23t-9.5 -27.5q-11 -35 -30 -41q-14 -64 -84 -159q-6 -10 -15 -15t-15 -16.5t-3.5 -26t-0.5 -23t-8 -20.5l-10 -24q-14 -36 -23 -44t-13 -16q25 -41 25 -73.5t-11.5 -56.5 t-30.5 -44q-38 -40 -89 -57q-8 -17 -15.5 -34.5t-19.5 -31.5v-16q1 -20 -10 -40q-25 -44 -27 -58q-5 -5 -9.5 -10t-10.5 -7v-8q0 -11 -6.5 -18t-8.5 -15t-2 -13.5t-2.5 -16.5t-15.5 -25.5t-22.5 -32.5t-16.5 -39t-16 -43l2 -10q9 -8 20 -8h23q19 0 26 -6q17 11 35 12t32 5 t22.5 9.5t22.5 12t33.5 13t37.5 15.5q66 31 78 89q7 34 21.5 50.5t14.5 28.5l-6 31q0 56 45 81q14 7 26 7t21 -7t17 -17q18 -23 18 -39l-6 -37l4 -47q0 -18 -7 -41q-12 -43 -9 -64q-6 -18 -21.5 -29.5t-28 -24.5t-21 -28t-22 -25.5t-27 -13t-24 -8t-15.5 -12.5t-13.5 -12.5 t-41 -15t-70.5 -18.5q-93 -22 -118 -22l-55 10q-56 0 -88 -53q0 -58 -53 -104l2 -8q0 -11 -8 -18.5t-12.5 -20t-2.5 -30.5t-4.5 -30.5t-15 -18t-12.5 -15t-3 -18t-3 -21t-16 -24t-16 -24.5t-5.5 -23.5t-3.5 -21.5q-5 -24 -21 -34q2 -30 -18 -43q-31 -19 -63.5 -19 t-58.5 18.5t-26 45.5zM244 567q19 -12 20.5 -46t6.5 -44q25 -49 56.5 -83t41.5 -38q25 28 25 45q51 66 76 170q14 10 16.5 25t9.5 33t22 38l30 40q36 48 36 90l-14 51q0 15 10 28q18 25 19 39q-25 7 -56.5 7t-54 -5.5t-37.5 -15t-26 -21t-23 -24.5q-28 -31 -66 -45 q-5 -21 -32 -51q-51 -56 -52 -74l5 -29z" />
<glyph unicode="&#xa3;" horiz-adv-x="1282" d="M69 152l7 36q0 2 -7 41h2q11 13 17.5 27.5t17 30.5t29.5 28.5t41 20.5q44 16 88 16l104 -16q23 0 41.5 14t18.5 33t-5 30.5t-11.5 22.5t-14 21.5t-14.5 26.5t-12 38.5t-14 41.5q-21 42 -70 42l-78 -14q-53 0 -79 50q-7 15 -7 32q0 37 47 37l65 -9q19 0 38.5 13t19.5 34 t-10.5 37.5t-20.5 38.5t-16 51.5t-15.5 50t-18.5 35t-15 29.5q-9 23 -9 53.5t4.5 61t14.5 59.5q23 66 60.5 85t60.5 40.5t43.5 33.5t36.5 19.5t34.5 20.5t41 29.5t42.5 23.5t54 11.5t72 7.5q83 8 111.5 8t46 -2.5t34.5 -7.5q39 -11 53.5 -24.5t23 -22.5t26.5 -20.5 t46.5 -16.5t51 -17t46 -31.5t43.5 -43.5q48 -56 48 -112t-5.5 -107t-28.5 -85q-44 -67 -190 -67q-23 22 -50.5 39.5t-36.5 24.5t-15 20q-10 25 -10 67t11.5 52.5t26.5 23.5q37 34 37 92q0 57 -62 64q-18 2 -37.5 2t-39.5 4.5t-40 9.5q-56 14 -79.5 14t-42 -6.5t-37.5 -11.5 q-127 -22 -183 -92.5t-56 -198.5q0 -55 19 -121.5t31 -93.5q26 -60 52 -69q20 -7 54 -7l112 5q86 0 86 -60q0 -36 -60 -43q-26 -3 -56.5 -3.5t-55.5 -6.5q-61 -14 -61 -66q0 -26 14 -58.5t16 -49.5t5 -34q6 -42 18 -62q-6 -24 -6 -37.5t6 -24t14.5 -17.5t18.5 -14t17 -19.5 t12.5 -24.5t17.5 -24t43.5 -24t67.5 -21q72 -18 111 -18q76 0 97 12.5t36 30t29 38.5q33 48 38 70t4.5 46.5t6 37.5t17 19.5t22.5 11.5q25 9 46.5 9t37.5 -18.5t26 -44.5q20 -52 20 -82t-10.5 -39.5t-22.5 -20t-18 -19.5t-9 -18.5t-5 -20t-7.5 -23.5t-16.5 -22.5t-24 -18.5 t-26.5 -17t-25.5 -19.5t-32.5 -25.5t-42.5 -25q-85 -41 -197 -13q-87 21 -125.5 52.5t-57 48t-32 28t-30.5 11.5q-24 0 -57 -39q-31 -4 -68 -41q-13 -2 -38 -11q-47 -18 -72 -18t-65.5 10.5t-73.5 32.5q-75 50 -75 132zM194 172q0 -27 41 -49q36 -19 60.5 -19t44 5.5 t35.5 17t26 28t10 37t-9.5 34.5t-24.5 23q-28 17 -58 17t-51 -5.5t-38 -17.5q-36 -27 -36 -71z" />
<glyph unicode="&#xa4;" horiz-adv-x="975" d="M116 409q0 31 17.5 58.5t42 48.5t51.5 38q34 23 55 46q-24 44 -24 148q0 37 14.5 50.5t21.5 20.5q-36 44 -55 44t-25 4t-8 10t-3 12.5t-7.5 13t-19 12.5t-24.5 15q-32 24 -32 52t8.5 39.5t19.5 18.5q21 15 43 15q37 0 82 -45q7 -6 10.5 -15t10 -16t15.5 -8t16 -8t17 -21 t21 -29q6 6 15 7.5t21.5 6t24.5 10.5t24 10q23 8 44 8t35 -4.5t27 -11.5q31 -16 40 -31v-1q15 15 34 40q42 55 61 69t34 24q37 23 49 23t21.5 -9t23 -23t13.5 -40t-19 -45t-34 -24t-25.5 -15.5t-20.5 -22.5t-20.5 -25.5t-20.5 -27t-19 -24.5q10 -15 15 -20q3 -17 7.5 -36 t4.5 -36q0 -55 -9 -70t-10.5 -18.5t-1.5 -4.5t-1 -2q20 -13 46 -29.5t47.5 -39.5t35 -32t25.5 -19q29 -26 29 -51t-8 -44t-22 -33q-31 -33 -61 -33t-37 10t-16 19t-19.5 13.5t-18.5 12t-19 22.5t-24 34q-32 44 -65 79q-34 -3 -39 -27q-5 -22 -46.5 -22t-55 2t-22.5 6 q-11 5 -25 22q-10 -12 -18 -13.5t-14.5 -8t-15 -18.5t-17.5 -26q-22 -36 -31.5 -44.5t-23 -18.5t-29.5 -19q-37 -20 -63.5 -20t-39.5 18t-13 49zM375 675q0 -28 26 -48q47 -36 72 -36t34 12t19.5 23.5t21.5 19t21 16.5q23 19 23 43q0 55 -34 74q-15 8 -17 16t-6.5 12.5 t-13 7t-19.5 3.5q-24 4 -35 4q-69 0 -67 -42q2 -18 -2.5 -27.5t-6.5 -14.5q-6 -15 -6 -33z" />
<glyph unicode="&#xa5;" horiz-adv-x="1326" d="M60 1343q0 33 29 64t55.5 41t55.5 16q46 8 116 8h21l64 -1q43 0 102 -17t81.5 -19.5t34.5 -20t16 -39.5q10 -54 -15 -73q-24 -6 -46.5 -27.5t-37.5 -34.5q-3 -20 -3 -40.5t5 -33t11 -20.5q16 -23 16 -39.5t12.5 -40.5t30.5 -46q20 -25 70 -79h3q17 0 35 19q34 36 34 50.5 t7 23t16.5 17t19 16t14.5 16.5v43q6 6 11.5 11t9.5 11q8 12 8 35l-1 29q18 28 29 42q15 35 -24 42q-17 3 -36 4q-77 2 -96 41q-21 43 10 74q22 22 56 31q77 22 111 22l119 -11l127 12q101 0 117 -72q5 -23 2 -37t0 -22q-23 -58 -88 -75q-27 -7 -55 -11.5t-50 -17.5 q-51 -30 -51 -122q-40 -25 -67 -69t-33 -59q11 -4 12 -12q-8 -14 -13 -30t-11.5 -27.5t-12.5 -17t-11 -11.5q-13 -13 -14 -34q24 3 49.5 9t54.5 6t58 -13q8 22 33 35q19 -9 41.5 -15.5t42.5 -15.5q47 -20 57 -55q-5 1 -5 -12t3 -29q6 -43 12 -43q-8 -20 -23 -33t-26 -28 q-12 -2 -31.5 -3.5t-31.5 -13.5q-26 9 -86 14q-104 9 -140 31q-27 -15 -51 -15t-39 3q-11 -50 -11 -99.5t8.5 -75.5t8.5 -53l-8 -109l4 -52l-1 -39q0 -15 15.5 -33.5t23 -29.5t19 -11t28 4.5t33.5 9.5q43 15 56 15t22.5 -2t21.5 -5q26 -7 41 -9q10 -18 14 -28 q9 -4 20.5 -8.5t21.5 -10.5q24 -16 24 -37l-9 -59q0 -36 -172 -36l-269 10l-168 -15l-90 12q-26 0 -50.5 -8.5t-45 -8.5t-32.5 4q0 17 -12 37q-23 37 -23 57.5t21.5 36t54.5 25t73.5 14.5t79.5 7.5t71 3.5t49 4q26 50 28.5 130t2.5 135t0.5 115.5t-15.5 116.5q-34 2 -93 2 t-131 -16q-3 1 -3 6l2 13q0 10 -16 10t-19.5 -8t-8.5 -15q-17 3 -35 3t-61 -9q-84 32 -84 175v17q100 75 260 -12q32 17 82 17q-8 21 -16 43t-31 64q-64 117 -105 240q-21 3 -29 14q-18 23 -29 28.5t-33 9t-48 7t-52.5 8.5t-48.5 13q-50 17 -50 51zM503 825.5 q0 -6.5 5 -13.5t12 -14q18 -20 26 -20q41 2 18 32q-9 12 -20 24t-8 17l-6 1q-11 0 -19 -10t-8 -16.5z" />
<glyph unicode="&#xa6;" horiz-adv-x="525" d="M175 59q0 34 9 66.5t9 67.5l-15 53q0 23 8.5 46t8.5 48l-13 74l8 139q0 27 16 50.5t45 23.5q23 0 47.5 -11t31.5 -19q11 -11 11 -39l-6 -58l9 -41l-10 -62l6 -69l-10 -47l5 -39l-2 -58l8 -41l-6 -32q0 -11 9 -29q-11 -33 -11 -37l7 -33q0 -29 -58 -37q-15 -2 -25 -2 q-42 0 -62 26t-20 60zM178 1247l15 64l-7 39q0 71 39 102q15 12 37 12t35.5 -10t21.5 -24q14 -26 14 -64l-10 -45l12 -160l-10 -80q0 -24 9.5 -47.5t9.5 -48.5l-9 -45l11 -68q0 -55 -79 -55q-61 0 -61 115q0 18 -8 34t-8 33l15 99q0 28 -9 60q-18 59 -18 89z" />
<glyph unicode="&#xa7;" horiz-adv-x="891" d="M68 848v40q0 72 86 160q23 24 51 29.5t45 11.5q42 15 42 41q0 14 -10.5 26t-18 21.5t-11 20t-6.5 20.5q-9 33 -23 44.5t-19 19t-5 16.5t-1 19q-1 28 -32 57q-16 14 -16 45t5.5 48.5t16 29.5t27 22t31.5 22.5t22 23t14 21.5q18 26 31.5 36.5t31.5 19t37 14.5q43 13 73 13 q76 0 109 -12q55 -20 108 -74q99 -102 99 -151l-9 -48l6 -88q0 -46 -50 -88q-47 -39 -97 -39q-23 0 -34 8t-23.5 14t-18.5 7t-15 5t-18 17.5t-16 29.5q-14 34 -14 55.5t4.5 33t9.5 22.5q14 31 14 46.5t-7.5 29t-19.5 23.5q-25 19 -49.5 19t-43 -4.5t-34.5 -14.5 q-38 -22 -38 -65.5t22.5 -93t59.5 -87.5q1 -2 13.5 -22t26.5 -44q39 -63 40 -72t5.5 -18t17.5 -18t27 -20q38 -26 49 -55.5t29.5 -53.5t22 -45.5t12.5 -33.5t19.5 -20.5t20.5 -16.5t13.5 -16t4 -12t3 -14t9.5 -21t15 -22q20 -32 24 -50q6 -33 19 -46.5t23.5 -23t16.5 -25 t10.5 -34t8.5 -37.5q8 -40 8 -66.5t-10 -42.5t-10 -35l8 -41l-2 -8q-9 -4 -22 -7q-20 -5 -33 -15.5t-24.5 -22.5t-25.5 -17.5t-32.5 -9.5t-35.5 -11q-42 -16 -42 -44q0 -20 11 -30l19 -18q16 -15 21 -35.5t8 -37.5q9 -43 23 -69q0 -10 -7.5 -22.5t-9 -24.5t-2.5 -25 q-3 -38 -15.5 -53.5t-15.5 -20.5q-6 -12 -6 -31.5t-21.5 -31.5t-49.5 -19q-47 -10 -83 -10t-54.5 0.5t-36.5 3.5q-41 8 -57.5 28t-28.5 24.5t-23.5 15.5t-17.5 25.5t-8.5 30.5t-2.5 32v31l-14 90l2 22q29 46 42 55q23 15 57 15t52.5 -5.5t33.5 -15.5q34 -24 34 -63l-2 -25 q-16 -32 -16 -55q0 -35 35 -35q37 0 44 20q3 9 4.5 21.5t9.5 24.5q11 16 11 45q0 67 -49 123q-9 11 -21.5 18t-19.5 16t-9 16t-8 19.5t-17 22t-20 18.5q-21 22 -20 62q-6 17 -21 27.5t-25.5 20.5t-14.5 15.5t-6 10.5q-5 14 -12 24q-8 9 -18.5 14t-18.5 15.5t-13 23t-16 23.5 q-9 11 -22.5 24t-17 23t-3.5 15t-1.5 15.5t-8 18.5t-13.5 16q-18 19 -18 36t-4 23t-10 10.5t-13 8.5t-21 23q-20 29 -20 135zM212 849q0 -29 9.5 -54t16 -58t21.5 -65.5t34.5 -59.5t40.5 -50.5t42 -47.5q47 -57 63 -107q34 -104 127 -104q45 0 85 49q11 13 14 26t3 24.5 t5.5 24.5t9.5 22t4 27q0 31 -20 61t-33 57l-26 54q-31 65 -49.5 86.5t-28 28t-15.5 16t-9 20.5t-10 20q-16 41 -63 96q-89 103 -123 103q-6 0 -12 -3.5t-14 -6.5q-26 -10 -36 -17t-17 -26t-11 -41q-8 -46 -8 -75z" />
<glyph unicode="&#xa8;" horiz-adv-x="639" d="M0 1380q0 25 1.5 35t12.5 22.5t14 22t10.5 17.5t19 14.5t24.5 10.5q26 9 55 9t54 -14t42 -36t26 -50.5t9 -47t-3 -23.5t-7 -10q-11 -12 -14 -25q-23 -29 -44 -42.5t-50 -13.5h-40q-17 0 -26.5 9t-19 16t-16 10t-10.5 9.5t-5 15t-6.5 18t-10.5 13.5t-8 8q-8 7 -8 32z M373 1351.5q0 25.5 1 47t6 42.5q15 71 66 81q17 4 27 9t28.5 5t46 -7t48 -22.5t32 -39.5t11.5 -60t-1.5 -64t-11.5 -48q-18 -39 -94 -52q-8 -2 -14 -4t-19.5 -2t-36.5 12.5t-42 31.5q-47 45 -47 70.5z" />
<glyph unicode="&#xa9;" horiz-adv-x="1220" d="M111 750l33 156l18 17l-2 -1q10 13 10 24q0 30 12.5 39t18.5 13q14 7 17 16l-1 -1q20 62 142 112q32 13 59 24l26 10q28 11 60 28t57.5 17.5t45.5 -0.5q76 -1 100.5 -13.5t41.5 -11.5t25 -1q87 -51 100.5 -63.5t27 -16t28.5 -6.5q38 -8 42 -18v1l22 -39q7 -13 9 -29 q52 -45 52 -99q0 -19 10.5 -32t15.5 -23t10 -32t9 -47q8 -59 8 -81l-9 -28l8 -33q0 -29 -15 -61q-29 -63 -29 -81.5t-0.5 -23t-2.5 -8.5q-4 -6 -19 -19.5t-20.5 -20t-8.5 -10.5q-4 -5 -6 -12h1q-8 -16 -21 -28q-5 -5 -29 -46q-14 -12 -40 -22q-48 -17 -56 -25.5t-16 -14 t-14.5 -8.5t-12.5 -4q-8 -1 -32 -8t-34 -13.5t-17.5 -9t-18 -4t-26.5 -3.5q-35 -3 -46 -6q-20 -7 -43 -7t-51 8t-58 8q-138 57 -278 156q-6 12 -6 29q-5 20 -16.5 32t-23.5 24q-31 31 -31 71l12 42q-25 29 -25 58t7 44t7 25t-4 13.5t-10 8.5q-13 12 -13 34zM235 674 q0 -7 24 -20l-2 -28l10 -39q0 -9 -4 -18l1 1q-6 -18 17 -33q16 -10 34 -46.5t35 -54.5q67 -68 160 -88q24 -7 34 -17q16 -13 52 -13t57 4t40 10.5t39 16t50 20.5l-1 -1l37 15q33 19 66.5 66.5t38.5 59.5q17 47 30 79.5t13 68.5l-5 84l5 24q0 17 -10 38q-20 39 -20 69.5 t-31 49.5h1q-17 9 -22 17.5t-13 20.5t-33 32.5t-58 39.5q-78 44 -115.5 44t-72.5 -2t-70 -6q-83 -11 -94 -30l-4 -9q-14 -17 -33.5 -27.5t-26.5 -19.5l3 2q-42 -50 -83 -72l7 -30q0 -24 -14 -55q-26 -57 -26 -82l8 -41q-24 -18 -24 -30zM341 671v44l9 33l-3 27q0 25 17.5 65 t25.5 58t23.5 32t34.5 29q39 32 52.5 38t23 7.5t19.5 3.5q17 2 31 2l16 5l-1 -1q13 5 21.5 5t21 -2t27.5 -4.5t28.5 -5.5t20.5 -5t28 -18.5t44 -37.5q53 -50 65 -69q6 -26 13.5 -34.5t7.5 -25t-18 -33t-34 -16.5t-28 10t-23 24q-23 28 -31 51q-26 15 -41 30t-28 18t-27 5 q-23 2 -38 2q-44 0 -85 -52v1q-49 -59 -49 -129q0 -93 23 -131.5t48 -60.5q0 9 22 -5t24 -16t26 -2t42 7.5t35 19.5q40 27 52 48q5 4 10 14.5t10 21.5q14 30 24 36l-1 -2q13 10 33.5 10t35 -12.5t14.5 -29.5t-7 -38.5t-17 -43.5q-24 -52 -37 -56q-8 -9 -9.5 -12t-9.5 -11 l3 1q-24 -28 -63.5 -41t-50.5 -18q-33 -15 -46.5 -15t-23.5 0.5t-21 1.5q-28 4 -41 11q-10 13 -28 18q-39 11 -50 25l2 -1q-8 6 -8 9t-4 9t-8.5 5.5t-13 7.5t-14 17.5t-9.5 18.5q-12 24 -22 37t-16 29t-12 34q-15 43 -15 57z" />
<glyph unicode="&#xaa;" horiz-adv-x="1014" d="M128 936q0 40 21 72q3 2 6 2t6 2q0 6 3.5 11.5t6.5 10.5q14 3 30 14q28 22 48 25l10 12q51 8 101.5 11t82 12t42 16.5t24 12t31.5 6t36 3.5q45 3 66 17q-14 122 -47 152h-10l-92 8q-22 0 -43 -6q-16 0 -35 12q-53 -11 -53 -29q0 -12 8 -20q4 -12 4 -45t-27 -57.5 t-80.5 -24.5t-80.5 45v10q-11 28 -11 52t7.5 47.5t21.5 44.5q31 47 74 49q3 5 6.5 7.5t5.5 4.5q32 0 86 27q25 -13 49.5 -13t46.5 6t43 9q17 -12 50 -12t49.5 -4.5t21.5 -22.5q13 -8 27.5 -14t26.5 -14q26 -18 26 -50q37 -24 37 -104q0 -36 -8 -58q15 -39 2 -82 q12 -84 12 -141l-14 -104q0 -17 14 -27t39.5 -10t44.5 30q68 -9 68 -36q0 -42 -49 -83q-46 -38 -91 -38q-69 0 -119 100q-14 -9 -24.5 -18.5t-21.5 -17.5q-24 -16 -54 -19q-16 -20 -39 -25q-46 -8 -59 -20q-29 7 -78 7q-89 0 -125 13q-15 19 -32 30t-31 22q-35 28 -35 75 q-2 3 -17 15v6zM182 442q-43 96 71 123q12 2 30.5 2t38.5 -1q41 0 69 -3t62 -6t73 -5q95 -7 121.5 -5t40 9t30.5 9t35.5 1.5t36.5 -2.5q35 -6 49.5 -18t20 -24t7 -25.5t-1 -26.5t-7.5 -20.5t-12.5 -13t-16.5 -10.5q-34 -21 -65 -19.5t-51 4t-38.5 5t-31 1.5t-20 -5 t-29.5 -7.5t-41 -5t-31 -2t-20.5 0.5t-20.5 0q-24 0 -92 -13q-82 -16 -175 22q-17 7 -22 15t-10 20zM237 934q8 -11 8 -31q-4 -9 -4 -25t11.5 -35.5t21.5 -37.5q16 -1 33 -13q30 -22 46 -22l78 12q13 0 29 -6q17 20 35 27.5t39.5 21t39.5 29.5q25 20 74 74q-8 45 -8 67t6 43 q-6 2 -20 2t-32.5 -6t-41.5 -4q-15 -9 -31.5 -12.5t-33.5 -9.5q-15 4 -27 10q-30 -30 -104 -12q-11 -17 -26.5 -19.5t-27.5 -8t-22.5 -13t-20.5 -16t-22 -15.5z" />
<glyph unicode="&#xab;" horiz-adv-x="935" d="M92 557.5q0 29.5 19.5 53t45.5 46.5t51.5 45t34 35.5t16 18.5t15.5 10q22 13 27 20q8 13 11 29t9 24.5t17 15.5t24 14q32 18 47.5 18t27.5 -19t12 -38t-2.5 -29t-8 -17t-14.5 -12.5t-19.5 -12.5t-26 -22t-31.5 -33q-38 -43 -44 -61q-7 -7 -16 -14t-17 -15 q-20 -19 -22 -39q12 -20 35 -37q42 -30 47 -38t7.5 -15t10.5 -12q22 -3 40.5 -21.5t33 -23.5t31.5 -16q22 -10 22 -27.5t-4 -30.5t-11 -24q-17 -23 -44 -23t-46.5 12.5t-36.5 30t-33.5 36t-30 26t-20.5 10.5t-13 8q-12 18 -36 32t-48 29q-60 37 -60 66.5zM420 557.5 q0 29.5 19.5 53t45.5 46.5t51.5 45t34 35.5t16 18.5t15.5 10q22 13 27 20q8 13 10.5 29t9 24.5t17.5 15.5t24 14q32 18 47.5 18t27 -19t11.5 -38t-2.5 -29t-8 -17t-14.5 -12.5t-19.5 -12.5t-26 -22.5t-31.5 -32.5q-37 -43 -43 -61q-7 -7 -16 -14t-17 -15q-20 -19 -22 -39 q13 -22 45.5 -45t37 -30.5t7 -14.5t10.5 -12q22 -3 40.5 -21.5t33 -23.5t31.5 -16q22 -10 22 -27.5t-4 -30.5t-11 -24q-17 -23 -44 -23t-46.5 12.5t-36.5 30t-33.5 36t-30 26t-20.5 10.5t-14 8q-11 18 -35 32t-48 29q-60 37 -60 66.5z" />
<glyph unicode="&#xac;" horiz-adv-x="1127" d="M88 685q0 21 10.5 42.5t28.5 36.5q37 29 80.5 29t77 -4t66.5 -9q84 -15 134 -16q26 16 60.5 16t70 -10t82.5 -10l172 -8q88 0 113 -44q10 -18 8 -46q4 -6 -5 -40q-19 -71 -19 -88t4.5 -25.5t11 -28.5t5.5 -43t-1 -46l8 -76q0 -33 -23 -50q-38 -27 -61.5 -27t-36.5 3.5 t-25 10.5q-40 21 -32 51q2 8 2 16l-8 43q0 20 4 39q12 57 12 120t-3.5 70t-10 9.5t-16.5 2t-23.5 -0.5t-23 -4.5t-33 -8.5t-61 -1.5t-72 2.5t-64 -6t-58 -9.5t-53.5 -1.5t-56.5 2t-67.5 -10t-68 -10t-48.5 3t-28.5 11q-25 16 -38.5 55.5t-13.5 60.5z" />
<glyph unicode="&#xad;" horiz-adv-x="1126" d="M125 717q42 83 187 61q75 -11 117 -5t117 -3q13 0 39.5 3t58.5 7q81 9 113 7l123 -14q21 0 46 6.5t44 -8t29 -37.5q22 -50 3 -95q-14 -36 -76 -49q-20 -5 -42 -3q-63 -12 -97 -8t-62 8t-79.5 5.5t-88 4.5t-69.5 3q-75 2 -155 -13l-93 3q-17 0 -26 -2q-127 49 -89 129z " />
<glyph unicode="&#xae;" horiz-adv-x="1220" d="M111 750l33 156l18 17l-2 -1q8 10 11 30.5t9 29.5q30 16 33 21.5t5 10.5l-1 -1l9 22q31 56 192 114l26 10q14 5 29 13t31 16q37 17 60.5 17t43 -1t39.5 -2q41 -4 62 -12.5t32 -9.5l22 -2h11q63 -37 86.5 -55t38 -22.5t28.5 -7.5q38 -8 44 -17v1q28 -36 32 -70 q52 -45 52 -99q0 -19 10 -31h-1q11 -9 16.5 -21.5t10.5 -34.5t9 -47q8 -59 8 -81q-9 -27 -9 -28l8 -33q0 -27 -15 -62q-28 -67 -29 -86.5t-5 -28.5t-20 -20.5t-28 -28.5t-23 -34.5t-19.5 -33t-15 -22.5t-18.5 -12t-24 -8q-37 -11 -47 -20.5t-18 -15t-14.5 -8.5t-12.5 -4 q-8 -1 -33 -7l-27 -12q-25 -15 -54 -17q-49 -5 -60 -8q-20 -7 -52.5 -7t-85.5 15.5t-104 39.5q-86 42 -188 117q-6 11 -6 31q-5 17 -16.5 28.5l-23.5 23.5q-31 33 -31 73l12 41q-25 41 -25 64.5t7 38.5t7 25t-4 13.5t-10 9.5q-13 15 -13 33zM235 674q0 -7 24 -20l-2 -28 l10 -39q0 -9 -4 -18l1 1q0 -1 -3 -13q2 -8 13 -15t12 -9l-2 1q12 -12 24 -34l24 -44q30 -54 48 -54q6 0 13 33t7 38l-11 84l11 114q0 4 -6 22h2q-6 12 -6 34l3 16l-3 29l1 40q0 28 11 83q-6 0 -6 22.5t9 37.5t24 23q24 13 73 13l45 -1l28 4l120 -9q32 0 57 -20.5t38.5 -33.5 t26 -21.5t19 -20.5t10.5 -25q5 -22 5 -53v-5q0 -95 -70 -148q-11 -8 -18 -11t-9 -5q26 -26 26 -53q1 0 7 -14.5t15 -32.5q22 -50 36 -64h-1q21 -21 21 -35.5t5.5 -14.5t18.5 20q19 29 39.5 68t24.5 46l7 26q11 41 13 69l-5 84l5 24q0 17 -10 38q-20 39 -20 69.5t-31 49.5h1 q-20 11 -29.5 30.5t-35.5 40t-59 39.5q-81 44 -132 44q-94 0 -148 -9.5t-63 -16.5v1q-4 -4 -12 -17l1 4q-9 -18 -38 -36l-28 -24q-10 -11 -18 -20t-16 -16q-19 -16 -44 -30l7 -30q0 -24 -14 -55q-26 -57 -26 -82l8 -41q-24 -18 -24 -30zM492 360.5q0 -3.5 8.5 -6.5t29.5 -11 l-1 1q14 -5 17.5 -9.5t7.5 -8.5q8 -8 45 -8q57 0 92 13.5t53 21.5q10 12 10 20t-6.5 17.5t-14.5 26.5l-21 33q-8 24 -12 42v1q-4 12 -8.5 26.5t-9.5 24.5q-25 10 -31 39q-17 7 -40 30l-36 -4l-45 8q-6 0 -9.5 -9.5t-7.5 -15.5l4 -31v-72q0 -11 -10 -24q10 -25 10 -37t-4 -25 t-8.5 -21.5t-8.5 -13t-4 -8zM504 805.5q0 -7.5 1 -19.5t3 -26q5 -39 10 -39l55 6q17 0 38 -6l-1 1q24 -6 35 0q16 7 33.5 11t27.5 14t16 24q12 25 12 60l-14 25q-26 22 -46.5 24t-41.5 4q-51 3 -60 3h-44t-24 1l5 -27l-3 -32q-2 -16 -2 -23.5z" />
<glyph unicode="&#xaf;" horiz-adv-x="502" d="M0 1358q0 38 48 58q36 14 52.5 11.5t27 -5.5t29 -5.5t47 -1.5t51.5 -1.5t41.5 -7.5t34 -4t27 7t31.5 9q59 7 94 -19q14 -14 17.5 -36.5t-9.5 -41.5q-38 -38 -113 -28q-16 2 -31 4t-28 1l-29 -8q-34 -4 -81.5 -1t-77.5 -1t-39 -9t-33 1q-59 16 -59 78z" />
<glyph unicode="&#xb0;" horiz-adv-x="618" d="M90 1227q0 41 5.5 53.5t14 21.5t18 17.5t16 19t8.5 19.5q6 17 16.5 20.5t15.5 9.5t6 12.5t6 12t14 7t21.5 6t24.5 10.5t24 10q22 8 43.5 8t35.5 -4.5t27 -11.5q40 -21 44 -43q2 -14 11 -18t13.5 -7.5t13 -15t18.5 -25t19 -26t13 -17.5q3 -17 7.5 -36t4.5 -36 q0 -55 -9 -70t-11 -20.5t-2 -11.5t-2 -13t-9 -17.5t-17 -21.5q-22 -24 -34 -27t-22.5 -3t-21.5 -1q-35 -3 -40 -28q-5 -22 -52.5 -22t-62 5t-23.5 13.5t-18.5 20.5t-25 22.5t-24.5 14.5t-22 16.5t-23 34t-15 45.5q-6 35 -6 76zM207 1174q0 -28 26 -48q47 -36 72 -36t34 12 t19.5 23.5t21.5 19t21 15.5q23 20 23 44q0 55 -34 74q-15 8 -17 16t-6.5 12.5t-13 7t-19.5 4.5q-24 3 -35 3q-69 0 -67 -41q2 -19 -2.5 -28.5t-6.5 -14.5q-6 -15 -6 -33z" />
<glyph unicode="&#xb1;" horiz-adv-x="1068" d="M89 94q-3 66 86 86q12 2 29.5 2h37.5q40 -1 66.5 -4t40.5 0.5t27 7.5q35 10 53.5 6.5t37 -2t33.5 -0.5t26.5 -7t34.5 -8.5t59 -1.5t65 -1t52 -9.5t42.5 -4.5t33 9t39.5 9q63 7 97 -22q29 -29 21 -73q-3 -13 -8.5 -20.5t-12.5 -13t-16 -11.5q-45 -27 -105 -15 q-61 12 -74 4.5t-29 -10t-42.5 -2t-56 1.5t-60.5 1t-52.5 -3t-32 -7t-35 -6.5t-59.5 1t-70 -3.5q-68 -14 -160 17q-14 5 -22.5 7t-13.5 5q-18 11 -32 68zM89 727q0 33 41 61q36 23 70.5 23t65 -10t61.5 -10l94 14l39 -8q23 0 44 43q5 11 5 18l-12 39l8 35q0 11 -9 20 q-18 18 -18 27t7 16t7 18t-7 22t-7 25.5t3.5 29t10.5 26.5q16 29 43 29q88 0 88 -111l-8 -37l11 -34l-15 -60q0 -41 33 -112l6 -3l47 9l82 -9l84 13q40 0 72.5 -12t37.5 -19q7 -10 7 -39q0 -67 -76 -67l-61 14q-29 0 -70 -9.5t-49 -9.5l-47 5q-35 0 -48 -70q-3 -16 -3 -27 q0 -20 6.5 -32t11 -27.5t3.5 -39t-1 -46.5l8 -76q0 -35 -24 -51q-38 -25 -60 -25t-35.5 3.5t-25.5 9.5q-40 20 -33 51q2 8 2 16l-8 43q0 20 4.5 39t7.5 45q4 35 4 84t-3.5 64t-10.5 29q-17 32 -35 32t-30 -4.5t-24 -9.5q-32 -15 -48 -15l-27 9q-20 0 -40 -7.5t-38.5 -7.5 t-42 4.5t-45.5 13.5q-53 22 -53 58z" />
<glyph unicode="&#xb2;" horiz-adv-x="735" d="M102 896l12 41l-1 10q16 9 32 45q32 72 56 96q10 15 25.5 24.5t32.5 20t34 18.5t34 13q31 9 55 9t49 7v-1q18 11 48 15t43 12q27 15 27 66v8q0 4 -2 9q-26 16 -39 28.5t-25 20.5q-25 18 -78 18h-68q-40 -6 -60 -21t-20 -27t9.5 -29t9.5 -37q0 -46 -63 -46q-59 0 -71 31 q-5 15 -5 35.5t-2 45.5q35 50 89.5 83.5t122.5 33.5q147 0 179 -30q13 -11 31 -19v1q42 -17 59 -85q4 -19 4 -35q0 -58 -39 -82q0 -11 -7 -20q-12 -15 -13 -28q-15 -5 -21 -8.5t-12 -6.5q-15 -5 -51 -5l-108 -13q-18 0 -113 -60q0 -6 3 -15q80 -12 175 -75q12 -3 30 -3 q32 0 47 9q18 46 40 61t35 15q20 0 38 -21l1 -3l-5 -19q4 -10 4 -25t-7.5 -31t-18 -30t-23 -27.5t-22.5 -29.5q-21 -2 -38.5 -11.5t-35 -9.5t-27 5.5t-17.5 5.5h-9l-10 -1q-28 0 -65 31.5t-42 40.5q-12 2 -22 8.5t-21 6.5q-23 -7 -31.5 -16.5t-17.5 -25.5v1 q-21 -39 -39.5 -39t-30.5 5t-22 13q-23 18 -23 42z" />
<glyph unicode="&#xb3;" horiz-adv-x="738" d="M94 994q0 18 13 31.5t31 22.5q37 20 62 20t40.5 -8.5t27.5 -21.5q24 -29 24 -66l-11 -43q0 -28 44 -28h38q87 0 123 24v1l21 42q8 13 8 28t-8.5 30t-22.5 25q-28 20 -66 20l-39 -2q-61 0 -61 46q0 34 83 47.5t83 53.5q0 88 -123 88q-95 0 -95 -51l11 -74q0 -37 -49 -37 q-13 0 -26 8t-35 18q-38 17 -38 86q0 52 19.5 82.5t28.5 37.5t22 11t27.5 7l29 6t25.5 8l-1 -1q9 5 27.5 7t28.5 6v-1q14 8 27 8l29 -4l29 2q72 0 141 -63q24 -23 30 -37l9 -20q3 -7 8.5 -19t14.5 -32q0 -19 -11.5 -44.5t-15 -45.5t-13.5 -28h1q-8 -8 -8 -13t6.5 -15 t14.5 -20q23 -28 23.5 -40.5t2.5 -20.5t5 -15q7 -15 7 -36t-7 -36.5t-16.5 -27.5t-19 -22.5t-13.5 -22.5l1 1q-7 -30 -79 -52q-53 -15 -88 -15t-64 2t-59 7q-81 12 -101.5 34t-35 29t-25.5 13q-24 15 -24 58q0 11 -5.5 22.5t-5.5 29.5z" />
<glyph unicode="&#xb4;" horiz-adv-x="467" d="M11 1189q0 10 13.5 26t31.5 32q37 33 70 50t51.5 27t32.5 20.5t30.5 25.5t40 35.5t31 38t19.5 26.5q25 17 54.5 17t40 -6.5t17.5 -16.5q14 -20 14 -40.5t-2.5 -34.5t-8.5 -27q-13 -33 -27.5 -42.5t-28.5 -12.5t-29 -5q-51 -5 -121 -48q-29 -18 -49.5 -29t-25.5 -20 q-10 -18 -26 -22.5t-27 -14t-21.5 -22.5t-25 -13t-23 5.5t-15.5 13.5t-11.5 17.5t-4.5 19.5z" />
<glyph unicode="&#xb6;" horiz-adv-x="1384" d="M61 1031q0 108 39 133q20 13 36 40q31 53 43 62.5t22.5 19.5t21.5 20q26 22 53 26.5t60.5 16.5t67.5 24q86 31 119 31t37.5 -1.5t5.5 -2.5q4 -4 21.5 -4t47.5 15q16 0 27.5 -8.5t30.5 -8.5l70 7q13 0 25.5 -3t35.5 -5t53 -4.5t63.5 -4t64.5 -2.5q52 -3 79.5 -3t55 6.5 t54.5 8.5q67 5 69 -44q4 -20 4 -29.5t-4 -28.5q-8 -17 -23 -27t-26 -22q-8 -1 -9 -5q-2 -7 -25 -11t-39 -7.5t-32 0.5q5 -42 5 -67l-7 -81l15 -102l-8 -64l10 -51l-10 -98l6 -56l-8 -34l8 -115l-6 -34l8 -30q0 -5 -1 -19t-2 -30q-2 -36 -4.5 -49.5t0.5 -29t3 -30.5l-7 -82 l3 -21q2 -13 0 -25t-2 -22.5t2.5 -16t4.5 -11.5q7 -4 10 -4l13 -1q0 4 -10 12q-19 14 -19 23q18 0 27 8q18 16 30 16t19 -4t12 -8.5t9 -8.5t11 -4l17 2q15 0 18 -16t4 -24t3 -14q4 -11 13.5 -25t9.5 -24t-7.5 -19t-18 -17.5t-21.5 -15.5t-23 -17t-36 -10l-61 8q-7 0 -15 -5 q-12 -8 -33 -8q-36 0 -48 17q-32 5 -51 25t-19 46l14 98l-12 40l14 116l-11 56l7 164l-5 95l7 45l-3 75l14 128l-13 80l12 104l-9 132q0 37 -18 47q-26 13 -53.5 13t-37 -10.5t-17.5 -22.5q-20 -33 -28 -33q-13 0 -23 9t-20 9q-23 0 -23 -17q0 -11 9.5 -16.5t20.5 -11.5 q30 -16 30 -45l-13 -133q0 -13 3.5 -24.5l7 -23t7 -22.5t3.5 -27t-4 -35.5t-8 -39.5q-12 -49 -12 -79l9 -51q0 -13 -9 -20q4 -3 4 -10l-6 -94l10 -151v-17q0 -44 -15 -52q-1 -11 -1 -22v-21q0 -27 7 -47t7 -27l-9 -46q1 -41 3 -77.5t-4 -64.5q-14 -60 -85 -60l-73 -1 q-126 0 -135 14q-3 4 -6.5 12t-14.5 19t-11 25t7.5 21t16 12.5t16 11t7.5 15.5t-3 19q45 12 73 18.5t44 20.5q27 22 27 120l-1 115l-12 115q0 39 15 39l20 -11q3 0 5 7v4q0 14 -60 33t-72 20q-30 4 -68 4q-29 0 -56 -15h-6q-55 0 -76 13.5t-37 27t-34.5 25t-35 21 t-33.5 20.5q-43 28 -48 42q-13 35 -35.5 63t-32 52t-13.5 42.5t-6 38.5q-4 40 -4 73zM226 966.5q0 -132.5 111 -132.5q25 0 33 -10l14 -17q13 -16 87 -21t93 -5t43 3q0 5 29 47q55 81 55 91.5t-6 15.5t-13 10q-19 14 -19 33.5t9.5 37.5t9.5 32.5t-22 17.5q0 20 14 44 q26 46 26 57.5t-12.5 27t-20 27t-26 18t-41.5 9.5q-31 4 -90 4t-110.5 -21t-87.5 -59q-76 -77 -76 -209.5zM1155 1262q0 -10 12 -10t14 4t2.5 9.5t1 11.5t3.5 11h-6q-11 0 -19 -8t-8 -18z" />
<glyph unicode="&#xb7;" horiz-adv-x="477" d="M132 698l10 31q0 21 7.5 34.5t9.5 23t0.5 18t4.5 20.5q12 21 42 21q67 0 79 -10t14 -15q5 -13 14 -17t16 -11.5t13.5 -28.5t6.5 -35.5t-7 -24.5t-16.5 -18.5t-20.5 -16t-21 -19t-19.5 -24t-28 -12.5t-35.5 8t-33 20q-36 30 -36 56z" />
<glyph unicode="&#xb8;" horiz-adv-x="434" d="M0 -150q0 78 57 78q28 0 52 -14q60 -37 73.5 -37t24 -2.5t22 -10t21.5 -7.5t14.5 3t11 5.5t15 3.5t15.5 3q17 6 17 25t-8.5 30t-18.5 19q-28 23 -28 38q0 41 58 41q31 0 57 -21q49 -38 49 -64t-4 -46l6 -60q0 -38 -38 -78q-19 -20 -32.5 -21.5t-22 -5t-13.5 -8t-10 -7.5 q-12 -9 -39 -9t-49.5 6.5t-40 16.5t-36 22t-40.5 20t-40 13.5t-35 13.5q-38 19 -38 53z" />
<glyph unicode="&#xb9;" horiz-adv-x="725" d="M106 1264q0 32 16.5 42.5t45.5 10.5l81 -6q50 0 92 71q18 18 43 31t32 13t16 -4t16 -11q17 -15 17 -31l-3 -64q0 -20 2 -52l-9 -40l6 -34l-7 -40l7 -60l-13 -126l4 -28l-3 -37q0 -26 37 -26l117 5q34 0 48 -37v-3q-8 -29 -25.5 -35t-37.5 -6l-70 -5l-41 4l-104 -6 q-17 0 -41 12v-1q-12 5 -16 5q-5 0 -13 -6q-12 -8 -28 -8h-37q-62 0 -83.5 16t-21.5 28q0 23 16 37l24 3q11 2 24 4.5t35 2t38 -12.5q12 3 28 2.5t30 1.5q33 6 33 36l-7 81q0 16 5 27v3q-8 27 -8 90v74l-10 57q0 1 0.5 1t0.5 1q-10 2 -20.5 2t-28 -8t-38.5 -8l-97 -13 q-52 0 -52 47z" />
<glyph unicode="&#xba;" horiz-adv-x="967" d="M113 999v9q0 19 12 34q-6 16 -6 34t7 35.5t14 34.5q20 46 16 73q9 16 19.5 30.5t20.5 28.5q23 34 30 65q46 28 95 48.5t97 42.5q17 -15 28.5 -15t47.5 6v9h19q21 0 49 -8q53 -14 73 -11q10 -6 15.5 -11.5t10.5 -9.5q10 -10 32 -8q6 -13 18.5 -27t18.5 -22q35 -6 54 -43 l16 -32t22 -29q1 -15 9 -47q13 -59 9 -70q1 -1 15 -22q-5 -15 -5 -28t13 -42q-15 -27 -41 -37l14 -12q0 -15 -6 -40q-11 -45 -8 -65q-63 -81 -94 -112q-75 -74 -119 -62q-28 -21 -101 -8q-6 -2 -22 -10h-16q-73 -2 -162 50q-94 54 -111 120q-29 21 -42 57l-21 57 q-7 20 -21 37zM154 483q-3 62 86 82q12 2 30 2t38 -1q40 0 68 -3t62 -6t72 -5q96 -7 122.5 -5t40 9t30.5 9t35.5 1.5t35.5 -2.5q36 -6 50.5 -18t20 -24t7 -25.5t-1 -26.5t-7.5 -20.5t-12.5 -13t-16.5 -10.5q-34 -21 -65 -19.5t-51 4t-38.5 5t-31 1.5t-20 -5t-29.5 -7.5 t-41 -5t-31 -2t-20.5 0.5t-20.5 0q-24 0 -92 -13t-152 14q-14 5 -22.5 8t-13.5 7q-8 4 -15.5 22.5t-12 28.5t-4.5 18zM234 1067l4 -47q9 -8 16 -19t15 -22q-8 -8 -8 -17t6 -17t8 -23q11 -10 20.5 -24t18.5 -28q24 -33 41 -36l14 -21v2l2 -2q34 -9 67 -21t68 -10l27 2 q17 25 50.5 25t60 16t44.5 41q24 33 58 115q-8 14 -4 25v8q14 20 14 43t-5 41t-11 36q-16 50 -19 72q-36 21 -58.5 48.5t-33 39t-26.5 20.5q-33 17 -107 15h-63q-14 -13 -28 -14q-56 -7 -84 -43.5t-43 -70.5t-25 -69t-19 -65z" />
<glyph unicode="&#xbb;" horiz-adv-x="933" d="M130 811q0 16 4.5 29t12.5 24q18 23 44 23t46 -12.5t37 -30t33.5 -35.5t30 -26t19.5 -11t13 -8q12 -18 36 -32t47.5 -29t41.5 -32.5t18 -40.5t-19.5 -46.5t-45.5 -46.5t-51.5 -45t-33.5 -35.5t-15 -18.5l-14 -10q-35 -20 -39 -42.5t-10 -30.5t-17 -15.5t-24 -14.5 q-33 -18 -48 -18t-27 19t-12 38t2.5 29t8.5 17q7 8 26.5 20t34.5 27.5t30 33.5q38 46 43 60q8 8 17.5 15t18.5 14q19 18 19 38q-11 22 -34 38q-44 30 -48.5 38t-7 15t-10.5 12q-19 2 -37.5 21t-34 24t-29.5 13q-26 16 -26 32zM458 811q0 16 4.5 29t11.5 24q17 23 44 23 t47 -12.5t37 -30t33.5 -35.5t30 -26t19.5 -11t12 -8q12 -18 36 -32t48 -29t42 -32.5t18 -40.5t-19.5 -46.5t-45.5 -46.5t-51.5 -45t-33.5 -35.5t-15 -18.5l-14 -10q-35 -20 -39 -42.5t-10.5 -30t-17.5 -15t-23 -14.5q-31 -19 -47.5 -19t-28.5 19t-12 38t3 29t9 17t15 12.5 t20 12.5t26 22t30 33q38 45 43 61q7 7 17 14t18 15q20 20 20 38q-11 22 -34 38q-44 30 -48.5 38t-7 15t-10.5 12q-19 2 -38 21t-34.5 24t-28.5 13q-26 16 -26 32z" />
<glyph unicode="&#xbc;" horiz-adv-x="973" d="M80 700q0 17 6.5 24.5t16 12.5t19.5 8t18 8q20 0 32.5 -6t23.5 -6l19 2l44 -5l52 4l33 -4q76 0 97 3.5t27.5 5.5t16.5 2l65 -10l77 3l48 -4l40 8l47 -3l83 6q63 0 63 -32q0 -17 -14 -34q-25 -29 -43 -29l-41 11h-12l-67 -3l-98 11l-84 -9l-32 4q-87 0 -104.5 -6.5 t-28.5 -6.5q-20 0 -37 5q-34 12 -53 12t-46.5 -9.5t-45 -9.5t-26.5 2.5t-29 7t-30 6t-19 5.5q-18 9 -18 26zM185 248q9 5 11 12q8 23 20.5 33t24 17.5t22 14.5t15.5 9q9 10 21 24t25 26q33 31 47 32q19 3 22 20q15 22 45.5 46.5t44.5 38.5t28 26q34 29 62.5 29t35.5 -9 t7 -25l-1 -28l9 -40l-5 -22l6 -21l-3 -21l6 -55v-25q0 -44 24 -44l72 10q54 0 72 -17t24 -32q-13 -56 -53 -56q-18 0 -37 8.5t-37 8.5q-67 0 -67 -28q0 -21 15 -38.5t41 -17.5l56 3q20 0 49.5 -11t32.5 -18.5t3 -26.5t-18.5 -35.5t-54.5 -16.5l-49 9l-78 -4l-154 9l-60 -8 q-20 0 -31.5 11t-23.5 27q3 9 3 15.5t-5 21.5q15 15 28.5 30.5t33.5 15.5t33 -7.5t27 -7.5q43 0 62 17q1 5 1 10v11q0 35 -62 35l-32 -6l-26 4l-67 -5l-58 4l-46 -9q-53 0 -61 56zM207 1270q0 51 62 51l82 -6q46 0 84 54l8 17q19 19 44 31t31.5 12t15.5 -4t16 -11 q18 -15 18 -28.5t-4 -23.5l1 -94l-7 -41l5 -33l-8 -40l8 -60l-14 -127l5 -28l-3 -37q0 -24 38 -24l116 3q38 0 48 -35v-3q-8 -29 -23.5 -35.5t-34.5 -6.5h-19l-55 -6l-42 5l-106 -6q-31 0 -40 7.5t-13 7.5q-7 0 -22 -7q-17 -8 -57 -8q-63 0 -84.5 16.5t-21.5 32.5t9 25 t22 12q18 5 55 5t50 -10q5 2 13 2h21q42 0 50 11.5t8 25.5l-6 81l5 25v1q-9 36 -9 168l-11 57l1 1q-5 4 -17.5 4t-30 -8t-38.5 -8l-99 -13q-23 0 -37 9t-14 39zM363 292q11 -7 23 -7q18 0 34 2l29 3l59 -4q20 0 33.5 7t13.5 23.5t-2.5 27t-4.5 20.5q-7 29 -1 43.5t6 18.5 q0 27 -21 27q-30 0 -43 -28q-12 -21 -34 -36t-30 -23v1q-19 -19 -38 -37t-24 -38z" />
<glyph unicode="&#xbd;" horiz-adv-x="963" d="M75 680q0 20 10.5 38t34.5 18l72 -9l32 5q14 0 24 -6.5t21 -6.5l51 8l46 -8l175 9l48 -6l63 7q7 0 11 -1q12 6 32 6l48 -3l88 11q46 0 60 -15t14 -31.5t-14 -26t-30 -9.5l-74 4l-35 -4l-38 9l-64 -7l-73 4l-42 -7l-48 5l-34 -7q-11 0 -18 6q-9 -6 -17 -6l-42 7l-67 -13 l-30 4l-56 -5l-38 3l-72 -10q-38 0 -38 37zM204 1264q0 32 16 42t45 10l81 -5q48 0 83 53v-1l10 19q57 43 69.5 43t21 -4t16.5 -11q17 -15 17 -28.5t-2 -18t-2.5 -7.5t-1 -9.5t-1 -18t-1.5 -29.5q6 -12 6 -35l-8 -42l5 -33l-7 -39l7 -60l-12 -127l4 -28l-3 -38q0 -23 37 -23 l118 3q36 0 46 -35v-3q-8 -29 -23 -35.5t-34 -6.5h-18l-57 -6l-41 4l-105 -5q-20 0 -34 7.5t-19 7.5t-9 -2t-14 -6q-17 -7 -50 -7h-8q-59 0 -82.5 16t-23.5 31t8.5 24.5t21.5 13.5q21 6 55.5 6t51.5 -11q10 3 26 2.5t30 1.5q35 5 35 36l-6 81l5 24v2q-8 32 -8 95v73l-9 52v5 q-7 4 -18 4t-29.5 -4.5t-40.5 -9.5q-56 -15 -98 -15q-50 0 -50 47zM225 61l11 42v7q22 13 28 36l10 36q7 28 19 38l16 14q3 3 12 15q17 23 25 28l34 19h-1q63 41 149 41q11 0 19.5 5.5t28 10.5t37.5 7.5t31 9.5q28 14 28 66q0 9 -2 19q-26 16 -39.5 28.5t-26.5 20.5 q-26 17 -77 17h-67q-33 0 -56.5 -17.5t-23.5 -30t10 -30t10 -34t-6.5 -24.5t-15.5 -13q-18 -9 -46.5 -9t-44 8t-21.5 22.5t-6.5 34.5t-2.5 45q87 117 213 117q153 0 196 -43q2 -2 5.5 -3t14 -6t22 -18t19.5 -29q16 -32 16 -63q0 -65 -38 -90q-3 -15 -11.5 -23.5t-11.5 -23.5 l-26 -10q-22 -9 -55 -9l-34 -11l-15 2l-32 -7l-29 4q-13 0 -44 -17l-23 -12q-7 -3 -15 -6t-15 -7q-17 -8 -17 -19q0 -5 4 -15q87 -13 174 -75q19 -3 34 -3q31 0 45 9q18 46 40.5 61.5t35.5 15.5q17 0 37 -23l1 -3l-5 -16q4 -8 4 -25t-7 -33t-18 -29.5t-23.5 -26.5t-22.5 -29 q-10 0 -27 -8q-49 -23 -66 -13.5t-25 9.5l-11 -1h-8q-28 0 -65 32t-43 41q-9 4 -19 7.5t-17 7.5q-34 -8 -43 -20.5t-16 -26t-15 -24t-23 -10.5t-27.5 4.5t-22.5 12.5q-23 18 -23 43z" />
<glyph unicode="&#xbe;" horiz-adv-x="980" d="M72 694q0 55 37 59q3 -5 32 -5h35q21 0 41.5 -8.5t41.5 -8.5l71 8h47l73 7l103 -14l77 7h36l37 -1l131 11q48 0 72 -31q9 -10 9 -27.5t-17 -37t-40 -19.5l-55 10l-18 -1h-17l-58 8l-36 -7l-31 3l-76 -8l-54 7l-79 -5l-84 3l-89 -5q-14 0 -26 2l-23 3l-64 -11 q-38 0 -57 15.5t-19 45.5zM176 256q11 8 13.5 19.5t6.5 15.5t13.5 10.5t20.5 14.5q21 15 40 27q10 12 20.5 25t22.5 24q29 28 58 35q8 7 20 27q19 20 43.5 40t38.5 34t29 27q33 30 62.5 30t36.5 -11t7 -36l-1 -16q7 -70 7 -103l6 -56v-24q0 -44 24 -44l72 10q54 0 72 -17 t24 -33q-14 -55 -53 -55q-18 0 -37 8.5t-37 8.5q-67 0 -67 -28q0 -26 31 -53q11 -3 25 -3l57 3q33 0 58.5 -15t25.5 -33q0 -60 -73 -60l-49 9l-78 -5l-154 10l-60 -8q-20 0 -31.5 11t-23.5 27q3 9 3 15.5t-5 18.5q50 66 96 41q13 -7 27 -7q41 0 61 16q1 5 1 10v11 q0 33 -41 35q-11 0 -28.5 -2.5t-24.5 -2.5l-26 4l-67 -5l-58 4l-46 -9q-53 0 -62 55zM183 985q0 28 44 51q37 20 62 20t40.5 -8.5t26.5 -21.5q25 -29 25 -64l-11 -45q0 -28 45 -28q155 0 164 31l6 21q19 29 19 42.5t-8 28.5t-21 26q-27 21 -63 21l-44 -2q-61 0 -61 46 q0 32 83 47t83 52q0 56 -43 77q-27 13 -80 13q-96 0 -96 -51l12 -74q0 -38 -49 -38q-12 0 -49 21q-50 9 -50 92q0 51 17 80.5t27 38.5q14 13 47 20t47.5 11.5t24.5 4.5h6q16 0 37 9v-1q14 8 29 8l28 -3l29 2q70 0 140 -64q28 -27 36 -46q11 -29 26 -61q0 -19 -11 -44.5 t-14 -45t-12 -28.5v1q-7 -9 -7 -14.5t6.5 -15.5t14.5 -20q22 -27 23 -35v-8q-3 -7 -3 -12.5t3 -11.5t6 -13q25 -54 -23 -105q-8 -8 -14.5 -19.5t-11.5 -16.5v1q-30 -49 -135 -62q-27 -4 -47 -4t-48.5 2t-58.5 6q-72 10 -96 29q-28 30 -55 44v-1q-15 7 -24.5 17.5t-9.5 44.5z M355 301q13 -8 28 -8l58 6l59 -4q20 0 33.5 7t13.5 31l-9 73l7 29q0 26 -20 26t-28 -6t-13.5 -15t-10 -19t-14.5 -17q-16 -3 -33 -20.5t-26.5 -25.5t-18.5 -18q-21 -21 -26 -39z" />
<glyph unicode="&#xbf;" horiz-adv-x="963" d="M59 379q0 20 10 39t10 39t7.5 30t18 17.5t22 14.5t18 18.5t7 21t0.5 17.5q2 21 22.5 34.5t35.5 25.5t27.5 23.5t24 22.5t21 18.5t18 17.5t18 20.5t17.5 20t19 15.5t24.5 9t23.5 6q22 7 26.5 28.5t3.5 44t-3 45.5t-4 45.5t-2 36.5t4.5 19.5t9.5 10.5q17 15 20 25 q20 10 49 10t50 -11t37 -29q65 -78 18 -234q-9 -28 -17 -46t-14.5 -31.5t-23 -25t-35.5 -19.5q-61 -27 -75.5 -38.5t-30.5 -15.5t-34 -7q-50 -8 -62.5 -17t-30.5 -25.5t-33 -36.5q-38 -47 -38 -69.5t-6 -36.5t-13 -28q-19 -40 -19 -53t3 -25t7 -24q9 -27 7 -45 q20 -47 79 -78q17 -9 30.5 -10t24.5 -1q17 0 26 -3q3 -1 12.5 -0.5t20 1t19.5 0.5t11 -1q40 -35 103 -35q55 0 73.5 7.5t27.5 16.5t23 19.5t26.5 17.5t20.5 15q14 14 9 54l-7 46q-12 11 -21 15t-15 9q-12 10 -12 42l-16 -2l-12 2q-9 12 -26 22.5t-33 21.5q-40 28 -40 53 t12.5 51.5t32.5 45.5q46 44 101 44q50 0 100 -24.5t62 -37.5t15.5 -28t5.5 -34q5 -70 19 -100t17 -38q6 -14 6 -47.5t-15 -68t-39 -64t-53 -56t-57 -53.5q-156 -67 -184 -67t-49.5 5t-42.5 11q-61 17 -77.5 18t-25.5 6l-19 9q-26 13 -33.5 13t-16.5 6t-18 15q-19 19 -24 30 t-11.5 15.5t-15 8.5t-17.5 8t-20 12t-19 17t-13 19q-5 12 -12 54q-71 99 -71 160zM376 1334.5q0 17.5 1.5 22.5t4.5 7.5t7 5t8.5 9.5t5.5 15.5t7 16.5t20.5 17t31.5 16q36 14 77.5 14t75 -32.5t33.5 -86.5l13 -49q0 -63 -89 -94q-23 -8 -42 -17q-81 55 -115 68q-3 15 -16 35 q-23 35 -23 52.5z" />
<glyph unicode="&#xc0;" horiz-adv-x="1126" d="M-2 40q0 51 70 74q19 7 38 13q53 16 67 28q21 17 29.5 62t12.5 70.5t6 35.5t2.5 17.5t0.5 15.5q3 36 14 42t14 8q3 3 3 30.5t5 34t10.5 11.5t10.5 9.5t5 15.5t-8 22.5t-8 22.5t4 17t10 11q13 12 13 24l-9 44q0 12 12 15.5t17.5 5t5.5 4.5q-3 6 -13 6t-10 -13 q-17 12 -17 24t5 20.5t12 19.5q16 28 16 59l-12 80q0 17 11 33l17 26q16 22 16.5 51.5t1.5 50.5q1 54 12.5 75t16.5 31t9 20q8 18 13 49t15.5 58t13.5 52.5t3.5 41t4.5 27.5q21 55 156 55q30 0 62 -3q4 -22 25 -46q41 -47 46 -69t6.5 -42.5t12.5 -36t11 -30.5l-12 -87 q0 -23 19 -82q34 -107 43.5 -144t10 -77t12.5 -79q28 -91 31.5 -145t11.5 -90.5t17 -73t16.5 -73.5t7.5 -78t-16 -58q65 -77 87.5 -91.5t43.5 -17.5t43 -8q54 -11 54 -37q0 -34 -41 -55q-11 -5 -21 -5l-28 2q-10 0 -15 -11q-10 -23 -28 -23l-35 4q-19 0 -36.5 -7.5t-36 -7.5 t-52.5 5.5t-69 16.5q-86 29 -86 67q0 17 19.5 34.5t43.5 38.5q63 57 63 112q0 57 -60 111q-16 15 -31 28q-5 2 -15 2l-108 -11q-40 0 -48 24q-60 -30 -91 -40.5t-38.5 -13.5t-11 -7t-5 -12t-6.5 -20.5t-5 -20.5v-18q0 -16 -11 -29q-20 -24 -20 -35t3 -18l-1 -5q0 -26 28 -37 q11 -4 24 -8q28 -9 40 -26t20 -32q17 -37 17 -58v-5h-13q-58 0 -128 -8q-130 -15 -188 -15q-158 0 -158 52zM159 1761.5q0 20.5 3.5 33.5t10.5 23q16 23 37 23q76 0 95 -44q7 -17 30.5 -37.5t40 -35.5t30.5 -25q16 -13 57.5 -34.5t60 -34.5t36.5 -29t31.5 -32t13.5 -26 t-4.5 -19.5t-11.5 -17.5q-17 -19 -35 -19t-28.5 13t-21.5 22.5t-21 12.5q-22 6 -29.5 19.5t-24.5 22.5t-29.5 16.5l-22.5 13.5q-65 41 -86 44.5t-36 5.5q-36 3 -50.5 12t-22 21t-13.5 25q-10 26 -10 46.5zM457 643.5q0 -23.5 2 -45.5t9 -36q14 -30 43 -30t59.5 4t61.5 14 q75 23 75 60q0 9 -7 23.5t-16 32.5q-22 48 -22 79t-8 57.5t-10.5 51t-5 51t-10.5 49.5q-19 55 -72 55q-3 -14 -21 -19t-22 -10q1 -3 1 -15t-7.5 -27.5t-14.5 -31.5q-11 -30 -11 -72l2 -61q0 -34 -9 -59q-17 -47 -17 -70.5z" />
<glyph unicode="&#xc1;" horiz-adv-x="1126" d="M-2 40q0 51 70 74q19 7 38 13q53 16 67 28q21 17 29.5 62t12.5 70.5t6 35.5t2.5 17.5t0.5 15.5q3 36 14 42t14 8q3 3 3 30.5t5 34t10.5 11.5t10.5 9.5t5 15.5t-8 22.5t-8 22.5t4 17t10 11q13 12 13 24l-9 44q0 12 12 15.5t17.5 5t5.5 4.5q-3 6 -13 6t-10 -13 q-17 12 -17 24t5 20.5t12 19.5q16 28 16 59l-12 80q0 17 11 33l17 26q16 22 16.5 51.5t1.5 50.5q1 54 12.5 75t16.5 31t9 20q8 18 13 49t15.5 58t13.5 52.5t3.5 41t4.5 27.5q21 55 156 55q30 0 62 -3q4 -22 25 -46q41 -47 46 -69t6.5 -42.5t12.5 -36t11 -30.5l-12 -87 q0 -23 19 -82q34 -107 43.5 -144t10 -77t12.5 -79q28 -91 31.5 -145t11.5 -90.5t17 -73t16.5 -73.5t7.5 -78t-16 -58q65 -77 87.5 -91.5t43.5 -17.5t43 -8q54 -11 54 -37q0 -34 -41 -55q-11 -5 -21 -5l-28 2q-10 0 -15 -11q-10 -23 -28 -23l-35 4q-19 0 -36.5 -7.5t-36 -7.5 t-52.5 5.5t-69 16.5q-86 29 -86 67q0 17 19.5 34.5t43.5 38.5q63 57 63 112q0 57 -60 111q-16 15 -31 28q-5 2 -15 2l-108 -11q-40 0 -48 24q-60 -30 -91 -40.5t-38.5 -13.5t-11 -7t-5 -12t-6.5 -20.5t-5 -20.5v-18q0 -16 -11 -29q-20 -24 -20 -35t3 -18l-1 -5q0 -26 28 -37 q11 -4 24 -8q28 -9 40 -26t20 -32q17 -37 17 -58v-5h-13q-58 0 -128 -8q-130 -15 -188 -15q-158 0 -158 52zM457 643.5q0 -23.5 2 -45.5t9 -36q14 -30 43 -30t59.5 4t61.5 14q75 23 75 60q0 9 -7 23.5t-16 32.5q-22 48 -22 79t-8 57.5t-10.5 51t-5 51t-10.5 49.5 q-19 55 -72 55q-3 -14 -21 -19t-22 -10q1 -3 1 -15t-7.5 -27.5t-14.5 -31.5q-11 -30 -11 -72l2 -61q0 -34 -9 -59q-17 -47 -17 -70.5zM538 1536q0 10 13.5 26t31.5 32q37 33 70 50t51.5 27t32.5 20.5t30.5 25.5t40 35.5t31 38t19.5 26.5q25 17 54.5 17t40 -6.5t17.5 -16.5 q14 -20 14 -40.5t-2.5 -34.5t-8.5 -27q-13 -33 -27.5 -42.5t-28.5 -12.5t-29 -5q-51 -5 -121 -48q-29 -18 -49.5 -29t-25.5 -20q-10 -18 -26 -22.5t-27 -14t-21.5 -22.5t-25 -13t-23 5.5t-15.5 13.5t-11.5 17.5t-4.5 19.5z" />
<glyph unicode="&#xc2;" horiz-adv-x="1126" d="M-2 40q0 51 70 74q19 7 38 13q53 16 67 28q21 17 29.5 62t12.5 70.5t6 35.5t2.5 17.5t0.5 15.5q3 36 14 42t14 8q3 3 3 30.5t5 34t10.5 11.5t10.5 9.5t5 15.5t-8 22.5t-8 22.5t4 17t10 11q13 12 13 24l-9 44q0 12 12 15.5t17.5 5t5.5 4.5q-3 6 -13 6t-10 -13 q-17 12 -17 24t5 20.5t12 19.5q16 28 16 59l-12 80q0 17 11 33l17 26q16 22 16.5 51.5t1.5 50.5q1 54 12.5 75t16.5 31t9 20q8 18 13 49t15.5 58t13.5 52.5t3.5 41t4.5 27.5q21 55 156 55q30 0 62 -3q4 -22 25 -46q41 -47 46 -69t6.5 -42.5t12.5 -36t11 -30.5l-12 -87 q0 -23 19 -82q34 -107 43.5 -144t10 -77t12.5 -79q28 -91 31.5 -145t11.5 -90.5t17 -73t16.5 -73.5t7.5 -78t-16 -58q65 -77 87.5 -91.5t43.5 -17.5t43 -8q54 -11 54 -37q0 -34 -41 -55q-11 -5 -21 -5l-28 2q-10 0 -15 -11q-10 -23 -28 -23l-35 4q-19 0 -36.5 -7.5t-36 -7.5 t-52.5 5.5t-69 16.5q-86 29 -86 67q0 17 19.5 34.5t43.5 38.5q63 57 63 112q0 57 -60 111q-16 15 -31 28q-5 2 -15 2l-108 -11q-40 0 -48 24q-60 -30 -91 -40.5t-38.5 -13.5t-11 -7t-5 -12t-6.5 -20.5t-5 -20.5v-18q0 -16 -11 -29q-20 -24 -20 -35t3 -18l-1 -5q0 -26 28 -37 q11 -4 24 -8q28 -9 40 -26t20 -32q17 -37 17 -58v-5h-13q-58 0 -128 -8q-130 -15 -188 -15q-158 0 -158 52zM273 1492.5q0 27.5 12 47t29 36.5t35 33.5t30 37.5l14 26q19 12 33.5 36t29.5 48q37 60 66 60t52.5 -19.5t47 -45t46 -51.5t36 -34.5t18 -15.5t8.5 -15 q10 -21 22 -29t27.5 -10t23.5 -8.5t15 -17.5t14 -23.5t12.5 -24.5t5.5 -25.5t-17.5 -25.5t-36.5 -12t-29 2.5t-17 8.5t-12.5 15t-13 20t-22.5 26t-33 30q-43 36 -63 44q-7 8 -13.5 17t-13.5 17q-19 19 -38 21q-26 -14 -47 -45.5t-29 -36.5t-14.5 -7.5t-11.5 -10.5 q-2 -17 -9 -24.5t-20.5 -21t-18.5 -28t-15.5 -34t-34.5 -19.5t-46 15.5t-22 43zM457 643.5q0 -23.5 2 -45.5t9 -36q14 -30 43 -30t59.5 4t61.5 14q75 23 75 60q0 9 -7 23.5t-16 32.5q-22 48 -22 79t-8 57.5t-10.5 51t-5 51t-10.5 49.5q-19 55 -72 55q-3 -14 -21 -19t-22 -10 q1 -3 1 -15t-7.5 -27.5t-14.5 -31.5q-11 -30 -11 -72l2 -61q0 -34 -9 -59q-17 -47 -17 -70.5z" />
<glyph unicode="&#xc3;" horiz-adv-x="1126" d="M-2 40q0 51 70 74q19 7 38 13q53 16 67 28q21 17 29.5 62t12.5 70.5t6 35.5t2.5 17.5t0.5 15.5q3 36 14 42t14 8q3 3 3 30.5t5 34t10.5 11.5t10.5 9.5t5 15.5t-8 22.5t-8 22.5t4 17t10 11q13 12 13 24l-9 44q0 12 12 15.5t17.5 5t5.5 4.5q-3 6 -13 6t-10 -13 q-17 12 -17 24t5 20.5t12 19.5q16 28 16 59l-12 80q0 17 11 33l17 26q16 22 16.5 51.5t1.5 50.5q1 54 12.5 75t16.5 31t9 20q8 18 13 49t15.5 58t13.5 52.5t3.5 41t4.5 27.5q21 55 156 55q30 0 62 -3q4 -22 25 -46q41 -47 46 -69t6.5 -42.5t12.5 -36t11 -30.5l-12 -87 q0 -23 19 -82q34 -107 43.5 -144t10 -77t12.5 -79q28 -91 31.5 -145t11.5 -90.5t17 -73t16.5 -73.5t7.5 -78t-16 -58q65 -77 87.5 -91.5t43.5 -17.5t43 -8q54 -11 54 -37q0 -34 -41 -55q-11 -5 -21 -5l-28 2q-10 0 -15 -11q-10 -23 -28 -23l-35 4q-19 0 -36.5 -7.5t-36 -7.5 t-52.5 5.5t-69 16.5q-86 29 -86 67q0 17 19.5 34.5t43.5 38.5q63 57 63 112q0 57 -60 111q-16 15 -31 28q-5 2 -15 2l-108 -11q-40 0 -48 24q-60 -30 -91 -40.5t-38.5 -13.5t-11 -7t-5 -12t-6.5 -20.5t-5 -20.5v-18q0 -16 -11 -29q-20 -24 -20 -35t3 -18l-1 -5q0 -26 28 -37 q11 -4 24 -8q28 -9 40 -26t20 -32q17 -37 17 -58v-5h-13q-58 0 -128 -8q-130 -15 -188 -15q-158 0 -158 52zM271 1530l6 39q0 10 11 22q27 29 30 37.5t7 16t22 17t39 17.5q50 19 71.5 19t40.5 -6.5t41 -9.5l10 -16q15 -6 23 -21q13 -3 40 -19q51 -32 65.5 -32t25 17.5t20 39 t23 39t35 17.5t33.5 -9t21 -22q17 -27 17 -53t-3 -39.5t-9 -23.5t-15.5 -19t-20.5 -21t-18.5 -22t-16 -15.5t-20.5 -5.5h-22l-32 -6l-84 10q-9 2 -51 32q-76 54 -101 54q-21 -7 -40 -13t-21 -7q-4 -18 -29.5 -48t-33.5 -30q-24 0 -38 14q-5 11 -15.5 23t-10.5 24zM457 643.5 q0 -23.5 2 -45.5t9 -36q14 -30 43 -30t59.5 4t61.5 14q75 23 75 60q0 9 -7 23.5t-16 32.5q-22 48 -22 79t-8 57.5t-10.5 51t-5 51t-10.5 49.5q-19 55 -72 55q-3 -14 -21 -19t-22 -10q1 -3 1 -15t-7.5 -27.5t-14.5 -31.5q-11 -30 -11 -72l2 -61q0 -34 -9 -59 q-17 -47 -17 -70.5z" />
<glyph unicode="&#xc4;" horiz-adv-x="1126" d="M-2 40q0 51 70 74q19 7 38 13q53 16 67 28q21 17 29.5 62t12.5 70.5t6 35.5t2.5 17.5t0.5 15.5q3 36 14 42t14 8q3 3 3 30.5t5 34t10.5 11.5t10.5 9.5t5 15.5t-8 22.5t-8 22.5t4 17t10 11q13 12 13 24l-9 44q0 12 12 15.5t17.5 5t5.5 4.5q-3 6 -13 6t-10 -13 q-17 12 -17 24t5 20.5t12 19.5q16 28 16 59l-12 80q0 17 11 33l17 26q16 22 16.5 51.5t1.5 50.5q1 54 12.5 75t16.5 31t9 20q8 18 13 49t15.5 58t13.5 52.5t3.5 41t4.5 27.5q21 55 156 55q30 0 62 -3q4 -22 25 -46q41 -47 46 -69t6.5 -42.5t12.5 -36t11 -30.5l-12 -87 q0 -23 19 -82q34 -107 43.5 -144t10 -77t12.5 -79q28 -91 31.5 -145t11.5 -90.5t17 -73t16.5 -73.5t7.5 -78t-16 -58q65 -77 87.5 -91.5t43.5 -17.5t43 -8q54 -11 54 -37q0 -34 -41 -55q-11 -5 -21 -5l-28 2q-10 0 -15 -11q-10 -23 -28 -23l-35 4q-19 0 -36.5 -7.5t-36 -7.5 t-52.5 5.5t-69 16.5q-86 29 -86 67q0 17 19.5 34.5t43.5 38.5q63 57 63 112q0 57 -60 111q-16 15 -31 28q-5 2 -15 2l-108 -11q-40 0 -48 24q-60 -30 -91 -40.5t-38.5 -13.5t-11 -7t-5 -12t-6.5 -20.5t-5 -20.5v-18q0 -16 -11 -29q-20 -24 -20 -35t3 -18l-1 -5q0 -26 28 -37 q11 -4 24 -8q28 -9 40 -26t20 -32q17 -37 17 -58v-5h-13q-58 0 -128 -8q-130 -15 -188 -15q-158 0 -158 52zM242 1616q0 25 1.5 35t12.5 22.5t14 22t10.5 17.5t19 14.5t24.5 10.5q26 9 55 9t54 -14t42 -36t26 -50.5t9 -47t-3 -23.5t-7 -10q-11 -12 -14 -25 q-23 -29 -44 -42.5t-50 -13.5h-40q-17 0 -26.5 9t-19 16t-16 10t-10.5 9.5t-5 15t-6.5 18t-10.5 13.5t-8 8q-8 7 -8 32zM457 643.5q0 -23.5 2 -45.5t9 -36q14 -30 43 -30t59.5 4t61.5 14q75 23 75 60q0 9 -7 23.5t-16 32.5q-22 48 -22 79t-8 57.5t-10.5 51t-5 51t-10.5 49.5 q-19 55 -72 55q-3 -14 -21 -19t-22 -10q1 -3 1 -15t-7.5 -27.5t-14.5 -31.5q-11 -30 -11 -72l2 -61q0 -34 -9 -59q-17 -47 -17 -70.5zM615 1587.5q0 25.5 1 47t6 42.5q15 71 66 81q17 4 27 9t28.5 5t46 -7t48 -22.5t32 -39.5t11.5 -60t-1.5 -64t-11.5 -48q-18 -39 -94 -52 q-8 -2 -14 -4t-19.5 -2t-36.5 12.5t-42 31.5q-47 45 -47 70.5z" />
<glyph unicode="&#xc5;" horiz-adv-x="1128" d="M-2 40q0 51 70 74q19 7 38 13q53 16 67 28q21 17 29.5 62t12.5 70.5t6 35.5t2.5 17.5t0.5 15.5q3 36 14 42t14 8q3 3 3 30.5t5 34t10.5 11.5t10.5 9.5t5 15.5t-8 22.5t-8 22.5t4 17t10 11q13 12 13 24l-9 44q0 12 12 15.5t17.5 5t5.5 4.5q-3 6 -13 6t-10 -13 q-17 12 -17 24t5 20.5t12 19.5q16 28 16 59l-12 80q0 17 11 33l17 26q16 22 16.5 51.5t1.5 50.5q1 54 12.5 75t16.5 31t9 20q8 18 13 49t15.5 58t13.5 48.5t7 36t-7.5 23t-21.5 12.5t-23 16.5t-22.5 34t-14.5 45.5q-5 29 -5 73.5t5.5 56.5t14 21t18 17.5t16.5 19.5t9 19 t7 14.5t11.5 8.5t12 7.5t6.5 12t6.5 12t14 7.5t20 6.5t23.5 10t24 9.5q24 8 45.5 8t35 -4.5t26.5 -11.5q44 -20 44 -42q0 -14 11 -18.5t15 -8t12.5 -15t18.5 -25t19 -26t13 -16.5q3 -17 7 -36t4 -36q0 -59 -8.5 -72t-10.5 -18.5t-2 -12t-5.5 -23.5t-15 -25t-14.5 -14 q-11 -10 -2.5 -44.5t10 -55t12.5 -36t11 -30.5l-12 -87q0 -23 19 -82q34 -107 43.5 -144t10 -77t12.5 -79q28 -91 31.5 -145t11.5 -90.5t17 -73.5q24 -97 24 -144.5t-16 -64.5q65 -77 87.5 -91.5t43.5 -17.5t43 -8q54 -11 54 -37q0 -34 -41 -55q-11 -5 -21 -5l-28 2 q-10 0 -15 -11q-10 -23 -28 -23l-35 4q-19 0 -36.5 -7.5t-36 -7.5t-52.5 5.5t-69 16.5q-86 29 -86 67q0 17 19.5 34.5t43.5 38.5q63 57 63 112q0 57 -60 111q-16 15 -31 28q-5 2 -15 2l-108 -11q-40 0 -48 24q-60 -30 -91 -40.5t-38.5 -13.5t-11 -7t-5 -12t-6.5 -20.5 t-5 -20.5v-18q0 -16 -11 -29q-20 -24 -20 -35t3 -18l-1 -5q0 -26 28 -37q11 -4 24 -8q28 -9 40 -26t20 -32q17 -37 17 -58v-5h-13q-58 0 -128 -8q-130 -15 -188 -15q-158 0 -158 52zM457 643.5q0 -23.5 2 -45.5t9 -36q14 -30 43 -30t59.5 4t61.5 14q75 23 75 60q0 9 -7 23.5 t-16 32.5q-22 48 -22 79t-8 57.5t-10.5 51t-5 51t-10.5 49.5q-19 55 -72 55q-3 -14 -21 -19t-22 -10q1 -3 1 -15t-7.5 -27.5t-14.5 -31.5q-11 -30 -11 -72l2 -61q0 -34 -9 -59q-17 -47 -17 -70.5zM458 1502q0 -28 27 -48q48 -36 67 -36t26 3.5t12.5 9t11 12.5t13 15t18 15.5 t19.5 16.5q23 20 23 43q0 55 -33 73q-7 4 -12 9l-10 20q-18 14 -77 14t-57 -41q2 -19 -3.5 -28.5t-8.5 -14.5q-6 -13 -6 -32z" />
<glyph unicode="&#xc6;" horiz-adv-x="1874" d="M-21 40q9 48 85 74q31 11 62 19t48.5 20t30 34.5t23 48.5t19.5 51.5t14 38t9 31t13 30t15 14.5t9 5t9.5 30t12.5 34.5t13 11.5q30 21 21 40t-7 30t7.5 17t11.5 11q23 19 19.5 38t-1.5 28.5t8.5 13t13 5.5t12.5 3.5t6 4.5q-2 6 -11.5 6t-12.5 -13q-24 20 -3 44 q53 65 46 120q-6 48 19.5 72.5t36 44.5t15.5 41l10 42q13 55 28 75.5t22.5 30.5t13.5 20q10 15 22 47.5t28 59.5t24.5 52.5t12 41t10.5 27.5q32 55 166 55h16q7 0 15 -1l26 5q20 2 44 -2q48 -8 64.5 -8t31 -5.5t27.5 -11.5q33 -18 60 -18l165 16q38 0 75 -8.5t72.5 -8.5 t69.5 8.5t59 8.5t40 -3q22 -24 40.5 -40t32.5 -33q34 -42 34 -124t21 -88q0 -14 -14 -14q1 -14 6 -28.5t10 -29.5q13 -37 13 -48.5t-5 -23.5t-11 -26q-16 -33 -25 -42l2 -1q-2 0 -4 -1h-5q-4 -1 -8 -1h-10l4 1q-59 3 -78 52q-17 44 -17 60l3 34l-12 122q0 46 23 74h-5 q-12 0 -19 7.5t-34 7.5t-63 -9t-76 -9l-65 1l-119 -14q-3 0 -3 1l14 11q0 4 -7 4h-8q-8 0 -13.5 -8t-18.5 -11.5t-30 -3.5h-33q-114 0 -119 38q-14 -4 -18.5 -19t-9.5 -21.5t-26 -8.5q-38 -2 -38 -53l2 -44l-3 -159q0 -167 35 -175q12 -3 35 -3l137 16l52 -8q51 0 51 148v18 l-1 24v19l4 38q2 29 51 29h25l32 -44l14 -81q0 -26 -28 -33q18 -32 18 -57l-4 -43q0 -10 6.5 -15.5t6.5 -15t-9.5 -27.5t-9.5 -38.5t4 -44.5t9 -50q13 -68 13 -95t-1.5 -44t-6.5 -32q-13 -35 -40 -51q-77 8 -77 146q0 47 -45 62q-27 9 -62 9t-58.5 -2t-49.5 -8 q-63 -13 -81 -38q-3 -24 -3 -63v-12l3 -121q1 -5 1 -10v-11q0 -12 -2 -24q-8 -47 -10.5 -60.5t-2.5 -29.5q0 -94 159 -94l192 12l120 -6q107 0 148 35q19 15 22 33.5t7.5 22t10.5 6.5q13 6 13 14.5t-6 19t-9 24.5q-4 19 -4 60.5t9.5 64t9.5 49.5l-1 30q0 16 33 24.5 t48.5 8.5t31.5 -17.5t25 -42.5q14 -43 14 -86t-5 -82t-13 -80q-33 -157 -66 -179q-6 -5 -13.5 -9.5t-16.5 -14.5q-13 -15 -78 -15l-62 2q-33 0 -53.5 -8t-36 -8t-19.5 5.5t-11.5 5.5t-13.5 -6t-18 -6l-50 1l-298 -11l-22 -1q-8 -10 -16.5 -10t-32.5 4l-49 -8 q-9 -2 -18.5 -4.5t-18.5 -2.5l-16 1l-29 -1q-60 0 -89.5 18t-37.5 33q-31 28 -6 57q8 9 22 23t35.5 28.5t41.5 28.5q31 31 40 47v11q0 51 5.5 60.5t7.5 14.5q-13 44 -61 92q-5 2 -15 2l-110 -11q-40 0 -43 24q-70 -31 -101 -41t-39.5 -13t-12.5 -7t-7.5 -12t-10.5 -21 q-8 -14 -12 -32.5t-10.5 -26t-13.5 -13.5q-27 -26 -22 -48q-11 -29 19 -42q10 -4 22.5 -8t21 -10t15.5 -19.5t11 -28.5q10 -33 4 -63h-13q-58 0 -129 -8q-354 -40 -339 37zM556 562q8 -30 50 -30q97 0 168 42q26 15 29.5 30t-1 29.5t-8.5 32.5q-13 50 -7 80t3.5 56.5t0 51 t5.5 51t0 49.5q-7 55 -61 55q-5 -13 -24 -18.5t-25 -10.5q0 -20 -13 -39t-23 -35q-22 -37 -27.5 -77.5t-9.5 -59.5t-11.5 -35.5t-15.5 -30.5q-25 -48 -29.5 -87.5t-0.5 -53.5zM884 741q49 -28 78.5 -56.5t35.5 -30t13 14.5t-3.5 32t-29.5 27q-40 24 -65.5 24t-28.5 -11z" />
<glyph unicode="&#xc7;" horiz-adv-x="1186" d="M95 635q0 36 3.5 65t8.5 58t10 57.5t7 56.5t2.5 56t1.5 56q6 97 46 161q67 108 74.5 142t28.5 50.5t52 31t67.5 26t72.5 19.5q74 18 120 18q78 0 179 -45q44 -20 88 -20q33 0 43.5 18t14.5 27.5t12 14.5l-3 -1q3 3 14.5 2.5t23 -3.5t23.5 -7q29 -10 35 -14.5t13 -15.5 t14 -24q19 -32 19 -38l15 -94l-15 -102l3 -125q0 -63 -6.5 -92.5t-8.5 -40.5t-5 -21q-9 -24 -24 -24q-9 0 -16 3q-10 -2 -20.5 -2t-10.5 8q0 25 -28 28q-43 4 -43 23q0 18 11 11q24 -15 34 -11q-16 18 -36 53q-39 67 -53.5 82.5t-22.5 32.5t-15 35q-19 44 -38 58 q-116 88 -217 88q-71 0 -148 -46q-14 -8 -26.5 -14t-24.5 -14q-38 -25 -36 -83q0 -36 -26 -48q-19 -9 -21.5 -48.5t-2.5 -65.5q-2 -75 -9 -99q-12 -41 -12 -84l5 -148q0 -151 46 -236q16 -29 22 -53.5t16.5 -43.5t25.5 -35q33 -37 69 -37l54 7l60 -5q73 0 106 35 q19 20 53 27.5t51 14t27.5 20.5t19 37t17.5 48q23 63 35 70q17 9 17 75v46q0 106 35 106q11 0 17.5 -7.5t16.5 -7.5l40 13q33 0 68 -72q6 -13 12 -14q10 -3 10 -31q0 -80 -12.5 -108t-14.5 -41.5t-4 -25t-15 -11.5l-8 1q-33 0 -44 -78q-2 -18 -5 -29t-3.5 -19.5t-1.5 -15.5 q-1 -14 -17.5 -27t-31.5 -24t-25.5 -24t-13.5 -21t-6 -15q-6 -15 -30 -23t-45 -18t-46 -19.5t-49.5 -23t-50.5 -24.5q40 -31 40 -57t-4 -46l6 -60q0 -38 -39 -78q-18 -20 -31.5 -21.5t-22 -5t-13.5 -8t-10 -7.5q-12 -9 -39 -9t-49.5 6.5t-40 16.5t-36 22t-40.5 20t-40 13.5 t-34 13.5q-39 19 -39 53q0 78 57 78q28 0 52 -14q60 -37 73.5 -37t24 -2.5t22 -10t21.5 -7.5t14.5 3t11 5.5t15 3.5t16.5 3q16 6 16 24t-7.5 29t-16.5 19t-18 15t-12 17q-38 6 -73 28q-33 3 -50 46q-10 23 -20 27t-18 6t-36 20q-48 31 -134 149q-8 12 -14 38q-16 69 -43 72 q-21 2 -25.5 18.5t-4.5 46.5t-4 55t-10 52q-13 65 -13 101z" />
<glyph unicode="&#xc8;" horiz-adv-x="1308" d="M78 1318q0 22 16 34.5t41 20t56 12t60.5 7t54 3.5t40.5 3q30 5 75 5l157 -5l165 16q38 0 75 -8.5t72.5 -8.5t69.5 8.5t59 8.5t40 -3q22 -24 40.5 -40t32.5 -33q34 -42 34 -124t21 -88q0 -14 -14 -14q1 -14 6 -28.5t10 -29.5q13 -37 13 -48.5t-5 -23.5t-11 -26 q-16 -33 -25 -42l2 -1q-2 0 -4 -1h-5q-4 -1 -8 -1h-10l4 1q-59 3 -78 52q-17 44 -17 60l3 34l-12 122q0 46 23 74h-5q-12 0 -19 7.5t-34 7.5t-63 -9t-76 -9l-65 1l-119 -14q-3 0 -3 1l14 11q0 4 -7 4h-8q-8 0 -13.5 -8t-18.5 -11.5t-30 -3.5h-33q-114 0 -119 38 q-14 -4 -18.5 -19t-9.5 -21.5t-26 -8.5q-38 -2 -38 -53l2 -44l-3 -159q0 -167 35 -175q12 -3 35 -3l137 16l52 -8q51 0 51 148l-3 99h6q25 0 47 -8t39 -8t22 1l14 -81q0 -26 -28 -33q18 -32 18 -57l-4 -43q0 -10 6.5 -15.5t6.5 -15t-9.5 -27.5t-9.5 -38.5t4 -44.5t9 -50 q13 -68 13 -95t-1.5 -44t-6.5 -32q-13 -35 -40 -51q-77 8 -77 146q0 47 -45 62q-27 9 -63 9t-65.5 -3t-58.5 -11q-72 -18 -72 -56l5 -47l-2 -41l6 -107l-15 -114q0 -94 159 -94l192 12l120 -6q107 0 148 35q19 15 22 33.5t7.5 22t10.5 6.5q13 6 13 14.5t-6 19t-9 24.5 q-4 19 -4 60.5t9.5 64t9.5 49.5l-1 30q0 16 33 24.5t48.5 8.5t31.5 -17.5t25 -42.5q14 -43 14 -86t-5 -82t-13 -80q-33 -157 -66 -179q-6 -5 -13.5 -9.5t-16.5 -14.5q-13 -15 -78 -15l-62 2q-33 0 -53.5 -8t-36 -8t-19.5 5.5t-11.5 5.5t-13.5 -6t-18 -6l-50 1 q-75 0 -149 -4.5t-137 -6.5t-113 -12t-84.5 -10t-57.5 3.5t-43 12.5q-49 21 -49 63q0 49 101 111q24 14 39 27q-1 8 -1 15v18q0 53 12.5 71.5t12.5 26.5t-2.5 14t-8.5 23q-16 41 -16 98t17 105q-14 24 -14 43l14 142q-1 3 -1 10l6 37l-16 91q0 8 4 19t8 24q13 36 13 62 l-13 47l12 50q0 25 -17.5 62t-24 52.5t-15.5 24.5q-16 17 -49.5 19.5t-46 10t-21.5 19.5q-22 27 -22 49zM274 1734.5q0 20.5 3.5 33.5t10.5 23q16 23 37 23q76 0 95 -44q7 -17 30.5 -37.5t40 -35.5t30.5 -25q16 -13 57.5 -34.5t60 -34.5t36.5 -29t31.5 -32t13.5 -26 t-4.5 -19.5t-11.5 -17.5q-17 -19 -35 -19t-28.5 13t-21.5 22.5t-21 12.5q-22 6 -29.5 19.5t-24.5 22.5t-29.5 16.5l-22.5 13.5q-65 41 -86 44.5t-36 5.5q-36 3 -50.5 12t-22 21t-13.5 25q-10 26 -10 46.5zM318 741q49 -28 78.5 -56.5t35.5 -30t13 14.5t-3.5 32t-29.5 27 q-40 24 -65.5 24t-28.5 -11z" />
<glyph unicode="&#xc9;" horiz-adv-x="1308" d="M78 1318q0 22 16 34.5t41 20t56 12t60.5 7t54 3.5t40.5 3q30 5 75 5l157 -5l165 16q38 0 75 -8.5t72.5 -8.5t69.5 8.5t59 8.5t40 -3q22 -24 40.5 -40t32.5 -33q34 -42 34 -124t21 -88q0 -14 -14 -14q1 -14 6 -28.5t10 -29.5q13 -37 13 -48.5t-5 -23.5t-11 -26 q-16 -33 -25 -42l2 -1q-2 0 -4 -1h-5q-4 -1 -8 -1h-10l4 1q-59 3 -78 52q-17 44 -17 60l3 34l-12 122q0 46 23 74h-5q-12 0 -19 7.5t-34 7.5t-63 -9t-76 -9l-65 1l-119 -14q-3 0 -3 1l14 11q0 4 -7 4h-8q-8 0 -13.5 -8t-18.5 -11.5t-30 -3.5h-33q-114 0 -119 38 q-14 -4 -18.5 -19t-9.5 -21.5t-26 -8.5q-38 -2 -38 -53l2 -44l-3 -159q0 -167 35 -175q12 -3 35 -3l137 16l52 -8q51 0 51 148l-3 99h6q25 0 47 -8t39 -8t22 1l14 -81q0 -26 -28 -33q18 -32 18 -57l-4 -43q0 -10 6.5 -15.5t6.5 -15t-9.5 -27.5t-9.5 -38.5t4 -44.5t9 -50 q13 -68 13 -95t-1.5 -44t-6.5 -32q-13 -35 -40 -51q-77 8 -77 146q0 47 -45 62q-27 9 -63 9t-65.5 -3t-58.5 -11q-72 -18 -72 -56l5 -47l-2 -41l6 -107l-15 -114q0 -94 159 -94l192 12l120 -6q107 0 148 35q19 15 22 33.5t7.5 22t10.5 6.5q13 6 13 14.5t-6 19t-9 24.5 q-4 19 -4 60.5t9.5 64t9.5 49.5l-1 30q0 16 33 24.5t48.5 8.5t31.5 -17.5t25 -42.5q14 -43 14 -86t-5 -82t-13 -80q-33 -157 -66 -179q-6 -5 -13.5 -9.5t-16.5 -14.5q-13 -15 -78 -15l-62 2q-33 0 -53.5 -8t-36 -8t-19.5 5.5t-11.5 5.5t-13.5 -6t-18 -6l-50 1 q-75 0 -149 -4.5t-137 -6.5t-113 -12t-84.5 -10t-57.5 3.5t-43 12.5q-49 21 -49 63q0 49 101 111q24 14 39 27q-1 8 -1 15v18q0 53 12.5 71.5t12.5 26.5t-2.5 14t-8.5 23q-16 41 -16 98t17 105q-14 24 -14 43l14 142q-1 3 -1 10l6 37l-16 91q0 8 4 19t8 24q13 36 13 62 l-13 47l12 50q0 25 -17.5 62t-24 52.5t-15.5 24.5q-16 17 -49.5 19.5t-46 10t-21.5 19.5q-22 27 -22 49zM318 741q49 -28 78.5 -56.5t35.5 -30t13 14.5t-3.5 32t-29.5 27q-40 24 -65.5 24t-28.5 -11zM597 1508q0 10 13.5 26t31.5 32q37 33 70 50t51.5 27t32.5 20.5 t30.5 25.5t40 35.5t31 38t19.5 26.5q25 17 54.5 17t40 -6.5t17.5 -16.5q14 -20 14 -40.5t-2.5 -34.5t-8.5 -27q-13 -33 -27.5 -42.5t-28.5 -12.5t-29 -5q-51 -5 -121 -48q-29 -18 -49.5 -29t-25.5 -20q-10 -18 -26 -22.5t-27 -14t-21.5 -22.5t-25 -13t-23 5.5t-15.5 13.5 t-11.5 17.5t-4.5 19.5z" />
<glyph unicode="&#xca;" horiz-adv-x="1308" d="M78 1318q0 22 16 34.5t41 20t56 12t60.5 7t54 3.5t40.5 3q30 5 75 5l157 -5l165 16q38 0 75 -8.5t72.5 -8.5t69.5 8.5t59 8.5t40 -3q22 -24 40.5 -40t32.5 -33q34 -42 34 -124t21 -88q0 -14 -14 -14q1 -14 6 -28.5t10 -29.5q13 -37 13 -48.5t-5 -23.5t-11 -26 q-16 -33 -25 -42l2 -1q-2 0 -4 -1h-5q-4 -1 -8 -1h-10l4 1q-59 3 -78 52q-17 44 -17 60l3 34l-12 122q0 46 23 74h-5q-12 0 -19 7.5t-34 7.5t-63 -9t-76 -9l-65 1l-119 -14q-3 0 -3 1l14 11q0 4 -7 4h-8q-8 0 -13.5 -8t-18.5 -11.5t-30 -3.5h-33q-114 0 -119 38 q-14 -4 -18.5 -19t-9.5 -21.5t-26 -8.5q-38 -2 -38 -53l2 -44l-3 -159q0 -167 35 -175q12 -3 35 -3l137 16l52 -8q51 0 51 148l-3 99h6q25 0 47 -8t39 -8t22 1l14 -81q0 -26 -28 -33q18 -32 18 -57l-4 -43q0 -10 6.5 -15.5t6.5 -15t-9.5 -27.5t-9.5 -38.5t4 -44.5t9 -50 q13 -68 13 -95t-1.5 -44t-6.5 -32q-13 -35 -40 -51q-77 8 -77 146q0 47 -45 62q-27 9 -63 9t-65.5 -3t-58.5 -11q-72 -18 -72 -56l5 -47l-2 -41l6 -107l-15 -114q0 -94 159 -94l192 12l120 -6q107 0 148 35q19 15 22 33.5t7.5 22t10.5 6.5q13 6 13 14.5t-6 19t-9 24.5 q-4 19 -4 60.5t9.5 64t9.5 49.5l-1 30q0 16 33 24.5t48.5 8.5t31.5 -17.5t25 -42.5q14 -43 14 -86t-5 -82t-13 -80q-33 -157 -66 -179q-6 -5 -13.5 -9.5t-16.5 -14.5q-13 -15 -78 -15l-62 2q-33 0 -53.5 -8t-36 -8t-19.5 5.5t-11.5 5.5t-13.5 -6t-18 -6l-50 1 q-75 0 -149 -4.5t-137 -6.5t-113 -12t-84.5 -10t-57.5 3.5t-43 12.5q-49 21 -49 63q0 49 101 111q24 14 39 27q-1 8 -1 15v18q0 53 12.5 71.5t12.5 26.5t-2.5 14t-8.5 23q-16 41 -16 98t17 105q-14 24 -14 43l14 142q-1 3 -1 10l6 37l-16 91q0 8 4 19t8 24q13 36 13 62 l-13 47l12 50q0 25 -17.5 62t-24 52.5t-15.5 24.5q-16 17 -49.5 19.5t-46 10t-21.5 19.5q-22 27 -22 49zM318 741q49 -28 78.5 -56.5t35.5 -30t13 14.5t-3.5 32t-29.5 27q-40 24 -65.5 24t-28.5 -11zM351 1492.5q0 27.5 12 47t29 36.5t35 33.5t30 37.5l14 26q19 12 33.5 36 t29.5 48q37 60 66 60t52.5 -19.5t47 -45t46 -51.5t36 -34.5t18 -15.5t8.5 -15q10 -21 22 -29t27.5 -10t23.5 -8.5t15 -17.5t14 -23.5t12.5 -24.5t5.5 -25.5t-17.5 -25.5t-36.5 -12t-29 2.5t-17 8.5t-12.5 15t-13 20t-22.5 26t-33 30q-43 36 -63 44q-7 8 -13.5 17t-13.5 17 q-19 19 -38 21q-26 -14 -47 -45.5t-29 -36.5t-14.5 -7.5t-11.5 -10.5q-2 -17 -9 -24.5t-20.5 -21t-18.5 -28t-15.5 -34t-34.5 -19.5t-46 15.5t-22 43z" />
<glyph unicode="&#xcb;" horiz-adv-x="1308" d="M78 1318q0 22 16 34.5t41 20t56 12t60.5 7t54 3.5t40.5 3q30 5 75 5l157 -5l165 16q38 0 75 -8.5t72.5 -8.5t69.5 8.5t59 8.5t40 -3q22 -24 40.5 -40t32.5 -33q34 -42 34 -124t21 -88q0 -14 -14 -14q1 -14 6 -28.5t10 -29.5q13 -37 13 -48.5t-5 -23.5t-11 -26 q-16 -33 -25 -42l2 -1q-2 0 -4 -1h-5q-4 -1 -8 -1h-10l4 1q-59 3 -78 52q-17 44 -17 60l3 34l-12 122q0 46 23 74h-5q-12 0 -19 7.5t-34 7.5t-63 -9t-76 -9l-65 1l-119 -14q-3 0 -3 1l14 11q0 4 -7 4h-8q-8 0 -13.5 -8t-18.5 -11.5t-30 -3.5h-33q-114 0 -119 38 q-14 -4 -18.5 -19t-9.5 -21.5t-26 -8.5q-38 -2 -38 -53l2 -44l-3 -159q0 -167 35 -175q12 -3 35 -3l137 16l52 -8q51 0 51 148l-3 99h6q25 0 47 -8t39 -8t22 1l14 -81q0 -26 -28 -33q18 -32 18 -57l-4 -43q0 -10 6.5 -15.5t6.5 -15t-9.5 -27.5t-9.5 -38.5t4 -44.5t9 -50 q13 -68 13 -95t-1.5 -44t-6.5 -32q-13 -35 -40 -51q-77 8 -77 146q0 47 -45 62q-27 9 -63 9t-65.5 -3t-58.5 -11q-72 -18 -72 -56l5 -47l-2 -41l6 -107l-15 -114q0 -94 159 -94l192 12l120 -6q107 0 148 35q19 15 22 33.5t7.5 22t10.5 6.5q13 6 13 14.5t-6 19t-9 24.5 q-4 19 -4 60.5t9.5 64t9.5 49.5l-1 30q0 16 33 24.5t48.5 8.5t31.5 -17.5t25 -42.5q14 -43 14 -86t-5 -82t-13 -80q-33 -157 -66 -179q-6 -5 -13.5 -9.5t-16.5 -14.5q-13 -15 -78 -15l-62 2q-33 0 -53.5 -8t-36 -8t-19.5 5.5t-11.5 5.5t-13.5 -6t-18 -6l-50 1 q-75 0 -149 -4.5t-137 -6.5t-113 -12t-84.5 -10t-57.5 3.5t-43 12.5q-49 21 -49 63q0 49 101 111q24 14 39 27q-1 8 -1 15v18q0 53 12.5 71.5t12.5 26.5t-2.5 14t-8.5 23q-16 41 -16 98t17 105q-14 24 -14 43l14 142q-1 3 -1 10l6 37l-16 91q0 8 4 19t8 24q13 36 13 62 l-13 47l12 50q0 25 -17.5 62t-24 52.5t-15.5 24.5q-16 17 -49.5 19.5t-46 10t-21.5 19.5q-22 27 -22 49zM318 741q49 -28 78.5 -56.5t35.5 -30t13 14.5t-3.5 32t-29.5 27q-40 24 -65.5 24t-28.5 -11zM320 1593q0 25 1.5 35t12.5 22.5t14 22t10.5 17.5t19 14.5t24.5 10.5 q26 9 55 9t54 -14t42 -36t26 -50.5t9 -47t-3 -23.5t-7 -10q-11 -12 -14 -25q-23 -29 -44 -42.5t-50 -13.5h-40q-17 0 -26.5 9t-19 16t-16 10t-10.5 9.5t-5 15t-6.5 18t-10.5 13.5t-8 8q-8 7 -8 32zM693 1564.5q0 25.5 1 47t6 42.5q15 71 66 81q17 4 27 9t28.5 5t46 -7 t48 -22.5t32 -39.5t11.5 -60t-1.5 -64t-11.5 -48q-18 -39 -94 -52q-8 -2 -14 -4t-19.5 -2t-36.5 12.5t-42 31.5q-47 45 -47 70.5z" />
<glyph unicode="&#xcc;" horiz-adv-x="1014" d="M54 1300q0 41 64 112q23 23 130 23l82 -1q102 0 158 8t57 12q6 -3 14.5 -9.5t18.5 -12.5q25 -16 31.5 -16t10 4.5t6.5 10.5q4 11 4 23h7q37 0 37 -44q0 -4 -0.5 -7t-0.5 -6q14 3 19.5 18t10 21t12 6t15.5 -2h7q60 -49 66 -49l13 -1q0 4 -10 12q-19 14 -19 23q18 0 27 8 q18 16 30 16t19 -4t12 -8.5t9 -8.5t11 -4l17 2q9 0 12 -16t5 -24t5 -14t7.5 -12.5t11.5 -16.5t7 -20t-7.5 -19t-18 -17.5t-21.5 -15.5t-23 -17t-36 -10l-61 8q-7 0 -15 -6q-12 -7 -33.5 -7t-35 7.5t-14.5 15.5l7 7q-17 -6 -19.5 -16t-3.5 -17t-5.5 -15.5t-15 -10.5t-20.5 -9 q-27 -18 -27 -87l4 -73l-12 -144l-13 -84q0 -31 26 -43q-21 -9 -21 -94v-11q0 -31 7.5 -38.5t7.5 -19.5l-8 -47l13 -195l-13 -128q0 -74 76 -84q22 -3 46 -3l150 13q37 0 57.5 -23t20.5 -54.5t-8.5 -55t-23.5 -40.5q-34 -38 -88 -38q-20 0 -52 6q-68 14 -155 14l-140 -3 l-166 2l-57 10q-11 0 -38 -7q-52 -15 -75 -15q-91 0 -91 74q0 13 2 23.5t10.5 26.5t19.5 31q28 38 41.5 38t21 -4t17.5 -10q23 -13 56 -13t72 7t72 24q74 41 74 118q0 16 -2 31.5t-6 49.5q-6 51 -6 139.5t9 121t9 67.5l-14 75l5 37l-9 84l15 140q0 27 -11 65q-20 74 -20 94 t3 34q-8 19 -31 31.5t-35.5 19.5t-19.5 20q-10 -1 -12 -15q-4 -27 -16 -28q-65 -7 -113 -7q-136 0 -136 67zM81 1779.5q0 20.5 3.5 33.5t10.5 23q16 23 37 23q76 0 95 -44q7 -17 30.5 -37.5t40 -35.5t30.5 -25q16 -13 57.5 -34.5t60 -34.5t36.5 -29t31.5 -32t13.5 -26 t-4.5 -19.5t-11.5 -17.5q-17 -19 -35 -19t-28.5 13t-21.5 22.5t-21 12.5q-22 6 -29.5 19.5t-24.5 22.5t-29.5 16.5l-22.5 13.5q-65 41 -86 44.5t-36 5.5q-36 3 -50.5 12t-22 21t-13.5 25q-10 26 -10 46.5zM420 1248q3 -15 21 -15t18 25q6 8 -3 18t-20 10q-24 0 -16 -38z" />
<glyph unicode="&#xcd;" horiz-adv-x="1014" d="M54 1300q0 41 64 112q23 23 130 23l82 -1q102 0 158 8t57 12q6 -3 14.5 -9.5t18.5 -12.5q25 -16 31.5 -16t10 4.5t6.5 10.5q4 11 4 23h7q37 0 37 -44q0 -4 -0.5 -7t-0.5 -6q14 3 19.5 18t10 21t12 6t15.5 -2h7q60 -49 66 -49l13 -1q0 4 -10 12q-19 14 -19 23q18 0 27 8 q18 16 30 16t19 -4t12 -8.5t9 -8.5t11 -4l17 2q9 0 12 -16t5 -24t5 -14t7.5 -12.5t11.5 -16.5t7 -20t-7.5 -19t-18 -17.5t-21.5 -15.5t-23 -17t-36 -10l-61 8q-7 0 -15 -6q-12 -7 -33.5 -7t-35 7.5t-14.5 15.5l7 7q-17 -6 -19.5 -16t-3.5 -17t-5.5 -15.5t-15 -10.5t-20.5 -9 q-27 -18 -27 -87l4 -73l-12 -144l-13 -84q0 -31 26 -43q-21 -9 -21 -94v-11q0 -31 7.5 -38.5t7.5 -19.5l-8 -47l13 -195l-13 -128q0 -74 76 -84q22 -3 46 -3l150 13q37 0 57.5 -23t20.5 -54.5t-8.5 -55t-23.5 -40.5q-34 -38 -88 -38q-20 0 -52 6q-68 14 -155 14l-140 -3 l-166 2l-57 10q-11 0 -38 -7q-52 -15 -75 -15q-91 0 -91 74q0 13 2 23.5t10.5 26.5t19.5 31q28 38 41.5 38t21 -4t17.5 -10q23 -13 56 -13t72 7t72 24q74 41 74 118q0 16 -2 31.5t-6 49.5q-6 51 -6 139.5t9 121t9 67.5l-14 75l5 37l-9 84l15 140q0 27 -11 65q-20 74 -20 94 t3 34q-8 19 -31 31.5t-35.5 19.5t-19.5 20q-10 -1 -12 -15q-4 -27 -16 -28q-65 -7 -113 -7q-136 0 -136 67zM420 1248q3 -15 21 -15t18 25q6 8 -3 18t-20 10q-24 0 -16 -38zM492 1550q0 10 13.5 26t31.5 32q37 33 70 50t51.5 27t32.5 20.5t30.5 25.5t40 35.5t31 38 t19.5 26.5q25 17 54.5 17t40 -6.5t17.5 -16.5q14 -20 14 -40.5t-2.5 -34.5t-8.5 -27q-13 -33 -27.5 -42.5t-28.5 -12.5t-29 -5q-51 -5 -121 -48q-29 -18 -49.5 -29t-25.5 -20q-10 -18 -26 -22.5t-27 -14t-21.5 -22.5t-25 -13t-23 5.5t-15.5 13.5t-11.5 17.5t-4.5 19.5z" />
<glyph unicode="&#xce;" horiz-adv-x="1014" d="M54 1300q0 41 64 112q23 23 130 23l82 -1q102 0 158 8t57 12q6 -3 14.5 -9.5t18.5 -12.5q25 -16 31.5 -16t10 4.5t6.5 10.5q4 11 4 23h7q37 0 37 -44q0 -4 -0.5 -7t-0.5 -6q14 3 19.5 18t10 21t12 6t15.5 -2h7q60 -49 66 -49l13 -1q0 4 -10 12q-19 14 -19 23q18 0 27 8 q18 16 30 16t19 -4t12 -8.5t9 -8.5t11 -4l17 2q9 0 12 -16t5 -24t5 -14t7.5 -12.5t11.5 -16.5t7 -20t-7.5 -19t-18 -17.5t-21.5 -15.5t-23 -17t-36 -10l-61 8q-7 0 -15 -6q-12 -7 -33.5 -7t-35 7.5t-14.5 15.5l7 7q-17 -6 -19.5 -16t-3.5 -17t-5.5 -15.5t-15 -10.5t-20.5 -9 q-27 -18 -27 -87l4 -73l-12 -144l-13 -84q0 -31 26 -43q-21 -9 -21 -94v-11q0 -31 7.5 -38.5t7.5 -19.5l-8 -47l13 -195l-13 -128q0 -74 76 -84q22 -3 46 -3l150 13q37 0 57.5 -23t20.5 -54.5t-8.5 -55t-23.5 -40.5q-34 -38 -88 -38q-20 0 -52 6q-68 14 -155 14l-140 -3 l-166 2l-57 10q-11 0 -38 -7q-52 -15 -75 -15q-91 0 -91 74q0 13 2 23.5t10.5 26.5t19.5 31q28 38 41.5 38t21 -4t17.5 -10q23 -13 56 -13t72 7t72 24q74 41 74 118q0 16 -2 31.5t-6 49.5q-6 51 -6 139.5t9 121t9 67.5l-14 75l5 37l-9 84l15 140q0 27 -11 65q-20 74 -20 94 t3 34q-8 19 -31 31.5t-35.5 19.5t-19.5 20q-10 -1 -12 -15q-4 -27 -16 -28q-65 -7 -113 -7q-136 0 -136 67zM218 1540.5q0 27.5 12 47t29 36.5t35 33.5t30 37.5l14 26q19 12 33.5 36t29.5 48q37 60 66 60t52.5 -19.5t47 -45t46 -51.5t36 -34.5t18 -15.5t8.5 -15 q10 -21 22 -29t27.5 -10t23.5 -8.5t15 -17.5t14 -23.5t12.5 -24.5t5.5 -25.5t-17.5 -25.5t-36.5 -12t-29 2.5t-17 8.5t-12.5 15t-13 20t-22.5 26t-33 30q-43 36 -63 44q-7 8 -13.5 17t-13.5 17q-19 19 -38 21q-26 -14 -47 -45.5t-29 -36.5t-14.5 -7.5t-11.5 -10.5 q-2 -17 -9 -24.5t-20.5 -21t-18.5 -28t-15.5 -34t-34.5 -19.5t-46 15.5t-22 43zM420 1248q3 -15 21 -15t18 25q6 8 -3 18t-20 10q-24 0 -16 -38z" />
<glyph unicode="&#xcf;" horiz-adv-x="1014" d="M54 1300q0 41 64 112q23 23 130 23l82 -1q102 0 158 8t57 12q6 -3 14.5 -9.5t18.5 -12.5q25 -16 31.5 -16t10 4.5t6.5 10.5q4 11 4 23h7q37 0 37 -44q0 -4 -0.5 -7t-0.5 -6q14 3 19.5 18t10 21t12 6t15.5 -2h7q60 -49 66 -49l13 -1q0 4 -10 12q-19 14 -19 23q18 0 27 8 q18 16 30 16t19 -4t12 -8.5t9 -8.5t11 -4l17 2q9 0 12 -16t5 -24t5 -14t7.5 -12.5t11.5 -16.5t7 -20t-7.5 -19t-18 -17.5t-21.5 -15.5t-23 -17t-36 -10l-61 8q-7 0 -15 -6q-12 -7 -33.5 -7t-35 7.5t-14.5 15.5l7 7q-17 -6 -19.5 -16t-3.5 -17t-5.5 -15.5t-15 -10.5t-20.5 -9 q-27 -18 -27 -87l4 -73l-12 -144l-13 -84q0 -31 26 -43q-21 -9 -21 -94v-11q0 -31 7.5 -38.5t7.5 -19.5l-8 -47l13 -195l-13 -128q0 -74 76 -84q22 -3 46 -3l150 13q37 0 57.5 -23t20.5 -54.5t-8.5 -55t-23.5 -40.5q-34 -38 -88 -38q-20 0 -52 6q-68 14 -155 14l-140 -3 l-166 2l-57 10q-11 0 -38 -7q-52 -15 -75 -15q-91 0 -91 74q0 13 2 23.5t10.5 26.5t19.5 31q28 38 41.5 38t21 -4t17.5 -10q23 -13 56 -13t72 7t72 24q74 41 74 118q0 16 -2 31.5t-6 49.5q-6 51 -6 139.5t9 121t9 67.5l-14 75l5 37l-9 84l15 140q0 27 -11 65q-20 74 -20 94 t3 34q-8 19 -31 31.5t-35.5 19.5t-19.5 20q-10 -1 -12 -15q-4 -27 -16 -28q-65 -7 -113 -7q-136 0 -136 67zM187 1648q0 25 1.5 35t12.5 22.5t14 22t10.5 17.5t19 14.5t24.5 10.5q26 9 55 9t54 -14t42 -36t26 -50.5t9 -47t-3 -23.5t-7 -10q-11 -12 -14 -25 q-23 -29 -44 -42.5t-50 -13.5h-40q-17 0 -26.5 9t-19 16t-16 10t-10.5 9.5t-5 15t-6.5 18t-10.5 13.5t-8 8q-8 7 -8 32zM420 1248q3 -15 21 -15t18 25q6 8 -3 18t-20 10q-24 0 -16 -38zM560 1619.5q0 25.5 1 47t6 42.5q15 71 66 81q17 4 27 9t28.5 5t46 -7t48 -22.5 t32 -39.5t11.5 -60t-1.5 -64t-11.5 -48q-18 -39 -94 -52q-8 -2 -14 -4t-19.5 -2t-36.5 12.5t-42 31.5q-47 45 -47 70.5z" />
<glyph unicode="&#xd0;" horiz-adv-x="1276" d="M74 763v17q10 8 32 12q39 9 48 21q39 -44 90 -44q18 0 33.5 10.5t15.5 26t-4 28t-9 24.5q-11 32 -11 51l2 76q0 49 -8.5 79t-9.5 54t-6 44q-11 43 -66 55q-12 2 -22 11q-18 16 -40 19q-44 6 -44 45.5t22 69t53 50.5q63 42 121 42h43l115 5q49 0 72 -9.5t34.5 -9.5 t21.5 8.5t15 8.5t5 -2l-1 -9q0 -6 6.5 -6t9 6t11.5 8q7 -3 11 -6.5t8 -6.5q8 -7 23 -7l84 7q64 0 133 -62q49 -43 65 -50.5t29 -14.5q33 -16 44.5 -40.5t25 -44t26.5 -37.5q67 -92 81.5 -177t22.5 -128.5t14 -70t6 -52.5l-10 -54q0 -12 7 -25q13 -23 13 -47.5t-6 -64 t-16.5 -83t-24 -89.5t-28.5 -89q-47 -134 -79 -161q-12 -11 -25 -22q-33 -28 -33 -43q-48 -6 -79 -19t-36.5 -23t-8.5 -17.5t-4 -10.5q-2 -5 -10 -5q-4 0 -20 -4.5t-37 -9.5q-59 -14 -80 -14l-85 14q-14 0 -38 -9q-56 -21 -131 -21l-141 19q-28 -7 -56 -7q-40 0 -87 7 q-3 15 -9.5 28.5t-12.5 27.5q-16 37 -16 60.5t13 35t33 16t42.5 7t42.5 11.5q46 21 46 85q0 32 -8 74q-15 79 -15 111l6 67q0 27 -3.5 53.5t-5.5 53.5q-9 -2 -12 -9t-8 -13q-17 3 -35 3t-61 -9q-84 32 -84 175zM170 731q0 -16 12 -16.5t14 5t2.5 12t1 14t3.5 12.5l-6 1 q-11 0 -19 -10t-8 -18zM433 838q0 -66 65 -66l73 5q13 0 24 -3q8 22 33 35q19 -9 41.5 -15.5t42.5 -15.5q47 -20 57 -55q-3 -10 -8 -10l-23 6h-4q0 -11 12 -13q22 -4 23 -10q-1 -4 -1 -8v-6q0 -26 11 -43q-15 -30 -31.5 -45.5t-20.5 -15.5l-83 14q-13 0 -18 -5 q-39 6 -71.5 19.5t-55.5 13.5q-41 0 -41 -87l-15 -227q0 -71 17 -91t42 -29q85 -29 112 -29t46 9.5t35.5 14.5t33 8.5t32.5 8.5q37 10 53.5 28.5t30.5 31.5t32.5 16.5t22 10t4.5 15.5q5 25 19.5 35.5t23 26.5t12.5 34t6.5 36.5t10.5 47.5t22.5 70t14.5 83l-10 39 q0 6 2.5 7.5t5.5 4.5q8 6 8 26q0 82 -45 145q17 17 17 55l-3 59q0 12 -19 27t-22.5 24t-5 16.5t-2.5 14.5q-2 15 -11 29q-14 22 -14 35.5t3 24.5q-11 21 -43 24.5t-48.5 12.5t-34.5 20q-47 29 -75 29t-56 -5t-53.5 -8.5t-51.5 -4t-49 -5.5q-52 -12 -52 -61l9 -145 q0 -28 -11 -64q-19 -67 -19 -95z" />
<glyph unicode="&#xd1;" horiz-adv-x="1286" d="M84 42q0 30 20 54.5t42.5 28.5t41 4t36.5 1q43 4 61 27q-4 15 -4 42t9 60t9 57.5t-7.5 66.5t-7.5 112l2 81q0 52 -7.5 103t-9.5 104.5t-2 107t-7 87.5q-8 39 -8 74v36q0 76 -14 89.5t-29.5 16t-33.5 5t-31.5 13.5t-25.5 26q-26 35 -26 60v22q0 99 94 106q29 2 62 2 q191 0 241 -83q17 -29 29 -65q25 -77 33.5 -91.5t11 -25t5.5 -21.5q6 -26 13.5 -36t17 -18.5t16.5 -23.5t10.5 -36.5t6.5 -43.5q11 -75 23.5 -93.5t16.5 -26.5q12 -18 16 -62t11 -62t17 -31t20 -25q30 -36 38 -60.5t17 -50.5t35 -46q-15 -23 -15 -42.5t10.5 -40t17.5 -37.5 q15 -37 32.5 -45.5t22.5 -14t6 -12t0.5 -15t1.5 -18t5 -18t7 -16.5q11 -21 26 -21t15 26t7.5 37.5t7.5 27.5t-7.5 30t-7.5 31l11 51q0 10 -7.5 17t-7.5 12t3 5.5t6 1.5q9 3 9 20t-5.5 39.5t-12.5 45.5q-18 59 -18 94q0 24 10 42t10 24l-13 47l15 57q0 12 -9 28 q-22 40 -23 65.5t-1 41.5v43q0 59 -9 93.5t-10 54.5t-6 35q-11 33 -65 36q-23 2 -46 2.5t-42 5.5t-26.5 18t-10.5 29t-3 33v26q0 48 114 64q26 3 37.5 3t34.5 -1t51 -4t58 -7.5t55 -12.5q57 -17 57 -40q22 24 40 24t29.5 -7.5t19.5 -19.5q17 -25 17 -53.5t-20 -28.5 q-6 0 -12 9q-9 16 -16 18q2 -47 -9 -48q-3 -1 -9 -1q-13 0 -31.5 -4.5t-30 -6t-16.5 -6.5t-8 -37q-5 -54 -5 -85l9 -188l-7 -90q0 -20 8.5 -39.5t8.5 -30.5t-3.5 -15.5t-7.5 -9.5q-12 -13 -12 -25l15 -81q0 -39 -9 -100q-16 -117 -16 -149q0 -62 9 -85q13 -33 13 -43 t-6.5 -18.5t-6.5 -14t6.5 -12.5t10.5 -21q13 -41 13 -78t-11 -57t-29 -35q-41 -36 -79 -36t-59.5 19t-37 46.5t-28 57.5t-23.5 50t-16.5 36.5t-11.5 32.5q-14 38 -33.5 56t-26.5 34.5t-11.5 35t-8 37t-11 46t-22.5 65.5t-24.5 63t-17 40t-15.5 30q-21 39 -23.5 63.5 t-15.5 51t-28 50.5q-42 67 -46 91t-9 40.5t-13 32.5q-20 41 -42 41q-35 0 -35 -86l5 -80l-12 -57q0 -9 6.5 -15t6.5 -14l-4 -31l5 -97q0 -97 -59 -106q6 -11 18.5 -13t17.5 -4t5 -11l-1 -16q0 -15 10 -27q20 -21 20 -34l-6 -45l12 -93q0 -23 -8.5 -28t-8.5 -11l6 -37 q0 -15 -8 -23q1 -16 18 -23q33 -14 38 -25t9.5 -18.5t18.5 -7.5t28 7.5t30 7.5q46 0 46 -63q0 -42 -31 -57q-11 -5 -20.5 -10t-9.5 -13t0.5 -9t0.5 -3q-47 30 -121 9q-30 -9 -60 -9l-86 8l-55 -7q-33 0 -68 17q-67 32 -67 53zM226 87q0 -7 5 -11.5t13 -6.5q19 -5 26 -12 q2 6 2 13t-5 11.5t-13 6.5q-21 6 -26 12q-2 -6 -2 -13zM360 1530l6 39q0 10 11 22q27 29 30 37.5t7 16t22 17t39 17.5q50 19 71.5 19t40.5 -6.5t41 -9.5l10 -16q15 -6 23 -21q13 -3 40 -19q51 -32 65.5 -32t25 17.5t20 39t23 39t35 17.5t33.5 -9t21 -22q17 -27 17 -53 t-3 -39.5t-9 -23.5t-15.5 -19t-20.5 -21t-18.5 -22t-16 -15.5t-20.5 -5.5h-22l-32 -6l-84 10q-9 2 -51 32q-76 54 -101 54q-21 -7 -40 -13t-21 -7q-4 -18 -29.5 -48t-33.5 -30q-24 0 -38 14q-5 11 -15.5 23t-10.5 24z" />
<glyph unicode="&#xd2;" horiz-adv-x="1263" d="M88 894l14 26q5 12 8.5 30t9 45t18 66t24.5 82q28 96 91 143q42 34 51 68q8 6 23 6h8q16 0 29 11q25 23 48.5 23t60.5 -8q21 20 31 25v-3q0 -11 8 -11q13 0 25 6t33 9.5t50 14t60 10.5t67.5 -4t71.5 -15q81 -25 113 -81q12 -21 26 -30l22 -15q28 -20 43.5 -54.5 t38.5 -56.5q49 -45 49 -125l-6 -45q0 -14 11 -35q18 -38 21.5 -62t9.5 -49.5t13 -56.5q27 -115 1 -214q-13 -51 -13 -80l3 -31q0 -31 -15 -59.5t-16.5 -44.5t-1.5 -32q-2 -40 -16 -62q-2 -10 -5.5 -29.5t-6.5 -24.5t-8 -6t-11 -2q-25 -4 -33 -27q-13 -40 -31 -40q-9 0 -23 7 q-24 12 -38 8q3 -2 2 -9.5t0 -15.5q5 -22 24 -22q27 0 45 4q-13 -35 -35 -50.5t-36.5 -25t-30 -25.5t-31 -20t-38 -10.5t-32.5 -16.5t-22 -19q-50 -37 -255 -11q-30 3 -55.5 18.5t-37 20t-22.5 9t-23 9.5q-42 17 -46 29.5t-6 21.5q-5 22 -14 28q-28 4 -57 14 q-4 11 -7.5 21.5t-7.5 21.5q-13 14 -25 23.5t-21 19.5q-21 23 -24 54t-12 55.5t-19 48.5q-24 62 -24 94.5t11 60.5q-43 61 -43 187l1 62q0 17 -7.5 26.5t-7.5 27.5t6.5 39t8.5 43q-13 2 -17 10zM219 1756.5q0 20.5 3.5 33.5t10.5 23q16 23 37 23q76 0 95 -44 q7 -17 30.5 -37.5t40 -35.5t30.5 -25q16 -13 57.5 -34.5t60 -34.5t36.5 -29t31.5 -32t13.5 -26t-4.5 -19.5t-11.5 -17.5q-17 -19 -35 -19t-28.5 13t-21.5 22.5t-21 12.5q-22 6 -29.5 19.5t-24.5 22.5t-29.5 16.5l-22.5 13.5q-65 41 -86 44.5t-36 5.5q-36 3 -50.5 12t-22 21 t-13.5 25q-10 26 -10 46.5zM260 692q0 -111 12 -136t12 -42l-10 -45q0 -14 8 -22.5t15 -18t11.5 -22t9.5 -23.5q11 -27 17 -27l14 3q20 0 30.5 -17.5t10.5 -33t8 -25t19 -17.5t22.5 -15.5t22 -19.5t18 -17t13.5 -6.5t11.5 -2.5t15.5 -8t21.5 -16.5t32.5 -24.5 q34 -24 135 -24q20 0 43 16q45 29 62.5 29t31.5 -6q23 35 44 56t38 41q38 45 46 117q2 19 10.5 35.5t12 45.5t4 69t4.5 68q6 42 6 87.5t-9.5 100.5t-16 92.5t-15 55.5t-17.5 45.5t-20 63.5t-20 65t-30 45.5t-49 28t-60.5 19t-62.5 12.5q-50 7 -94 7l-85 4q-47 0 -73.5 -21 t-55.5 -43.5t-41.5 -48.5t-19.5 -31.5t-14 -10.5q-15 -14 -19 -39.5t-10.5 -54t-6.5 -58.5q0 -64 -13 -96q-18 -44 -18 -56.5t7 -23t7 -16.5t-2.5 -6.5t-4.5 -1.5q-8 -5 -8 -30z" />
<glyph unicode="&#xd3;" horiz-adv-x="1263" d="M88 894l14 26q5 12 8.5 30t9 45t18 66t24.5 82q28 96 91 143q42 34 51 68q8 6 23 6h8q16 0 29 11q25 23 48.5 23t60.5 -8q21 20 31 25v-3q0 -11 8 -11q13 0 25 6t33 9.5t50 14t60 10.5t67.5 -4t71.5 -15q81 -25 113 -81q12 -21 26 -30l22 -15q28 -20 43.5 -54.5 t38.5 -56.5q49 -45 49 -125l-6 -45q0 -14 11 -35q18 -38 21.5 -62t9.5 -49.5t13 -56.5q27 -115 1 -214q-13 -51 -13 -80l3 -31q0 -31 -15 -59.5t-16.5 -44.5t-1.5 -32q-2 -40 -16 -62q-2 -10 -5.5 -29.5t-6.5 -24.5t-8 -6t-11 -2q-25 -4 -33 -27q-13 -40 -31 -40q-9 0 -23 7 q-24 12 -38 8q3 -2 2 -9.5t0 -15.5q5 -22 24 -22q27 0 45 4q-13 -35 -35 -50.5t-36.5 -25t-30 -25.5t-31 -20t-38 -10.5t-32.5 -16.5t-22 -19q-50 -37 -255 -11q-30 3 -55.5 18.5t-37 20t-22.5 9t-23 9.5q-42 17 -46 29.5t-6 21.5q-5 22 -14 28q-28 4 -57 14 q-4 11 -7.5 21.5t-7.5 21.5q-13 14 -25 23.5t-21 19.5q-21 23 -24 54t-12 55.5t-19 48.5q-24 62 -24 94.5t11 60.5q-43 61 -43 187l1 62q0 17 -7.5 26.5t-7.5 27.5t6.5 39t8.5 43q-13 2 -17 10zM260 692q0 -111 12 -136t12 -42l-10 -45q0 -14 8 -22.5t15 -18t11.5 -22 t9.5 -23.5q11 -27 17 -27l14 3q20 0 30.5 -17.5t10.5 -33t8 -25t19 -17.5t22.5 -15.5t22 -19.5t18 -17t13.5 -6.5t11.5 -2.5t15.5 -8t21.5 -16.5t32.5 -24.5q34 -24 135 -24q20 0 43 16q45 29 62.5 29t31.5 -6q23 35 44 56t38 41q38 45 46 117q2 19 10.5 35.5t12 45.5t4 69 t4.5 68q6 42 6 87.5t-9.5 100.5t-16 92.5t-15 55.5t-17.5 45.5t-20 63.5t-20 65t-30 45.5t-49 28t-60.5 19t-62.5 12.5q-50 7 -94 7l-85 4q-47 0 -73.5 -21t-55.5 -43.5t-41.5 -48.5t-19.5 -31.5t-14 -10.5q-15 -14 -19 -39.5t-10.5 -54t-6.5 -58.5q0 -64 -13 -96 q-18 -44 -18 -56.5t7 -23t7 -16.5t-2.5 -6.5t-4.5 -1.5q-8 -5 -8 -30zM607 1545q0 10 13.5 26t31.5 32q37 33 70 50t51.5 27t32.5 20.5t30.5 25.5t40 35.5t31 38t19.5 26.5q25 17 54.5 17t40 -6.5t17.5 -16.5q14 -20 14 -40.5t-2.5 -34.5t-8.5 -27q-13 -33 -27.5 -42.5 t-28.5 -12.5t-29 -5q-51 -5 -121 -48q-29 -18 -49.5 -29t-25.5 -20q-10 -18 -26 -22.5t-27 -14t-21.5 -22.5t-25 -13t-23 5.5t-15.5 13.5t-11.5 17.5t-4.5 19.5z" />
</font>
</defs>
</svg>
